<svg width="64" height="64" viewBox="0 0 64 64" fill="none" xmlns="http://www.w3.org/2000/svg">
<path fill-rule="evenodd" clip-rule="evenodd" d="M5 8C2.23858 8 0 10.2386 0 13V20H0.100018C0.0344303 20.3231 0 20.6575 0 21V59C0 61.7614 2.23858 64 5 64H57C59.7614 64 62 61.7614 62 59V49.584C61.3875 49.8516 60.7111 50 60 50H42C39.2386 50 37 47.7614 37 45V35C37 32.2386 39.2386 30 42 30H60C60.7111 30 61.3875 30.1484 62 30.416V20C62 18.1362 60.7252 16.5701 59 16.126V14C59 10.6863 56.3137 8 53 8H5ZM64 35C64 32.7909 62.2091 31 60 31H42C39.7909 31 38 32.7909 38 35V45C38 47.2091 39.7909 49 42 49H60C62.2091 49 64 47.2091 64 45V35ZM50 40C50 41.6569 48.6569 43 47 43C45.3431 43 44 41.6569 44 40C44 38.3431 45.3431 37 47 37C48.6569 37 50 38.3431 50 40Z" fill="#E7EBF4"/>
<path d="M3.10522 13.5C3.10522 12.1193 4.22451 11 5.60522 11H59V16H5.60522C4.22451 16 3.10522 14.8807 3.10522 13.5Z" fill="#CFD5E4"/>
<path fill-rule="evenodd" clip-rule="evenodd" d="M45.9672 16C45.989 15.6695 46 15.336 46 15C46 6.71573 39.2843 0 31 0C22.7157 0 16 6.71573 16 15C16 15.336 16.011 15.6695 16.0328 16H45.9672Z" fill="#18DCA6"/>
<path fill-rule="evenodd" clip-rule="evenodd" d="M29.1252 8.03589C28.6814 8.03589 28.3216 8.39566 28.3216 8.83946V9.64299L26.4466 9.64299C26.0028 9.64299 25.6431 10.0028 25.6431 10.4466C25.6431 10.8904 26.0028 11.2501 26.4466 11.2501H26.7145V16H28.7299V15.7042H31.9855C32.6682 15.7042 33.2015 15.8028 33.5856 16H35.9917C35.9428 15.9187 35.889 15.8405 35.8303 15.7654C35.4789 15.3063 35.0034 14.9797 34.404 14.7858C34.8381 14.5614 35.1791 14.245 35.4272 13.8369C35.6752 13.4287 35.7993 12.9593 35.7993 12.4287C35.7993 11.5614 35.453 10.8828 34.7606 10.393C34.3335 10.0846 33.7943 9.87132 33.1431 9.75314V8.83946C33.1431 8.39566 32.7833 8.03589 32.3395 8.03589C31.8957 8.03589 31.5359 8.39566 31.5359 8.83946V9.64299H29.9288V8.83946C29.9288 8.39566 29.569 8.03589 29.1252 8.03589ZM28.7299 14.1583V11.2042H31.5824C32.2852 11.2042 32.8227 11.3318 33.1947 11.5869C33.5772 11.8318 33.7684 12.1991 33.7684 12.6889C33.7684 13.1685 33.5772 13.5358 33.1947 13.791C32.8227 14.0358 32.2852 14.1583 31.5824 14.1583H28.7299Z" fill="white"/>
</svg>
