<svg width="64" height="64" viewBox="0 0 64 64" fill="none" xmlns="http://www.w3.org/2000/svg">
<path fill-rule="evenodd" clip-rule="evenodd" d="M6 1C3.23858 1 1 3.23858 1 6V26C1 28.7614 3.23858 31 6 31H26C28.7614 31 31 28.7614 31 26V6C31 3.23858 28.7614 1 26 1H6ZM6 33C3.23858 33 1 35.2386 1 38V58C1 60.7614 3.23858 63 6 63H26C28.7614 63 31 60.7614 31 58V38C31 35.2386 28.7614 33 26 33H6ZM33 6C33 3.23858 35.2386 1 38 1H58C60.7614 1 63 3.23858 63 6V26C63 28.7614 60.7614 31 58 31H38C35.2386 31 33 28.7614 33 26V6ZM38 33C35.2386 33 33 35.2386 33 38V58C33 60.7614 35.2386 63 38 63H58C60.7614 63 63 60.7614 63 58V38C63 35.2386 60.7614 33 58 33H38Z" fill="#E7EBF4"/>
<rect x="33" y="33" width="16" height="16" rx="5" fill="#E7EBF4"/>
<path d="M17 33.3394C17 26.9783 22.1567 21.8215 28.5179 21.8215H30.6607C37.0219 21.8215 42.1786 26.9783 42.1786 33.3394C42.1786 39.7005 37.0219 44.8572 30.6607 44.8572H28.5179C22.1567 44.8572 17 39.7005 17 33.3394Z" fill="#E7EBF4"/>
<path fill-rule="evenodd" clip-rule="evenodd" d="M17.5 20C18.0095 20 18.4835 19.8476 18.8787 19.5858L21.0457 21.7528C18.5363 24.4343 17 28.0377 17 32C17 36.0895 18.6365 39.7967 21.2903 42.5025L19.1612 44.6317C18.7196 44.2387 18.1377 44 17.5 44C16.1193 44 15 45.1193 15 46.5C15 47.8807 16.1193 49 17.5 49C18.8807 49 20 47.8807 20 46.5C20 46.1217 19.916 45.763 19.7655 45.4416L22.014 43.1931C24.6661 45.5608 28.165 47 32 47C35.9623 47 39.5657 45.4637 42.2472 42.9543L44.4142 45.1213C44.1524 45.5165 44 45.9905 44 46.5C44 47.8807 45.1193 49 46.5 49C47.8807 49 49 47.8807 49 46.5C49 45.1193 47.8807 44 46.5 44C45.9905 44 45.5165 44.1524 45.1213 44.4142L42.9543 42.2472C45.4637 39.5657 47 35.9623 47 32C47 28.0823 45.4981 24.5153 43.0386 21.8436C43.5333 21.2995 44.1519 20.6349 45.1478 19.6031C45.5376 19.8543 46.0018 20 46.5 20C47.8807 20 49 18.8807 49 17.5C49 16.1193 47.8807 15 46.5 15C45.1193 15 44 16.1193 44 17.5C44 18.0209 44.1593 18.5045 44.4318 18.9049C43.4507 19.9214 42.8314 20.5859 42.3362 21.1297C39.6457 18.5706 36.0063 17 32 17C28.0377 17 24.4343 18.5363 21.7528 21.0457L19.5858 18.8787C19.8476 18.4835 20 18.0095 20 17.5C20 16.1193 18.8807 15 17.5 15C16.1193 15 15 16.1193 15 17.5C15 18.8807 16.1193 20 17.5 20Z" fill="#18DCA6"/>
<path fill-rule="evenodd" clip-rule="evenodd" d="M29.3214 25.8395C29.3214 25.3957 29.6812 25.0359 30.125 25.0359C30.5688 25.0359 30.9285 25.3957 30.9285 25.8395V26.643H32.5357V25.8395C32.5357 25.3957 32.8955 25.0359 33.3393 25.0359C33.7831 25.0359 34.1428 25.3957 34.1428 25.8395V26.7531C34.7941 26.8713 35.3332 27.0846 35.7603 27.393C36.4528 27.8828 36.799 28.5614 36.799 29.4287C36.799 29.9593 36.675 30.4287 36.4269 30.8369C36.1789 31.245 35.8378 31.5614 35.4037 31.7858C36.0032 31.9797 36.4786 32.3063 36.83 32.7654C37.1814 33.2144 37.3571 33.7756 37.3571 34.4491C37.3571 35.3777 36.9954 36.0971 36.2719 36.6073C35.7406 36.9745 35.0309 37.2068 34.1428 37.3044V38.1609C34.1428 38.6047 33.7831 38.9645 33.3393 38.9645C32.8955 38.9645 32.5357 38.6047 32.5357 38.1609V37.3573H30.9285V38.1609C30.9285 38.6047 30.5688 38.9645 30.125 38.9645C29.6812 38.9645 29.3214 38.6047 29.3214 38.1609V37.3573H28.5377L28.5178 37.3575H27.4464C27.0026 37.3575 26.6428 36.9977 26.6428 36.5539C26.6428 36.1101 27.0026 35.7504 27.4464 35.7504H27.7143V28.2501H27.4464C27.0026 28.2501 26.6428 27.8904 26.6428 27.4466C26.6428 27.0028 27.0026 26.643 27.4464 26.643L27.7143 26.643H28.5178H29.3214V25.8395ZM29.7296 28.2042V31.1583H32.5822C33.285 31.1583 33.8224 31.0358 34.1945 30.791C34.5769 30.5358 34.7681 30.1685 34.7681 29.6889C34.7681 29.1991 34.5769 28.8318 34.1945 28.5869C33.8224 28.3318 33.285 28.2042 32.5822 28.2042H29.7296ZM32.9853 35.7961C34.5459 35.7961 35.3262 35.2807 35.3262 34.2501C35.3262 33.2195 34.5459 32.7042 32.9853 32.7042H29.7296V35.7961H32.9853Z" fill="white"/>
</svg>
