<svg width="64" height="64" viewBox="0 0 64 64" fill="none" xmlns="http://www.w3.org/2000/svg">
<path fill-rule="evenodd" clip-rule="evenodd" d="M5 0C2.23858 0 0 2.23858 0 5V59C0 61.7614 2.23858 64 5 64H59C61.7614 64 64 61.7614 64 59V5C64 2.23858 61.7614 0 59 0H5ZM9 5H55C57.2091 5 59 6.79086 59 9V55C59 57.2091 57.2091 59 55 59H9C6.79086 59 5 57.2091 5 55V9C5 6.79086 6.79086 5 9 5ZM4 9C4 6.23858 6.23858 4 9 4H55C57.7614 4 60 6.23858 60 9V55C60 57.7614 57.7614 60 55 60H9C6.23858 60 4 57.7614 4 55V9Z" fill="#E7EBF4"/>
<path fill-rule="evenodd" clip-rule="evenodd" d="M30 15C30 14.4477 30.4477 14 31 14C31.5523 14 32 14.4477 32 15V48C32 48.5523 31.5523 49 31 49C30.4477 49 30 48.5523 30 48V15ZM18 19C18 18.4477 18.4477 18 19 18C19.5523 18 20 18.4477 20 19V48C20 48.5523 19.5523 49 19 49C18.4477 49 18 48.5523 18 48V19ZM44 14C43.4477 14 43 14.4477 43 15V48C43 48.5523 43.4477 49 44 49C44.5523 49 45 48.5523 45 48V15C45 14.4477 44.5523 14 44 14Z" fill="#CFD5E4"/>
<path fill-rule="evenodd" clip-rule="evenodd" d="M23 18C23 20.2091 21.2091 22 19 22C16.7909 22 15 20.2091 15 18C15 15.7909 16.7909 14 19 14C21.2091 14 23 15.7909 23 18ZM35 43C35 45.2091 33.2091 47 31 47C28.7909 47 27 45.2091 27 43C27 40.7909 28.7909 39 31 39C33.2091 39 35 40.7909 35 43ZM44 34C46.2091 34 48 32.2091 48 30C48 27.7909 46.2091 26 44 26C41.7909 26 40 27.7909 40 30C40 32.2091 41.7909 34 44 34Z" fill="#18DCA6"/>
</svg>
