<svg width="64" height="64" viewBox="0 0 64 64" fill="none" xmlns="http://www.w3.org/2000/svg">
<path fill-rule="evenodd" clip-rule="evenodd" d="M7 0C4.23858 0 2 2.23858 2 5V42.4653C2 47.6467 5.07688 52.3333 9.8311 54.3935L30.012 63.1385C31.2803 63.6881 32.7197 63.6881 33.988 63.1385L54.1689 54.3935C58.9231 52.3333 62 47.6467 62 42.4653V5C62 2.23858 59.7614 0 57 0H7ZM9 5H55C56.1046 5 57 5.89543 57 7V41.577C57 45.573 54.621 49.1854 50.9499 50.7638L32.79 58.5718C32.2857 58.7887 31.7143 58.7887 31.21 58.5718L13.0501 50.7638C9.37896 49.1854 7 45.573 7 41.577V7C7 5.89543 7.89543 5 9 5ZM6 7C6 5.34314 7.34315 4 9 4H55C56.6569 4 58 5.34315 58 7V41.577C58 45.9726 55.3831 49.9463 51.3449 51.6825L33.185 59.4905C32.4285 59.8158 31.5715 59.8158 30.815 59.4905L12.6551 51.6825C8.61686 49.9463 6 45.9726 6 41.577V7Z" fill="#E7EBF4"/>
<path fill-rule="evenodd" clip-rule="evenodd" d="M31.8 13.3125C27.1401 13.3125 23.3625 17.0901 23.3625 21.75V25.125H22.35C21.6044 25.125 21 25.7294 21 26.475V40.65C21 41.3956 21.6044 42 22.35 42H41.25C41.9956 42 42.6 41.3956 42.6 40.65V26.475C42.6 25.7294 41.9956 25.125 41.25 25.125H40.2375V21.75C40.2375 17.0901 36.46 13.3125 31.8 13.3125ZM36.8625 25.125V21.75C36.8625 18.9541 34.596 16.6875 31.8 16.6875C29.0041 16.6875 26.7375 18.9541 26.7375 21.75V25.125H36.8625Z" fill="#18DCA6"/>
<path fill-rule="evenodd" clip-rule="evenodd" d="M33.1501 34.3477C33.9482 33.9685 34.5 33.155 34.5 32.2126C34.5 30.9078 33.4423 29.8501 32.1375 29.8501C30.8327 29.8501 29.775 30.9078 29.775 32.2126C29.775 33.1551 30.3269 33.9686 31.1251 34.3478V36.2626C31.1251 36.8218 31.5784 37.2751 32.1376 37.2751C32.6968 37.2751 33.1501 36.8218 33.1501 36.2626V34.3477Z" fill="white"/>
</svg>
