<svg width="64" height="64" viewBox="0 0 64 64" fill="none" xmlns="http://www.w3.org/2000/svg">
<path d="M0 11C0 8.23858 2.23858 6 5 6H39C40.6569 6 42 4.65685 42 3C42 1.34315 43.3431 0 45 0H58C59.6569 0 61 1.34315 61 3V15C62.6569 15 64 16.3431 64 18V59C64 61.7614 61.7614 64 59 64H5C2.23858 64 0 61.7614 0 59V11Z" fill="#E7EBF4"/>
<path d="M4 12.5C4 11.1193 5.11929 10 6.5 10H61V15H6.5C5.11929 15 4 13.8807 4 12.5Z" fill="#CFD5E4"/>
<path d="M47 39C47 47.2843 40.2843 54 32 54C23.7157 54 17 47.2843 17 39C17 30.7157 23.7157 24 32 24C40.2843 24 47 30.7157 47 39Z" fill="#18DCA6"/>
<path fill-rule="evenodd" clip-rule="evenodd" d="M27.7574 34.7574C26.4179 36.0969 25.8436 37.911 26.0363 39.6611C26.0967 40.2101 25.7007 40.7041 25.1517 40.7645C24.6028 40.825 24.1087 40.4289 24.0483 39.88C23.792 37.5526 24.5564 35.1299 26.3431 33.3431C29.171 30.5153 33.5892 30.2471 36.7188 32.5385V32.1941C36.7188 31.6418 37.1665 31.1941 37.7188 31.1941C38.271 31.1941 38.7188 31.6418 38.7188 32.1941V34.8191C38.7188 35.3714 38.271 35.8191 37.7188 35.8191H35.0938C34.5415 35.8191 34.0938 35.3714 34.0938 34.8191C34.0938 34.2874 34.5086 33.8527 35.0323 33.8209C32.7335 32.4729 29.7297 32.785 27.7574 34.7574ZM29.2183 44.318C29.6937 44.2408 30.0566 43.8283 30.0566 43.3311C30.0566 42.7788 29.6089 42.3311 29.0566 42.3311H26.4316C25.8794 42.3311 25.4316 42.7788 25.4316 43.3311L25.4316 45.9561C25.4316 46.5083 25.8794 46.9561 26.4316 46.9561C26.9839 46.9561 27.4316 46.5083 27.4316 45.9561V45.569C30.551 47.7438 34.874 47.4397 37.6568 44.6569C39.4436 42.8701 40.208 40.4474 39.9517 38.12C39.8913 37.5711 39.3972 37.175 38.8483 37.2355C38.2993 37.2959 37.9033 37.7899 37.9637 38.3389C38.1564 40.089 37.5821 41.9031 36.2426 43.2426C34.3412 45.144 31.4812 45.5025 29.2183 44.318Z" fill="white"/>
<path d="M8 8H57V15H8V8Z" fill="white"/>
<path fill-rule="evenodd" clip-rule="evenodd" d="M8 9H57V10H8V9ZM8 11H57V12H8V11ZM57 13H8V14H57V13Z" fill="#E7EBF4"/>
</svg>
