<svg width="64" height="64" viewBox="0 0 64 64" fill="none" xmlns="http://www.w3.org/2000/svg">
<path fill-rule="evenodd" clip-rule="evenodd" d="M2 0C0.895431 0 0 0.895431 0 2C0 3.10457 0.89543 4 2 4H27C28.1046 4 29 3.10457 29 2C29 0.895431 28.1046 0 27 0H2ZM0 7C0 5.89543 0.895431 5 2 5H27C28.1046 5 29 5.89543 29 7C29 8.10457 28.1046 9 27 9H2C0.89543 9 0 8.10457 0 7ZM2 10C0.895431 10 0 10.8954 0 12C0 13.1046 0.89543 14 2 14H27C28.1046 14 29 13.1046 29 12C29 10.8954 28.1046 10 27 10H2ZM0 22C0 20.8954 0.895431 20 2 20H27C28.1046 20 29 20.8954 29 22C29 23.1046 28.1046 24 27 24H2C0.89543 24 0 23.1046 0 22ZM0 42C0 40.8954 0.895431 40 2 40H27C28.1046 40 29 40.8954 29 42C29 43.1046 28.1046 44 27 44H2C0.89543 44 0 43.1046 0 42ZM2 60C0.895431 60 0 60.8954 0 62C0 63.1046 0.89543 64 2 64H27C28.1046 64 29 63.1046 29 62C29 60.8954 28.1046 60 27 60H2ZM37 60C35.8954 60 35 60.8954 35 62C35 63.1046 35.8954 64 37 64H62C63.1046 64 64 63.1046 64 62C64 60.8954 63.1046 60 62 60H37ZM37 40C35.8954 40 35 40.8954 35 42C35 43.1046 35.8954 44 37 44H62C63.1046 44 64 43.1046 64 42C64 40.8954 63.1046 40 62 40H37ZM2 50C0.895431 50 0 50.8954 0 52C0 53.1046 0.89543 54 2 54H27C28.1046 54 29 53.1046 29 52C29 50.8954 28.1046 50 27 50H2ZM35 52C35 50.8954 35.8954 50 37 50H62C63.1046 50 64 50.8954 64 52C64 53.1046 63.1046 54 62 54H37C35.8954 54 35 53.1046 35 52ZM2 30C0.895431 30 0 30.8954 0 32C0 33.1046 0.89543 34 2 34H27C28.1046 34 29 33.1046 29 32C29 30.8954 28.1046 30 27 30H2ZM35 32C35 30.8954 35.8954 30 37 30H62C63.1046 30 64 30.8954 64 32C64 33.1046 63.1046 34 62 34H37C35.8954 34 35 33.1046 35 32ZM0 57C0 55.8954 0.895431 55 2 55H27C28.1046 55 29 55.8954 29 57C29 58.1046 28.1046 59 27 59H2C0.89543 59 0 58.1046 0 57ZM37 55C35.8954 55 35 55.8954 35 57C35 58.1046 35.8954 59 37 59H62C63.1046 59 64 58.1046 64 57C64 55.8954 63.1046 55 62 55H37ZM0 37C0 35.8954 0.895431 35 2 35H27C28.1046 35 29 35.8954 29 37C29 38.1046 28.1046 39 27 39H2C0.89543 39 0 38.1046 0 37ZM37 35C35.8954 35 35 35.8954 35 37C35 38.1046 35.8954 39 37 39H62C63.1046 39 64 38.1046 64 37C64 35.8954 63.1046 35 62 35H37ZM0 17C0 15.8954 0.895431 15 2 15H27C28.1046 15 29 15.8954 29 17C29 18.1046 28.1046 19 27 19H2C0.89543 19 0 18.1046 0 17ZM2 45C0.895431 45 0 45.8954 0 47C0 48.1046 0.89543 49 2 49H27C28.1046 49 29 48.1046 29 47C29 45.8954 28.1046 45 27 45H2ZM35 47C35 45.8954 35.8954 45 37 45H62C63.1046 45 64 45.8954 64 47C64 48.1046 63.1046 49 62 49H37C35.8954 49 35 48.1046 35 47ZM2 25C0.895431 25 0 25.8954 0 27C0 28.1046 0.89543 29 2 29H27C28.1046 29 29 28.1046 29 27C29 25.8954 28.1046 25 27 25H2ZM35 27C35 25.8954 35.8954 25 37 25H62C63.1046 25 64 25.8954 64 27C64 28.1046 63.1046 29 62 29H37C35.8954 29 35 28.1046 35 27ZM37 20C35.8954 20 35 20.8954 35 22C35 23.1046 35.8954 24 37 24H62C63.1046 24 64 23.1046 64 22C64 20.8954 63.1046 20 62 20H37Z" fill="#E7EBF4"/>
<path fill-rule="evenodd" clip-rule="evenodd" d="M31 59C39.2843 59 46 52.2843 46 44C46 35.7157 39.2843 29 31 29C22.7157 29 16 35.7157 16 44C16 52.2843 22.7157 59 31 59ZM19 60C17.8954 60 17 60.8954 17 62C17 63.1046 17.8954 64 19 64H44C45.1046 64 46 63.1046 46 62C46 60.8954 45.1046 60 44 60H19Z" fill="#18DCA6"/>
<path fill-rule="evenodd" clip-rule="evenodd" d="M28.3215 37.8395C28.3215 37.3957 28.6812 37.0359 29.125 37.0359C29.5688 37.0359 29.9286 37.3957 29.9286 37.8395V38.643H31.5358V37.8395C31.5358 37.3957 31.8955 37.0359 32.3393 37.0359C32.7831 37.0359 33.1429 37.3957 33.1429 37.8395V38.7531C33.7941 38.8713 34.3333 39.0846 34.7604 39.393C35.4528 39.8828 35.7991 40.5614 35.7991 41.4287C35.7991 41.9593 35.675 42.4287 35.427 42.8369C35.1789 43.245 34.8379 43.5614 34.4038 43.7858C35.0032 43.9797 35.4787 44.3063 35.8301 44.7654C36.1815 45.2144 36.3572 45.7756 36.3572 46.4491C36.3572 47.3777 35.9954 48.0971 35.272 48.6073C34.7407 48.9745 34.031 49.2068 33.1429 49.3044V50.1609C33.1429 50.6047 32.7831 50.9645 32.3393 50.9645C31.8955 50.9645 31.5358 50.6047 31.5358 50.1609V49.3573H29.9286V50.1609C29.9286 50.6047 29.5688 50.9645 29.125 50.9645C28.6812 50.9645 28.3215 50.6047 28.3215 50.1609V49.3573H27.5377L27.5179 49.3575H26.4465C26.0027 49.3575 25.6429 48.9977 25.6429 48.5539C25.6429 48.1101 26.0027 47.7504 26.4465 47.7504H26.7143V40.2501H26.4465C26.0027 40.2501 25.6429 39.8904 25.6429 39.4466C25.6429 39.0028 26.0027 38.643 26.4465 38.643L26.7143 38.643H27.5179H28.3215V37.8395ZM28.7297 40.2042V43.1583H31.5823C32.2851 43.1583 32.8225 43.0358 33.1946 42.791C33.577 42.5358 33.7682 42.1685 33.7682 41.6889C33.7682 41.1991 33.577 40.8318 33.1946 40.5869C32.8225 40.3318 32.2851 40.2042 31.5823 40.2042H28.7297ZM31.9853 47.7961C33.546 47.7961 34.3263 47.2807 34.3263 46.2501C34.3263 45.2195 33.546 44.7042 31.9853 44.7042H28.7297V47.7961H31.9853Z" fill="white"/>
</svg>
