<svg width="40" height="40" viewBox="0 0 40 40" fill="none" xmlns="http://www.w3.org/2000/svg">
<path d="M19.9733 28.025C24.3 28.025 27.8167 24.5067 27.8167 20.18C27.8167 17.8317 26.7783 15.7233 25.14 14.2833C24.5633 13.7783 23.915 13.3567 23.21 13.0367C22.2217 12.5867 21.1283 12.335 19.975 12.335C18.8217 12.335 17.7267 12.5867 16.74 13.0367C16.0333 13.36 15.3833 13.7817 14.81 14.285C13.1683 15.725 12.13 17.8333 12.13 20.1817C12.13 24.5067 15.65 28.025 19.9733 28.025ZM20 14.385C23.2017 14.385 25.7983 16.98 25.7983 20.1817C25.7983 23.3833 23.2017 25.98 20 25.98C16.7983 25.98 14.2017 23.385 14.2017 20.1817C14.2017 16.98 16.7983 14.385 20 14.385ZM28.705 15H40V32.13C40 36.4767 36.4767 40 32.13 40H7.975C3.62833 40 0 36.4767 0 32.13V15H11.245C10.3383 16.5217 9.79167 18.2817 9.79167 20.1817C9.79167 25.805 14.35 30.3633 19.9733 30.3633C25.5967 30.3633 30.155 25.805 30.155 20.1817C30.1567 18.2817 29.61 16.5217 28.705 15ZM32.13 0H11.6667V8.33333H10V0H8.33333V8.33333H6.66667V0.128333C6.09 0.223333 5.53 0.366667 5 0.578333V8.33333H3.33333V1.49667C1.33 2.925 0 5.24 0 7.87V13.3333H12.455C14.4 11.1967 17.1183 10 19.9733 10C22.8433 10 25.5583 11.2083 27.4917 13.3333H40V7.87C40 3.52333 36.4767 0 32.13 0V0ZM36.6667 8.775C36.6667 9.45167 36.1117 10 35.425 10H31.24C30.555 10 30 9.45167 30 8.775V4.55833C30 3.88167 30.555 3.33333 31.24 3.33333H35.425C36.1117 3.33333 36.6667 3.88167 36.6667 4.55833V8.775Z" fill="#18DCA6"/>
</svg>
