<svg width="24" height="24" viewBox="0 0 24 24" fill="none" xmlns="http://www.w3.org/2000/svg">
<path d="M23 5.13095C22.1906 5.49272 21.3207 5.73636 20.4077 5.84619C21.3399 5.28415 22.0558 4.39356 22.3923 3.33224C21.5205 3.85275 20.5543 4.23113 19.5258 4.43509C18.7036 3.55189 17.5293 3 16.2313 3C13.3172 3 11.1759 5.73728 11.8341 8.57886C8.084 8.38966 4.75833 6.5808 2.53175 3.83152C1.34925 5.87387 1.9185 8.54563 3.92783 9.89858C3.189 9.87459 2.49233 9.67063 1.88458 9.33009C1.83508 11.4352 3.33383 13.4046 5.5045 13.843C4.86925 14.0165 4.1735 14.0571 3.46583 13.9205C4.03967 15.7257 5.70617 17.039 7.6825 17.0759C5.785 18.5737 3.39433 19.2428 1 18.9586C2.99742 20.2478 5.37067 21 7.919 21C16.2992 21 21.0338 13.8744 20.7477 7.48339C21.6296 6.84198 22.395 6.04184 23 5.13095Z" fill="#67AAEB"/>
</svg>
