<svg width="40" height="40" viewBox="0 0 40 40" fill="none" xmlns="http://www.w3.org/2000/svg">
<path fill-rule="evenodd" clip-rule="evenodd" d="M4.74333 11.4783C4.79333 10.9867 4.605 10.5017 4.23833 10.1717L0.505 5.67167V5H12.1017L21.065 24.6583L28.945 5H40V5.67167L36.8067 8.73333C36.5317 8.94333 36.395 9.28833 36.4517 9.63V32.1267C36.395 32.4667 36.5317 32.8117 36.8067 33.0217L39.925 36.0833V36.755H24.2383V36.0833L27.47 32.9467C27.7867 32.63 27.7867 32.5367 27.7867 32.0517V13.8683L18.805 36.6817H17.5917L7.13333 13.8683V29.1583C7.04667 29.8 7.26 30.4483 7.71167 30.9117L11.9133 36.0083V36.6817H0V36.0083L4.20167 30.9117C4.65167 30.4467 4.85167 29.795 4.74333 29.1583V11.4783Z" fill="#18DCA6"/>
</svg>
