<svg width="12" height="12" viewBox="0 0 12 12" fill="none" xmlns="http://www.w3.org/2000/svg">
<path fill-rule="evenodd" clip-rule="evenodd" d="M10 6C10 8.20914 8.20914 10 6 10C3.79086 10 2 8.20914 2 6C2 3.79086 3.79086 2 6 2C8.20914 2 10 3.79086 10 6ZM11 6C11 8.76142 8.76142 11 6 11C3.23858 11 1 8.76142 1 6C1 3.23858 3.23858 1 6 1C8.76142 1 11 3.23858 11 6ZM5.90682 6.02603C5.81482 6.16203 5.76882 6.33403 5.76882 6.54203H6.67482C6.67482 6.41403 6.70882 6.30603 6.77682 6.21803C6.84482 6.12603 6.95282 6.01403 7.10082 5.88203C7.22482 5.77003 7.32482 5.67203 7.40082 5.58803C7.48082 5.50003 7.54682 5.39403 7.59882 5.27003C7.65482 5.14603 7.68282 5.00203 7.68282 4.83803C7.68282 4.49003 7.54282 4.21803 7.26282 4.02203C6.98682 3.82603 6.61882 3.72803 6.15882 3.72803C5.76682 3.72803 5.42682 3.79803 5.13882 3.93803C4.85482 4.07803 4.62882 4.27603 4.46082 4.53203L5.18682 4.95803C5.28682 4.81803 5.40882 4.71003 5.55282 4.63403C5.70082 4.55403 5.86882 4.51403 6.05682 4.51403C6.25282 4.51403 6.40882 4.55803 6.52482 4.64603C6.64482 4.73003 6.70482 4.84603 6.70482 4.99403C6.70482 5.09803 6.67282 5.19203 6.60882 5.27603C6.54882 5.35603 6.45282 5.45603 6.32082 5.57603C6.14082 5.74003 6.00282 5.89003 5.90682 6.02603ZM5.81082 7.89203C5.92282 7.99603 6.06082 8.04803 6.22482 8.04803C6.38882 8.04803 6.52482 7.99603 6.63282 7.89203C6.74482 7.78403 6.80082 7.65403 6.80082 7.50203C6.80082 7.35003 6.74682 7.22403 6.63882 7.12403C6.53082 7.02003 6.39282 6.96803 6.22482 6.96803C6.05682 6.96803 5.91882 7.02003 5.81082 7.12403C5.70282 7.22403 5.64882 7.35003 5.64882 7.50203C5.64882 7.65403 5.70282 7.78403 5.81082 7.89203Z" fill="#18DCA6"/>
</svg>
