<svg version="1.1" class="highcharts-root" style="font-family:&quot;Lucida Grande&quot;, &quot;Lucida Sans Unicode&quot;, Arial, Helvetica, sans-serif;font-size:12px;" xmlns="http://www.w3.org/2000/svg" width="32" height="24" viewBox="0 0 32 24"><desc>Created with Highcharts 8.2.2</desc><defs><clipPath id="highcharts-85dzsom-2380-"><rect x="0" y="0" width="32" height="24" fill="none"/></clipPath><clipPath id="highcharts-85dzsom-2656-"><rect x="-99" y="0" width="352" height="24" fill="none"/></clipPath><clipPath id="highcharts-85dzsom-2657-"><rect x="0" y="0" width="253" height="24" fill="none"/></clipPath></defs><rect fill="none" class="highcharts-background" x="0" y="0" width="32" height="24" rx="0" ry="0"/><rect fill="none" class="highcharts-plot-background" x="0" y="0" width="32" height="24"/><rect fill="none" class="highcharts-plot-border" data-z-index="1" x="0" y="0" width="32" height="24"/><g class="highcharts-series-group" data-z-index="3"><g class="highcharts-series highcharts-series-0 highcharts-spline-series" data-z-index="0.1" opacity="1" transform="translate(0,0) scale(1 1)" clip-path="url(#highcharts-85dzsom-2380-)"><path fill="none" d="M 0.001946235251186 20.70684970831582 C 0.001946235251186 20.70684970831582 0.0720107042938844 20.70684970831582 0.11872035032235 20.70684970831582 C 0.16542999635081 20.70684970831582 0.18878481936504 20.82987994299599 0.2354944653935 20.82987994299599 C 0.28220411142196394 20.82987994299599 0.305558934436196 20.10350943744425 0.35226858046466 19.712765412100023 C 0.398978226493124 19.322021386755793 0.42233304950735595 18.87615981627485 0.46904269553582 18.87615981627485 C 0.5157523415642841 18.87615981627485 0.5391071645785159 19.50262977126629 0.58581681060698 19.828413832699386 C 0.6325264566354439 20.154197894132484 0.655881279649676 20.505080123440337 0.70259092567814 20.505080123440337 C 0.7493005717066039 20.505080123440337 0.772655394720836 20.424864410428864 0.8193650407493 20.347601423049714 C 0.866074686777764 20.270338435670567 0.8894295097919962 20.19701241580119 0.93613915582046 20.118765186544593 C 0.9828488018489161 20.04051795728801 1.006203624863144 19.956365276766768 1.0529132708916 19.956365276766768 C 1.09962291692008 19.956365276766768 1.1229777399343202 20.88155264156166 1.1696873859628 20.88155264156166 C 1.21639703199124 20.88155264156166 1.23975185500546 20.74129817402627 1.2864615010339 20.719152731783836 C 1.3331711470623802 20.697007289541403 1.3565259700766201 20.719152731783836 1.4032356161051 20.697007289541403 C 1.44994526213358 20.67486184729897 1.47330008514782 20.512461937521145 1.5200097311763 20.512461937521145 C 1.5667193772047399 20.512461937521145 1.5900742002189598 20.543465556660625 1.6367838462474 20.726534545864645 C 1.6834934922758797 20.909603535068822 1.7068483152901202 20.99129561089619 1.7535579613186 21.42780688354163 C 1.80026760734704 21.864318156186695 1.8236224303612603 22.90909090909091 1.8703320763897 22.90909090909091 C 1.9170417224181802 22.90909090909091 1.9403965454324201 22.90909090909091 1.9871061914609 22.739309185232273 C 2.03381583748938 22.569527461373635 2.05717066050362 22.055261080410514 2.1038803065321 22.01835201000646 C 2.15058995256054 21.981442939602406 2.1739447755747596 22.01835201000646 2.2206544216032 21.981442939602406 C 2.26736406763168 21.944533869198352 2.29071889064592 21.742764284322874 2.3374285366744 21.742764284322874 C 2.38413818270284 21.742764284322874 2.40749300571706 21.974061125521644 2.4542026517455 22.07494591795934 C 2.50091229777398 22.175830710397126 2.5242671207882195 22.24718824651158 2.5709767668167 22.24718824651158 C 2.61768641284514 22.24718824651158 2.64104123585936 21.984395665234548 2.6877508818878 21.55575832760901 C 2.73446052791628 21.127120989983105 2.75781535093052 20.104001558382972 2.804524996959 20.104001558382972 C 2.8512346429874804 20.104001558382972 2.87458946600172 20.219649978982336 2.9212991120302 20.219649978982336 C 2.96800875805864 20.219649978982336 2.99136358107286 18.573505438961625 3.0380732271013 18.573505438961625 C 3.0847828731297797 18.573505438961625 3.10813769614402 18.854014374032314 3.1548473421725 19.10499605277997 C 3.2015569882009403 19.355977731527418 3.22491181121516 19.828413832699386 3.2716214572436 19.828413832699386 C 3.3183311032720795 19.828413832699386 3.3416859262863197 19.597116991500663 3.3883955723148 19.378123173769954 C 3.43510521834328 19.159129356039244 3.45846004135752 18.733444744045848 3.505169687386 18.733444744045848 C 3.5518793334144396 18.733444744045848 3.5752341564286594 19.33383228928509 3.6219438024571 19.33383228928509 C 3.6686534484855797 19.33383228928509 3.6920082714998204 19.139444518490418 3.7387179175283 19.139444518490418 C 3.78542756355674 19.139444518490418 3.8087823865709596 19.91699560166911 3.8554920325994 19.91699560166911 C 3.90220167862788 19.91699560166911 3.92555650164212 18.416026738571006 3.9722661476706 18.416026738571006 C 4.01897579369908 18.416026738571006 4.04233061671332 18.458349139300942 4.0890402627418 18.546438787331986 C 4.135749908770239 18.634528435362952 4.15910473178446 18.85647497872602 4.2058143778129 18.85647497872602 C 4.25252402384138 18.85647497872602 4.275878846855621 18.829408327096445 4.3225884928841 18.681772045480177 C 4.36929813891254 18.534135763864032 4.39265296192676 18.118293570644987 4.4393626079552 18.118293570644987 C 4.48607225398368 18.118293570644987 4.509427076997921 18.25608743348678 4.5561367230264 18.25608743348678 C 4.60284636905488 18.25608743348678 4.62620119206912 18.151265673539346 4.6729108380976 17.99280273127121 C 4.71962048412604 17.83433978900322 4.74297530714026 17.576960538052223 4.7896849531687 17.463772722146466 C 4.83639459919718 17.35058490624071 4.8597494222114195 17.35058490624071 4.9064590682399 17.35058490624071 C 4.953168714268339 17.35058490624071 4.97652353728256 17.35058490624071 5.023233183311 17.35058490624071 C 5.06994282933948 17.35058490624071 5.09329765235372 17.35058490624071 5.1400072983822 17.35058490624071 C 5.186716944410679 17.35058490624071 5.210071767424919 17.065154761782708 5.2567814134534 17.03070629607226 C 5.30349105948184 16.996257830361813 5.326845882496061 16.99871843505542 5.3735555285245 16.996257830361813 C 5.420265174552981 16.993797225668207 5.44361999756722 16.993797225668207 5.4903296435957 16.993797225668207 C 5.53703928962414 16.993797225668207 5.5603941126383605 16.993797225668207 5.6071037586668 16.993797225668207 C 5.65381340469528 16.993797225668207 5.67716822770952 16.996257830361813 5.723877873738 16.996257830361813 C 5.77058751976644 16.996257830361813 5.79394234278066 16.996257830361813 5.8406519888091 16.996257830361813 C 5.88736163483758 16.996257830361813 5.910716457851819 16.993797225668207 5.9574261038803 16.993797225668207 C 6.004135749908779 16.993797225668207 6.0274905729230195 16.996257830361813 6.0742002189515 16.996257830361813 C 6.12090986497994 16.996257830361813 6.14426468799416 16.996257830361813 6.1909743340226 16.996257830361813 C 6.237683980051079 16.996257830361813 6.26103880306532 16.996257830361813 6.3077484490938 16.996257830361813 C 6.35445809512224 16.996257830361813 6.377812918136461 16.993797225668207 6.4245225641649 16.993797225668207 C 6.471232210193381 16.993797225668207 6.49458703320762 16.993797225668207 6.5412966792361 16.993797225668207 C 6.58800632526458 16.993797225668207 6.61136114827882 16.993797225668207 6.6580707943073 16.993797225668207 C 6.704780440335741 16.993797225668207 6.72813526334996 16.996257830361813 6.7748449093784 16.996257830361813 C 6.8215545554068795 16.996257830361813 6.84490937842112 16.996257830361813 6.8916190244496 16.996257830361813 C 6.9383286704780405 16.996257830361813 6.961683493492259 16.996257830361813 7.0083931395207 16.996257830361813 C 7.055102785549179 16.996257830361813 7.07845760856342 16.996257830361813 7.1251672545919 16.996257830361813 C 7.17187690062038 16.996257830361813 7.19523172363462 16.992812983790767 7.2419413696631 16.991336620974604 C 7.288651015691539 16.989860258158444 7.31200583870576 16.988876016281 7.3587154847342 16.988876016281 C 7.40542513076268 16.988876016281 7.428779953776919 16.991336620974604 7.4754895998054 16.991336620974604 C 7.522199245833841 16.991336620974604 7.54555406884806 16.991336620974604 7.5922637148765 16.991336620974604 C 7.63897336090498 16.991336620974604 7.66232818391922 16.971159662487057 7.7090378299477 16.96426996934497 C 7.755747475976181 16.957380276202876 7.779102298990421 16.956888155264156 7.8258119450189 16.956888155264156 C 7.872521591047341 16.956888155264156 7.89587641406156 16.956888155264156 7.94258606009 16.956888155264156 C 7.98929570611848 16.956888155264156 8.012650529132719 16.956888155264156 8.0593601751612 16.956888155264156 C 8.106069821189639 16.956888155264156 8.12942464420386 16.956888155264156 8.1761342902323 16.956888155264156 C 8.22284393626078 16.956888155264156 8.246198759275021 16.956888155264156 8.2929084053035 16.956888155264156 C 8.339618051331978 16.956888155264156 8.36297287434622 16.956888155264156 8.4096825203747 16.956888155264156 C 8.45639216640314 16.956888155264156 8.479746989417361 16.956888155264156 8.5264566354458 16.956888155264156 C 8.57316628147428 16.956888155264156 8.59652110448852 16.956888155264156 8.643230750517 16.956888155264156 C 8.689940396545442 16.956888155264156 8.71329521955966 16.956888155264156 8.7600048655881 16.956888155264156 C 8.80671451161658 16.956888155264156 8.830069334630819 16.956888155264156 8.8767789806593 16.956888155264156 C 8.923488626687739 16.956888155264156 8.94684344970196 16.956888155264156 8.9935530957304 16.956888155264156 C 9.04026274175888 16.956888155264156 9.06361756477312 16.956888155264156 9.1103272108016 16.956888155264156 C 9.15703685683008 16.956888155264156 9.18039167984432 16.956888155264156 9.2271013258728 16.956888155264156 C 9.27381097190124 16.956888155264156 9.297165794915461 16.956888155264156 9.3438754409439 16.956888155264156 C 9.390585086972381 16.956888155264156 9.41393990998662 16.956888155264156 9.4606495560151 16.956888155264156 C 9.50735920204354 16.956888155264156 9.530714025057758 16.956888155264156 9.5774236710862 16.956888155264156 C 9.62413331711468 16.956888155264156 9.64748814012892 16.956888155264156 9.6941977861574 16.956888155264156 C 9.74090743218588 16.956888155264156 9.76426225520012 16.956888155264156 9.8109719012286 16.956888155264156 C 9.857681547257041 16.956888155264156 9.88103637027126 16.956888155264156 9.9277460162997 16.956888155264156 C 9.97445566232822 16.956888155264156 9.99781048534248 16.956888155264156 10.044520131371 16.956888155264156 C 10.0912297773994 16.956888155264156 10.1145846004136 16.956888155264156 10.161294246442 16.956888155264156 C 10.208003892470401 16.956888155264156 10.2313587154846 16.956888155264156 10.278068361513 16.956888155264156 C 10.3247780075414 16.956888155264156 10.348132830555599 16.956888155264156 10.394842476584 16.956888155264156 C 10.4415521226128 16.956888155264156 10.4649069456272 16.956888155264156 10.511616591656 16.956888155264156 C 10.558326237684401 16.956888155264156 10.5816810606986 16.956888155264156 10.628390706727 16.956888155264156 C 10.675100352755399 16.956888155264156 10.698455175769599 16.956888155264156 10.745164821798 16.956888155264156 C 10.7918744678264 16.956888155264156 10.8152292908406 16.956888155264156 10.861938936869 16.956888155264156 C 10.9086485828974 16.956888155264156 10.932003405911601 16.956888155264156 10.97871305194 16.956888155264156 C 11.0254226979684 16.956888155264156 11.0487775209826 16.956888155264156 11.095487167011 16.956888155264156 C 11.1421968130394 16.956888155264156 11.165551636053602 16.956888155264156 11.212261282082 16.956888155264156 C 11.258970928110802 16.956888155264156 11.2823257511252 16.956888155264156 11.329035397154 16.956888155264156 C 11.3757450431824 16.956888155264156 11.399099866196602 16.956888155264156 11.445809512225 16.956888155264156 C 11.492519158253401 16.956888155264156 11.5158739812676 16.956888155264156 11.562583627296 16.956888155264156 C 11.6092932733244 16.956888155264156 11.632648096338599 16.956888155264156 11.679357742367 16.956888155264156 C 11.726067388395398 16.956888155264156 11.7494222114096 16.956888155264156 11.796131857438 16.956888155264156 C 11.8428415034664 16.956888155264156 11.8661963264806 16.956888155264156 11.912905972509 16.956888155264156 C 11.9596156185378 16.956888155264156 11.982970441552201 16.956888155264156 12.029680087581 16.956888155264156 C 12.0763897336094 16.956888155264156 12.0997445566236 16.956888155264156 12.146454202652 16.956888155264156 C 12.193163848680399 16.956888155264156 12.216518671694601 16.956888155264156 12.263228317723 16.956888155264156 C 12.3099379637514 16.956888155264156 12.3332927867656 16.956888155264156 12.380002432794 16.956888155264156 C 12.426712078822401 16.956888155264156 12.450066901836601 16.956888155264156 12.496776547865 16.956888155264156 C 12.5434861938934 16.956888155264156 12.566841016907599 17.0321826588887 12.613550662936 17.097142622799552 C 12.6602603089648 17.16210258671096 12.6836151319792 17.28168797481981 12.730324778008 17.28168797481981 C 12.777034424036401 17.28168797481981 12.8003892470506 16.86584578160083 12.847098893079 16.86584578160083 C 12.8938085391074 16.86584578160083 12.917163362121599 17.119288065041985 12.96387300815 17.119288065041985 C 13.010582654178398 17.119288065041985 13.0339374771926 17.050391133621087 13.080647123221 17.050391133621087 C 13.127356769249399 17.050391133621087 13.1507115922636 17.20098014086962 13.197421238292 17.254621323190175 C 13.244130884320402 17.30826250551073 13.2674857073346 17.254621323190175 13.314195353363 17.318597045223864 C 13.3609049993914 17.382572767257553 13.384259822405602 17.759045285378882 13.430969468434 17.759045285378882 C 13.477679114462799 17.759045285378882 13.5010339374772 17.759045285378882 13.547743583506 17.348124301547106 C 13.5944532295344 16.93720331771533 13.6178080525486 15.500210176650912 13.664517698577 15.244307288516152 C 13.711227344605401 14.988404400381393 13.734582167619601 15.079938894983439 13.781291813648 14.988404400381393 C 13.8280014596764 14.896869905779344 13.851356282690599 14.988404400381393 13.898065928719 14.786634815505911 C 13.9447755747474 14.58486523063043 13.968130397761598 13.865876539159506 14.01484004379 13.381629535458337 C 14.061549689818401 12.897382531757188 14.0849045128326 12.365399797000114 14.131614158861 12.365399797000114 C 14.1783238048898 12.365399797000114 14.201678627904197 13.423459815249597 14.248388273933 13.423459815249597 C 14.295097919961398 13.423459815249597 14.3184527429756 13.071593344064313 14.365162389004 12.581933010037217 C 14.411872035032399 12.092272676010138 14.4352268580466 10.975158145114163 14.481936504075 10.975158145114163 C 14.528646150103402 10.975158145114163 14.5520009731176 12.218747757261331 14.598710619146 13.044526692434665 C 14.6454202651744 13.87030562760797 14.668775088188601 15.104052820980755 14.715484734217 15.104052820980755 C 14.762194380245399 15.104052820980755 14.7855492032596 15.104052820980755 14.832258849288 14.813701467135548 C 14.878968495316801 14.523350113290341 14.902323318331202 13.967253452538946 14.94903296436 13.265981114858976 C 14.995742610388401 12.564708777184979 15.019097433402601 11.307339778750627 15.065807079431 11.307339778750627 C 15.1125167254594 11.307339778750627 15.135871548473599 11.656745645242317 15.182581194502 11.656745645242317 C 15.2292908405304 11.656745645242317 15.252645663544598 10.921024841854885 15.299355309573 10.75370372268985 C 15.3460649556014 10.586382603524816 15.3694197786156 10.586382603524816 15.416129424644 10.586382603524816 C 15.462839070672402 10.586382603524816 15.4861938936866 10.586382603524816 15.532903539715 11.080964146939111 C 15.579613185743801 11.575545690353406 15.6029680087582 13.68920512215877 15.649677654787 13.68920512215877 C 15.696387300815399 13.68920512215877 15.7197421238296 12.140008407066027 15.766451769858 11.62229717953187 C 15.813161415886402 11.104585951997695 15.8365162389006 11.100648984487938 15.883225884929 11.100648984487938 C 15.9299355309574 11.100648984487938 15.953290353971601 11.162164101828024 16 11.162164101828024 C 16.046709646028397 11.162164101828024 16.0700644690426 10.16807980561223 16.116774115071 10.16807980561223 C 16.1634837610994 10.16807980561223 16.186838584113598 11.880660672360234 16.233548230142 11.880660672360234 C 16.280257876170403 11.880660672360234 16.3036126991846 11.543557829336558 16.350322345213 11.543557829336558 C 16.3970319912418 11.543557829336558 16.420386814256197 13.000235807949803 16.467096460285 13.000235807949803 C 16.5138061063134 13.000235807949803 16.537160929327598 12.845217712252786 16.583870575356 12.845217712252786 C 16.6305802213844 12.845217712252786 16.6539350443986 13.3831058982745 16.700644690427 13.595702143801839 C 16.747354336455402 13.80829838932918 16.7707091594696 13.908198939889477 16.817418805498 13.908198939889477 C 16.8641284515264 13.908198939889477 16.8874832745406 13.503183407322348 16.934192920569 13.305350789956632 C 16.9809025665974 13.107518172590916 17.0042573896116 12.91903585306089 17.05096703564 12.91903585306089 C 17.097676681668798 12.91903585306089 17.1210315046832 14.139495781088202 17.167741150712 14.139495781088202 C 17.2144507967404 14.139495781088202 17.237805619754603 14.080441268441719 17.284515265783 14.080441268441719 C 17.331224911811397 14.080441268441719 17.3545797348256 14.4224653208526 17.401289380854 14.589786440017635 C 17.4479990268824 14.757107559182668 17.471353849896598 14.828465095297172 17.518063495925 14.917046864266894 C 17.564773141953403 15.005628633236622 17.5881279649676 14.917046864266894 17.634837610996 15.032695284866255 C 17.681547257024402 15.148343705465617 17.7049020800386 16.223627956570333 17.751611726067 16.48199144939869 C 17.798321372095803 16.74035494222705 17.8216761951102 16.67145801080586 17.868385841139 16.74035494222705 C 17.9150954871674 16.80925187364765 17.9384503101816 16.826476106503172 17.98515995621 16.826476106503172 C 18.0318696022384 16.826476106503172 18.0552244252526 16.826476106503172 18.101934071281 16.742815546920657 C 18.1486437173094 16.65915498733814 18.1719985403236 16.03170079046926 18.218708186352 16.03170079046926 C 18.2654178323804 16.03170079046926 18.2887726553946 16.363882424105725 18.335482301423 16.363882424105725 C 18.3821919474514 16.363882424105725 18.405546770465598 16.184258281472673 18.452256416494 16.184258281472673 C 18.4989660625228 16.184258281472673 18.522320885537198 16.56811261367481 18.569030531566 16.56811261367481 C 18.615740177594397 16.56811261367481 18.6390950006086 16.528742938577153 18.685804646637 16.467227821237067 C 18.7325142926654 16.40571270389698 18.755869115679598 16.467227821237067 18.802578761708 16.26053702697438 C 18.849288407736402 16.05384623271169 18.8726432307506 15.39194357013236 18.919352876779 15.39194357013236 C 18.966062522807402 15.39194357013236 18.9894173458216 15.446076873391636 19.03612699185 15.446076873391636 C 19.0828366378784 15.446076873391636 19.1061914608926 15.177870961788859 19.152901106921 15.101592216287152 C 19.1996107529494 15.025313470785445 19.2229655759636 15.025313470785445 19.269675221992 15.025313470785445 C 19.316384868020798 15.025313470785445 19.3397396910352 15.120784932896793 19.386449337064 15.229543660354532 C 19.4331589830924 15.338302387811336 19.4565138061066 15.569107108071808 19.503223452135 15.569107108071808 C 19.5499330981634 15.569107108071808 19.5732879211776 15.509068353547883 19.619997567206 15.465761710940463 C 19.6667072132344 15.422455068333043 19.690062036248598 15.45985625967581 19.736771682277 15.352573895034704 C 19.783481328305403 15.245291530393589 19.8068361513196 14.92934988773491 19.853545797348 14.92934988773491 C 19.900255443376402 14.92934988773491 19.923610266390604 15.029250438295588 19.970319912419 15.116355844448774 C 20.0170295584478 15.203461250602711 20.0403843814622 15.229051539415238 20.087094027491 15.364876918502722 C 20.133803673519402 15.500702297589058 20.1571584965336 15.795482739883326 20.203868142562 15.795482739883326 C 20.2505777885904 15.795482739883326 20.2739326116046 15.735443985359401 20.320642257633 15.652767667654327 C 20.3673519036614 15.570091349949251 20.3907067266756 15.478556855347202 20.437416372704 15.382101151357947 C 20.4841260187324 15.285645447368692 20.5074808417466 15.265960609819864 20.554190487775 15.17048914770805 C 20.6009001338034 15.075017685596237 20.6242549568176 15.044998308333668 20.670964602846 14.904743840798877 C 20.7176742488748 14.764489373262872 20.741029071889198 14.586833714385817 20.787738717918 14.469216810031066 C 20.8344483639464 14.351599905677325 20.8578031869606 14.316659319027652 20.904512832989 14.316659319027652 C 20.9512224790174 14.316659319027652 20.974577302031598 14.316659319027652 21.02128694806 14.343725970657289 C 21.067996594088402 14.370792622286926 21.0913514171026 15.145883100772014 21.138061063131 15.145883100772014 C 21.1847707091594 15.145883100772014 21.208125532173604 14.520889508596737 21.254835178202 14.4938228569671 C 21.301544824230398 14.466756205337463 21.3248996472446 14.466756205337463 21.371609293273 14.466756205337463 C 21.4183189393014 14.466756205337463 21.4416737623156 14.903267477983864 21.488383408344 15.17048914770805 C 21.5350930543728 15.437710817434533 21.558447877387202 15.587807703742278 21.605157523416 15.802864553964136 C 21.6518671694444 16.01792140418416 21.675221992458596 16.07549955401539 21.721931638487 16.24577339881276 C 21.7686412845154 16.416047243610112 21.7919961075296 16.622245916934087 21.838705753558 16.65423377795093 C 21.8854153995864 16.686221638967776 21.9087702226006 16.686221638967776 21.955479868629 16.686221638967776 C 22.0021895146574 16.686221638967776 22.0255443376716 16.400791494509775 22.0722539837 16.400791494509775 C 22.118963629728405 16.400791494509775 22.1423184527426 17.092221413412346 22.189028098771 17.092221413412346 C 22.2357377447998 17.092221413412346 22.2590925678142 16.307288516152845 22.305802213843 16.307288516152845 C 22.352511859871402 16.307288516152845 22.3758666828856 16.570573218368413 22.422576328914 16.570573218368413 C 22.4692859749424 16.570573218368413 22.492640797956604 16.570573218368413 22.539350443985 16.37618544757374 C 22.586060090013397 16.181797676779066 22.6094149130276 16.173923741759538 22.656124559056 15.355034499728308 C 22.7028342050844 14.536145257697079 22.7261890280986 12.281739237417595 22.772898674127 12.281739237417595 C 22.819608320155403 12.281739237417595 22.842963143169598 13.054369111209079 22.889672789198 13.054369111209079 C 22.936382435226797 13.054369111209079 22.959737258241198 11.782236484616092 23.00644690427 11.639521412387094 C 23.0531565502984 11.496806340158095 23.0765113733126 11.496806340158095 23.123221019341 11.496806340158095 C 23.1699306653694 11.496806340158095 23.1932854883836 11.757138316741347 23.239995134412 11.984006069491578 C 23.2867047804404 12.210873822241824 23.3100596034546 12.276818028030403 23.356769249483 12.631145103909287 C 23.403478895511405 12.985472179788196 23.4268337185256 13.755641448886063 23.473543364554 13.755641448886063 C 23.5202530105824 13.755641448886063 23.5436078335966 12.483508822293079 23.590317479625 12.483508822293079 C 23.6370271256538 12.483508822293079 23.6603819486682 12.618842080441269 23.707091594697 12.618842080441269 C 23.7538012407254 12.618842080441269 23.777156063739604 11.740406204824836 23.823865709768 11.740406204824836 C 23.870575355796397 11.740406204824836 23.8939301788106 13.40377497770077 23.940639824839 13.40377497770077 C 23.9873494708674 13.40377497770077 24.0107042938816 12.530260311471547 24.05741393991 12.522878497390735 C 24.104123585938403 12.515496683309923 24.127478408952598 12.515496683309923 24.174188054981 12.515496683309923 C 24.2208977010094 12.515496683309923 24.2442525240236 12.781241990219096 24.290962170052 12.781241990219096 C 24.3376718160804 12.781241990219096 24.361026639094597 11.558321457498181 24.407736285123 11.558321457498181 C 24.4544459311518 11.558321457498181 24.4778007541662 11.848180690404162 24.524510400195 11.966781836636352 C 24.5712200462234 12.085382982867534 24.5945748692376 12.006151511734014 24.641284515266 12.151327188656612 C 24.687994161294405 12.296502865579223 24.7113489843086 12.692660221249373 24.758058630337 12.692660221249373 C 24.8047682763654 12.692660221249373 24.8281230993796 12.407230076791372 24.874832745408 12.407230076791372 C 24.9215423914364 12.407230076791372 24.9448972144506 12.418548858381948 24.991606860479 12.488430031680286 C 25.0383165065074 12.558311204978624 25.061671329521594 12.488430031680286 25.10838097555 12.756635943283062 C 25.155090621578797 13.024841854885837 25.1784454445932 13.765483867660476 25.225155090622 14.058295826199288 C 25.2718647366504 14.3511077847381 25.2952195596646 14.3511077847381 25.341929205693 14.3511077847381 C 25.388638851721403 14.3511077847381 25.411993674735598 12.992853993868993 25.458703320764 12.992853993868993 C 25.5054129667924 12.992853993868993 25.5287677898066 13.416078001168787 25.575477435835 13.416078001168787 C 25.622187081863398 13.416078001168787 25.645541904877597 13.165096322421235 25.692251550906 13.165096322421235 C 25.7389611969344 13.165096322421235 25.7623160199486 13.165096322421235 25.809025665977 13.184781159970063 C 25.855735312005798 13.204465997518891 25.879090135020203 13.184781159970063 25.925799781049 13.295508371182217 C 25.972509427077405 13.406235582394372 25.995864250091596 14.13211396700738 26.04257389612 14.45199257717584 C 26.0892835421484 14.771871187344278 26.1126383651626 14.894901422024462 26.159348011191 14.894901422024462 C 26.2060576572194 14.894901422024462 26.2294124802336 14.262526015768376 26.276122126262 14.166562432717841 C 26.322831772290396 14.070598849667306 26.346186595304594 14.070598849667306 26.392896241333 14.070598849667306 C 26.4396058873614 14.070598849667306 26.462960710375604 14.264494499523257 26.509670356404 14.614392486953667 C 26.556380002432398 14.964290474384079 26.5797348254466 15.820088786819362 26.626444471475 15.820088786819362 C 26.6731541175038 15.820088786819362 26.696508940518196 15.218716999709514 26.743218586547 13.627690004818684 C 26.7899282325754 12.03666300994153 26.8132830555896 8.58345038293161 26.859992701618 7.864953812399399 C 26.906702347646398 7.146457241867189 26.930057170660596 7.4033443718794 26.976766816689 7.146457241867189 C 27.0234764627174 6.889570111854999 27.0468312857316 7.146457241867189 27.09354093176 6.580518162338397 C 27.1402505777884 6.014579082809604 27.163605400802602 4.100228631186116 27.210315046831 4.100228631186116 C 27.257024692859396 4.100228631186116 27.280379515873598 4.429949660128976 27.327089161902 4.429949660128976 C 27.373798807930804 4.429949660128976 27.3971536309452 1.09090909090909 27.443863276974 1.09090909090909 C 27.4905729230024 1.09090909090909 27.5139277460166 4.5579011041963575 27.560637392045 4.5579011041963575 C 27.607347038073396 4.5579011041963575 27.630701861087594 4.489004172775459 27.677411507116 4.489004172775459 C 27.7241211531444 4.489004172775459 27.747475976158604 4.658785896634097 27.794185622187 4.658785896634097 C 27.840895268215398 4.658785896634097 27.8642500912296 3.3399017808626468 27.910959737258 3.3399017808626468 C 27.9576693832864 3.3399017808626468 27.9810242063006 4.62187682623005 28.027733852329 4.934373622317686 C 28.0744434983578 5.246870418405322 28.097798321372203 5.108092313685492 28.144507967401 5.246870418405322 C 28.191217613429398 5.38564852312396 28.214572436443596 5.628264145913857 28.261282082472 5.628264145913857 C 28.3079917285004 5.628264145913857 28.3313465515146 5.16567046351641 28.378056197543 5.136143207193168 C 28.4247658435714 5.1066159508699265 28.448120666585602 5.136143207193168 28.494830312614 5.1066159508699265 C 28.541539958642396 5.077088694546685 28.564894781656598 5.001794190922422 28.611604427685 4.899925156607239 C 28.6583140737134 4.798056122292056 28.681668896727597 4.702584660179793 28.728378542756 4.597270779294011 C 28.7750881887848 4.491956898407338 28.7984430117992 4.597270779294011 28.845152657828 4.373355752176099 C 28.891862303856403 4.149440725058188 28.9152171268706 3.3620472231050798 28.961926772899 3.3620472231050798 C 29.008636418927402 3.3620472231050798 29.031991241941604 3.3773029722054195 29.07870088797 3.401416898202733 C 29.125410533998398 3.425530824200046 29.1487653570126 3.401416898202733 29.195475003041 3.4826168530916455 C 29.2421846490694 3.563816807980558 29.2655394720836 4.949137250479303 29.312249118112 5.355137024923874 C 29.358958764140404 5.761136799368444 29.382313587154602 5.741451961819614 29.429023233183 5.761136799368444 C 29.4757328792114 5.780821636917274 29.499087702225598 5.761136799368444 29.545797348254 5.780821636917274 C 29.592506994282797 5.800506474466104 29.615861817297194 6.355126772403457 29.662571463326 6.553451510708754 C 29.7092811093544 6.751776249012331 29.732635932368602 6.77244532843946 29.779345578397 6.77244532843946 C 29.826055224425396 6.77244532843946 29.849410047439598 6.77244532843946 29.896119693468 6.718312025180186 C 29.9428293394964 6.664178721920912 29.966184162510597 5.875800978090388 30.012893808539 5.249331023098925 C 30.0596034545674 4.62286106810751 30.0829582775816 4.216369172724196 30.12966792361 3.585962250222991 C 30.1763775696384 2.9555553277217865 30.1997323926526 2.0972964105929037 30.246442038681 2.0972964105929037 C 30.2931516847098 2.0972964105929037 30.3165065077242 3.915683279165858 30.363216153753 4.3585921240144785 C 30.409925799781398 4.801500968863099 30.4332806227956 4.6194162215364445 30.479990268824 4.801500968863099 C 30.5266999148524 4.983585716189753 30.5500547378666 5.021971149409975 30.596764383895 5.269015860647752 C 30.643474029923404 5.516060571885547 30.666828852937602 6.03672452505203 30.713538498966 6.03672452505203 C 30.7602481449944 6.03672452505203 30.783602968008598 5.323149163907029 30.830312614037 5.323149163907029 C 30.8770222600654 5.323149163907029 30.900377083079597 7.136614823092774 30.947086729108 7.136614823092774 C 30.9937963751368 7.136614823092774 31.017151198151204 7.136614823092774 31.06386084418 7.126772404318363 C 31.110570490208396 7.116929985543951 31.1339253132226 7.018505797799804 31.180634959251 6.96437249454053 C 31.227344605279406 6.910239191281252 31.250699428293604 6.8880937490388225 31.297409074322 6.856105888021979 C 31.3441187203504 6.824118027005134 31.3674735433646 6.804433189456308 31.414183189393 6.804433189456308 C 31.4608928354214 6.804433189456308 31.4842476584356 6.804433189456308 31.530957304464 6.804433189456308 C 31.577666950492404 6.804433189456308 31.601021773506595 6.804433189456308 31.647731419535 6.804433189456308 C 31.6944410655634 6.804433189456308 31.717795888577598 6.804433189456308 31.764505534606 6.804433189456308 C 31.811215180634797 6.804433189456308 31.8345700036492 6.804433189456308 31.881279649678 6.804433189456308 C 31.927989295706404 6.804433189456308 31.998053764749 6.804433189456308 31.998053764749 6.804433189456308" class="highcharts-graph" data-z-index="1" stroke="#18DCA6" stroke-width="2" stroke-linejoin="round" stroke-linecap="round"/><path fill="none" d="M 0.001946235251186 20.70684970831582 C 0.001946235251186 20.70684970831582 0.0720107042938844 20.70684970831582 0.11872035032235 20.70684970831582 C 0.16542999635081 20.70684970831582 0.18878481936504 20.82987994299599 0.2354944653935 20.82987994299599 C 0.28220411142196394 20.82987994299599 0.305558934436196 20.10350943744425 0.35226858046466 19.712765412100023 C 0.398978226493124 19.322021386755793 0.42233304950735595 18.87615981627485 0.46904269553582 18.87615981627485 C 0.5157523415642841 18.87615981627485 0.5391071645785159 19.50262977126629 0.58581681060698 19.828413832699386 C 0.6325264566354439 20.154197894132484 0.655881279649676 20.505080123440337 0.70259092567814 20.505080123440337 C 0.7493005717066039 20.505080123440337 0.772655394720836 20.424864410428864 0.8193650407493 20.347601423049714 C 0.866074686777764 20.270338435670567 0.8894295097919962 20.19701241580119 0.93613915582046 20.118765186544593 C 0.9828488018489161 20.04051795728801 1.006203624863144 19.956365276766768 1.0529132708916 19.956365276766768 C 1.09962291692008 19.956365276766768 1.1229777399343202 20.88155264156166 1.1696873859628 20.88155264156166 C 1.21639703199124 20.88155264156166 1.23975185500546 20.74129817402627 1.2864615010339 20.719152731783836 C 1.3331711470623802 20.697007289541403 1.3565259700766201 20.719152731783836 1.4032356161051 20.697007289541403 C 1.44994526213358 20.67486184729897 1.47330008514782 20.512461937521145 1.5200097311763 20.512461937521145 C 1.5667193772047399 20.512461937521145 1.5900742002189598 20.543465556660625 1.6367838462474 20.726534545864645 C 1.6834934922758797 20.909603535068822 1.7068483152901202 20.99129561089619 1.7535579613186 21.42780688354163 C 1.80026760734704 21.864318156186695 1.8236224303612603 22.90909090909091 1.8703320763897 22.90909090909091 C 1.9170417224181802 22.90909090909091 1.9403965454324201 22.90909090909091 1.9871061914609 22.739309185232273 C 2.03381583748938 22.569527461373635 2.05717066050362 22.055261080410514 2.1038803065321 22.01835201000646 C 2.15058995256054 21.981442939602406 2.1739447755747596 22.01835201000646 2.2206544216032 21.981442939602406 C 2.26736406763168 21.944533869198352 2.29071889064592 21.742764284322874 2.3374285366744 21.742764284322874 C 2.38413818270284 21.742764284322874 2.40749300571706 21.974061125521644 2.4542026517455 22.07494591795934 C 2.50091229777398 22.175830710397126 2.5242671207882195 22.24718824651158 2.5709767668167 22.24718824651158 C 2.61768641284514 22.24718824651158 2.64104123585936 21.984395665234548 2.6877508818878 21.55575832760901 C 2.73446052791628 21.127120989983105 2.75781535093052 20.104001558382972 2.804524996959 20.104001558382972 C 2.8512346429874804 20.104001558382972 2.87458946600172 20.219649978982336 2.9212991120302 20.219649978982336 C 2.96800875805864 20.219649978982336 2.99136358107286 18.573505438961625 3.0380732271013 18.573505438961625 C 3.0847828731297797 18.573505438961625 3.10813769614402 18.854014374032314 3.1548473421725 19.10499605277997 C 3.2015569882009403 19.355977731527418 3.22491181121516 19.828413832699386 3.2716214572436 19.828413832699386 C 3.3183311032720795 19.828413832699386 3.3416859262863197 19.597116991500663 3.3883955723148 19.378123173769954 C 3.43510521834328 19.159129356039244 3.45846004135752 18.733444744045848 3.505169687386 18.733444744045848 C 3.5518793334144396 18.733444744045848 3.5752341564286594 19.33383228928509 3.6219438024571 19.33383228928509 C 3.6686534484855797 19.33383228928509 3.6920082714998204 19.139444518490418 3.7387179175283 19.139444518490418 C 3.78542756355674 19.139444518490418 3.8087823865709596 19.91699560166911 3.8554920325994 19.91699560166911 C 3.90220167862788 19.91699560166911 3.92555650164212 18.416026738571006 3.9722661476706 18.416026738571006 C 4.01897579369908 18.416026738571006 4.04233061671332 18.458349139300942 4.0890402627418 18.546438787331986 C 4.135749908770239 18.634528435362952 4.15910473178446 18.85647497872602 4.2058143778129 18.85647497872602 C 4.25252402384138 18.85647497872602 4.275878846855621 18.829408327096445 4.3225884928841 18.681772045480177 C 4.36929813891254 18.534135763864032 4.39265296192676 18.118293570644987 4.4393626079552 18.118293570644987 C 4.48607225398368 18.118293570644987 4.509427076997921 18.25608743348678 4.5561367230264 18.25608743348678 C 4.60284636905488 18.25608743348678 4.62620119206912 18.151265673539346 4.6729108380976 17.99280273127121 C 4.71962048412604 17.83433978900322 4.74297530714026 17.576960538052223 4.7896849531687 17.463772722146466 C 4.83639459919718 17.35058490624071 4.8597494222114195 17.35058490624071 4.9064590682399 17.35058490624071 C 4.953168714268339 17.35058490624071 4.97652353728256 17.35058490624071 5.023233183311 17.35058490624071 C 5.06994282933948 17.35058490624071 5.09329765235372 17.35058490624071 5.1400072983822 17.35058490624071 C 5.186716944410679 17.35058490624071 5.210071767424919 17.065154761782708 5.2567814134534 17.03070629607226 C 5.30349105948184 16.996257830361813 5.326845882496061 16.99871843505542 5.3735555285245 16.996257830361813 C 5.420265174552981 16.993797225668207 5.44361999756722 16.993797225668207 5.4903296435957 16.993797225668207 C 5.53703928962414 16.993797225668207 5.5603941126383605 16.993797225668207 5.6071037586668 16.993797225668207 C 5.65381340469528 16.993797225668207 5.67716822770952 16.996257830361813 5.723877873738 16.996257830361813 C 5.77058751976644 16.996257830361813 5.79394234278066 16.996257830361813 5.8406519888091 16.996257830361813 C 5.88736163483758 16.996257830361813 5.910716457851819 16.993797225668207 5.9574261038803 16.993797225668207 C 6.004135749908779 16.993797225668207 6.0274905729230195 16.996257830361813 6.0742002189515 16.996257830361813 C 6.12090986497994 16.996257830361813 6.14426468799416 16.996257830361813 6.1909743340226 16.996257830361813 C 6.237683980051079 16.996257830361813 6.26103880306532 16.996257830361813 6.3077484490938 16.996257830361813 C 6.35445809512224 16.996257830361813 6.377812918136461 16.993797225668207 6.4245225641649 16.993797225668207 C 6.471232210193381 16.993797225668207 6.49458703320762 16.993797225668207 6.5412966792361 16.993797225668207 C 6.58800632526458 16.993797225668207 6.61136114827882 16.993797225668207 6.6580707943073 16.993797225668207 C 6.704780440335741 16.993797225668207 6.72813526334996 16.996257830361813 6.7748449093784 16.996257830361813 C 6.8215545554068795 16.996257830361813 6.84490937842112 16.996257830361813 6.8916190244496 16.996257830361813 C 6.9383286704780405 16.996257830361813 6.961683493492259 16.996257830361813 7.0083931395207 16.996257830361813 C 7.055102785549179 16.996257830361813 7.07845760856342 16.996257830361813 7.1251672545919 16.996257830361813 C 7.17187690062038 16.996257830361813 7.19523172363462 16.992812983790767 7.2419413696631 16.991336620974604 C 7.288651015691539 16.989860258158444 7.31200583870576 16.988876016281 7.3587154847342 16.988876016281 C 7.40542513076268 16.988876016281 7.428779953776919 16.991336620974604 7.4754895998054 16.991336620974604 C 7.522199245833841 16.991336620974604 7.54555406884806 16.991336620974604 7.5922637148765 16.991336620974604 C 7.63897336090498 16.991336620974604 7.66232818391922 16.971159662487057 7.7090378299477 16.96426996934497 C 7.755747475976181 16.957380276202876 7.779102298990421 16.956888155264156 7.8258119450189 16.956888155264156 C 7.872521591047341 16.956888155264156 7.89587641406156 16.956888155264156 7.94258606009 16.956888155264156 C 7.98929570611848 16.956888155264156 8.012650529132719 16.956888155264156 8.0593601751612 16.956888155264156 C 8.106069821189639 16.956888155264156 8.12942464420386 16.956888155264156 8.1761342902323 16.956888155264156 C 8.22284393626078 16.956888155264156 8.246198759275021 16.956888155264156 8.2929084053035 16.956888155264156 C 8.339618051331978 16.956888155264156 8.36297287434622 16.956888155264156 8.4096825203747 16.956888155264156 C 8.45639216640314 16.956888155264156 8.479746989417361 16.956888155264156 8.5264566354458 16.956888155264156 C 8.57316628147428 16.956888155264156 8.59652110448852 16.956888155264156 8.643230750517 16.956888155264156 C 8.689940396545442 16.956888155264156 8.71329521955966 16.956888155264156 8.7600048655881 16.956888155264156 C 8.80671451161658 16.956888155264156 8.830069334630819 16.956888155264156 8.8767789806593 16.956888155264156 C 8.923488626687739 16.956888155264156 8.94684344970196 16.956888155264156 8.9935530957304 16.956888155264156 C 9.04026274175888 16.956888155264156 9.06361756477312 16.956888155264156 9.1103272108016 16.956888155264156 C 9.15703685683008 16.956888155264156 9.18039167984432 16.956888155264156 9.2271013258728 16.956888155264156 C 9.27381097190124 16.956888155264156 9.297165794915461 16.956888155264156 9.3438754409439 16.956888155264156 C 9.390585086972381 16.956888155264156 9.41393990998662 16.956888155264156 9.4606495560151 16.956888155264156 C 9.50735920204354 16.956888155264156 9.530714025057758 16.956888155264156 9.5774236710862 16.956888155264156 C 9.62413331711468 16.956888155264156 9.64748814012892 16.956888155264156 9.6941977861574 16.956888155264156 C 9.74090743218588 16.956888155264156 9.76426225520012 16.956888155264156 9.8109719012286 16.956888155264156 C 9.857681547257041 16.956888155264156 9.88103637027126 16.956888155264156 9.9277460162997 16.956888155264156 C 9.97445566232822 16.956888155264156 9.99781048534248 16.956888155264156 10.044520131371 16.956888155264156 C 10.0912297773994 16.956888155264156 10.1145846004136 16.956888155264156 10.161294246442 16.956888155264156 C 10.208003892470401 16.956888155264156 10.2313587154846 16.956888155264156 10.278068361513 16.956888155264156 C 10.3247780075414 16.956888155264156 10.348132830555599 16.956888155264156 10.394842476584 16.956888155264156 C 10.4415521226128 16.956888155264156 10.4649069456272 16.956888155264156 10.511616591656 16.956888155264156 C 10.558326237684401 16.956888155264156 10.5816810606986 16.956888155264156 10.628390706727 16.956888155264156 C 10.675100352755399 16.956888155264156 10.698455175769599 16.956888155264156 10.745164821798 16.956888155264156 C 10.7918744678264 16.956888155264156 10.8152292908406 16.956888155264156 10.861938936869 16.956888155264156 C 10.9086485828974 16.956888155264156 10.932003405911601 16.956888155264156 10.97871305194 16.956888155264156 C 11.0254226979684 16.956888155264156 11.0487775209826 16.956888155264156 11.095487167011 16.956888155264156 C 11.1421968130394 16.956888155264156 11.165551636053602 16.956888155264156 11.212261282082 16.956888155264156 C 11.258970928110802 16.956888155264156 11.2823257511252 16.956888155264156 11.329035397154 16.956888155264156 C 11.3757450431824 16.956888155264156 11.399099866196602 16.956888155264156 11.445809512225 16.956888155264156 C 11.492519158253401 16.956888155264156 11.5158739812676 16.956888155264156 11.562583627296 16.956888155264156 C 11.6092932733244 16.956888155264156 11.632648096338599 16.956888155264156 11.679357742367 16.956888155264156 C 11.726067388395398 16.956888155264156 11.7494222114096 16.956888155264156 11.796131857438 16.956888155264156 C 11.8428415034664 16.956888155264156 11.8661963264806 16.956888155264156 11.912905972509 16.956888155264156 C 11.9596156185378 16.956888155264156 11.982970441552201 16.956888155264156 12.029680087581 16.956888155264156 C 12.0763897336094 16.956888155264156 12.0997445566236 16.956888155264156 12.146454202652 16.956888155264156 C 12.193163848680399 16.956888155264156 12.216518671694601 16.956888155264156 12.263228317723 16.956888155264156 C 12.3099379637514 16.956888155264156 12.3332927867656 16.956888155264156 12.380002432794 16.956888155264156 C 12.426712078822401 16.956888155264156 12.450066901836601 16.956888155264156 12.496776547865 16.956888155264156 C 12.5434861938934 16.956888155264156 12.566841016907599 17.0321826588887 12.613550662936 17.097142622799552 C 12.6602603089648 17.16210258671096 12.6836151319792 17.28168797481981 12.730324778008 17.28168797481981 C 12.777034424036401 17.28168797481981 12.8003892470506 16.86584578160083 12.847098893079 16.86584578160083 C 12.8938085391074 16.86584578160083 12.917163362121599 17.119288065041985 12.96387300815 17.119288065041985 C 13.010582654178398 17.119288065041985 13.0339374771926 17.050391133621087 13.080647123221 17.050391133621087 C 13.127356769249399 17.050391133621087 13.1507115922636 17.20098014086962 13.197421238292 17.254621323190175 C 13.244130884320402 17.30826250551073 13.2674857073346 17.254621323190175 13.314195353363 17.318597045223864 C 13.3609049993914 17.382572767257553 13.384259822405602 17.759045285378882 13.430969468434 17.759045285378882 C 13.477679114462799 17.759045285378882 13.5010339374772 17.759045285378882 13.547743583506 17.348124301547106 C 13.5944532295344 16.93720331771533 13.6178080525486 15.500210176650912 13.664517698577 15.244307288516152 C 13.711227344605401 14.988404400381393 13.734582167619601 15.079938894983439 13.781291813648 14.988404400381393 C 13.8280014596764 14.896869905779344 13.851356282690599 14.988404400381393 13.898065928719 14.786634815505911 C 13.9447755747474 14.58486523063043 13.968130397761598 13.865876539159506 14.01484004379 13.381629535458337 C 14.061549689818401 12.897382531757188 14.0849045128326 12.365399797000114 14.131614158861 12.365399797000114 C 14.1783238048898 12.365399797000114 14.201678627904197 13.423459815249597 14.248388273933 13.423459815249597 C 14.295097919961398 13.423459815249597 14.3184527429756 13.071593344064313 14.365162389004 12.581933010037217 C 14.411872035032399 12.092272676010138 14.4352268580466 10.975158145114163 14.481936504075 10.975158145114163 C 14.528646150103402 10.975158145114163 14.5520009731176 12.218747757261331 14.598710619146 13.044526692434665 C 14.6454202651744 13.87030562760797 14.668775088188601 15.104052820980755 14.715484734217 15.104052820980755 C 14.762194380245399 15.104052820980755 14.7855492032596 15.104052820980755 14.832258849288 14.813701467135548 C 14.878968495316801 14.523350113290341 14.902323318331202 13.967253452538946 14.94903296436 13.265981114858976 C 14.995742610388401 12.564708777184979 15.019097433402601 11.307339778750627 15.065807079431 11.307339778750627 C 15.1125167254594 11.307339778750627 15.135871548473599 11.656745645242317 15.182581194502 11.656745645242317 C 15.2292908405304 11.656745645242317 15.252645663544598 10.921024841854885 15.299355309573 10.75370372268985 C 15.3460649556014 10.586382603524816 15.3694197786156 10.586382603524816 15.416129424644 10.586382603524816 C 15.462839070672402 10.586382603524816 15.4861938936866 10.586382603524816 15.532903539715 11.080964146939111 C 15.579613185743801 11.575545690353406 15.6029680087582 13.68920512215877 15.649677654787 13.68920512215877 C 15.696387300815399 13.68920512215877 15.7197421238296 12.140008407066027 15.766451769858 11.62229717953187 C 15.813161415886402 11.104585951997695 15.8365162389006 11.100648984487938 15.883225884929 11.100648984487938 C 15.9299355309574 11.100648984487938 15.953290353971601 11.162164101828024 16 11.162164101828024 C 16.046709646028397 11.162164101828024 16.0700644690426 10.16807980561223 16.116774115071 10.16807980561223 C 16.1634837610994 10.16807980561223 16.186838584113598 11.880660672360234 16.233548230142 11.880660672360234 C 16.280257876170403 11.880660672360234 16.3036126991846 11.543557829336558 16.350322345213 11.543557829336558 C 16.3970319912418 11.543557829336558 16.420386814256197 13.000235807949803 16.467096460285 13.000235807949803 C 16.5138061063134 13.000235807949803 16.537160929327598 12.845217712252786 16.583870575356 12.845217712252786 C 16.6305802213844 12.845217712252786 16.6539350443986 13.3831058982745 16.700644690427 13.595702143801839 C 16.747354336455402 13.80829838932918 16.7707091594696 13.908198939889477 16.817418805498 13.908198939889477 C 16.8641284515264 13.908198939889477 16.8874832745406 13.503183407322348 16.934192920569 13.305350789956632 C 16.9809025665974 13.107518172590916 17.0042573896116 12.91903585306089 17.05096703564 12.91903585306089 C 17.097676681668798 12.91903585306089 17.1210315046832 14.139495781088202 17.167741150712 14.139495781088202 C 17.2144507967404 14.139495781088202 17.237805619754603 14.080441268441719 17.284515265783 14.080441268441719 C 17.331224911811397 14.080441268441719 17.3545797348256 14.4224653208526 17.401289380854 14.589786440017635 C 17.4479990268824 14.757107559182668 17.471353849896598 14.828465095297172 17.518063495925 14.917046864266894 C 17.564773141953403 15.005628633236622 17.5881279649676 14.917046864266894 17.634837610996 15.032695284866255 C 17.681547257024402 15.148343705465617 17.7049020800386 16.223627956570333 17.751611726067 16.48199144939869 C 17.798321372095803 16.74035494222705 17.8216761951102 16.67145801080586 17.868385841139 16.74035494222705 C 17.9150954871674 16.80925187364765 17.9384503101816 16.826476106503172 17.98515995621 16.826476106503172 C 18.0318696022384 16.826476106503172 18.0552244252526 16.826476106503172 18.101934071281 16.742815546920657 C 18.1486437173094 16.65915498733814 18.1719985403236 16.03170079046926 18.218708186352 16.03170079046926 C 18.2654178323804 16.03170079046926 18.2887726553946 16.363882424105725 18.335482301423 16.363882424105725 C 18.3821919474514 16.363882424105725 18.405546770465598 16.184258281472673 18.452256416494 16.184258281472673 C 18.4989660625228 16.184258281472673 18.522320885537198 16.56811261367481 18.569030531566 16.56811261367481 C 18.615740177594397 16.56811261367481 18.6390950006086 16.528742938577153 18.685804646637 16.467227821237067 C 18.7325142926654 16.40571270389698 18.755869115679598 16.467227821237067 18.802578761708 16.26053702697438 C 18.849288407736402 16.05384623271169 18.8726432307506 15.39194357013236 18.919352876779 15.39194357013236 C 18.966062522807402 15.39194357013236 18.9894173458216 15.446076873391636 19.03612699185 15.446076873391636 C 19.0828366378784 15.446076873391636 19.1061914608926 15.177870961788859 19.152901106921 15.101592216287152 C 19.1996107529494 15.025313470785445 19.2229655759636 15.025313470785445 19.269675221992 15.025313470785445 C 19.316384868020798 15.025313470785445 19.3397396910352 15.120784932896793 19.386449337064 15.229543660354532 C 19.4331589830924 15.338302387811336 19.4565138061066 15.569107108071808 19.503223452135 15.569107108071808 C 19.5499330981634 15.569107108071808 19.5732879211776 15.509068353547883 19.619997567206 15.465761710940463 C 19.6667072132344 15.422455068333043 19.690062036248598 15.45985625967581 19.736771682277 15.352573895034704 C 19.783481328305403 15.245291530393589 19.8068361513196 14.92934988773491 19.853545797348 14.92934988773491 C 19.900255443376402 14.92934988773491 19.923610266390604 15.029250438295588 19.970319912419 15.116355844448774 C 20.0170295584478 15.203461250602711 20.0403843814622 15.229051539415238 20.087094027491 15.364876918502722 C 20.133803673519402 15.500702297589058 20.1571584965336 15.795482739883326 20.203868142562 15.795482739883326 C 20.2505777885904 15.795482739883326 20.2739326116046 15.735443985359401 20.320642257633 15.652767667654327 C 20.3673519036614 15.570091349949251 20.3907067266756 15.478556855347202 20.437416372704 15.382101151357947 C 20.4841260187324 15.285645447368692 20.5074808417466 15.265960609819864 20.554190487775 15.17048914770805 C 20.6009001338034 15.075017685596237 20.6242549568176 15.044998308333668 20.670964602846 14.904743840798877 C 20.7176742488748 14.764489373262872 20.741029071889198 14.586833714385817 20.787738717918 14.469216810031066 C 20.8344483639464 14.351599905677325 20.8578031869606 14.316659319027652 20.904512832989 14.316659319027652 C 20.9512224790174 14.316659319027652 20.974577302031598 14.316659319027652 21.02128694806 14.343725970657289 C 21.067996594088402 14.370792622286926 21.0913514171026 15.145883100772014 21.138061063131 15.145883100772014 C 21.1847707091594 15.145883100772014 21.208125532173604 14.520889508596737 21.254835178202 14.4938228569671 C 21.301544824230398 14.466756205337463 21.3248996472446 14.466756205337463 21.371609293273 14.466756205337463 C 21.4183189393014 14.466756205337463 21.4416737623156 14.903267477983864 21.488383408344 15.17048914770805 C 21.5350930543728 15.437710817434533 21.558447877387202 15.587807703742278 21.605157523416 15.802864553964136 C 21.6518671694444 16.01792140418416 21.675221992458596 16.07549955401539 21.721931638487 16.24577339881276 C 21.7686412845154 16.416047243610112 21.7919961075296 16.622245916934087 21.838705753558 16.65423377795093 C 21.8854153995864 16.686221638967776 21.9087702226006 16.686221638967776 21.955479868629 16.686221638967776 C 22.0021895146574 16.686221638967776 22.0255443376716 16.400791494509775 22.0722539837 16.400791494509775 C 22.118963629728405 16.400791494509775 22.1423184527426 17.092221413412346 22.189028098771 17.092221413412346 C 22.2357377447998 17.092221413412346 22.2590925678142 16.307288516152845 22.305802213843 16.307288516152845 C 22.352511859871402 16.307288516152845 22.3758666828856 16.570573218368413 22.422576328914 16.570573218368413 C 22.4692859749424 16.570573218368413 22.492640797956604 16.570573218368413 22.539350443985 16.37618544757374 C 22.586060090013397 16.181797676779066 22.6094149130276 16.173923741759538 22.656124559056 15.355034499728308 C 22.7028342050844 14.536145257697079 22.7261890280986 12.281739237417595 22.772898674127 12.281739237417595 C 22.819608320155403 12.281739237417595 22.842963143169598 13.054369111209079 22.889672789198 13.054369111209079 C 22.936382435226797 13.054369111209079 22.959737258241198 11.782236484616092 23.00644690427 11.639521412387094 C 23.0531565502984 11.496806340158095 23.0765113733126 11.496806340158095 23.123221019341 11.496806340158095 C 23.1699306653694 11.496806340158095 23.1932854883836 11.757138316741347 23.239995134412 11.984006069491578 C 23.2867047804404 12.210873822241824 23.3100596034546 12.276818028030403 23.356769249483 12.631145103909287 C 23.403478895511405 12.985472179788196 23.4268337185256 13.755641448886063 23.473543364554 13.755641448886063 C 23.5202530105824 13.755641448886063 23.5436078335966 12.483508822293079 23.590317479625 12.483508822293079 C 23.6370271256538 12.483508822293079 23.6603819486682 12.618842080441269 23.707091594697 12.618842080441269 C 23.7538012407254 12.618842080441269 23.777156063739604 11.740406204824836 23.823865709768 11.740406204824836 C 23.870575355796397 11.740406204824836 23.8939301788106 13.40377497770077 23.940639824839 13.40377497770077 C 23.9873494708674 13.40377497770077 24.0107042938816 12.530260311471547 24.05741393991 12.522878497390735 C 24.104123585938403 12.515496683309923 24.127478408952598 12.515496683309923 24.174188054981 12.515496683309923 C 24.2208977010094 12.515496683309923 24.2442525240236 12.781241990219096 24.290962170052 12.781241990219096 C 24.3376718160804 12.781241990219096 24.361026639094597 11.558321457498181 24.407736285123 11.558321457498181 C 24.4544459311518 11.558321457498181 24.4778007541662 11.848180690404162 24.524510400195 11.966781836636352 C 24.5712200462234 12.085382982867534 24.5945748692376 12.006151511734014 24.641284515266 12.151327188656612 C 24.687994161294405 12.296502865579223 24.7113489843086 12.692660221249373 24.758058630337 12.692660221249373 C 24.8047682763654 12.692660221249373 24.8281230993796 12.407230076791372 24.874832745408 12.407230076791372 C 24.9215423914364 12.407230076791372 24.9448972144506 12.418548858381948 24.991606860479 12.488430031680286 C 25.0383165065074 12.558311204978624 25.061671329521594 12.488430031680286 25.10838097555 12.756635943283062 C 25.155090621578797 13.024841854885837 25.1784454445932 13.765483867660476 25.225155090622 14.058295826199288 C 25.2718647366504 14.3511077847381 25.2952195596646 14.3511077847381 25.341929205693 14.3511077847381 C 25.388638851721403 14.3511077847381 25.411993674735598 12.992853993868993 25.458703320764 12.992853993868993 C 25.5054129667924 12.992853993868993 25.5287677898066 13.416078001168787 25.575477435835 13.416078001168787 C 25.622187081863398 13.416078001168787 25.645541904877597 13.165096322421235 25.692251550906 13.165096322421235 C 25.7389611969344 13.165096322421235 25.7623160199486 13.165096322421235 25.809025665977 13.184781159970063 C 25.855735312005798 13.204465997518891 25.879090135020203 13.184781159970063 25.925799781049 13.295508371182217 C 25.972509427077405 13.406235582394372 25.995864250091596 14.13211396700738 26.04257389612 14.45199257717584 C 26.0892835421484 14.771871187344278 26.1126383651626 14.894901422024462 26.159348011191 14.894901422024462 C 26.2060576572194 14.894901422024462 26.2294124802336 14.262526015768376 26.276122126262 14.166562432717841 C 26.322831772290396 14.070598849667306 26.346186595304594 14.070598849667306 26.392896241333 14.070598849667306 C 26.4396058873614 14.070598849667306 26.462960710375604 14.264494499523257 26.509670356404 14.614392486953667 C 26.556380002432398 14.964290474384079 26.5797348254466 15.820088786819362 26.626444471475 15.820088786819362 C 26.6731541175038 15.820088786819362 26.696508940518196 15.218716999709514 26.743218586547 13.627690004818684 C 26.7899282325754 12.03666300994153 26.8132830555896 8.58345038293161 26.859992701618 7.864953812399399 C 26.906702347646398 7.146457241867189 26.930057170660596 7.4033443718794 26.976766816689 7.146457241867189 C 27.0234764627174 6.889570111854999 27.0468312857316 7.146457241867189 27.09354093176 6.580518162338397 C 27.1402505777884 6.014579082809604 27.163605400802602 4.100228631186116 27.210315046831 4.100228631186116 C 27.257024692859396 4.100228631186116 27.280379515873598 4.429949660128976 27.327089161902 4.429949660128976 C 27.373798807930804 4.429949660128976 27.3971536309452 1.09090909090909 27.443863276974 1.09090909090909 C 27.4905729230024 1.09090909090909 27.5139277460166 4.5579011041963575 27.560637392045 4.5579011041963575 C 27.607347038073396 4.5579011041963575 27.630701861087594 4.489004172775459 27.677411507116 4.489004172775459 C 27.7241211531444 4.489004172775459 27.747475976158604 4.658785896634097 27.794185622187 4.658785896634097 C 27.840895268215398 4.658785896634097 27.8642500912296 3.3399017808626468 27.910959737258 3.3399017808626468 C 27.9576693832864 3.3399017808626468 27.9810242063006 4.62187682623005 28.027733852329 4.934373622317686 C 28.0744434983578 5.246870418405322 28.097798321372203 5.108092313685492 28.144507967401 5.246870418405322 C 28.191217613429398 5.38564852312396 28.214572436443596 5.628264145913857 28.261282082472 5.628264145913857 C 28.3079917285004 5.628264145913857 28.3313465515146 5.16567046351641 28.378056197543 5.136143207193168 C 28.4247658435714 5.1066159508699265 28.448120666585602 5.136143207193168 28.494830312614 5.1066159508699265 C 28.541539958642396 5.077088694546685 28.564894781656598 5.001794190922422 28.611604427685 4.899925156607239 C 28.6583140737134 4.798056122292056 28.681668896727597 4.702584660179793 28.728378542756 4.597270779294011 C 28.7750881887848 4.491956898407338 28.7984430117992 4.597270779294011 28.845152657828 4.373355752176099 C 28.891862303856403 4.149440725058188 28.9152171268706 3.3620472231050798 28.961926772899 3.3620472231050798 C 29.008636418927402 3.3620472231050798 29.031991241941604 3.3773029722054195 29.07870088797 3.401416898202733 C 29.125410533998398 3.425530824200046 29.1487653570126 3.401416898202733 29.195475003041 3.4826168530916455 C 29.2421846490694 3.563816807980558 29.2655394720836 4.949137250479303 29.312249118112 5.355137024923874 C 29.358958764140404 5.761136799368444 29.382313587154602 5.741451961819614 29.429023233183 5.761136799368444 C 29.4757328792114 5.780821636917274 29.499087702225598 5.761136799368444 29.545797348254 5.780821636917274 C 29.592506994282797 5.800506474466104 29.615861817297194 6.355126772403457 29.662571463326 6.553451510708754 C 29.7092811093544 6.751776249012331 29.732635932368602 6.77244532843946 29.779345578397 6.77244532843946 C 29.826055224425396 6.77244532843946 29.849410047439598 6.77244532843946 29.896119693468 6.718312025180186 C 29.9428293394964 6.664178721920912 29.966184162510597 5.875800978090388 30.012893808539 5.249331023098925 C 30.0596034545674 4.62286106810751 30.0829582775816 4.216369172724196 30.12966792361 3.585962250222991 C 30.1763775696384 2.9555553277217865 30.1997323926526 2.0972964105929037 30.246442038681 2.0972964105929037 C 30.2931516847098 2.0972964105929037 30.3165065077242 3.915683279165858 30.363216153753 4.3585921240144785 C 30.409925799781398 4.801500968863099 30.4332806227956 4.6194162215364445 30.479990268824 4.801500968863099 C 30.5266999148524 4.983585716189753 30.5500547378666 5.021971149409975 30.596764383895 5.269015860647752 C 30.643474029923404 5.516060571885547 30.666828852937602 6.03672452505203 30.713538498966 6.03672452505203 C 30.7602481449944 6.03672452505203 30.783602968008598 5.323149163907029 30.830312614037 5.323149163907029 C 30.8770222600654 5.323149163907029 30.900377083079597 7.136614823092774 30.947086729108 7.136614823092774 C 30.9937963751368 7.136614823092774 31.017151198151204 7.136614823092774 31.06386084418 7.126772404318363 C 31.110570490208396 7.116929985543951 31.1339253132226 7.018505797799804 31.180634959251 6.96437249454053 C 31.227344605279406 6.910239191281252 31.250699428293604 6.8880937490388225 31.297409074322 6.856105888021979 C 31.3441187203504 6.824118027005134 31.3674735433646 6.804433189456308 31.414183189393 6.804433189456308 C 31.4608928354214 6.804433189456308 31.4842476584356 6.804433189456308 31.530957304464 6.804433189456308 C 31.577666950492404 6.804433189456308 31.601021773506595 6.804433189456308 31.647731419535 6.804433189456308 C 31.6944410655634 6.804433189456308 31.717795888577598 6.804433189456308 31.764505534606 6.804433189456308 C 31.811215180634797 6.804433189456308 31.8345700036492 6.804433189456308 31.881279649678 6.804433189456308 C 31.927989295706404 6.804433189456308 31.998053764749 6.804433189456308 31.998053764749 6.804433189456308" visibility="visible" data-z-index="2" class="highcharts-tracker-line" stroke-linecap="round" stroke-linejoin="round" stroke="rgba(192,192,192,0.0001)" stroke-width="22"/></g><g class="highcharts-markers highcharts-series-0 highcharts-spline-series highcharts-tracker" data-z-index="0.1" opacity="1" transform="translate(0,0) scale(1 1)" clip-path="none"/></g><text x="16" text-anchor="middle" class="highcharts-title" data-z-index="4" style="color:#333333;font-size:18px;fill:#333333;" y="14"/><text x="16" text-anchor="middle" class="highcharts-subtitle" data-z-index="4" style="color:#666666;fill:#666666;" y="14"/><text x="0" text-anchor="start" class="highcharts-caption" data-z-index="4" style="color:#666666;fill:#666666;" y="36"/></svg>