<svg width="20" height="20" viewBox="0 0 20 20" fill="none" xmlns="http://www.w3.org/2000/svg">
<path d="M10 1C14.9703 1 19 5.02968 19 10C19 14.9703 14.9701 19 10 19C5.02979 19 1 14.9714 1 10C1 5.02852 5.02905 1 10 1Z" stroke="#5DD8B5" stroke-width="2"/>
<path d="M11.0164 9.02216V7.82463H13.8188V6H6.18776V7.82463H8.99051V9.0212C6.71269 9.12344 5 9.56426 5 10.0923C5 10.6204 6.71351 11.0613 8.99051 11.1641V15H11.0171V11.1638C13.2908 11.0613 15 10.6208 15 10.0931C15 9.56555 13.2908 9.12504 11.0171 9.02249L11.0164 9.02216ZM11.0171 10.8389V10.8379C10.9599 10.8415 10.6661 10.8587 10.012 10.8587C9.48908 10.8587 9.12116 10.8442 8.9915 10.8376V10.8392C6.97911 10.7521 5.47698 10.4097 5.47698 9.99993C5.47698 9.59018 6.97927 9.24821 8.9915 9.16095V10.4981C9.12331 10.5069 9.50028 10.5287 10.0206 10.5287C10.6455 10.5287 10.9597 10.5032 11.0174 10.4981V9.16095C13.0258 9.24837 14.5245 9.59114 14.5245 9.99945C14.5245 10.4077 13.0252 10.7507 11.0174 10.8381" fill="#5DD8B5"/>
</svg>
