<svg width="20" height="20" viewBox="0 0 20 20" fill="none" xmlns="http://www.w3.org/2000/svg">
<path d="M6.89267 8.72336L9.99988 5.61624L13.1087 8.72496L14.9167 6.91696L9.99988 2L5.08475 6.91536L6.89267 8.72336ZM2 9.99975L3.80806 8.1917L5.61599 9.99964L3.80795 11.8077L2 9.99975ZM6.89267 11.2766L9.99988 14.3838L13.1086 11.2751L14.9176 13.0822L14.9167 13.0831L9.99988 18L5.08459 13.0848L5.08203 13.0822L6.89267 11.2766ZM14.3841 10.0007L16.1921 8.1927L18.0001 10.0006L16.192 11.8087L14.3841 10.0007Z" fill="#F3BA2F"/>
<path d="M11.8339 9.99967H11.8347L10.0001 8.16504L8.64423 9.52087H8.64415L8.48839 9.67671L8.16711 9.99807L8.16455 10.0006L8.16711 10.0032L10.0001 11.8362L11.8347 10.0016L11.8356 10.0006L11.8339 9.99967Z" fill="#F3BA2F"/>
</svg>
