<svg width="40" height="40" viewBox="0 0 40 40" fill="none" xmlns="http://www.w3.org/2000/svg">
<path d="M37.7917 0H2.20833C0.988333 0 0 0.988333 0 2.20833V37.7933C0 39.0117 0.988333 40 2.20833 40H21.3667V24.51H16.1533V18.4733H21.3667V14.0217C21.3667 8.855 24.5217 6.04167 29.1317 6.04167C31.34 6.04167 33.2367 6.20667 33.79 6.28V11.68L30.5933 11.6817C28.0867 11.6817 27.6017 12.8733 27.6017 14.62V18.475H33.58L32.8017 24.5117H27.6017V40H37.795C39.0117 40 40 39.0117 40 37.7917V2.20833C40 0.988333 39.0117 0 37.7917 0Z" fill="#18DCA6"/>
</svg>
