<svg width="160" height="201" viewBox="0 0 160 201" fill="none" xmlns="http://www.w3.org/2000/svg">
<path d="M113 47.9971V72.9971C113 75.7585 110.761 77.9971 108 77.9971H102" stroke="#D1D7E4" stroke-width="2"/>
<rect x="77" y="6.99707" width="61" height="41" rx="4" fill="#E7EBF4"/>
<path d="M79 10.9971C79 9.8925 79.8954 8.99707 81 8.99707H134C135.105 8.99707 136 9.8925 136 10.9971V41.9971C136 42.5494 135.552 42.9971 135 42.9971H80C79.4477 42.9971 79 42.5494 79 41.9971V10.9971Z" fill="white"/>
<path d="M79 30.8971L82.6576 32.4057C83.5015 32.7537 84.474 32.4862 85.0212 31.7555L86.8914 29.2576C87.718 28.1537 89.3876 28.1979 90.1545 29.3441L92.9329 33.496C93.728 34.6842 95.4768 34.6786 96.2643 33.4854L97.9727 30.8971L102.124 25.479C102.763 24.6446 103.94 24.4475 104.816 25.0279L109.473 28.1121C109.558 28.1687 109.639 28.2317 109.715 28.3006L113.745 31.9696C113.838 32.0544 113.939 32.1302 114.047 32.196L116.717 33.8322C117.788 34.4884 119.192 34.0066 119.634 32.831L121.072 29.007C121.436 28.0413 122.657 27.7441 123.423 28.4349V28.4349C124.133 29.0748 125.256 28.8744 125.7 28.0284L125.976 27.5042C126.723 26.0824 128.78 26.1475 129.436 27.6137L130.589 30.1919C131.266 31.7062 133.386 31.7854 134.174 30.3258L135 28.7971" stroke="#18DCA6" stroke-width="2"/>
<path d="M74 46.5425C74 46.2413 74.2442 45.9971 74.5455 45.9971H140.455C140.756 45.9971 141 46.2413 141 46.5425C141 47.3458 140.349 47.9971 139.545 47.9971H75.4545C74.6512 47.9971 74 47.3458 74 46.5425Z" fill="#D1D7E4"/>
<rect x="52" y="54.9971" width="51" height="49" rx="8" fill="#D1D7E4"/>
<path d="M79 93.4971V115.497" stroke="#D1D7E4" stroke-width="2" stroke-linecap="round"/>
<path d="M58 77.9971L33 77.9971" stroke="#D1D7E4" stroke-width="2"/>
<rect x="52" y="54.9971" width="51" height="35" rx="8" fill="#E7EBF4"/>
<rect x="20" y="63.9971" width="18" height="30" rx="2" fill="#D1D7E4"/>
<rect x="22" y="65.9971" width="14" height="26" rx="2" fill="white"/>
<path d="M36 80.7221L35.3979 80.987C35.0541 81.1382 34.6514 81.0258 34.4356 80.7184V80.7184C34.1118 80.2571 33.4226 80.275 33.1231 80.7524L33.0704 80.8363C32.7346 81.3716 31.9537 81.3692 31.6212 80.8318L31.5533 80.7221L31.2985 80.3674C30.7536 79.6088 29.699 79.4317 28.9362 79.9706V79.9706C28.8641 80.0215 28.7961 80.078 28.7327 80.1395L27.8928 80.955C27.8469 80.9996 27.7968 81.0397 27.7432 81.0747L27.4862 81.2427C27.0739 81.5122 26.5182 81.324 26.3544 80.8596L26.1343 80.2354C26.0537 80.0068 25.7636 79.9379 25.5888 80.106V80.106C25.4261 80.2624 25.1583 80.2155 25.0586 80.013L24.9907 79.8751C24.8217 79.5321 24.3276 79.5471 24.1797 79.8998L23.9242 80.5092C23.7262 80.9814 23.1226 81.1188 22.7397 80.7789L22 80.1221" stroke="#18DCA6"/>
<rect x="25" y="63.9971" width="8" height="3" rx="1.5" fill="#D1D7E4"/>
<rect x="70" y="181.997" width="24" height="10" fill="#D1D7E4"/>
<rect x="33" y="117.997" width="98" height="69" rx="8" fill="#E7EBF4"/>
<rect x="65" y="191.997" width="33" height="3" rx="1.5" fill="#E7EBF4"/>
<path d="M36 126.997C36 123.683 38.6863 120.997 42 120.997H122C125.314 120.997 128 123.683 128 126.997V175.997C128 176.549 127.552 176.997 127 176.997H37C36.4477 176.997 36 176.549 36 175.997V126.997Z" fill="white"/>
<path d="M36 156.497L42.8649 159.385C43.7177 159.744 44.7053 159.471 45.2527 158.725L49.9551 152.319C50.7805 151.195 52.4745 151.239 53.2396 152.406L59.8162 162.43C60.609 163.639 62.3824 163.633 63.1676 162.42L67 156.497L74.4958 146.518C75.1359 145.666 76.3315 145.465 77.2145 146.062L85.8719 151.911C85.9572 151.968 86.0379 152.032 86.1133 152.102L92.8605 158.368C92.9533 158.454 93.054 158.531 93.1614 158.598L98.9145 162.194C99.9902 162.866 101.412 162.38 101.851 161.19L104.946 152.798C105.438 151.463 107.128 151.054 108.176 152.018L108.942 152.722C109.913 153.615 111.469 153.339 112.073 152.165L113.843 148.731C114.614 147.234 116.776 147.302 117.452 148.844L121.338 157.706C122.01 159.238 124.154 159.317 124.937 157.838L127.5 152.997" stroke="#18DCA6" stroke-width="2"/>
<g filter="url(#filter0_d)">
<rect x="23" y="15.9971" width="26" height="21" rx="5" fill="white"/>
</g>
<g filter="url(#filter1_d)">
<rect x="110" y="81.9971" width="26" height="21" rx="5" fill="white"/>
</g>
<defs>
<filter id="filter0_d" x="11" y="5.99707" width="50" height="45" filterUnits="userSpaceOnUse" color-interpolation-filters="sRGB">
<feFlood flood-opacity="0" result="BackgroundImageFix"/>
<feColorMatrix in="SourceAlpha" type="matrix" values="0 0 0 0 0 0 0 0 0 0 0 0 0 0 0 0 0 0 127 0"/>
<feOffset dy="2"/>
<feGaussianBlur stdDeviation="6"/>
<feColorMatrix type="matrix" values="0 0 0 0 0.0627451 0 0 0 0 0.152941 0 0 0 0 0.396078 0 0 0 0.11 0"/>
<feBlend mode="normal" in2="BackgroundImageFix" result="effect1_dropShadow"/>
<feBlend mode="normal" in="SourceGraphic" in2="effect1_dropShadow" result="shape"/>
</filter>
<filter id="filter1_d" x="98" y="71.9971" width="50" height="45" filterUnits="userSpaceOnUse" color-interpolation-filters="sRGB">
<feFlood flood-opacity="0" result="BackgroundImageFix"/>
<feColorMatrix in="SourceAlpha" type="matrix" values="0 0 0 0 0 0 0 0 0 0 0 0 0 0 0 0 0 0 127 0"/>
<feOffset dy="2"/>
<feGaussianBlur stdDeviation="6"/>
<feColorMatrix type="matrix" values="0 0 0 0 0.0627451 0 0 0 0 0.152941 0 0 0 0 0.396078 0 0 0 0.11 0"/>
<feBlend mode="normal" in2="BackgroundImageFix" result="effect1_dropShadow"/>
<feBlend mode="normal" in="SourceGraphic" in2="effect1_dropShadow" result="shape"/>
</filter>
</defs>
</svg>
