<svg width="12" height="12" viewBox="0 0 12 12" fill="none" xmlns="http://www.w3.org/2000/svg">
<path fill-rule="evenodd" clip-rule="evenodd" d="M1 9L5.99916 12L10.998 9L11.998 2L5.99916 0L0 2L1 9ZM9.04907 5.0998C9.38044 4.65797 9.2909 4.03117 8.84907 3.6998C8.40724 3.36843 7.78044 3.45797 7.44907 3.8998L5.28865 6.78036L4.41343 6.00239C4.00065 5.63547 3.36858 5.67265 3.00166 6.08543C2.63474 6.49822 2.67192 7.13029 3.08471 7.49721L4.77221 8.99721C4.98122 9.183 5.25848 9.27278 5.53673 9.24477C5.81497 9.21676 6.06878 9.07352 6.23657 8.8498L9.04907 5.0998Z" fill="#18DCA6"/>
</svg>
