<svg width="21" height="21" viewBox="0 0 21 21" fill="none" xmlns="http://www.w3.org/2000/svg">
<path d="M2.2444 7.90808L2.24446 7.90782C3.44593 3.0859 8.32914 0.151558 13.1494 1.35352L13.1494 1.35354C17.9709 2.55553 20.905 7.43957 19.7029 12.2613C18.5009 17.0826 13.6177 20.0168 8.79575 18.8145C3.97605 17.6125 1.04182 12.7291 2.2444 7.90808Z" stroke="#F7931A" stroke-width="2"/>
<path d="M14.3176 7.80063C14.1862 6.64555 13.1807 6.27511 11.9177 6.18665L11.8897 4.58176L10.9128 4.59891L10.9402 6.1615C10.6833 6.16602 10.4209 6.17567 10.1602 6.18543L10.1329 4.61249L9.15654 4.6295L9.18419 6.23394C8.97276 6.24195 8.76513 6.2495 8.5626 6.25317L8.56239 6.2482L7.21502 6.27126L7.23349 7.3146C7.23349 7.3146 7.95464 7.28825 7.94288 7.30174C8.33857 7.29496 8.47136 7.52243 8.51228 7.72L8.54428 9.5483C8.57159 9.54797 8.60723 9.54849 8.64766 9.55331C8.61512 9.55392 8.58028 9.55431 8.54447 9.55524L8.58893 12.1165C8.57374 12.2414 8.504 12.4412 8.22756 12.4465C8.24025 12.4573 7.51744 12.4587 7.51744 12.4587L7.3437 13.6287L8.61498 13.6065C8.85156 13.6026 9.0844 13.6026 9.31295 13.6001L9.34169 15.2232L10.3175 15.2063L10.2895 13.6003C10.5575 13.6012 10.8168 13.5988 11.07 13.5941L11.0974 15.1928L12.0743 15.1756L12.0464 13.5553C13.687 13.4324 14.8293 12.9986 14.9451 11.4538C15.0387 10.21 14.4448 9.66604 13.5086 9.45844C14.07 9.16015 14.4152 8.64581 14.3176 7.80063ZM13.0115 11.2952C13.0332 12.5082 10.9538 12.4065 10.2918 12.4186L10.2545 10.268C10.9168 10.2566 12.9895 10.03 13.0115 11.2952ZM12.5042 8.26892C12.5232 9.37251 10.7887 9.27397 10.2373 9.28364L10.2033 7.33315C10.7548 7.32348 12.484 7.11787 12.5042 8.26892Z" fill="#F7931A"/>
</svg>
