<svg width="40" height="40" viewBox="0 0 40 40" fill="none" xmlns="http://www.w3.org/2000/svg">
<path d="M40 7.5954C38.5283 8.24874 36.9467 8.68874 35.2867 8.88707C36.9817 7.87207 38.2833 6.26374 38.895 4.34707C37.31 5.28707 35.5533 5.9704 33.6833 6.33874C32.1883 4.74374 30.0533 3.74707 27.6933 3.74707C22.395 3.74707 18.5017 8.6904 19.6983 13.8221C12.88 13.4804 6.83333 10.2137 2.785 5.24874C0.635 8.93707 1.67 13.7621 5.32333 16.2054C3.98 16.1621 2.71333 15.7937 1.60833 15.1787C1.51833 18.9804 4.24333 22.5371 8.19 23.3287C7.035 23.6421 5.77 23.7154 4.48333 23.4687C5.52667 26.7287 8.55667 29.1004 12.15 29.1671C8.7 31.8721 4.35333 33.0804 0 32.5671C3.63167 34.8954 7.94667 36.2537 12.58 36.2537C27.8167 36.2537 36.425 23.3854 35.905 11.8437C37.5083 10.6854 38.9 9.2404 40 7.5954Z" fill="#18DCA6"/>
</svg>
