<svg version="1.1" class="highcharts-root" style="font-family:&quot;Lucida Grande&quot;, &quot;Lucida Sans Unicode&quot;, Arial, Helvetica, sans-serif;font-size:12px;" xmlns="http://www.w3.org/2000/svg" width="32" height="24" viewBox="0 0 32 24"><desc>Created with Highcharts 8.2.2</desc><defs><clipPath id="highcharts-85dzsom-1618-"><rect x="0" y="0" width="32" height="24" fill="none"/></clipPath><clipPath id="highcharts-85dzsom-1999-"><rect x="-99" y="0" width="352" height="24" fill="none"/></clipPath><clipPath id="highcharts-85dzsom-2000-"><rect x="0" y="0" width="253" height="24" fill="none"/></clipPath></defs><rect fill="none" class="highcharts-background" x="0" y="0" width="32" height="24" rx="0" ry="0"/><rect fill="none" class="highcharts-plot-background" x="0" y="0" width="32" height="24"/><rect fill="none" class="highcharts-plot-border" data-z-index="1" x="0" y="0" width="32" height="24"/><g class="highcharts-series-group" data-z-index="3"><g class="highcharts-series highcharts-series-0 highcharts-spline-series" data-z-index="0.1" opacity="1" transform="translate(0,0) scale(1 1)" clip-path="url(#highcharts-85dzsom-1618-)"><path fill="none" d="M 0.001407088206842 21.431303990127518 C 0.001407088206842 21.431303990127518 0.05206226365315279 21.41896338955162 0.08583238061736 21.388111888111887 C 0.119602497581568 21.35726038667215 0.136487556063672 21.277046482928835 0.17025767302788 21.277046482928835 C 0.204027789992088 21.277046482928835 0.22091284847419201 21.44302756067461 0.2546829654384 21.567050596462362 C 0.28845308240260403 21.691073632250095 0.305338140884706 21.897161661867543 0.33910825784891 21.897161661867543 C 0.37287837481311803 21.897161661867543 0.38976343329522206 21.477581242287123 0.42353355025943 21.477581242287123 C 0.457303667223638 21.477581242287123 0.474188725705742 21.678116001645414 0.50795884266995 21.844714109419993 C 0.541728959634158 22.011312217194572 0.558614018116262 22.097696421225834 0.59238413508047 22.310571781160014 C 0.6261542520446781 22.523447141094195 0.643039310526782 22.90909090909091 0.67680942749099 22.90909090909091 C 0.7105795444551941 22.90909090909091 0.727464602937296 21.17832167832168 0.7612347199015 21.03640477169889 C 0.7950048368657081 20.8944878650761 0.8118898953478121 21.03640477169889 0.84566001231202 20.8944878650761 C 0.8794301292762281 20.752570958453312 0.896315187758332 20.314479638008997 0.93008530472254 20.095433977786918 C 0.963855421686764 19.876388317564736 0.9807404801688762 19.933772110242746 1.0145105971331 19.799259563965446 C 1.0482807140973 19.664747017688242 1.0651657725794001 19.650555327025913 1.0989358895436 19.422871246400657 C 1.1327060065078 19.1951871657754 1.1495910649899 18.911970382558618 1.1833611819541 18.66083916083916 C 1.2171312989182999 18.409707939119706 1.2340163574004 18.22891814068285 1.2677864743646 18.167215137803375 C 1.3015565913287999 18.1055121349239 1.3184416498108997 18.130810366104484 1.3522117667751 18.1055121349239 C 1.3859818837393 18.080213903743314 1.4028669422214 18.1055121349239 1.4366370591856 18.040723981900452 C 1.47040717614984 17.975935828877006 1.4872922346319601 17.503907856849036 1.5210623515962 17.494652406417114 C 1.5548324685604 17.48539695598519 1.5717175270425 17.48539695598519 1.6054876440067 17.48539695598519 C 1.6392577609709 17.48539695598519 1.6561428194530001 17.65508021390374 1.6899129364172 17.71986836692719 C 1.7236830533814 17.784656519950637 1.7405681118635001 17.722336487042373 1.7743382288277 17.809337721102427 C 1.8081083457919 17.896338955162484 1.8249934042740001 18.154874537227478 1.8587635212382 18.154874537227478 C 1.89253363820244 18.154874537227478 1.90941869668456 17.732208967503176 1.9431888136488 17.5779514603044 C 1.9769589306130002 17.42369395310581 1.9938439890950999 17.442821883998356 2.0276141060593 17.383587001234062 C 2.0613842230235 17.32435211846977 2.0782692815056 17.35767174002468 2.1120393984698 17.28177704648293 C 2.1458095154340002 17.205882352941178 2.1626945739161 17.0041135335253 2.1964646908803 17.0041135335253 C 2.2302348078445 17.0041135335253 2.2471198663266003 17.210818593171535 2.2808899832908 17.210818593171535 C 2.314660100255 17.210818593171535 2.3315451587371 16.930069930069845 2.3653152757013 16.785067873303166 C 2.3990853926655396 16.640065816536318 2.41597045114766 16.57034142328265 2.4497405681119 16.48580830933772 C 2.4835106850761 16.40127519539289 2.5003957435582 16.362402303578776 2.5341658605224 16.362402303578776 C 2.5679359774866 16.362402303578776 2.5848210359687 16.362402303578776 2.6185911529329 16.396338955162484 C 2.6523612698971 16.430275606746193 2.6692463283792 16.62772521596051 2.7030164453434 16.62772521596051 C 2.7367865623076 16.62772521596051 2.7536716207897003 16.62772521596051 2.7874417377539 16.618469765528587 C 2.82121185471814 16.609214315096665 2.83809691320026 16.566639243109854 2.8718670301645 16.525915261209377 C 2.9056371471287 16.48519127930895 2.9225222056108002 16.414849856026326 2.956292322575 16.414849856026326 C 2.9900624395392 16.414849856026326 3.0069474980213 16.729535170711642 3.0407176149855 16.729535170711642 C 3.0744877319497 16.729535170711642 3.0913727904318002 16.662278897573014 3.125142907396 16.532085561497325 C 3.1589130243602 16.401892225421637 3.1757980828423 16.211229946524064 3.2095681998065 16.078568490333197 C 3.2433383167707 15.94590703414233 3.2602233752528003 15.868778280542985 3.293993492217 15.868778280542985 C 3.3277636091812397 15.868778280542985 3.3446486676633596 15.893459481694777 3.3784187846276 15.893459481694777 C 3.4121889015918 15.893459481694777 3.4290739600739 15.893459481694777 3.4628440770381 15.785479226655697 C 3.4966141940023 15.677498971616618 3.5134992524844 15.220896750308516 3.5472693694486 15.220896750308516 C 3.5810394864128 15.220896750308516 3.5979245448949 15.458453311394488 3.6316946618591 15.458453311394488 C 3.6654647788233 15.458453311394488 3.6823498373054 14.915466886055121 3.7161199542696 14.915466886055121 C 3.74989007123384 14.915466886055121 3.7667751297159597 15.05738379267791 3.8005452466802 15.05738379267791 C 3.8343153636444 15.05738379267791 3.8512004221265004 14.68716577540107 3.8849705390907 14.68716577540107 C 3.9187406560549 14.68716577540107 3.935625714537 14.742698477992594 3.9693958315012 14.745783628136568 C 4.0031659484654 14.748868778280542 4.0200510069475 14.745783628136568 4.0538211239117 14.748868778280542 C 4.0875912408759 14.751953928424516 4.104476299358 14.890785684903332 4.1382464163222 14.890785684903332 C 4.1720165332864 14.890785684903332 4.1889015917685 14.806869600987177 4.2226717087327 14.68716577540107 C 4.256441825696941 14.567461949814817 4.273326884179061 14.316947758124229 4.3070970011433 14.29226655697244 C 4.3408671181075 14.26758535582065 4.3577521765896 14.29226655697244 4.3915222935538 14.26758535582065 C 4.425292410518 14.24290415466886 4.4421774690001 14.115795968737144 4.4759475859643 14.060880296174414 C 4.5097177029285 14.005964623611682 4.526602761410599 14.038667215137805 4.5603728783748 13.993006993006993 C 4.594142995339 13.947346770876184 4.6110280538211 13.901069518716577 4.6447981707853 13.83257918552036 C 4.678568287749501 13.764088852324145 4.6954533462316 13.83257918552036 4.7292234631958 13.650555327025916 C 4.76299358016004 13.468531468531472 4.77987863864216 13.101398601398756 4.8136487556064 12.84841628959276 C 4.8474188725706 12.595433977787073 4.8643039310527 12.50843274372686 4.8980740480169 12.38564376799671 C 4.9318441649811 12.262854792266559 4.9487292234632 12.234471410942001 4.9824993404274 12.234471410942001 C 5.0162694573916 12.234471410942001 5.0331545158737 13.076717400246812 5.0669246328379 13.076717400246812 C 5.1006947498021 13.076717400246812 5.1175798082842 12.718222953516916 5.1513499252484 12.447346770876184 C 5.18512004221264 12.176470588235137 5.20200510069476 11.72233648704237 5.235775217659 11.72233648704237 C 5.2695453346232 11.72233648704237 5.2864303931053005 11.93212669683258 5.3202005100695 11.93212669683258 C 5.3539706270337 11.93212669683258 5.370855685515801 11.450843274372685 5.40462580248 11.284245166598108 C 5.4383959194442 11.117647058823527 5.4552809779263 11.099136157959686 5.4890510948905 11.099136157959686 C 5.5228212118546995 11.099136157959686 5.539706270336799 11.14788153023447 5.573476387301 11.197860962566844 C 5.6072465042652 11.247840394899217 5.6241315627473 11.349033319621554 5.6579016797115 11.349033319621554 C 5.69167179667574 11.349033319621554 5.708556855157861 11.055944055944055 5.7423269721221 11.055944055944055 C 5.776097089086301 11.055944055944055 5.7929821475684005 11.055944055944055 5.8267522645326 11.24413821472645 C 5.8605223814968 11.432332373508844 5.8774074399789 12.573220896750296 5.9111775569431 13.283422459893046 C 5.944947673907299 13.993624023035778 5.9618327323894 14.795146030440147 5.9956028493536 14.795146030440147 C 6.0293729663177995 14.795146030440147 6.0462580247999 11.50329082682024 6.0800281417641 11.228712464006582 C 6.113798258728339 10.954134101192924 6.13068331721046 10.954134101192924 6.1644534341747 10.954134101192924 C 6.1982235511389 10.954134101192924 6.215108609621 11.076923076923077 6.2488787265852 11.170094611271082 C 6.2826488435494 11.263266145619086 6.2995339020315 11.41999177293295 6.3333040189957 11.41999177293295 C 6.3670741359599 11.41999177293295 6.383959194442001 11.015837104072398 6.4177293114062 11.015837104072398 C 6.4514994283704 11.015837104072398 6.4683844868525 11.114561908679557 6.5021546038167 11.281160016454134 C 6.5359247207809 11.447758124228715 6.552809779263001 11.848827642945292 6.5865798962272 11.848827642945292 C 6.620350013191441 11.848827642945292 6.63723507167356 11.436034553681788 6.6710051886378 11.136157959687372 C 6.704775305602 10.836281365693305 6.7216603640841 10.67215137803373 6.7554304810483 10.349444672974084 C 6.789200598012501 10.026737967914439 6.8060856564945995 9.679967091731797 6.8398557734588 9.52262443438914 C 6.873625890423 9.365281777046484 6.8905109489051 9.418963389551626 6.9242810658693 9.365281777046484 C 6.958051182833499 9.311600164541343 6.974936241315601 9.25421637186343 7.0087063582798 9.25421637186343 C 7.042476475244039 9.25421637186343 7.059361533726159 9.2696421225833 7.0931316506904 9.2696421225833 C 7.1269017676546 9.2696421225833 7.1437868261367 9.004936240230355 7.1775569431009 8.840806252570957 C 7.211327060065099 8.676676264911558 7.2282121185472 8.448992184286302 7.2619822355114 8.448992184286302 C 7.2957523524756 8.448992184286302 7.3126374109577 8.463800904977376 7.3464075279219 8.504524886877828 C 7.380177644886101 8.54524886877828 7.397062703368201 8.652612093788564 7.4308328203324 8.652612093788564 C 7.4646029372966 8.652612093788564 7.4814879957787 8.408885232414644 7.5152581127429 8.408885232414644 C 7.54902822970714 8.408885232414644 7.56591328818926 8.763677498971616 7.5996834051535 8.763677498971616 C 7.6334535221177 8.763677498971616 7.650338580599799 8.526120937885644 7.684108697564 8.402714932126697 C 7.7178788145282 8.27930892636775 7.7347638730103 8.297202797202797 7.7685339899745 8.14664747017688 C 7.802304106938701 7.996092143150966 7.8191891654208 7.7208967503085155 7.852959282385 7.649938296997121 C 7.8867293993492 7.578979843685726 7.9036144578313 7.649938296997121 7.9373845747955 7.578979843685726 C 7.971154691759739 7.508021390374331 7.9880397502418585 7.233443027560675 8.0218098672061 7.233443027560675 C 8.055579984170299 7.233443027560675 8.0724650426524 7.310571781160014 8.1062351596166 7.310571781160014 C 8.1400052765808 7.310571781160014 8.1568903350629 7.176676264911555 8.1906604520271 7.06993006993007 C 8.2244305689913 6.963183874948579 8.241315627473401 6.868161250514192 8.2750857444376 6.776840806252572 C 8.308855861401799 6.685520361990951 8.3257409198839 6.71945701357466 8.3595110368481 6.613327848621967 C 8.3932811538123 6.5071986836692695 8.4101662122944 6.246194981489101 8.4439363292586 6.246194981489101 C 8.47770644622284 6.246194981489101 8.49459150470496 6.696626902509255 8.5283616216692 6.696626902509255 C 8.5621317386334 6.696626902509255 8.5790167971155 6.696626902509255 8.6127869140797 6.65034965034965 C 8.646557031043901 6.604072398190045 8.663442089526 6.44055944055944 8.6972122064902 6.44055944055944 C 8.7309823234544 6.44055944055944 8.7478673819365 6.551624845742495 8.7816374989007 6.551624845742495 C 8.815407615864899 6.551624845742495 8.832292674346998 6.079596873714522 8.8660627913112 6.079596873714522 C 8.8998329082754 6.079596873714522 8.9167179667575 6.079596873714522 8.9504880837217 6.314068284656521 C 8.98425820068594 6.548539695598521 9.00114325916806 7.27972027972028 9.0349133761323 7.27972027972028 C 9.0686834930965 7.27972027972028 9.0855685515786 6.410941999177302 9.1193386685428 6.070341423282599 C 9.153108785507 5.729740847387914 9.1699938439891 5.57671740024681 9.2037639609533 5.57671740024681 C 9.237534077917498 5.57671740024681 9.2544191363996 5.595228301110653 9.2881892533638 5.616824352118471 C 9.321959370327999 5.638420403126286 9.3388444288101 5.684697655285891 9.3726145457743 5.684697655285891 C 9.40638466273854 5.684697655285891 9.42326972122066 5.446524064171197 9.4570398381849 5.320649938296999 C 9.4908099551491 5.194775812422945 9.507695013631201 5.162690250925542 9.5414651305954 5.055327025915261 C 9.5752352475596 4.947963800904974 9.592120306041702 4.783833813245579 9.6258904230059 4.783833813245579 C 9.659660539970101 4.783833813245579 9.676545598452199 4.891814068284656 9.7103157154164 4.891814068284656 C 9.7440858323806 4.891814068284656 9.7609708908627 4.745577951460304 9.7947410078269 4.595639654463184 C 9.8285111247911 4.4457013574660635 9.8453961832732 4.28218839983538 9.8791663002374 4.142122583299056 C 9.91293641720164 4.0020567667625695 9.92982147568376 3.9841628959279167 9.963591592648 3.8953105717811596 C 9.997361709611999 3.806458247635033 10.014246768094 3.697860962566846 10.048016885058 3.697860962566846 C 10.0817870020224 3.697860962566846 10.098672060504601 3.7589469354175233 10.132442177469 3.8490333196215545 C 10.1662122944334 3.939119703825585 10.1830973529156 4.1482928835870005 10.21686746988 4.1482928835870005 C 10.250637586844 4.1482928835870005 10.267522645326 3.845948169477577 10.30129276229 3.7719045660222115 C 10.3350628792544 3.697860962566846 10.3519479377366 3.7675853558210632 10.385718054701 3.697860962566846 C 10.419488171665 3.6281365693134546 10.436373230147002 3.4232825997531897 10.470143347111 3.4232825997531897 C 10.5039134640754 3.4232825997531897 10.5207985225576 3.4232825997531897 10.554568639522 3.454134101192924 C 10.588338756486 3.4849856026326584 10.605223814968 3.5658165364064205 10.638993931932 3.8428630193336097 C 10.6727640488964 4.119909502264092 10.6896491073786 4.839366515837103 10.723419224343 4.839366515837103 C 10.757189341307 4.839366515837103 10.774074399789 4.552447552447553 10.807844516753 4.552447552447553 C 10.841614633717402 4.552447552447553 10.8584996921996 6.422048539695599 10.892269809164 6.422048539695599 C 10.926039926128002 6.422048539695599 10.942924984609999 5.064582476347187 10.976695101574 4.700534759358291 C 11.0104652185384 4.336487042369395 11.027350277020599 4.336487042369395 11.061120393985 4.336487042369395 C 11.094890510949 4.336487042369395 11.111775569431 4.464829288359293 11.145545686395 4.564788153023446 C 11.179315803359401 4.664747017688788 11.1962008618416 4.836281365693132 11.229970978806 4.836281365693132 C 11.263741095769998 4.836281365693132 11.280626154252 4.185314685312587 11.314396271216 3.830522418757713 C 11.348166388180399 3.4757301521986403 11.3650514466626 3.302961744139639 11.398821563627 3.062320032908268 C 11.432591680590999 2.8216783216797445 11.449476739073 2.627313862607977 11.483246856037 2.627313862607977 C 11.5170169730014 2.627313862607977 11.533902031483601 3.858288770053477 11.567672148448 3.858288770053477 C 11.601442265412 3.858288770053477 11.618327323894 3.858288770053477 11.652097440858 3.7287124640065805 C 11.6858675578224 3.599136157959684 11.7027526163046 3.1197038255875027 11.736522733269 2.8957219251336888 C 11.770292850233 2.671740024682526 11.787177908715 2.6834635952278605 11.820948025679 2.6088029617441393 C 11.8547181426434 2.5341423282595343 11.8716032011256 2.5316742081447927 11.90537331809 2.522418757712874 C 11.939143435054 2.513163307280955 11.956028493536 2.513163307280955 11.9897986105 2.513163307280955 C 12.023568727464399 2.513163307280955 12.0404537859466 2.513163307280955 12.074223902911 2.593377211024272 C 12.107994019875 2.6735911147675893 12.124879078357 2.954339777871453 12.158649195321 3.3368983957219243 C 12.1924193122854 3.7194570135769234 12.209304370767601 4.183463595226392 12.243074487732 4.506170300287948 C 12.276844604696 4.828877005345685 12.293729663178002 4.950431921020154 12.327499780142 4.950431921020154 C 12.3612698971064 4.950431921020154 12.378154955588599 3.994035376388318 12.411925072553 3.994035376388318 C 12.4456951895174 3.994035376388318 12.4625802479996 4.277869189633893 12.496350364964 4.277869189633893 C 12.530120481928 4.277869189633893 12.547005540410002 3.8058412176059235 12.580775657374 3.8058412176059235 C 12.6145457743384 3.8058412176059235 12.631430832820598 5.03681612505142 12.665200949785 5.317564788153025 C 12.698971066749 5.598313451254629 12.715856125231 5.598313451254629 12.749626242195 5.598313451254629 C 12.7833963591594 5.598313451254629 12.8002814176416 4.493829699712052 12.834051534606 4.379679144385026 C 12.86782165157 4.265528589058 12.884706710052 4.265528589058 12.918476827016 4.265528589058 C 12.952246943980402 4.265528589058 12.969132002462601 5.885232414644179 13.002902119427 5.885232414644179 C 13.036672236391002 5.885232414644179 13.053557294872999 5.227478403946361 13.087327411837 4.780748663101605 C 13.1210975288014 4.334018922251585 13.137982587283599 3.6515837104072375 13.171752704248 3.6515837104072375 C 13.205522821212 3.6515837104072375 13.222407879694 4.200740436034554 13.256177996658 4.200740436034554 C 13.289948113622401 4.200740436034554 13.306833172104598 4.200740436034554 13.340603289069 4.120526532291237 C 13.374373406032998 4.04031262854792 13.391258464515 3.5621143562320015 13.425028581479 3.5621143562320015 C 13.458798698443399 3.5621143562320015 13.4756837569256 3.7441382147264477 13.50945387389 3.7441382147264477 C 13.543223990853999 3.7441382147264477 13.560109049336 3.7392019744946787 13.5938791663 3.500411353352529 C 13.6276492832644 3.2616207322075534 13.644534341746601 2.6828465651994975 13.678304458711 2.550185109008634 C 13.712074575675 2.4175236528177706 13.728959634157002 2.550185109008634 13.762729751121 2.4175236528177706 C 13.7964998680854 2.284862196626907 13.813384926567602 1.2729329494035397 13.847155043532 1.2729329494035397 C 13.880925160496 1.2729329494035397 13.897810218978 1.6338955162484545 13.931580335942 1.6338955162484545 C 13.965350452906398 1.6338955162484545 13.9822355113886 1.4247223364876855 14.016005628353 1.3161250514191671 C 14.049775745316998 1.2075277663519397 14.066660803799 1.09090909090909 14.100430920763 1.09090909090909 C 14.134201037727399 1.09090909090909 14.1510860962096 1.09090909090909 14.184856213174 1.2235705470999605 C 14.218626330138 1.356232003290831 14.23551138862 2.1034553681632744 14.269281505584 2.4452900041135344 C 14.3030516225484 2.78712464006784 14.319936681030601 2.932743726861375 14.353706797995 2.932743726861375 C 14.387476914959 2.932743726861375 14.404361973441002 2.5656108597285083 14.438132090405 2.5656108597285083 C 14.471902207369402 2.5656108597285083 14.488787265851599 2.8340189222542165 14.522557382816 2.8340189222542165 C 14.55632749978 2.8340189222542165 14.573212558262 2.0442204853969557 14.606982675226 2.0442204853969557 C 14.640752792190401 2.0442204853969557 14.6576378506726 2.057795146029956 14.691407967637 2.13986013986014 C 14.725178084601001 2.2219251336893566 14.742063143082998 2.2978198272325177 14.775833260047 2.454545454545457 C 14.809603377011399 2.6112710818602425 14.826488435493598 2.6081859317153437 14.860258552458 2.9234882764294525 C 14.8940286694224 3.2387906211435613 14.9109137279046 4.031057178116001 14.944683844869 4.031057178116001 C 14.978453961833 4.031057178116001 14.995339020315 3.9786096256684473 15.029109137279 3.9786096256684473 C 15.062879254243402 3.9786096256684473 15.079764312725601 4.996092143148907 15.11353442969 5.345331139448785 C 15.147304546654002 5.694570135744548 15.164189605135999 5.724804607157548 15.1979597221 5.724804607157548 C 15.2317298390644 5.724804607157548 15.248614897546599 5.061497326203206 15.282385014511 4.959687371452077 C 15.316155131475 4.857877416700948 15.333040189957 4.959687371452077 15.366810306921 4.857877416700948 C 15.400580423885401 4.756067461949819 15.4174654823676 3.6626902509293484 15.451235599332 3.0222130810366075 C 15.485005716295998 2.3817359111514804 15.501890774778 1.655491567256277 15.535660891742 1.655491567256277 C 15.569431008706399 1.655491567256277 15.5863160671886 2.5008227067050584 15.620086184153 2.5008227067050584 C 15.653856301116999 2.5008227067050584 15.670741359599 2.1238173591104395 15.704511476563 1.9485808309337713 C 15.7382815935274 1.773344302755029 15.755166652009601 1.7764294529009357 15.788936768974 1.624640065816532 C 15.822706885938 1.472850678733925 15.839591944419999 1.1896338955162449 15.873362061384 1.1896338955162449 C 15.9071321783484 1.1896338955162449 15.924017236830599 1.4481694775806913 15.957787353795 1.5413410119292514 C 15.991557470759 1.634512546276704 16.008442529241 1.5413410119292514 16.042212646205 1.655491567256277 C 16.0759827631694 1.7696421225833028 16.092867821651602 1.8449197860945028 16.126637938616 2.142945290004114 C 16.16040805558 2.440970793910214 16.177293114062 2.2675853558258674 16.211063231026 3.1456190867955556 C 16.2448333479904 4.023652817775682 16.261718406472603 5.107157548325617 16.295488523437 6.53311394487865 C 16.329258640401 7.959070341414883 16.346143698883 10.275401069518718 16.379913815847 10.275401069518718 C 16.4136839328114 10.275401069518718 16.430568991293597 8.13739201974496 16.464339108258 8.13739201974496 C 16.498109225222 8.13739201974496 16.514994283704 9.260386672151377 16.548764400668 9.260386672151377 C 16.5825345176324 9.260386672151377 16.5994195761146 9.082064993830418 16.633189693079 8.96112710818593 C 16.666959810043 8.840189222542882 16.683844868525 8.655697243932538 16.717614985489 8.655697243932538 C 16.7513851024534 8.655697243932538 16.7682701609356 8.948786507610036 16.8020402779 8.948786507610036 C 16.835810394864 8.948786507610036 16.852695453346 8.331139448784327 16.88646557031 7.964623611682434 C 16.920235687274403 7.598107774576184 16.9371207457566 7.116207322089675 16.970890862721 7.116207322089675 C 17.004660979685 7.116207322089675 17.021546038167 7.924516659810777 17.055316155131 7.924516659810777 C 17.0890862720954 7.924516659810777 17.1059713305776 7.257507198683672 17.139741447542 6.850884409707941 C 17.173511564506402 6.444261620732211 17.1903966229886 5.891402714932127 17.224166739953 5.891402714932127 C 17.257936856917 5.891402714932127 17.274821915399 7.992389962978198 17.308592032363 7.992389962978198 C 17.3423621493274 7.992389962978198 17.3592472078096 7.992389962978198 17.393017324774 7.387700534759357 C 17.426787441738 6.783011106540517 17.44367250022 4.719045660222125 17.477442617184 4.166803784450842 C 17.5112127341484 3.6145619086795584 17.5280977926306 3.797202797203886 17.561867909595 3.6145619086795584 C 17.595638026559 3.4319210201574024 17.612523085041 3.4590703414220703 17.646293202005 3.253599341834633 C 17.6800633189694 3.048128342244775 17.696948377451598 2.5872069107363203 17.730718494416 2.5872069107363203 C 17.76448861138 2.5872069107363203 17.781373669862 2.7754010695187183 17.815143786826 2.7754010695187183 C 17.8489139037904 2.7754010695187183 17.8657989622726 2.4853969559851947 17.899569079237 2.4853969559851947 C 17.933339196201 2.4853969559851947 17.950224254683 2.5119292472250994 17.983994371647 2.8062525709584527 C 18.017764488611398 3.100575894695274 18.0346495470936 3.957013574660632 18.068419664058 3.957013574660632 C 18.102189781022 3.957013574660632 18.119074839504 3.81818181818182 18.152844956468 3.81818181818182 C 18.1866150734324 3.81818181818182 18.203500131914602 4.1914849856026315 18.237270248879 4.1914849856026315 C 18.271040365843 4.1914849856026315 18.287925424325 4.0076100370193934 18.321695541289 3.602221308103662 C 18.3554656582534 3.196832579183111 18.3723507167356 2.164541341011926 18.4061208337 2.164541341011926 C 18.439890950664 2.164541341011926 18.456776009146 2.164541341011926 18.49054612611 2.3249691484985604 C 18.524316243074402 2.4853969559851947 18.5412013015566 3.784245166598108 18.574971418521 4.243932538050185 C 18.608741535485 4.703619909502262 18.625626593967 4.700534759358288 18.659396710931 4.703619909502262 C 18.6931668278954 4.706705059646236 18.7100518863776 4.703619909502262 18.743822003342 4.706705059646236 C 18.777592120306 4.70979020979021 18.794477178788 5.703825586181625 18.828247295752 6.224598930481285 C 18.8620174127164 6.745372274787137 18.8789024711986 7.310571781160014 18.912672588163 7.310571781160014 C 18.946442705127 7.310571781160014 18.963327763609 6.378856437679968 18.997097880573 6.378856437679968 C 19.0308679975374 6.378856437679968 19.047753056019598 6.391197038252303 19.081523172984 6.989716166186753 C 19.115293289948 7.588235294114087 19.13217834843 9.371452077334428 19.165948465394 9.371452077334428 C 19.1997185823584 9.371452077334428 19.2166036408406 9.29123817359216 19.250373757805 9.115384615384615 C 19.284143874769 8.93953105717916 19.301028933251 8.916700946110186 19.334799050215 8.492184286301933 C 19.368569167179402 8.067667626488632 19.3854542256616 7.039078568490339 19.419224342626 6.9928013163307305 C 19.45299445959 6.946524064171122 19.469879518072 6.987865076100126 19.503649635036 6.946524064171122 C 19.537419752000396 6.905183052241631 19.5543048104826 6.786096256684491 19.588074927447 6.786096256684491 C 19.6218450444114 6.786096256684491 19.6387301028936 6.890991361577415 19.672500219858 7.2581242287124645 C 19.706270336822 7.62525709584315 19.723155395304 8.621760592348826 19.756925512268 8.621760592348826 C 19.790695629232403 8.621760592348826 19.8075806877146 8.279308926367749 19.841350804679 8.279308926367749 C 19.875120921643 8.279308926367749 19.892005980125 9.300493624023035 19.925776097089 9.300493624023035 C 19.959546214053397 9.300493624023035 19.9764312725356 9.240024681202094 20.0102013895 9.081447963800905 C 20.043971506464 8.9228712464016 20.060856564946 8.990744549565232 20.09462668191 8.507610037021802 C 20.128396798874398 8.024475524472678 20.1452818573566 6.665775401069517 20.179051974321 6.665775401069517 C 20.212822091285 6.665775401069517 20.229707149767002 7.191484985604497 20.263477266731 7.508021390374331 C 20.2972473836954 7.824557795147896 20.314132442177602 8.248457424928015 20.347902559142 8.248457424928015 C 20.381672676106 8.248457424928015 20.398557734588 8.229946524064172 20.432327851552 8.229946524064172 C 20.4660979685164 8.229946524064172 20.482983026998603 8.556972439325381 20.516753143963 8.556972439325381 C 20.550523260927 8.556972439325381 20.567408319409 7.7085561497326225 20.601178436373 7.7085561497326225 C 20.6349485533374 7.7085561497326225 20.651833611819598 7.7640888523241465 20.685603728784 7.7640888523241465 C 20.719373845748 7.7640888523241465 20.73625890423 6.9033319621554945 20.770029021194 6.866310160427808 C 20.8037991381584 6.829288358700122 20.8206841966406 6.866310160427808 20.854454313605 6.829288358700122 C 20.888224430569 6.792266556972436 20.905109489051 6.1647470176866035 20.938879606015 5.897573015220072 C 20.9726497229794 5.630399012750363 20.9895347814616 5.4934183463595225 21.023304898426 5.4934183463595225 C 21.05707501539 5.4934183463595225 21.073960073872 6.027149321266968 21.107730190836 6.027149321266968 C 21.141500307800403 6.027149321266968 21.1583853662826 5.874742904155261 21.192155483247 5.774167009461127 C 21.225925600211 5.673591114768178 21.242810658693 5.648909913615056 21.276580775657 5.5242698477992604 C 21.3103508926214 5.399629781981983 21.327235951103596 5.266351295763759 21.361006068068 5.1509666803784455 C 21.394776185031997 5.035582064994528 21.411661243514 4.947346770876184 21.445431360478 4.947346770876184 C 21.4792014774424 4.947346770876184 21.496086535924597 5.132455779514604 21.529856652889 5.132455779514604 C 21.563626769853 5.132455779514604 21.580511828335 5.010900863840857 21.614281945299 4.811600164541343 C 21.6480520622634 4.612299465239459 21.6649371207456 4.479020979023019 21.69870723771 4.1359522830111075 C 21.732477354674 3.792883587003274 21.749362413156 3.4707939119681583 21.78313253012 3.09625668449198 C 21.8169026470844 2.721719457011349 21.8337877055666 2.3650761003702137 21.867557822531 2.2632661456190846 C 21.9013279394954 2.1614561908679555 21.918212997977598 2.1614561908679555 21.951983114942 2.1614561908679555 C 21.985753231906 2.1614561908679555 22.002638290388 2.3126285479226674 22.036408407352 2.3126285479226674 C 22.0701785243164 2.3126285479226674 22.0870635827986 1.9115590292060887 22.120833699763 1.8035787741670113 C 22.154603816727 1.695598519127934 22.171488875209 1.7597696421222082 22.205258992173 1.695598519127934 C 22.239029109137398 1.6314273961329036 22.2559141676196 1.4827231591937498 22.289684284584 1.4827231591937498 C 22.323454401548 1.4827231591937498 22.340339460030002 1.4827231591937498 22.374109576994 1.5259152612093771 C 22.4078796939584 1.5691073632250045 22.424764752440602 1.8831756478794157 22.458534869405 2.241670094611269 C 22.492304986369 2.600164541338898 22.509190044851 3.318387494858083 22.542960161815 3.318387494858083 C 22.5767302787794 3.318387494858083 22.5936153372616 2.972850678733028 22.627385454226 2.972850678733028 C 22.66115557119 2.972850678733028 22.678040629672 3.7595639654463184 22.711810746636 3.7595639654463184 C 22.745580863600402 3.7595639654463184 22.7624659220826 3.5096668037844516 22.796236039047 3.5096668037844516 C 22.830006156011 3.5096668037844516 22.846891214493002 3.5670505964646617 22.880661331457 3.9477581242287094 C 22.914431448421404 4.328465651997363 22.9313165069036 5.413204442616205 22.965086623868 5.413204442616205 C 22.998856740832 5.413204442616205 23.015741799314004 5.213286713285627 23.049511916278 5.033730974907446 C 23.083282033242405 4.854175236527092 23.1001670917246 4.515425750719867 23.133937208689 4.515425750719867 C 23.167707325653 4.515425750719867 23.184592384135005 5.15405183052242 23.218362501099 5.15405183052242 C 23.252132618063403 5.15405183052242 23.2690176765456 4.9967091731797595 23.30278779351 4.9967091731797595 C 23.336557910474 4.9967091731797595 23.353442968956 4.9967091731797595 23.38721308592 5.033730974907446 C 23.4209832028844 5.070752776635132 23.4378682613666 5.552036199095024 23.471638378331 5.552036199095024 C 23.505408495295 5.552036199095024 23.522293553777 5.00904977375428 23.556063670741 4.777663512957631 C 23.589833787705402 4.546277252158229 23.6067188461876 4.395104895104897 23.640488963152 4.395104895104897 C 23.674259080116 4.395104895104897 23.691144138598 4.395104895104897 23.724914255562 4.543192102015631 C 23.758684372526396 4.691279308926365 23.7755694310086 5.453311394487866 23.809339547973 5.453311394487866 C 23.843109664937 5.453311394487866 23.859994723419 5.444055944055943 23.893764840383 5.444055944055943 C 23.927534957347397 5.444055944055943 23.9444200158296 5.614973262031579 23.978190132794 5.700123406005758 C 24.011960249758 5.7852735499789265 24.02884530824 5.869806663924312 24.062615425204 5.869806663924312 C 24.0963855421684 5.869806663924312 24.1132706006506 5.388523241464419 24.147040717615 5.388523241464419 C 24.180810834579397 5.388523241464419 24.1976958930616 6.918757712875362 24.231466010026 6.918757712875362 C 24.26523612699 6.918757712875362 24.282121185472 6.5707527766344365 24.315891302436 6.4529000411353366 C 24.349661419400398 6.3350473056348475 24.3665464778826 6.329494035376388 24.400316594847 6.329494035376388 C 24.434086711811 6.329494035376388 24.450971770293002 6.757095845333745 24.484741887257 7.199506375976963 C 24.5185120042214 7.641916906625394 24.535397062703602 8.541546688605512 24.569167179668 8.541546688605512 C 24.602937296632 8.541546688605512 24.619822355114 7.7856849033319655 24.653592472078 7.686960098724807 C 24.6873625890424 7.5882352941176485 24.704247647524603 7.5882352941176485 24.738017764489 7.5882352941176485 C 24.771787881453 7.5882352941176485 24.788672939935 8.112710818593172 24.822443056899 8.112710818593172 C 24.8562131738634 8.112710818593172 24.873098232345598 5.792677910324969 24.90686834931 5.792677910324969 C 24.940638466274 5.792677910324969 24.957523524756 7.776429452900043 24.99129364172 8.276223776223777 C 25.0250637586844 8.77601809954751 25.0419488171666 8.535993418344932 25.075718934131 8.77601809954751 C 25.109489051095 9.016042780747235 25.126374109577 9.172768408064329 25.160144226541 9.476347182229535 C 25.1939143435054 9.77992595639835 25.2107994019876 9.476347182229535 25.244569518952 10.293911970382558 C 25.278339635916 11.11147675853558 25.295224694398 14.554504319210201 25.328994811362 14.554504319210201 C 25.3627649283264 14.554504319210201 25.379649986808598 13.669066227889756 25.413420103773 13.669066227889756 C 25.447190220736996 13.669066227889756 25.464075279219 16.087823940765116 25.497845396183 16.48580830933772 C 25.5316155131474 16.883792677910325 25.548500571629596 16.883792677910325 25.582270688594 16.883792677910325 C 25.616040805557997 16.883792677910325 25.632925864039997 16.51665981077598 25.666695981004 16.263677498971617 C 25.7004660979684 16.010695187164302 25.717351156450597 15.942204853971482 25.751121273415 15.618881118881118 C 25.784891390379 15.295557383794598 25.801776448861 14.647058823529411 25.835546565825 14.647058823529411 C 25.8693166827894 14.647058823529411 25.8862017412716 15.63739201974496 25.919971858236 15.63739201974496 C 25.9537419752 15.63739201974496 25.970627033682 15.032702591526121 26.004397150646 15.032702591526121 C 26.0381672676104 15.032702591526121 26.0550523260926 16.504319210201565 26.088822443057 16.504319210201565 C 26.122592560021 16.504319210201565 26.139477618503 15.310366104483752 26.173247735467 15.310366104483752 C 26.2070178524314 15.310366104483752 26.2239029109136 16.007610037021802 26.257673027878 16.007610037021802 C 26.291443144842 16.007610037021802 26.308328203324 15.742287124640065 26.342098320288 15.742287124640065 C 26.3758684372524 15.742287124640065 26.3927534957346 15.742287124640065 26.426523612699 15.770053475935828 C 26.460293729663 15.797819827231592 26.477178788145 16.214315096668038 26.510948905109 16.214315096668038 C 26.5447190220734 16.214315096668038 26.5616040805556 16.08535582064994 26.59537419752 16.03846153846154 C 26.629144314484403 15.99156725627314 26.6460293729666 15.979843685726038 26.679799489931 15.979843685726038 C 26.713569606895 15.979843685726038 26.730454665377 16.17112299465241 26.764224782341 16.18037844508433 C 26.7979948993054 16.18963389551625 26.8148799577876 16.18963389551625 26.848650074752 16.18963389551625 C 26.882420191716 16.18963389551625 26.899305250198 16.176059234882736 26.933075367162 16.171122994652407 C 26.966845484126402 16.16618675442202 26.9837305426086 16.171122994652407 27.017500659573 16.16495269436446 C 27.051270776537002 16.15878239407651 27.068155835019002 15.81201151789313 27.101925951983 15.689839572192513 C 27.135696068947404 15.567667626490417 27.152581127429595 15.554092965857672 27.186351244394 15.554092965857672 C 27.220121361357997 15.554092965857672 27.237006419840004 15.890374331550802 27.270776536804 15.890374331550802 C 27.304546653768405 15.890374331550802 27.321431712250604 15.874948580830933 27.355201829215 15.874948580830933 C 27.388971946179005 15.874948580830933 27.405857004661005 15.967503085150144 27.439627121625 15.967503085150144 C 27.473397238589406 15.967503085150144 27.490282297071598 15.964417935006171 27.524052414036 15.964417935006171 C 27.557822531 15.964417935006171 27.574707589482 15.964417935006171 27.608477706446 15.967503085150144 C 27.6422478234104 15.970588235294116 27.6591328818926 16.09214315096643 27.692902998857 16.13410119292472 C 27.726673115821 16.176059234882512 27.743558174303 16.159399424105413 27.777328291267 16.177293294940355 C 27.811098408231402 16.195187165775508 27.8279834667136 16.207527766351205 27.861753583678 16.22357054709996 C 27.895523700642002 16.23961332784853 27.912408759124 16.233443027560817 27.946178876088 16.25750719868367 C 27.979948993052396 16.281571369806805 27.9968340515346 16.3173591114766 28.030604168499 16.34389140271493 C 28.064374285462996 16.370423693952944 28.081259343945 16.387083504730562 28.115029460909 16.390168654874536 C 28.148799577873397 16.39325380501851 28.165684636355603 16.390168654874536 28.19945475332 16.39325380501851 C 28.233224870284005 16.396338955162484 28.250109928766 16.615384615384613 28.28388004573 16.674002468120115 C 28.3176501626944 16.732620320855617 28.3345352211766 16.732620320855617 28.368305338141 16.732620320855617 C 28.402075455105 16.732620320855617 28.418960513587002 16.57836281365693 28.452730630551 16.57836281365693 C 28.4865007475154 16.57836281365693 28.503385805997603 16.60304401480872 28.537155922962 16.60304401480872 C 28.570926039926 16.60304401480872 28.587811098407997 16.596873714520772 28.621581215372 16.596873714520772 C 28.655351332336398 16.596873714520772 28.672236390818597 16.67091731797614 28.706006507783 16.67091731797614 C 28.739776624746998 16.67091731797614 28.756661683228998 16.603044014808557 28.790431800193 16.575277663512956 C 28.8242019171574 16.54751131221703 28.841086975639598 16.575277663512956 28.874857092604 16.532085561497325 C 28.908627209568397 16.488893459481694 28.925512268050603 16.28218839983546 28.959282385015 16.28218839983546 C 28.993052501979 16.28218839983546 29.009937560461005 16.291443850267378 29.043707677425 16.291443850267378 C 29.0774777943894 16.291443850267378 29.094362852871598 16.26244343891413 29.128132969836 16.245166598107776 C 29.1619030868 16.227889757301625 29.178788145282 16.205059646236116 29.212558262246 16.205059646236116 C 29.2463283792104 16.205059646236116 29.2632134376926 16.216166186754357 29.296983554657 16.22665569724393 C 29.330753671621 16.23714520773338 29.347638730103 16.25750719868367 29.381408847067 16.25750719868367 C 29.4151789640314 16.25750719868367 29.4320640225136 16.25133689839572 29.465834139478 16.25133689839572 C 29.499604256442 16.25133689839572 29.516489314924 16.314890991361843 29.550259431888 16.3593171534348 C 29.584029548852403 16.403743315508287 29.600914607334595 16.473467708761827 29.634684724299 16.473467708761827 C 29.668454841262996 16.473467708761827 29.685339899744996 16.437062937062844 29.719110016709 16.421020156314274 C 29.752880133673397 16.404977375565515 29.769765192155596 16.39325380501851 29.80353530912 16.39325380501851 C 29.837305426083997 16.39325380501851 29.854190484566004 16.414849856026326 29.88796060153 16.414849856026326 C 29.9217307184944 16.414849856026326 29.938615776976597 16.414849856026326 29.972385893941 16.411764705882355 C 30.006156010905 16.408679555738384 30.023041069387 16.31921020156314 30.056811186351 16.31921020156314 C 30.0905813033154 16.31921020156314 30.1074663617976 16.337721102426983 30.141236478762 16.337721102426983 C 30.175006595726 16.337721102426983 30.191891654208 16.327231591937444 30.225661771172 16.322295351707115 C 30.2594318881364 16.31735911147673 30.2763169466186 16.313039901275197 30.310087063583 16.313039901275197 C 30.343857180547 16.313039901275197 30.360742239029 16.313039901275197 30.394512355993 16.313039901275197 C 30.428282472957402 16.313039901275197 30.445167531439598 16.309954751131222 30.478937648404 16.309954751131222 C 30.512707765368 16.309954751131222 30.52959282385 16.332167832167958 30.563362940814 16.353146853146853 C 30.5971330577784 16.374125874125998 30.6140181162606 16.390785684903186 30.647788233225 16.414849856026326 C 30.681558350189 16.438914027149178 30.698443408671 16.473467708761827 30.732213525635 16.473467708761827 C 30.7659836425994 16.473467708761827 30.7828687010816 16.4210201563144 30.816638818046 16.39942410530646 C 30.85040893501 16.377828054298767 30.867293993492 16.38523241464406 30.901064110456 16.365487453722746 C 30.934834227420403 16.345742492801197 30.951719285902602 16.341423282599994 30.985489402867 16.3006993006993 C 31.019259519830996 16.25997531879909 31.036144578313003 16.16495269436446 31.069914695277 16.161867544220485 C 31.103684812241404 16.15878239407651 31.120569870723603 16.161867544220485 31.154339987688 16.15878239407651 C 31.188110104652004 16.155697243932536 31.204995163134004 15.918140682846563 31.238765280098 15.868778280542985 C 31.272535397062406 15.819415878239408 31.289420455544597 15.819415878239408 31.323190572509 15.819415878239408 C 31.356960689473404 15.819415878239408 31.373845747955603 15.850267379679144 31.40761586492 15.850267379679144 C 31.441385981884004 15.850267379679144 31.458271040366004 15.849033319621507 31.49204115733 15.841011929247223 C 31.525811274294405 15.832990538872844 31.542696332776597 15.826203208556247 31.576466449741 15.810160427807487 C 31.610236566704998 15.794117647058922 31.627121625187005 15.760798025503908 31.660891742151 15.760798025503908 C 31.6946618591154 15.760798025503908 31.711546917597605 15.760798025503908 31.745317034562 15.776223776223777 C 31.779087151526 15.791649526943646 31.795972210008 15.890374331550804 31.829742326972 15.893459481694777 C 31.8635124439364 15.896544631838749 31.8803975024186 15.896544631838749 31.914167619383 15.896544631838749 C 31.947937736347 15.896544631838749 31.998592911793 15.609625668449198 31.998592911793 15.609625668449198" class="highcharts-graph" data-z-index="1" stroke="#18DCA6" stroke-width="2" stroke-linejoin="round" stroke-linecap="round"/><path fill="none" d="M 0.001407088206842 21.431303990127518 C 0.001407088206842 21.431303990127518 0.05206226365315279 21.41896338955162 0.08583238061736 21.388111888111887 C 0.119602497581568 21.35726038667215 0.136487556063672 21.277046482928835 0.17025767302788 21.277046482928835 C 0.204027789992088 21.277046482928835 0.22091284847419201 21.44302756067461 0.2546829654384 21.567050596462362 C 0.28845308240260403 21.691073632250095 0.305338140884706 21.897161661867543 0.33910825784891 21.897161661867543 C 0.37287837481311803 21.897161661867543 0.38976343329522206 21.477581242287123 0.42353355025943 21.477581242287123 C 0.457303667223638 21.477581242287123 0.474188725705742 21.678116001645414 0.50795884266995 21.844714109419993 C 0.541728959634158 22.011312217194572 0.558614018116262 22.097696421225834 0.59238413508047 22.310571781160014 C 0.6261542520446781 22.523447141094195 0.643039310526782 22.90909090909091 0.67680942749099 22.90909090909091 C 0.7105795444551941 22.90909090909091 0.727464602937296 21.17832167832168 0.7612347199015 21.03640477169889 C 0.7950048368657081 20.8944878650761 0.8118898953478121 21.03640477169889 0.84566001231202 20.8944878650761 C 0.8794301292762281 20.752570958453312 0.896315187758332 20.314479638008997 0.93008530472254 20.095433977786918 C 0.963855421686764 19.876388317564736 0.9807404801688762 19.933772110242746 1.0145105971331 19.799259563965446 C 1.0482807140973 19.664747017688242 1.0651657725794001 19.650555327025913 1.0989358895436 19.422871246400657 C 1.1327060065078 19.1951871657754 1.1495910649899 18.911970382558618 1.1833611819541 18.66083916083916 C 1.2171312989182999 18.409707939119706 1.2340163574004 18.22891814068285 1.2677864743646 18.167215137803375 C 1.3015565913287999 18.1055121349239 1.3184416498108997 18.130810366104484 1.3522117667751 18.1055121349239 C 1.3859818837393 18.080213903743314 1.4028669422214 18.1055121349239 1.4366370591856 18.040723981900452 C 1.47040717614984 17.975935828877006 1.4872922346319601 17.503907856849036 1.5210623515962 17.494652406417114 C 1.5548324685604 17.48539695598519 1.5717175270425 17.48539695598519 1.6054876440067 17.48539695598519 C 1.6392577609709 17.48539695598519 1.6561428194530001 17.65508021390374 1.6899129364172 17.71986836692719 C 1.7236830533814 17.784656519950637 1.7405681118635001 17.722336487042373 1.7743382288277 17.809337721102427 C 1.8081083457919 17.896338955162484 1.8249934042740001 18.154874537227478 1.8587635212382 18.154874537227478 C 1.89253363820244 18.154874537227478 1.90941869668456 17.732208967503176 1.9431888136488 17.5779514603044 C 1.9769589306130002 17.42369395310581 1.9938439890950999 17.442821883998356 2.0276141060593 17.383587001234062 C 2.0613842230235 17.32435211846977 2.0782692815056 17.35767174002468 2.1120393984698 17.28177704648293 C 2.1458095154340002 17.205882352941178 2.1626945739161 17.0041135335253 2.1964646908803 17.0041135335253 C 2.2302348078445 17.0041135335253 2.2471198663266003 17.210818593171535 2.2808899832908 17.210818593171535 C 2.314660100255 17.210818593171535 2.3315451587371 16.930069930069845 2.3653152757013 16.785067873303166 C 2.3990853926655396 16.640065816536318 2.41597045114766 16.57034142328265 2.4497405681119 16.48580830933772 C 2.4835106850761 16.40127519539289 2.5003957435582 16.362402303578776 2.5341658605224 16.362402303578776 C 2.5679359774866 16.362402303578776 2.5848210359687 16.362402303578776 2.6185911529329 16.396338955162484 C 2.6523612698971 16.430275606746193 2.6692463283792 16.62772521596051 2.7030164453434 16.62772521596051 C 2.7367865623076 16.62772521596051 2.7536716207897003 16.62772521596051 2.7874417377539 16.618469765528587 C 2.82121185471814 16.609214315096665 2.83809691320026 16.566639243109854 2.8718670301645 16.525915261209377 C 2.9056371471287 16.48519127930895 2.9225222056108002 16.414849856026326 2.956292322575 16.414849856026326 C 2.9900624395392 16.414849856026326 3.0069474980213 16.729535170711642 3.0407176149855 16.729535170711642 C 3.0744877319497 16.729535170711642 3.0913727904318002 16.662278897573014 3.125142907396 16.532085561497325 C 3.1589130243602 16.401892225421637 3.1757980828423 16.211229946524064 3.2095681998065 16.078568490333197 C 3.2433383167707 15.94590703414233 3.2602233752528003 15.868778280542985 3.293993492217 15.868778280542985 C 3.3277636091812397 15.868778280542985 3.3446486676633596 15.893459481694777 3.3784187846276 15.893459481694777 C 3.4121889015918 15.893459481694777 3.4290739600739 15.893459481694777 3.4628440770381 15.785479226655697 C 3.4966141940023 15.677498971616618 3.5134992524844 15.220896750308516 3.5472693694486 15.220896750308516 C 3.5810394864128 15.220896750308516 3.5979245448949 15.458453311394488 3.6316946618591 15.458453311394488 C 3.6654647788233 15.458453311394488 3.6823498373054 14.915466886055121 3.7161199542696 14.915466886055121 C 3.74989007123384 14.915466886055121 3.7667751297159597 15.05738379267791 3.8005452466802 15.05738379267791 C 3.8343153636444 15.05738379267791 3.8512004221265004 14.68716577540107 3.8849705390907 14.68716577540107 C 3.9187406560549 14.68716577540107 3.935625714537 14.742698477992594 3.9693958315012 14.745783628136568 C 4.0031659484654 14.748868778280542 4.0200510069475 14.745783628136568 4.0538211239117 14.748868778280542 C 4.0875912408759 14.751953928424516 4.104476299358 14.890785684903332 4.1382464163222 14.890785684903332 C 4.1720165332864 14.890785684903332 4.1889015917685 14.806869600987177 4.2226717087327 14.68716577540107 C 4.256441825696941 14.567461949814817 4.273326884179061 14.316947758124229 4.3070970011433 14.29226655697244 C 4.3408671181075 14.26758535582065 4.3577521765896 14.29226655697244 4.3915222935538 14.26758535582065 C 4.425292410518 14.24290415466886 4.4421774690001 14.115795968737144 4.4759475859643 14.060880296174414 C 4.5097177029285 14.005964623611682 4.526602761410599 14.038667215137805 4.5603728783748 13.993006993006993 C 4.594142995339 13.947346770876184 4.6110280538211 13.901069518716577 4.6447981707853 13.83257918552036 C 4.678568287749501 13.764088852324145 4.6954533462316 13.83257918552036 4.7292234631958 13.650555327025916 C 4.76299358016004 13.468531468531472 4.77987863864216 13.101398601398756 4.8136487556064 12.84841628959276 C 4.8474188725706 12.595433977787073 4.8643039310527 12.50843274372686 4.8980740480169 12.38564376799671 C 4.9318441649811 12.262854792266559 4.9487292234632 12.234471410942001 4.9824993404274 12.234471410942001 C 5.0162694573916 12.234471410942001 5.0331545158737 13.076717400246812 5.0669246328379 13.076717400246812 C 5.1006947498021 13.076717400246812 5.1175798082842 12.718222953516916 5.1513499252484 12.447346770876184 C 5.18512004221264 12.176470588235137 5.20200510069476 11.72233648704237 5.235775217659 11.72233648704237 C 5.2695453346232 11.72233648704237 5.2864303931053005 11.93212669683258 5.3202005100695 11.93212669683258 C 5.3539706270337 11.93212669683258 5.370855685515801 11.450843274372685 5.40462580248 11.284245166598108 C 5.4383959194442 11.117647058823527 5.4552809779263 11.099136157959686 5.4890510948905 11.099136157959686 C 5.5228212118546995 11.099136157959686 5.539706270336799 11.14788153023447 5.573476387301 11.197860962566844 C 5.6072465042652 11.247840394899217 5.6241315627473 11.349033319621554 5.6579016797115 11.349033319621554 C 5.69167179667574 11.349033319621554 5.708556855157861 11.055944055944055 5.7423269721221 11.055944055944055 C 5.776097089086301 11.055944055944055 5.7929821475684005 11.055944055944055 5.8267522645326 11.24413821472645 C 5.8605223814968 11.432332373508844 5.8774074399789 12.573220896750296 5.9111775569431 13.283422459893046 C 5.944947673907299 13.993624023035778 5.9618327323894 14.795146030440147 5.9956028493536 14.795146030440147 C 6.0293729663177995 14.795146030440147 6.0462580247999 11.50329082682024 6.0800281417641 11.228712464006582 C 6.113798258728339 10.954134101192924 6.13068331721046 10.954134101192924 6.1644534341747 10.954134101192924 C 6.1982235511389 10.954134101192924 6.215108609621 11.076923076923077 6.2488787265852 11.170094611271082 C 6.2826488435494 11.263266145619086 6.2995339020315 11.41999177293295 6.3333040189957 11.41999177293295 C 6.3670741359599 11.41999177293295 6.383959194442001 11.015837104072398 6.4177293114062 11.015837104072398 C 6.4514994283704 11.015837104072398 6.4683844868525 11.114561908679557 6.5021546038167 11.281160016454134 C 6.5359247207809 11.447758124228715 6.552809779263001 11.848827642945292 6.5865798962272 11.848827642945292 C 6.620350013191441 11.848827642945292 6.63723507167356 11.436034553681788 6.6710051886378 11.136157959687372 C 6.704775305602 10.836281365693305 6.7216603640841 10.67215137803373 6.7554304810483 10.349444672974084 C 6.789200598012501 10.026737967914439 6.8060856564945995 9.679967091731797 6.8398557734588 9.52262443438914 C 6.873625890423 9.365281777046484 6.8905109489051 9.418963389551626 6.9242810658693 9.365281777046484 C 6.958051182833499 9.311600164541343 6.974936241315601 9.25421637186343 7.0087063582798 9.25421637186343 C 7.042476475244039 9.25421637186343 7.059361533726159 9.2696421225833 7.0931316506904 9.2696421225833 C 7.1269017676546 9.2696421225833 7.1437868261367 9.004936240230355 7.1775569431009 8.840806252570957 C 7.211327060065099 8.676676264911558 7.2282121185472 8.448992184286302 7.2619822355114 8.448992184286302 C 7.2957523524756 8.448992184286302 7.3126374109577 8.463800904977376 7.3464075279219 8.504524886877828 C 7.380177644886101 8.54524886877828 7.397062703368201 8.652612093788564 7.4308328203324 8.652612093788564 C 7.4646029372966 8.652612093788564 7.4814879957787 8.408885232414644 7.5152581127429 8.408885232414644 C 7.54902822970714 8.408885232414644 7.56591328818926 8.763677498971616 7.5996834051535 8.763677498971616 C 7.6334535221177 8.763677498971616 7.650338580599799 8.526120937885644 7.684108697564 8.402714932126697 C 7.7178788145282 8.27930892636775 7.7347638730103 8.297202797202797 7.7685339899745 8.14664747017688 C 7.802304106938701 7.996092143150966 7.8191891654208 7.7208967503085155 7.852959282385 7.649938296997121 C 7.8867293993492 7.578979843685726 7.9036144578313 7.649938296997121 7.9373845747955 7.578979843685726 C 7.971154691759739 7.508021390374331 7.9880397502418585 7.233443027560675 8.0218098672061 7.233443027560675 C 8.055579984170299 7.233443027560675 8.0724650426524 7.310571781160014 8.1062351596166 7.310571781160014 C 8.1400052765808 7.310571781160014 8.1568903350629 7.176676264911555 8.1906604520271 7.06993006993007 C 8.2244305689913 6.963183874948579 8.241315627473401 6.868161250514192 8.2750857444376 6.776840806252572 C 8.308855861401799 6.685520361990951 8.3257409198839 6.71945701357466 8.3595110368481 6.613327848621967 C 8.3932811538123 6.5071986836692695 8.4101662122944 6.246194981489101 8.4439363292586 6.246194981489101 C 8.47770644622284 6.246194981489101 8.49459150470496 6.696626902509255 8.5283616216692 6.696626902509255 C 8.5621317386334 6.696626902509255 8.5790167971155 6.696626902509255 8.6127869140797 6.65034965034965 C 8.646557031043901 6.604072398190045 8.663442089526 6.44055944055944 8.6972122064902 6.44055944055944 C 8.7309823234544 6.44055944055944 8.7478673819365 6.551624845742495 8.7816374989007 6.551624845742495 C 8.815407615864899 6.551624845742495 8.832292674346998 6.079596873714522 8.8660627913112 6.079596873714522 C 8.8998329082754 6.079596873714522 8.9167179667575 6.079596873714522 8.9504880837217 6.314068284656521 C 8.98425820068594 6.548539695598521 9.00114325916806 7.27972027972028 9.0349133761323 7.27972027972028 C 9.0686834930965 7.27972027972028 9.0855685515786 6.410941999177302 9.1193386685428 6.070341423282599 C 9.153108785507 5.729740847387914 9.1699938439891 5.57671740024681 9.2037639609533 5.57671740024681 C 9.237534077917498 5.57671740024681 9.2544191363996 5.595228301110653 9.2881892533638 5.616824352118471 C 9.321959370327999 5.638420403126286 9.3388444288101 5.684697655285891 9.3726145457743 5.684697655285891 C 9.40638466273854 5.684697655285891 9.42326972122066 5.446524064171197 9.4570398381849 5.320649938296999 C 9.4908099551491 5.194775812422945 9.507695013631201 5.162690250925542 9.5414651305954 5.055327025915261 C 9.5752352475596 4.947963800904974 9.592120306041702 4.783833813245579 9.6258904230059 4.783833813245579 C 9.659660539970101 4.783833813245579 9.676545598452199 4.891814068284656 9.7103157154164 4.891814068284656 C 9.7440858323806 4.891814068284656 9.7609708908627 4.745577951460304 9.7947410078269 4.595639654463184 C 9.8285111247911 4.4457013574660635 9.8453961832732 4.28218839983538 9.8791663002374 4.142122583299056 C 9.91293641720164 4.0020567667625695 9.92982147568376 3.9841628959279167 9.963591592648 3.8953105717811596 C 9.997361709611999 3.806458247635033 10.014246768094 3.697860962566846 10.048016885058 3.697860962566846 C 10.0817870020224 3.697860962566846 10.098672060504601 3.7589469354175233 10.132442177469 3.8490333196215545 C 10.1662122944334 3.939119703825585 10.1830973529156 4.1482928835870005 10.21686746988 4.1482928835870005 C 10.250637586844 4.1482928835870005 10.267522645326 3.845948169477577 10.30129276229 3.7719045660222115 C 10.3350628792544 3.697860962566846 10.3519479377366 3.7675853558210632 10.385718054701 3.697860962566846 C 10.419488171665 3.6281365693134546 10.436373230147002 3.4232825997531897 10.470143347111 3.4232825997531897 C 10.5039134640754 3.4232825997531897 10.5207985225576 3.4232825997531897 10.554568639522 3.454134101192924 C 10.588338756486 3.4849856026326584 10.605223814968 3.5658165364064205 10.638993931932 3.8428630193336097 C 10.6727640488964 4.119909502264092 10.6896491073786 4.839366515837103 10.723419224343 4.839366515837103 C 10.757189341307 4.839366515837103 10.774074399789 4.552447552447553 10.807844516753 4.552447552447553 C 10.841614633717402 4.552447552447553 10.8584996921996 6.422048539695599 10.892269809164 6.422048539695599 C 10.926039926128002 6.422048539695599 10.942924984609999 5.064582476347187 10.976695101574 4.700534759358291 C 11.0104652185384 4.336487042369395 11.027350277020599 4.336487042369395 11.061120393985 4.336487042369395 C 11.094890510949 4.336487042369395 11.111775569431 4.464829288359293 11.145545686395 4.564788153023446 C 11.179315803359401 4.664747017688788 11.1962008618416 4.836281365693132 11.229970978806 4.836281365693132 C 11.263741095769998 4.836281365693132 11.280626154252 4.185314685312587 11.314396271216 3.830522418757713 C 11.348166388180399 3.4757301521986403 11.3650514466626 3.302961744139639 11.398821563627 3.062320032908268 C 11.432591680590999 2.8216783216797445 11.449476739073 2.627313862607977 11.483246856037 2.627313862607977 C 11.5170169730014 2.627313862607977 11.533902031483601 3.858288770053477 11.567672148448 3.858288770053477 C 11.601442265412 3.858288770053477 11.618327323894 3.858288770053477 11.652097440858 3.7287124640065805 C 11.6858675578224 3.599136157959684 11.7027526163046 3.1197038255875027 11.736522733269 2.8957219251336888 C 11.770292850233 2.671740024682526 11.787177908715 2.6834635952278605 11.820948025679 2.6088029617441393 C 11.8547181426434 2.5341423282595343 11.8716032011256 2.5316742081447927 11.90537331809 2.522418757712874 C 11.939143435054 2.513163307280955 11.956028493536 2.513163307280955 11.9897986105 2.513163307280955 C 12.023568727464399 2.513163307280955 12.0404537859466 2.513163307280955 12.074223902911 2.593377211024272 C 12.107994019875 2.6735911147675893 12.124879078357 2.954339777871453 12.158649195321 3.3368983957219243 C 12.1924193122854 3.7194570135769234 12.209304370767601 4.183463595226392 12.243074487732 4.506170300287948 C 12.276844604696 4.828877005345685 12.293729663178002 4.950431921020154 12.327499780142 4.950431921020154 C 12.3612698971064 4.950431921020154 12.378154955588599 3.994035376388318 12.411925072553 3.994035376388318 C 12.4456951895174 3.994035376388318 12.4625802479996 4.277869189633893 12.496350364964 4.277869189633893 C 12.530120481928 4.277869189633893 12.547005540410002 3.8058412176059235 12.580775657374 3.8058412176059235 C 12.6145457743384 3.8058412176059235 12.631430832820598 5.03681612505142 12.665200949785 5.317564788153025 C 12.698971066749 5.598313451254629 12.715856125231 5.598313451254629 12.749626242195 5.598313451254629 C 12.7833963591594 5.598313451254629 12.8002814176416 4.493829699712052 12.834051534606 4.379679144385026 C 12.86782165157 4.265528589058 12.884706710052 4.265528589058 12.918476827016 4.265528589058 C 12.952246943980402 4.265528589058 12.969132002462601 5.885232414644179 13.002902119427 5.885232414644179 C 13.036672236391002 5.885232414644179 13.053557294872999 5.227478403946361 13.087327411837 4.780748663101605 C 13.1210975288014 4.334018922251585 13.137982587283599 3.6515837104072375 13.171752704248 3.6515837104072375 C 13.205522821212 3.6515837104072375 13.222407879694 4.200740436034554 13.256177996658 4.200740436034554 C 13.289948113622401 4.200740436034554 13.306833172104598 4.200740436034554 13.340603289069 4.120526532291237 C 13.374373406032998 4.04031262854792 13.391258464515 3.5621143562320015 13.425028581479 3.5621143562320015 C 13.458798698443399 3.5621143562320015 13.4756837569256 3.7441382147264477 13.50945387389 3.7441382147264477 C 13.543223990853999 3.7441382147264477 13.560109049336 3.7392019744946787 13.5938791663 3.500411353352529 C 13.6276492832644 3.2616207322075534 13.644534341746601 2.6828465651994975 13.678304458711 2.550185109008634 C 13.712074575675 2.4175236528177706 13.728959634157002 2.550185109008634 13.762729751121 2.4175236528177706 C 13.7964998680854 2.284862196626907 13.813384926567602 1.2729329494035397 13.847155043532 1.2729329494035397 C 13.880925160496 1.2729329494035397 13.897810218978 1.6338955162484545 13.931580335942 1.6338955162484545 C 13.965350452906398 1.6338955162484545 13.9822355113886 1.4247223364876855 14.016005628353 1.3161250514191671 C 14.049775745316998 1.2075277663519397 14.066660803799 1.09090909090909 14.100430920763 1.09090909090909 C 14.134201037727399 1.09090909090909 14.1510860962096 1.09090909090909 14.184856213174 1.2235705470999605 C 14.218626330138 1.356232003290831 14.23551138862 2.1034553681632744 14.269281505584 2.4452900041135344 C 14.3030516225484 2.78712464006784 14.319936681030601 2.932743726861375 14.353706797995 2.932743726861375 C 14.387476914959 2.932743726861375 14.404361973441002 2.5656108597285083 14.438132090405 2.5656108597285083 C 14.471902207369402 2.5656108597285083 14.488787265851599 2.8340189222542165 14.522557382816 2.8340189222542165 C 14.55632749978 2.8340189222542165 14.573212558262 2.0442204853969557 14.606982675226 2.0442204853969557 C 14.640752792190401 2.0442204853969557 14.6576378506726 2.057795146029956 14.691407967637 2.13986013986014 C 14.725178084601001 2.2219251336893566 14.742063143082998 2.2978198272325177 14.775833260047 2.454545454545457 C 14.809603377011399 2.6112710818602425 14.826488435493598 2.6081859317153437 14.860258552458 2.9234882764294525 C 14.8940286694224 3.2387906211435613 14.9109137279046 4.031057178116001 14.944683844869 4.031057178116001 C 14.978453961833 4.031057178116001 14.995339020315 3.9786096256684473 15.029109137279 3.9786096256684473 C 15.062879254243402 3.9786096256684473 15.079764312725601 4.996092143148907 15.11353442969 5.345331139448785 C 15.147304546654002 5.694570135744548 15.164189605135999 5.724804607157548 15.1979597221 5.724804607157548 C 15.2317298390644 5.724804607157548 15.248614897546599 5.061497326203206 15.282385014511 4.959687371452077 C 15.316155131475 4.857877416700948 15.333040189957 4.959687371452077 15.366810306921 4.857877416700948 C 15.400580423885401 4.756067461949819 15.4174654823676 3.6626902509293484 15.451235599332 3.0222130810366075 C 15.485005716295998 2.3817359111514804 15.501890774778 1.655491567256277 15.535660891742 1.655491567256277 C 15.569431008706399 1.655491567256277 15.5863160671886 2.5008227067050584 15.620086184153 2.5008227067050584 C 15.653856301116999 2.5008227067050584 15.670741359599 2.1238173591104395 15.704511476563 1.9485808309337713 C 15.7382815935274 1.773344302755029 15.755166652009601 1.7764294529009357 15.788936768974 1.624640065816532 C 15.822706885938 1.472850678733925 15.839591944419999 1.1896338955162449 15.873362061384 1.1896338955162449 C 15.9071321783484 1.1896338955162449 15.924017236830599 1.4481694775806913 15.957787353795 1.5413410119292514 C 15.991557470759 1.634512546276704 16.008442529241 1.5413410119292514 16.042212646205 1.655491567256277 C 16.0759827631694 1.7696421225833028 16.092867821651602 1.8449197860945028 16.126637938616 2.142945290004114 C 16.16040805558 2.440970793910214 16.177293114062 2.2675853558258674 16.211063231026 3.1456190867955556 C 16.2448333479904 4.023652817775682 16.261718406472603 5.107157548325617 16.295488523437 6.53311394487865 C 16.329258640401 7.959070341414883 16.346143698883 10.275401069518718 16.379913815847 10.275401069518718 C 16.4136839328114 10.275401069518718 16.430568991293597 8.13739201974496 16.464339108258 8.13739201974496 C 16.498109225222 8.13739201974496 16.514994283704 9.260386672151377 16.548764400668 9.260386672151377 C 16.5825345176324 9.260386672151377 16.5994195761146 9.082064993830418 16.633189693079 8.96112710818593 C 16.666959810043 8.840189222542882 16.683844868525 8.655697243932538 16.717614985489 8.655697243932538 C 16.7513851024534 8.655697243932538 16.7682701609356 8.948786507610036 16.8020402779 8.948786507610036 C 16.835810394864 8.948786507610036 16.852695453346 8.331139448784327 16.88646557031 7.964623611682434 C 16.920235687274403 7.598107774576184 16.9371207457566 7.116207322089675 16.970890862721 7.116207322089675 C 17.004660979685 7.116207322089675 17.021546038167 7.924516659810777 17.055316155131 7.924516659810777 C 17.0890862720954 7.924516659810777 17.1059713305776 7.257507198683672 17.139741447542 6.850884409707941 C 17.173511564506402 6.444261620732211 17.1903966229886 5.891402714932127 17.224166739953 5.891402714932127 C 17.257936856917 5.891402714932127 17.274821915399 7.992389962978198 17.308592032363 7.992389962978198 C 17.3423621493274 7.992389962978198 17.3592472078096 7.992389962978198 17.393017324774 7.387700534759357 C 17.426787441738 6.783011106540517 17.44367250022 4.719045660222125 17.477442617184 4.166803784450842 C 17.5112127341484 3.6145619086795584 17.5280977926306 3.797202797203886 17.561867909595 3.6145619086795584 C 17.595638026559 3.4319210201574024 17.612523085041 3.4590703414220703 17.646293202005 3.253599341834633 C 17.6800633189694 3.048128342244775 17.696948377451598 2.5872069107363203 17.730718494416 2.5872069107363203 C 17.76448861138 2.5872069107363203 17.781373669862 2.7754010695187183 17.815143786826 2.7754010695187183 C 17.8489139037904 2.7754010695187183 17.8657989622726 2.4853969559851947 17.899569079237 2.4853969559851947 C 17.933339196201 2.4853969559851947 17.950224254683 2.5119292472250994 17.983994371647 2.8062525709584527 C 18.017764488611398 3.100575894695274 18.0346495470936 3.957013574660632 18.068419664058 3.957013574660632 C 18.102189781022 3.957013574660632 18.119074839504 3.81818181818182 18.152844956468 3.81818181818182 C 18.1866150734324 3.81818181818182 18.203500131914602 4.1914849856026315 18.237270248879 4.1914849856026315 C 18.271040365843 4.1914849856026315 18.287925424325 4.0076100370193934 18.321695541289 3.602221308103662 C 18.3554656582534 3.196832579183111 18.3723507167356 2.164541341011926 18.4061208337 2.164541341011926 C 18.439890950664 2.164541341011926 18.456776009146 2.164541341011926 18.49054612611 2.3249691484985604 C 18.524316243074402 2.4853969559851947 18.5412013015566 3.784245166598108 18.574971418521 4.243932538050185 C 18.608741535485 4.703619909502262 18.625626593967 4.700534759358288 18.659396710931 4.703619909502262 C 18.6931668278954 4.706705059646236 18.7100518863776 4.703619909502262 18.743822003342 4.706705059646236 C 18.777592120306 4.70979020979021 18.794477178788 5.703825586181625 18.828247295752 6.224598930481285 C 18.8620174127164 6.745372274787137 18.8789024711986 7.310571781160014 18.912672588163 7.310571781160014 C 18.946442705127 7.310571781160014 18.963327763609 6.378856437679968 18.997097880573 6.378856437679968 C 19.0308679975374 6.378856437679968 19.047753056019598 6.391197038252303 19.081523172984 6.989716166186753 C 19.115293289948 7.588235294114087 19.13217834843 9.371452077334428 19.165948465394 9.371452077334428 C 19.1997185823584 9.371452077334428 19.2166036408406 9.29123817359216 19.250373757805 9.115384615384615 C 19.284143874769 8.93953105717916 19.301028933251 8.916700946110186 19.334799050215 8.492184286301933 C 19.368569167179402 8.067667626488632 19.3854542256616 7.039078568490339 19.419224342626 6.9928013163307305 C 19.45299445959 6.946524064171122 19.469879518072 6.987865076100126 19.503649635036 6.946524064171122 C 19.537419752000396 6.905183052241631 19.5543048104826 6.786096256684491 19.588074927447 6.786096256684491 C 19.6218450444114 6.786096256684491 19.6387301028936 6.890991361577415 19.672500219858 7.2581242287124645 C 19.706270336822 7.62525709584315 19.723155395304 8.621760592348826 19.756925512268 8.621760592348826 C 19.790695629232403 8.621760592348826 19.8075806877146 8.279308926367749 19.841350804679 8.279308926367749 C 19.875120921643 8.279308926367749 19.892005980125 9.300493624023035 19.925776097089 9.300493624023035 C 19.959546214053397 9.300493624023035 19.9764312725356 9.240024681202094 20.0102013895 9.081447963800905 C 20.043971506464 8.9228712464016 20.060856564946 8.990744549565232 20.09462668191 8.507610037021802 C 20.128396798874398 8.024475524472678 20.1452818573566 6.665775401069517 20.179051974321 6.665775401069517 C 20.212822091285 6.665775401069517 20.229707149767002 7.191484985604497 20.263477266731 7.508021390374331 C 20.2972473836954 7.824557795147896 20.314132442177602 8.248457424928015 20.347902559142 8.248457424928015 C 20.381672676106 8.248457424928015 20.398557734588 8.229946524064172 20.432327851552 8.229946524064172 C 20.4660979685164 8.229946524064172 20.482983026998603 8.556972439325381 20.516753143963 8.556972439325381 C 20.550523260927 8.556972439325381 20.567408319409 7.7085561497326225 20.601178436373 7.7085561497326225 C 20.6349485533374 7.7085561497326225 20.651833611819598 7.7640888523241465 20.685603728784 7.7640888523241465 C 20.719373845748 7.7640888523241465 20.73625890423 6.9033319621554945 20.770029021194 6.866310160427808 C 20.8037991381584 6.829288358700122 20.8206841966406 6.866310160427808 20.854454313605 6.829288358700122 C 20.888224430569 6.792266556972436 20.905109489051 6.1647470176866035 20.938879606015 5.897573015220072 C 20.9726497229794 5.630399012750363 20.9895347814616 5.4934183463595225 21.023304898426 5.4934183463595225 C 21.05707501539 5.4934183463595225 21.073960073872 6.027149321266968 21.107730190836 6.027149321266968 C 21.141500307800403 6.027149321266968 21.1583853662826 5.874742904155261 21.192155483247 5.774167009461127 C 21.225925600211 5.673591114768178 21.242810658693 5.648909913615056 21.276580775657 5.5242698477992604 C 21.3103508926214 5.399629781981983 21.327235951103596 5.266351295763759 21.361006068068 5.1509666803784455 C 21.394776185031997 5.035582064994528 21.411661243514 4.947346770876184 21.445431360478 4.947346770876184 C 21.4792014774424 4.947346770876184 21.496086535924597 5.132455779514604 21.529856652889 5.132455779514604 C 21.563626769853 5.132455779514604 21.580511828335 5.010900863840857 21.614281945299 4.811600164541343 C 21.6480520622634 4.612299465239459 21.6649371207456 4.479020979023019 21.69870723771 4.1359522830111075 C 21.732477354674 3.792883587003274 21.749362413156 3.4707939119681583 21.78313253012 3.09625668449198 C 21.8169026470844 2.721719457011349 21.8337877055666 2.3650761003702137 21.867557822531 2.2632661456190846 C 21.9013279394954 2.1614561908679555 21.918212997977598 2.1614561908679555 21.951983114942 2.1614561908679555 C 21.985753231906 2.1614561908679555 22.002638290388 2.3126285479226674 22.036408407352 2.3126285479226674 C 22.0701785243164 2.3126285479226674 22.0870635827986 1.9115590292060887 22.120833699763 1.8035787741670113 C 22.154603816727 1.695598519127934 22.171488875209 1.7597696421222082 22.205258992173 1.695598519127934 C 22.239029109137398 1.6314273961329036 22.2559141676196 1.4827231591937498 22.289684284584 1.4827231591937498 C 22.323454401548 1.4827231591937498 22.340339460030002 1.4827231591937498 22.374109576994 1.5259152612093771 C 22.4078796939584 1.5691073632250045 22.424764752440602 1.8831756478794157 22.458534869405 2.241670094611269 C 22.492304986369 2.600164541338898 22.509190044851 3.318387494858083 22.542960161815 3.318387494858083 C 22.5767302787794 3.318387494858083 22.5936153372616 2.972850678733028 22.627385454226 2.972850678733028 C 22.66115557119 2.972850678733028 22.678040629672 3.7595639654463184 22.711810746636 3.7595639654463184 C 22.745580863600402 3.7595639654463184 22.7624659220826 3.5096668037844516 22.796236039047 3.5096668037844516 C 22.830006156011 3.5096668037844516 22.846891214493002 3.5670505964646617 22.880661331457 3.9477581242287094 C 22.914431448421404 4.328465651997363 22.9313165069036 5.413204442616205 22.965086623868 5.413204442616205 C 22.998856740832 5.413204442616205 23.015741799314004 5.213286713285627 23.049511916278 5.033730974907446 C 23.083282033242405 4.854175236527092 23.1001670917246 4.515425750719867 23.133937208689 4.515425750719867 C 23.167707325653 4.515425750719867 23.184592384135005 5.15405183052242 23.218362501099 5.15405183052242 C 23.252132618063403 5.15405183052242 23.2690176765456 4.9967091731797595 23.30278779351 4.9967091731797595 C 23.336557910474 4.9967091731797595 23.353442968956 4.9967091731797595 23.38721308592 5.033730974907446 C 23.4209832028844 5.070752776635132 23.4378682613666 5.552036199095024 23.471638378331 5.552036199095024 C 23.505408495295 5.552036199095024 23.522293553777 5.00904977375428 23.556063670741 4.777663512957631 C 23.589833787705402 4.546277252158229 23.6067188461876 4.395104895104897 23.640488963152 4.395104895104897 C 23.674259080116 4.395104895104897 23.691144138598 4.395104895104897 23.724914255562 4.543192102015631 C 23.758684372526396 4.691279308926365 23.7755694310086 5.453311394487866 23.809339547973 5.453311394487866 C 23.843109664937 5.453311394487866 23.859994723419 5.444055944055943 23.893764840383 5.444055944055943 C 23.927534957347397 5.444055944055943 23.9444200158296 5.614973262031579 23.978190132794 5.700123406005758 C 24.011960249758 5.7852735499789265 24.02884530824 5.869806663924312 24.062615425204 5.869806663924312 C 24.0963855421684 5.869806663924312 24.1132706006506 5.388523241464419 24.147040717615 5.388523241464419 C 24.180810834579397 5.388523241464419 24.1976958930616 6.918757712875362 24.231466010026 6.918757712875362 C 24.26523612699 6.918757712875362 24.282121185472 6.5707527766344365 24.315891302436 6.4529000411353366 C 24.349661419400398 6.3350473056348475 24.3665464778826 6.329494035376388 24.400316594847 6.329494035376388 C 24.434086711811 6.329494035376388 24.450971770293002 6.757095845333745 24.484741887257 7.199506375976963 C 24.5185120042214 7.641916906625394 24.535397062703602 8.541546688605512 24.569167179668 8.541546688605512 C 24.602937296632 8.541546688605512 24.619822355114 7.7856849033319655 24.653592472078 7.686960098724807 C 24.6873625890424 7.5882352941176485 24.704247647524603 7.5882352941176485 24.738017764489 7.5882352941176485 C 24.771787881453 7.5882352941176485 24.788672939935 8.112710818593172 24.822443056899 8.112710818593172 C 24.8562131738634 8.112710818593172 24.873098232345598 5.792677910324969 24.90686834931 5.792677910324969 C 24.940638466274 5.792677910324969 24.957523524756 7.776429452900043 24.99129364172 8.276223776223777 C 25.0250637586844 8.77601809954751 25.0419488171666 8.535993418344932 25.075718934131 8.77601809954751 C 25.109489051095 9.016042780747235 25.126374109577 9.172768408064329 25.160144226541 9.476347182229535 C 25.1939143435054 9.77992595639835 25.2107994019876 9.476347182229535 25.244569518952 10.293911970382558 C 25.278339635916 11.11147675853558 25.295224694398 14.554504319210201 25.328994811362 14.554504319210201 C 25.3627649283264 14.554504319210201 25.379649986808598 13.669066227889756 25.413420103773 13.669066227889756 C 25.447190220736996 13.669066227889756 25.464075279219 16.087823940765116 25.497845396183 16.48580830933772 C 25.5316155131474 16.883792677910325 25.548500571629596 16.883792677910325 25.582270688594 16.883792677910325 C 25.616040805557997 16.883792677910325 25.632925864039997 16.51665981077598 25.666695981004 16.263677498971617 C 25.7004660979684 16.010695187164302 25.717351156450597 15.942204853971482 25.751121273415 15.618881118881118 C 25.784891390379 15.295557383794598 25.801776448861 14.647058823529411 25.835546565825 14.647058823529411 C 25.8693166827894 14.647058823529411 25.8862017412716 15.63739201974496 25.919971858236 15.63739201974496 C 25.9537419752 15.63739201974496 25.970627033682 15.032702591526121 26.004397150646 15.032702591526121 C 26.0381672676104 15.032702591526121 26.0550523260926 16.504319210201565 26.088822443057 16.504319210201565 C 26.122592560021 16.504319210201565 26.139477618503 15.310366104483752 26.173247735467 15.310366104483752 C 26.2070178524314 15.310366104483752 26.2239029109136 16.007610037021802 26.257673027878 16.007610037021802 C 26.291443144842 16.007610037021802 26.308328203324 15.742287124640065 26.342098320288 15.742287124640065 C 26.3758684372524 15.742287124640065 26.3927534957346 15.742287124640065 26.426523612699 15.770053475935828 C 26.460293729663 15.797819827231592 26.477178788145 16.214315096668038 26.510948905109 16.214315096668038 C 26.5447190220734 16.214315096668038 26.5616040805556 16.08535582064994 26.59537419752 16.03846153846154 C 26.629144314484403 15.99156725627314 26.6460293729666 15.979843685726038 26.679799489931 15.979843685726038 C 26.713569606895 15.979843685726038 26.730454665377 16.17112299465241 26.764224782341 16.18037844508433 C 26.7979948993054 16.18963389551625 26.8148799577876 16.18963389551625 26.848650074752 16.18963389551625 C 26.882420191716 16.18963389551625 26.899305250198 16.176059234882736 26.933075367162 16.171122994652407 C 26.966845484126402 16.16618675442202 26.9837305426086 16.171122994652407 27.017500659573 16.16495269436446 C 27.051270776537002 16.15878239407651 27.068155835019002 15.81201151789313 27.101925951983 15.689839572192513 C 27.135696068947404 15.567667626490417 27.152581127429595 15.554092965857672 27.186351244394 15.554092965857672 C 27.220121361357997 15.554092965857672 27.237006419840004 15.890374331550802 27.270776536804 15.890374331550802 C 27.304546653768405 15.890374331550802 27.321431712250604 15.874948580830933 27.355201829215 15.874948580830933 C 27.388971946179005 15.874948580830933 27.405857004661005 15.967503085150144 27.439627121625 15.967503085150144 C 27.473397238589406 15.967503085150144 27.490282297071598 15.964417935006171 27.524052414036 15.964417935006171 C 27.557822531 15.964417935006171 27.574707589482 15.964417935006171 27.608477706446 15.967503085150144 C 27.6422478234104 15.970588235294116 27.6591328818926 16.09214315096643 27.692902998857 16.13410119292472 C 27.726673115821 16.176059234882512 27.743558174303 16.159399424105413 27.777328291267 16.177293294940355 C 27.811098408231402 16.195187165775508 27.8279834667136 16.207527766351205 27.861753583678 16.22357054709996 C 27.895523700642002 16.23961332784853 27.912408759124 16.233443027560817 27.946178876088 16.25750719868367 C 27.979948993052396 16.281571369806805 27.9968340515346 16.3173591114766 28.030604168499 16.34389140271493 C 28.064374285462996 16.370423693952944 28.081259343945 16.387083504730562 28.115029460909 16.390168654874536 C 28.148799577873397 16.39325380501851 28.165684636355603 16.390168654874536 28.19945475332 16.39325380501851 C 28.233224870284005 16.396338955162484 28.250109928766 16.615384615384613 28.28388004573 16.674002468120115 C 28.3176501626944 16.732620320855617 28.3345352211766 16.732620320855617 28.368305338141 16.732620320855617 C 28.402075455105 16.732620320855617 28.418960513587002 16.57836281365693 28.452730630551 16.57836281365693 C 28.4865007475154 16.57836281365693 28.503385805997603 16.60304401480872 28.537155922962 16.60304401480872 C 28.570926039926 16.60304401480872 28.587811098407997 16.596873714520772 28.621581215372 16.596873714520772 C 28.655351332336398 16.596873714520772 28.672236390818597 16.67091731797614 28.706006507783 16.67091731797614 C 28.739776624746998 16.67091731797614 28.756661683228998 16.603044014808557 28.790431800193 16.575277663512956 C 28.8242019171574 16.54751131221703 28.841086975639598 16.575277663512956 28.874857092604 16.532085561497325 C 28.908627209568397 16.488893459481694 28.925512268050603 16.28218839983546 28.959282385015 16.28218839983546 C 28.993052501979 16.28218839983546 29.009937560461005 16.291443850267378 29.043707677425 16.291443850267378 C 29.0774777943894 16.291443850267378 29.094362852871598 16.26244343891413 29.128132969836 16.245166598107776 C 29.1619030868 16.227889757301625 29.178788145282 16.205059646236116 29.212558262246 16.205059646236116 C 29.2463283792104 16.205059646236116 29.2632134376926 16.216166186754357 29.296983554657 16.22665569724393 C 29.330753671621 16.23714520773338 29.347638730103 16.25750719868367 29.381408847067 16.25750719868367 C 29.4151789640314 16.25750719868367 29.4320640225136 16.25133689839572 29.465834139478 16.25133689839572 C 29.499604256442 16.25133689839572 29.516489314924 16.314890991361843 29.550259431888 16.3593171534348 C 29.584029548852403 16.403743315508287 29.600914607334595 16.473467708761827 29.634684724299 16.473467708761827 C 29.668454841262996 16.473467708761827 29.685339899744996 16.437062937062844 29.719110016709 16.421020156314274 C 29.752880133673397 16.404977375565515 29.769765192155596 16.39325380501851 29.80353530912 16.39325380501851 C 29.837305426083997 16.39325380501851 29.854190484566004 16.414849856026326 29.88796060153 16.414849856026326 C 29.9217307184944 16.414849856026326 29.938615776976597 16.414849856026326 29.972385893941 16.411764705882355 C 30.006156010905 16.408679555738384 30.023041069387 16.31921020156314 30.056811186351 16.31921020156314 C 30.0905813033154 16.31921020156314 30.1074663617976 16.337721102426983 30.141236478762 16.337721102426983 C 30.175006595726 16.337721102426983 30.191891654208 16.327231591937444 30.225661771172 16.322295351707115 C 30.2594318881364 16.31735911147673 30.2763169466186 16.313039901275197 30.310087063583 16.313039901275197 C 30.343857180547 16.313039901275197 30.360742239029 16.313039901275197 30.394512355993 16.313039901275197 C 30.428282472957402 16.313039901275197 30.445167531439598 16.309954751131222 30.478937648404 16.309954751131222 C 30.512707765368 16.309954751131222 30.52959282385 16.332167832167958 30.563362940814 16.353146853146853 C 30.5971330577784 16.374125874125998 30.6140181162606 16.390785684903186 30.647788233225 16.414849856026326 C 30.681558350189 16.438914027149178 30.698443408671 16.473467708761827 30.732213525635 16.473467708761827 C 30.7659836425994 16.473467708761827 30.7828687010816 16.4210201563144 30.816638818046 16.39942410530646 C 30.85040893501 16.377828054298767 30.867293993492 16.38523241464406 30.901064110456 16.365487453722746 C 30.934834227420403 16.345742492801197 30.951719285902602 16.341423282599994 30.985489402867 16.3006993006993 C 31.019259519830996 16.25997531879909 31.036144578313003 16.16495269436446 31.069914695277 16.161867544220485 C 31.103684812241404 16.15878239407651 31.120569870723603 16.161867544220485 31.154339987688 16.15878239407651 C 31.188110104652004 16.155697243932536 31.204995163134004 15.918140682846563 31.238765280098 15.868778280542985 C 31.272535397062406 15.819415878239408 31.289420455544597 15.819415878239408 31.323190572509 15.819415878239408 C 31.356960689473404 15.819415878239408 31.373845747955603 15.850267379679144 31.40761586492 15.850267379679144 C 31.441385981884004 15.850267379679144 31.458271040366004 15.849033319621507 31.49204115733 15.841011929247223 C 31.525811274294405 15.832990538872844 31.542696332776597 15.826203208556247 31.576466449741 15.810160427807487 C 31.610236566704998 15.794117647058922 31.627121625187005 15.760798025503908 31.660891742151 15.760798025503908 C 31.6946618591154 15.760798025503908 31.711546917597605 15.760798025503908 31.745317034562 15.776223776223777 C 31.779087151526 15.791649526943646 31.795972210008 15.890374331550804 31.829742326972 15.893459481694777 C 31.8635124439364 15.896544631838749 31.8803975024186 15.896544631838749 31.914167619383 15.896544631838749 C 31.947937736347 15.896544631838749 31.998592911793 15.609625668449198 31.998592911793 15.609625668449198" visibility="visible" data-z-index="2" class="highcharts-tracker-line" stroke-linecap="round" stroke-linejoin="round" stroke="rgba(192,192,192,0.0001)" stroke-width="22"/></g><g class="highcharts-markers highcharts-series-0 highcharts-spline-series highcharts-tracker" data-z-index="0.1" opacity="1" transform="translate(0,0) scale(1 1)" clip-path="none"/></g><text x="16" text-anchor="middle" class="highcharts-title" data-z-index="4" style="color:#333333;font-size:18px;fill:#333333;" y="14"/><text x="16" text-anchor="middle" class="highcharts-subtitle" data-z-index="4" style="color:#666666;fill:#666666;" y="14"/><text x="0" text-anchor="start" class="highcharts-caption" data-z-index="4" style="color:#666666;fill:#666666;" y="36"/></svg>