<svg width="160" height="202" viewBox="0 0 160 202" fill="none" xmlns="http://www.w3.org/2000/svg">
<path d="M128 58V157.967C128 160.728 125.761 162.967 123 162.967H114" stroke="#D1D7E4" stroke-width="2"/>
<path d="M29 70.1318V157.967C29 160.728 31.2386 162.967 34 162.967H43" stroke="#D1D7E4" stroke-width="2"/>
<rect x="41" y="127.099" width="76" height="74.9011" rx="8" fill="#D1D7E4"/>
<rect x="41" y="127.099" width="76" height="53.8022" rx="8" fill="#E7EBF4"/>
<g filter="url(#filter0_d)">
<path d="M86 15C86 12.2386 88.2386 10 91 10H138C140.761 10 143 12.2386 143 15V53.5275C143 56.2889 140.761 58.5275 138 58.5275H91C88.2386 58.5275 86 56.2889 86 53.5275V15Z" fill="white"/>
</g>
<circle opacity="0.9" cx="115" cy="37.75" r="6.25" fill="url(#paint0_linear)"/>
<circle cx="115" cy="30.25" r="6.25" fill="url(#paint1_linear)"/>
<g filter="url(#filter1_d)">
<rect x="15" y="54" width="64" height="54.8571" rx="5" fill="white"/>
</g>
<g clip-path="url(#clip0)">
<path d="M43.1171 80.4042L47.0011 76.5203L50.8871 80.4062L53.1471 78.1462L47.0011 72L40.8572 78.1442L43.1171 80.4042ZM37.0012 81.9997L39.2613 79.7396L41.5212 81.9995L39.2612 84.2596L37.0012 81.9997ZM43.1171 83.5958L47.0011 87.4797L50.887 83.5939L53.1482 85.8527L53.1471 85.8539L47.0011 92L40.857 85.856L40.8538 85.8528L43.1171 83.5958ZM52.4813 82.0009L54.7414 79.7409L57.0013 82.0008L54.7412 84.2609L52.4813 82.0009Z" fill="#18DCA6"/>
<path d="M49.2923 81.9989H49.2933L47 79.7056L45.3052 81.4004H45.3051L45.1104 81.5952L44.7088 81.9969L44.7056 82L44.7088 82.0033L47 84.2946L49.2933 82.0013L49.2944 82L49.2923 81.9989" fill="#18DCA6"/>
</g>
<g filter="url(#filter2_d)">
<rect x="30" y="14.2197" width="26" height="22.1538" rx="5" fill="white"/>
</g>
<g filter="url(#filter3_d)">
<rect x="90" y="74.3516" width="31" height="26.3736" rx="5" fill="white"/>
</g>
<defs>
<filter id="filter0_d" x="74" y="0" width="81" height="72.5275" filterUnits="userSpaceOnUse" color-interpolation-filters="sRGB">
<feFlood flood-opacity="0" result="BackgroundImageFix"/>
<feColorMatrix in="SourceAlpha" type="matrix" values="0 0 0 0 0 0 0 0 0 0 0 0 0 0 0 0 0 0 127 0"/>
<feOffset dy="2"/>
<feGaussianBlur stdDeviation="6"/>
<feColorMatrix type="matrix" values="0 0 0 0 0.0627451 0 0 0 0 0.152941 0 0 0 0 0.396078 0 0 0 0.11 0"/>
<feBlend mode="normal" in2="BackgroundImageFix" result="effect1_dropShadow"/>
<feBlend mode="normal" in="SourceGraphic" in2="effect1_dropShadow" result="shape"/>
</filter>
<filter id="filter1_d" x="3" y="44" width="88" height="78.8571" filterUnits="userSpaceOnUse" color-interpolation-filters="sRGB">
<feFlood flood-opacity="0" result="BackgroundImageFix"/>
<feColorMatrix in="SourceAlpha" type="matrix" values="0 0 0 0 0 0 0 0 0 0 0 0 0 0 0 0 0 0 127 0"/>
<feOffset dy="2"/>
<feGaussianBlur stdDeviation="6"/>
<feColorMatrix type="matrix" values="0 0 0 0 0.0627451 0 0 0 0 0.152941 0 0 0 0 0.396078 0 0 0 0.11 0"/>
<feBlend mode="normal" in2="BackgroundImageFix" result="effect1_dropShadow"/>
<feBlend mode="normal" in="SourceGraphic" in2="effect1_dropShadow" result="shape"/>
</filter>
<filter id="filter2_d" x="18" y="4.21973" width="50" height="46.1538" filterUnits="userSpaceOnUse" color-interpolation-filters="sRGB">
<feFlood flood-opacity="0" result="BackgroundImageFix"/>
<feColorMatrix in="SourceAlpha" type="matrix" values="0 0 0 0 0 0 0 0 0 0 0 0 0 0 0 0 0 0 127 0"/>
<feOffset dy="2"/>
<feGaussianBlur stdDeviation="6"/>
<feColorMatrix type="matrix" values="0 0 0 0 0.0627451 0 0 0 0 0.152941 0 0 0 0 0.396078 0 0 0 0.11 0"/>
<feBlend mode="normal" in2="BackgroundImageFix" result="effect1_dropShadow"/>
<feBlend mode="normal" in="SourceGraphic" in2="effect1_dropShadow" result="shape"/>
</filter>
<filter id="filter3_d" x="78" y="64.3516" width="55" height="50.3736" filterUnits="userSpaceOnUse" color-interpolation-filters="sRGB">
<feFlood flood-opacity="0" result="BackgroundImageFix"/>
<feColorMatrix in="SourceAlpha" type="matrix" values="0 0 0 0 0 0 0 0 0 0 0 0 0 0 0 0 0 0 127 0"/>
<feOffset dy="2"/>
<feGaussianBlur stdDeviation="6"/>
<feColorMatrix type="matrix" values="0 0 0 0 0.0627451 0 0 0 0 0.152941 0 0 0 0 0.396078 0 0 0 0.11 0"/>
<feBlend mode="normal" in2="BackgroundImageFix" result="effect1_dropShadow"/>
<feBlend mode="normal" in="SourceGraphic" in2="effect1_dropShadow" result="shape"/>
</filter>
<linearGradient id="paint0_linear" x1="112.5" y1="32.125" x2="118.75" y2="44" gradientUnits="userSpaceOnUse">
<stop stop-color="#08F4B4" stop-opacity="0.69"/>
<stop offset="1" stop-color="#08F4B4" stop-opacity="0.1"/>
</linearGradient>
<linearGradient id="paint1_linear" x1="118.75" y1="35.25" x2="110" y2="24.625" gradientUnits="userSpaceOnUse">
<stop stop-color="#08F4B4" stop-opacity="0.78"/>
<stop offset="1" stop-color="#08F4B4" stop-opacity="0"/>
</linearGradient>
<clipPath id="clip0">
<rect width="20" height="20" fill="white" transform="translate(37 72)"/>
</clipPath>
</defs>
</svg>
