<svg version="1.1" class="highcharts-root" style="font-family:&quot;Lucida Grande&quot;, &quot;Lucida Sans Unicode&quot;, Arial, Helvetica, sans-serif;font-size:12px;" xmlns="http://www.w3.org/2000/svg" width="32" height="24" viewBox="0 0 32 24"><desc>Created with Highcharts 8.2.2</desc><defs><clipPath id="highcharts-85dzsom-2002-"><rect x="0" y="0" width="32" height="24" fill="none"/></clipPath><clipPath id="highcharts-85dzsom-2377-"><rect x="-99" y="0" width="352" height="24" fill="none"/></clipPath><clipPath id="highcharts-85dzsom-2378-"><rect x="0" y="0" width="253" height="24" fill="none"/></clipPath></defs><rect fill="none" class="highcharts-background" x="0" y="0" width="32" height="24" rx="0" ry="0"/><rect fill="none" class="highcharts-plot-background" x="0" y="0" width="32" height="24"/><rect fill="none" class="highcharts-plot-border" data-z-index="1" x="0" y="0" width="32" height="24"/><g class="highcharts-series-group" data-z-index="3"><g class="highcharts-series highcharts-series-0 highcharts-spline-series" data-z-index="0.1" opacity="1" transform="translate(0,0) scale(1 1)" clip-path="url(#highcharts-85dzsom-2002-)"><path fill="none" d="M 0.0014297203109642 20.88017642734624 C 0.0014297203109642 20.88017642734624 0.052899651505674085 20.836069590786572 0.087212938968814 20.80666503308013 C 0.1215262264319524 20.777260475373687 0.1386828701635216 20.733153638814017 0.17299615762666 20.733153638814017 C 0.2073094450898 20.733153638814017 0.22446608882137 20.776525361431023 0.25877937628451 20.91325655476599 C 0.29309266374765 21.049987748100957 0.31024930747921997 21.41680960548885 0.34456259494236 21.41680960548885 C 0.37887588240549996 21.41680960548885 0.39603252613707 21.207302131830435 0.43034581360021 21.207302131830435 C 0.46465910106335 21.207302131830435 0.48181574479491995 21.380053908355794 0.51612903225806 21.534427836314627 C 0.5504423197212 21.688801764273464 0.5675989634527701 21.704239157069345 0.60191225091591 21.979171771624603 C 0.63622553837905 22.25410438617986 0.65338218211062 22.90909090909091 0.68769546957376 22.90909090909091 C 0.7220087570369 22.90909090909091 0.73916540076847 21.648370497427102 0.77347868823161 21.60058809115413 C 0.80779197569475 21.552805684881157 0.82494861942632 21.60058809115413 0.85926190688946 21.552805684881157 C 0.8935751943526 21.505023278608185 0.91073183808417 21.2830188679245 0.94504512554731 21.159519725557463 C 0.979358413010466 21.036020583190368 0.9965150567420441 21.03381524136246 1.0308283442052 20.935309973045822 C 1.06514163166832 20.836804704729285 1.08229827539988 20.769174222004352 1.116611562863 20.666993383974518 C 1.15092485032616 20.564812545944566 1.16808149405774 20.604508698848427 1.2023947815209 20.42440578289635 C 1.23670806898402 20.244302866944484 1.25386471271558 19.821612349914236 1.2881780001787 19.766478804214653 C 1.32249128764186 19.71134525851507 1.33964793137344 19.737074246508225 1.3739612188366 19.71134525851507 C 1.40827450629972 19.685616270521948 1.42543115003128 19.71134525851507 1.4597444374944 19.63783386424896 C 1.49405772495756 19.56432246998285 1.51121436868914 19.137956383239406 1.5455276561523 19.097525116393044 C 1.57984094361542 19.057093849546682 1.59699758734698 19.057093849546682 1.6313108748101 19.057093849546682 C 1.6656241622732602 19.057093849546682 1.6827808060048397 19.273217348688988 1.717094093468 19.37319284489096 C 1.75140738093112 19.473168341092812 1.76856402466268 19.457730948297044 1.8028773121258 19.556971330556237 C 1.8371905995889601 19.656211712815548 1.8543472433205401 19.86939475618721 1.8886605307837 19.86939475618721 C 1.92297381824682 19.86939475618721 1.9401304619783801 19.439353099730454 1.9744437494415 19.299681450624846 C 2.00875703690466 19.160009801519237 2.02591368063624 19.29012496937033 2.0602269680994 19.160009801519237 C 2.09454025556252 19.029894633668295 2.11169689929408 18.890958098505127 2.1460101867572 18.649105611369762 C 2.18032347422036 18.407253124234114 2.1974801179519394 17.950747365841707 2.2317934054151 17.950747365841707 C 2.26610669287822 17.950747365841707 2.28326333660978 18.38078902229846 2.3175766240729 18.38078902229846 C 2.35188991153606 18.38078902229846 2.36904655526764 17.750061259495347 2.4033598427308 17.535407988238177 C 2.43767313019392 17.32075471698126 2.45482977392548 17.415584415584355 2.4891430613886 17.307522666013234 C 2.5234563488517603 17.19946091644199 2.54061299258334 17.086253369272292 2.5749262800465 16.99509924038226 C 2.60923956750962 16.903945111492334 2.62639621124118 16.897329086008305 2.6607094987043 16.851752021563343 C 2.69502278616746 16.806174957118326 2.71217942989904 16.767213918157317 2.7464927173622 16.767213918157317 C 2.78080600482532 16.767213918157317 2.79796264855688 16.870129870129873 2.83227593602 16.870129870129873 C 2.8665892234831594 16.870129870129873 2.88374586721474 16.74516049987748 2.9180591546779 16.723107081597647 C 2.95237244214102 16.701053663317815 2.96952908587258 16.701053663317815 3.0038423733357 16.701053663317815 C 3.03815566079886 16.701053663317815 3.05531230453044 17.241362411173732 3.0896255919936 17.241362411173732 C 3.1239388794567198 17.241362411173732 3.1410955231882802 17.241362411173732 3.1754088106514 17.053908355795148 C 3.2097220981145598 16.866454300416564 3.22687874184614 16.22175937270304 3.2611920293093 15.756432246998287 C 3.29550531677242 15.291105121294075 3.3126619605039807 14.727272727272728 3.3469752479671 14.727272727272728 C 3.38128853543026 14.727272727272728 3.3984451791618406 14.955158049497673 3.432758466625 14.955158049497673 C 3.4670717540881197 14.955158049497673 3.48422839781968 14.955158049497673 3.5185416852828 14.841215388385201 C 3.5528549727459606 14.72727272727273 3.57001161647754 13.734868904680226 3.6043249039407 13.734868904680226 C 3.63863819140382 13.734868904680226 3.65579483513538 14.330311198235728 3.6901081225985 14.330311198235728 C 3.72442141006166 14.330311198235728 3.7415780537932397 13.172506738544476 3.7758913412564 13.172506738544476 C 3.81020462871952 13.172506738544476 3.8273612724510806 14.117128154864005 3.8616745599142 14.117128154864005 C 3.89598784737736 14.117128154864005 3.91314449110894 13.165155599117865 3.9474577785721 13.165155599117865 C 3.9817710660352197 13.165155599117865 3.9989277097667797 13.326880666503309 4.0332409972299 13.370987503062976 C 4.06755428469306 13.415094339622643 4.08471092842464 13.370987503062976 4.1190242158878 13.415094339622643 C 4.153337503350921 13.45920117618231 4.17049414708248 14.076696888017642 4.2048074345456 14.135506003430532 C 4.23912072200876 14.194315118843422 4.25627736574034 14.194315118843422 4.2905906532035 14.194315118843422 C 4.32490394066662 14.194315118843422 4.34206058439818 13.312178387650087 4.3763738718613 13.312178387650087 C 4.410687159324459 13.312178387650087 4.42784380305604 13.359960793923058 4.4621570905192 13.359960793923058 C 4.49647037798232 13.359960793923058 4.51362702171388 13.22175937270272 4.547940309177 13.132075471698116 C 4.58225359664016 13.042391570693407 4.599410240371741 13.06003430531741 4.6337235278349 12.91154128889978 C 4.66803681529802 12.763048272482319 4.68519345902958 12.548395001225096 4.7195067464927 12.38961038961039 C 4.75382003395586 12.230825777995497 4.77097667768744 12.215388385199763 4.8052899651506 12.117618230825778 C 4.83960325261372 12.019848076451908 4.856759896345279 11.900759617740752 4.8910731838084 11.900759617740752 C 4.92538647127156 11.900759617740752 4.94254311500314 11.92648860573389 4.9768564024663 11.92648860573389 C 5.01116968992942 11.92648860573389 5.02832633366098 11.033325165400637 5.0626396211241 11.003920607694193 C 5.0969529085872605 10.974516049987749 5.11410955231884 11.003920607694193 5.148422839782 10.974516049987749 C 5.18273612724512 10.945111492281304 5.19989277097668 10.974516049987749 5.2342060584398 10.79073756432247 C 5.268519345902961 10.60695907865719 5.285675989634539 10.037245773094831 5.3199892770977 10.037245773094831 C 5.35430256456082 10.037245773094831 5.37145920829238 10.42685616270522 5.4057724957555 10.42685616270522 C 5.44008578321866 10.42685616270522 5.4572424269502395 9.799068855672811 5.4915557144134 9.493261455525607 C 5.52586900187652 9.187454055378765 5.54302564560808 8.897819161970107 5.5773389330712 8.897819161970107 C 5.61165222053436 8.897819161970107 5.62880886426594 9.10953197745645 5.6631221517291 9.206567017887773 C 5.697435439192221 9.303602058318983 5.71459208292378 9.382994364126441 5.7489053703869 9.382994364126441 C 5.78321865785006 9.382994364126441 5.80037530158164 9.07792207792208 5.8346885890448 9.07792207792208 C 5.86900187650792 9.07792207792208 5.88615852023948 9.07792207792208 5.9204718077026 9.346238666993386 C 5.954785095165759 9.614555256064692 5.97194173889734 11.261210487625586 6.0062550263605 11.52952707669689 C 6.04056831382362 11.797843665768195 6.05772495755518 11.797843665768195 6.0920382450183 11.797843665768195 C 6.12635153248146 11.797843665768195 6.143508176213041 10.695907865719406 6.1778214636762 10.316589071306055 C 6.21213475113932 9.937270276893138 6.22929139487088 9.901249693702523 6.263604682334 9.901249693702523 C 6.29791796979716 9.901249693702523 6.31507461352874 10.812790982602305 6.3493879009919 10.812790982602305 C 6.38370118845502 10.812790982602305 6.400857832186579 10.812790982602305 6.4351711196497 10.772359715755943 C 6.46948440711286 10.731928448909581 6.48664105084444 10.467287429551583 6.5209543383076 10.467287429551583 C 6.55526762577072 10.467287429551583 6.572424269502281 10.699583435432574 6.6067375569654 10.834844400882139 C 6.64105084442856 10.970105366331863 6.65820748816014 11.143592256799808 6.6925207756233 11.143592256799808 C 6.72683406308642 11.143592256799808 6.74399070681798 10.534182798333498 6.7783039942811 10.125459446214162 C 6.812617281744261 9.716736094094339 6.829773925475839 9.647635383484769 6.864087212939 9.099975496201914 C 6.89840050040212 8.552315608919711 6.915557144133681 7.4275912766478775 6.9498704315968 7.387160009801519 C 6.984183719059959 7.346728742955161 7.00134036279154 7.387160009801519 7.0356536502547 7.346728742955161 C 7.06996693771782 7.306297476108803 7.08712358144938 7.240872335211915 7.1214368689125 7.162950257289882 C 7.15575015637566 7.085028179367758 7.17290680010724 7.162950257289882 7.2072200875704 6.957118353344768 C 7.241533375033521 6.751286449399654 7.25869001876508 6.462386669933616 7.2930033062282 6.078657191864739 C 7.32731659369136 5.694927713795415 7.344473237422941 5.038470962999266 7.3787865248861 5.038470962999266 C 7.413099812349221 5.038470962999266 7.430256456080779 5.273707424650896 7.4645697435439 5.409703504043126 C 7.498883031007059 5.545699583435508 7.51603967473864 5.718451359960795 7.5503529622018 5.718451359960795 C 7.58466624966492 5.718451359960795 7.601822893396479 5.519970595442295 7.6361361808596 5.519970595442295 C 7.67044946832276 5.519970595442295 7.68760611205434 5.891203136486158 7.7219193995175 5.891203136486158 C 7.75623268698062 5.891203136486158 7.77338933071218 5.290615045331895 7.8077026181753 5.067875520705709 C 7.84201590563846 4.845135996079262 7.859172549370041 5.024503798088849 7.8934858368332 4.777505513354573 C 7.927799124296319 4.530507228620583 7.94495576802788 3.865964224454789 7.979269055491 3.8328840970350413 C 8.01358234295416 3.7998039696152937 8.03073898668574 3.8328840970350413 8.0650522741489 3.7998039696152937 C 8.099365561612021 3.766723842195546 8.11652220534358 2.829453565302625 8.1508354928067 2.829453565302625 C 8.18514878026986 2.829453565302625 8.20230542400144 3.182308257779958 8.2366187114646 3.182308257779958 C 8.270931998927718 3.182308257779958 8.288088642659279 3.156579269786721 8.3224019301224 2.983827493261458 C 8.35671521758556 2.811075716735998 8.37387186131714 2.567017887772748 8.4081851487803 2.3185493751531503 C 8.44249843624342 2.0700808625338354 8.45965507997498 1.9870129870128481 8.4939683674381 1.7414849301641766 C 8.52828165490126 1.4959568733152253 8.54543829863284 1.0909090909090935 8.579751586096 1.0909090909090935 C 8.61406487355912 1.0909090909090935 8.63122151729068 2.3148738054398414 8.6655348047538 2.480274442538594 C 8.69984809221696 2.6456750796373463 8.71700473594854 2.6456750796373463 8.7513180234117 2.6456750796373463 C 8.78563131087482 2.6456750796373463 8.802787954606378 2.3883851997059544 8.8371012420695 2.3883851997059544 C 8.87141452953266 2.3883851997059544 8.88857117326424 2.6750796373437886 8.9228844607274 2.6750796373437886 C 8.95719774819052 2.6750796373437886 8.97435439192208 1.9767213918157331 9.0086676793852 1.9767213918157331 C 9.04298096684836 1.9767213918157331 9.06013761057994 2.2744425385932 9.0944508980431 2.752266601323207 C 9.128764185506219 3.2300906640526454 9.14592082923778 4.365841705464348 9.1802341167009 4.365841705464348 C 9.21454740416406 4.365841705464348 9.23170404789564 3.8946336682187055 9.2660173353588 3.6674834599362924 C 9.300330622821921 3.4403332516541383 9.317487266553481 3.2300906640529305 9.3518005540166 3.2300906640529305 C 9.38611384147976 3.2300906640529305 9.40327048521134 3.3587356040185337 9.4375837726745 3.5131095319774595 C 9.47189706013762 3.6674834599362014 9.48905370386918 4.001960303847099 9.5233669913323 4.001960303847099 C 9.55768027879546 4.001960303847099 9.57483692252704 4.001960303847099 9.6091502099902 3.8806665033080137 C 9.64346349745332 3.7593727027689283 9.66062014118488 3.391815731438374 9.694933428648 3.391815731438374 C 9.72924671611116 3.391815731438374 9.74640335984274 3.391815731438374 9.7807166473059 3.413869149718206 C 9.815029934769019 3.4359225679980376 9.832186578500579 3.5226660132320786 9.8664998659637 3.5682430776770424 C 9.90081315342686 3.613820142122058 9.91796979715844 3.6417544719431554 9.9522830846216 3.6417544719431554 C 9.98659637208456 3.6417544719431554 10.00375301581604 3.5476598872820806 10.038066303279 3.4175447194315147 C 10.0723795907422 3.287429551580046 10.089536234473801 3.294045577064448 10.123849521937 2.9911786326880687 C 10.1581628094002 2.68831168831169 10.1753194531318 1.9730458221024243 10.209632740595 1.9032099975496202 C 10.2439460280582 1.833374172996816 10.2611026717898 1.833374172996816 10.295415959253 1.833374172996816 C 10.329729246716202 1.833374172996816 10.3468858904478 3.3183043371722647 10.381199177911 3.3183043371722647 C 10.415512465374201 3.3183043371722647 10.432669109105799 3.288899779465819 10.466982396569 3.288899779465819 C 10.5012956840322 3.288899779465819 10.5184523277638 3.476353834844403 10.552765615227 3.476353834844403 C 10.5870789026898 3.476353834844403 10.604235546421199 3.2874295515801224 10.638548833884 3.22273952462632 C 10.6728621213472 3.1580494976717675 10.6900187650788 3.152903700073516 10.724332052542 3.152903700073516 C 10.7586453400052 3.152903700073516 10.7758019837368 3.5461896593972106 10.8101152712 3.5461896593972106 C 10.8444285586632 3.5461896593972106 10.861585202394801 3.4962019112962532 10.895898489858 3.476353834844403 C 10.930211777321201 3.456505758392552 10.9473684210528 3.446949277137957 10.981681708516 3.446949277137957 C 11.0159949959792 3.446949277137957 11.0331516397108 3.560891938250432 11.067464927174 3.560891938250432 C 11.1017782146368 3.560891938250432 11.1189348583682 3.3425630972791427 11.153248145831 3.182308257779958 C 11.187561433294201 3.0220534182788983 11.204718077025799 2.759617740749821 11.239031364489 2.759617740749821 C 11.2733446519522 2.759617740749821 11.2905012956838 3.437392795883354 11.324814583147 3.755697133055623 C 11.3591278706102 4.074001470227876 11.376284514341801 4.351139426611127 11.410597801805 4.351139426611127 C 11.4449110892682 4.351139426611127 11.4620677329998 4.024013722126931 11.496381020463 4.024013722126931 C 11.5306943079262 4.024013722126931 11.547850951657798 4.112227395246265 11.582164239121 4.112227395246265 C 11.6164775265842 4.112227395246265 11.6336341703158 3.6417544719431554 11.667947457779 3.6417544719431554 C 11.7022607452418 3.6417544719431554 11.7194173889732 6.207302131830435 11.753730676436 6.207302131830435 C 11.7880439638992 6.207302131830435 11.8052006076308 5.953687821612352 11.839513895094 5.953687821612352 C 11.873827182557202 5.953687821612352 11.8909838262888 6.049252634158297 11.925297113752 6.049252634158297 C 11.9596104012152 6.049252634158297 11.9767670449468 5.950012251899047 12.01108033241 5.950012251899047 C 12.045393619873199 5.950012251899047 12.0625502636048 6.376378338642493 12.096863551068 6.376378338642493 C 12.1311768385312 6.376378338642493 12.1483334822628 6.376378338642493 12.182646769726 6.20362656211713 C 12.216960057189201 6.030874785591767 12.234116700920799 4.715020828228379 12.268429988384 4.715020828228379 C 12.3027432758468 4.715020828228379 12.3198999195782 5.1729968145111185 12.354213207041 6.0051457975986295 C 12.3885264945042 6.837294780695876 12.4056831382358 8.875765743690275 12.439996425699 8.875765743690275 C 12.4743097131622 8.875765743690275 12.491466356893799 8.875765743690275 12.525779644357 8.787552070570941 C 12.560092931820199 8.699338397451607 12.5772495755518 8.210487625581965 12.611562863015 8.059789267336438 C 12.6458761504782 7.90909090909091 12.6630327942098 7.90909090909091 12.697346081673 7.90909090909091 C 12.7316593691362 7.90909090909091 12.7488160128678 7.90909090909091 12.783129300331 8.048762558196524 C 12.817442587793801 8.188434207302137 12.8345992315252 9.019112962509189 12.868912518988 9.019112962509189 C 12.9032258064512 9.019112962509189 12.9203824501828 9.019112962509189 12.954695737646 8.989708404802746 C 12.989009025109201 8.960303847096304 13.006165668840799 8.313403577554524 13.040478956304 8.118598382749328 C 13.0747922437672 7.923793187944131 13.091948887498798 7.923793187944131 13.126262174962 7.923793187944131 C 13.1605754624252 7.923793187944131 13.1777321061568 8.827983337417301 13.21204539362 8.827983337417301 C 13.2463586810832 8.827983337417301 13.2635153248148 8.564812545944623 13.297828612278 8.408968390100467 C 13.332141899741199 8.253124234256312 13.349298543472798 8.048762558196524 13.383611830936 8.048762558196524 C 13.417925118398802 8.048762558196524 13.4350817621302 8.161970105366935 13.469395049593 8.26562117128155 C 13.5037083370562 8.369272237197366 13.5208649807878 8.567017887772606 13.555178268251 8.567017887772606 C 13.589491555714199 8.567017887772606 13.6066481994458 8.42367066895369 13.640961486909 8.419995099240385 C 13.675274774372202 8.41631952952708 13.6924314181038 8.419995099240385 13.726744705567 8.41631952952708 C 13.761057993030201 8.412643959813774 13.778214636761799 8.41631952952708 13.812527924225 8.386914971820634 C 13.8468412116882 8.357510414114188 13.8639978554198 7.942171036510661 13.898311142883 7.942171036510661 C 13.932624430346198 7.942171036510661 13.9497810740778 8.00833129135016 13.984094361541 8.00833129135016 C 14.018407649003802 8.00833129135016 14.035564292735199 7.456995834354327 14.069877580198 7.456995834354327 C 14.104190867661199 7.456995834354327 14.121347511392798 7.505513354569958 14.155660798856 7.534182798333742 C 14.1899740863192 7.562852242097525 14.207130730050801 7.600343053173244 14.241444017514 7.600343053173244 C 14.275757304977201 7.600343053173244 14.2929139487088 7.497427101200689 14.327227236172 7.497427101200689 C 14.361540523635199 7.497427101200689 14.3786971673668 7.497427101200689 14.41301045483 7.534182798333742 C 14.447323742293198 7.570938495466795 14.4644803860248 8.046557216367516 14.498793673488 8.221514334721885 C 14.5331069609508 8.396471453074206 14.5502636046822 8.408968390100467 14.584576892145 8.408968390100467 C 14.6188901796082 8.408968390100467 14.6360468233398 8.166380789022298 14.670360110803 8.166380789022298 C 14.704673398266198 8.166380789022298 14.7218300419978 8.272972310708163 14.756143329461 8.272972310708163 C 14.7904566169242 8.272972310708163 14.807613260655803 7.916442048517521 14.841926548119 7.916442048517521 C 14.8762398355822 7.916442048517521 14.893396479313799 7.96348934084783 14.927709766777 8.019358000490076 C 14.9620230542402 8.075226660132321 14.979179697971801 8.131830433717228 15.013492985435 8.195785346728746 C 15.0478062728982 8.259740259740264 15.0649629166298 8.195785346728746 15.099276204093 8.339132565547663 C 15.1335894915558 8.48247978436658 15.150746135287198 9.651310953197749 15.18505942275 9.651310953197749 C 15.219372710213198 9.651310953197749 15.2365293539448 9.570448419505027 15.270842641408 9.570448419505027 C 15.305155928871198 9.570448419505027 15.3223125726028 10.026219063954914 15.356625860066 10.143837294780692 C 15.390939147529199 10.26145552560647 15.4080957912608 10.26145552560647 15.442409078724 10.26145552560647 C 15.4767223661872 10.26145552560647 15.4938790099188 10.086498407253126 15.528192297382 9.97108551825533 C 15.562505584845201 9.855672629257535 15.5796622285768 9.808625336927225 15.61397551604 9.684391080617496 C 15.6482888035032 9.560156824307768 15.665445447234799 9.47635383484514 15.699758734698 9.34991423670669 C 15.734072022160799 9.22347463856972 15.7512286658922 9.05219308992894 15.785541953355 9.05219308992894 C 15.8198552408182 9.05219308992894 15.8370118845498 9.438127909826026 15.871325172013 9.438127909826026 C 15.905638459476199 9.438127909826026 15.9227951032078 9.324185248713553 15.957108390671 9.287429551580496 C 15.991421678134202 9.25067385444744 16.008578321865798 9.266111247243323 16.042891609329 9.25067385444744 C 16.0772048967922 9.235236461651557 16.0943615405238 9.21024258760108 16.128674827987 9.21024258760108 C 16.162988115450197 9.21024258760108 16.180144759181797 9.24626317079091 16.214458046645 9.34256309728008 C 16.2487713341078 9.438863023768121 16.265927977839198 9.577799558932304 16.300241265302 9.691742220044109 C 16.3345545527652 9.805684881157248 16.3517111964968 9.691742220044109 16.38602448396 9.91227640284244 C 16.4203377714232 10.132810585640772 16.4374944151548 10.453320264641002 16.471807702618 10.798088703749082 C 16.5061209900812 11.142857142857126 16.5232776338128 11.230335702033818 16.557590921276 11.636118598382751 C 16.591904208739198 12.041901494731686 16.609060852470797 12.827003185493753 16.643374139934 12.827003185493753 C 16.6776874273972 12.827003185493753 16.694844071128802 12.341827983337419 16.729157358592 12.341827983337419 C 16.7634706460552 12.341827983337419 16.7806272897868 12.77922077922078 16.81494057725 12.77922077922078 C 16.8492538647128 12.77922077922078 16.866410508444197 12.74908110757138 16.900723795907 12.698358245528057 C 16.935037083370197 12.647635383484145 16.952193727101797 12.601323205096794 16.986507014565 12.525606469002696 C 17.0208203020282 12.449889732908606 17.0379769457598 12.405782896348937 17.072290233223 12.319774565057585 C 17.1066035206862 12.233766233766236 17.1237601644178 12.158784611614804 17.158073451881 12.095564812545947 C 17.192386739344197 12.03234501347709 17.2095433830758 12.003675569713307 17.243856670539 12.003675569713307 C 17.278169958002202 12.003675569713307 17.2953266017338 12.084538103406029 17.329639889197 12.084538103406029 C 17.3639531766602 12.084538103406029 17.3811098203918 11.989708404803027 17.415423107855 11.941190884587112 C 17.4497363953178 11.89267336437176 17.4668930390492 11.84195050232786 17.501206326512 11.84195050232786 C 17.5355196139752 11.84195050232786 17.5526762577068 11.996324430286695 17.58698954517 11.996324430286695 C 17.621302832633198 11.996324430286695 17.6384594763648 11.996324430286695 17.672772763828 11.937515314873806 C 17.707086051291203 11.878706199460918 17.724242695022802 11.17152658662093 17.758555982486 10.908355795148251 C 17.7928692699492 10.645185003675573 17.8100259136808 10.741484930164173 17.844339201144 10.621661357510417 C 17.8786524886072 10.501837784856649 17.895809132338798 10.501102670915113 17.930122419802 10.30923793187944 C 17.9644357072648 10.117373192846012 17.9815923509962 9.662337662337665 18.015905638459 9.662337662337665 C 18.050218925922202 9.662337662337665 18.0673755696538 9.776280323450136 18.101688857117 9.776280323450136 C 18.1360021445802 9.776280323450136 18.1531587883118 9.640284244057831 18.187472075775 9.640284244057831 C 18.2217853632382 9.640284244057831 18.2389420069698 9.640284244057831 18.273255294433 9.82406272972311 C 18.3075685818962 10.007841215388389 18.324725225627798 10.687821612349916 18.359038513091 10.779710855182554 C 18.3933518005542 10.871600098015191 18.4105084442858 10.842195540308746 18.444821731749 10.871600098015191 C 18.479135019212197 10.901004655721636 18.496291662943797 10.926733643714778 18.530604950407 10.926733643714778 C 18.5649182378698 10.926733643714778 18.582074881601198 10.92011761822996 18.616388169064 10.772359715755943 C 18.6507014565272 10.624601813280195 18.667858100258798 10.187944131340357 18.702171387722 10.187944131340357 C 18.7364846751852 10.187944131340357 18.7536413189168 10.187944131340357 18.78795460638 10.191619701053666 C 18.8222678938432 10.195295270766975 18.8394245375748 11.117863268806666 18.873737825038 11.206076941926 C 18.908051112501198 11.294290615045334 18.9252077562328 11.279588336192113 18.959521043696 11.294290615045334 C 18.9938343311592 11.308992893898555 19.010990974890802 11.294290615045334 19.045304262354 11.308992893898555 C 19.0796175498172 11.323695172751776 19.0967741935488 11.691987258023925 19.131087481012 11.875030629747613 C 19.165400768474797 12.05807400146916 19.1825574122062 12.224209752511642 19.216870699669 12.224209752511642 C 19.251183987132197 12.224209752511642 19.268340630863797 12.194805194805198 19.302653918327 12.194805194805198 C 19.3369672057902 12.194805194805198 19.3541238495218 12.573388875275668 19.388437136985 12.573388875275668 C 19.4227504244482 12.573388875275668 19.4399070681798 12.102915951972559 19.474220355643 12.102915951972559 C 19.508533643106198 12.102915951972559 19.5256902868378 12.67262925753492 19.560003574301 12.67262925753492 C 19.594316861764202 12.67262925753492 19.611473505495802 12.555011026709142 19.645786792959 12.555011026709142 C 19.680100080421802 12.555011026709142 19.6972567241532 13.113697623131587 19.731570011616 13.113697623131587 C 19.7658832990792 13.113697623131587 19.783039942810802 13.045332026464104 19.817353230274 12.97035040431267 C 19.8516665177372 12.895368782161237 19.8688231614688 12.97035040431267 19.903136448932 12.738789512374419 C 19.9374497363952 12.507228620436168 19.9546063801268 11.676549865229113 19.98891966759 11.676549865229113 C 20.023232955053203 11.676549865229113 20.0403895987848 12.128644939965687 20.074702886248 12.308747855917668 C 20.1090161737112 12.48885077186963 20.1261728174428 12.577064444988974 20.160486104906 12.577064444988974 C 20.194799392369198 12.577064444988974 20.211956036100798 12.51457975986278 20.246269323564 12.51457975986278 C 20.2805826110268 12.51457975986278 20.2977392547582 12.81230090664053 20.332052542221 12.81230090664053 C 20.366365829684202 12.81230090664053 20.383522473415802 12.305072286204364 20.417835760879 12.305072286204364 C 20.4521490483422 12.305072286204364 20.4693056920738 12.352854692477335 20.503618979537 12.352854692477335 C 20.5379322670002 12.352854692477335 20.555088910731797 11.816221514334725 20.589402198195 11.816221514334725 C 20.6237154856582 11.816221514334725 20.6408721293898 11.908110757167364 20.675185416853 11.908110757167364 C 20.7094987043162 11.908110757167364 20.7266553480478 11.579514824797846 20.760968635511 11.459691252144085 C 20.795281922974198 11.339867679490323 20.8124385667058 11.308992893898555 20.846751854169 11.308992893898555 C 20.8810651416318 11.308992893898555 20.898221785363198 11.51261945601608 20.932535072826 11.580985052683168 C 20.966848360289198 11.649350649351048 20.984005004020798 11.650820877235972 21.018318291484 11.650820877235972 C 21.0526315789472 11.650820877235972 21.069788222678802 11.381034060279344 21.104101510142 11.257534917912277 C 21.1384147976052 11.134035775545211 21.1555714413368 11.126684636118599 21.1898847288 11.033325165400639 C 21.2241980162632 10.939965694682677 21.2413546599948 10.820142122028914 21.275667947458 10.79073756432247 C 21.309981234921203 10.761333006616026 21.327137878652803 10.79073756432247 21.361451166116 10.761333006616026 C 21.3957644535788 10.731928448909581 21.412921097310203 10.742955158048554 21.447234384773 10.581230090664056 C 21.4815476722362 10.419505023277663 21.498704315967796 10.174712080372469 21.533017603431 9.952707669688802 C 21.567330890894198 9.730703259005157 21.5844875346258 9.708649840725315 21.618800822089 9.471208037245775 C 21.6531141095522 9.233766233766234 21.670270753283802 8.765498652291106 21.704584040747 8.765498652291106 C 21.738897328210204 8.765498652291106 21.7560539719418 8.775055133545706 21.790367259405 8.872090173976968 C 21.8246805468682 8.969125214408239 21.8418371905998 9.25067385444744 21.876150478063 9.25067385444744 C 21.910463765526202 9.25067385444744 21.9276204092578 9.107326635628523 21.961933696721 9.107326635628523 C 21.996246984183802 9.107326635628523 22.0134036279152 9.338887527566774 22.047716915378 9.338887527566774 C 22.082030202841203 9.338887527566774 22.099186846572803 9.228620436167606 22.133500134036 9.228620436167606 C 22.1678134214992 9.228620436167606 22.1849700652308 9.390345503553059 22.219283352694 9.526341582945358 C 22.253596640157202 9.66233766233767 22.2707532838888 9.868169566282772 22.305066571352 9.908600833129135 C 22.3393798588152 9.949032099975499 22.3565365025468 9.949032099975499 22.39084979001 9.949032099975499 C 22.4251630774732 9.949032099975499 22.4423197212048 9.868169566282775 22.476633008668 9.868169566282775 C 22.5109462961312 9.868169566282775 22.528102939862798 10.265131095319777 22.562416227326 10.265131095319777 C 22.5967295147888 10.265131095319777 22.6138861585202 10.140161725067387 22.648199445983 10.140161725067387 C 22.682512733446202 10.140161725067387 22.6996693771778 10.151923548149952 22.733982664641 10.331291350159274 C 22.7682959521042 10.510659152168577 22.7854525958358 11.037000735113944 22.819765883299 11.037000735113944 C 22.854079170762198 11.037000735113944 22.871235814493797 10.989953442783635 22.905549101957 10.912031364861553 C 22.9398623894202 10.83410928693948 22.957019033151802 10.647390345503553 22.991332320615 10.647390345503553 C 23.0256456080782 10.647390345503553 23.0428022518098 10.945111492281304 23.077115539273 10.945111492281304 C 23.1114288267358 10.945111492281304 23.128585470467197 10.82381769174222 23.16289875793 10.82381769174222 C 23.1972120453932 10.82381769174222 23.2143686891248 10.838519970595444 23.248681976588 10.893653516295027 C 23.2829952640512 10.948787061994611 23.300151907782798 11.09948542024014 23.334465195246 11.09948542024014 C 23.3687784827092 11.09948542024014 23.385935126440803 10.883361921097771 23.420248413904 10.787061994609166 C 23.4545617013672 10.69076206812056 23.4717183450988 10.629012496937024 23.506031632562 10.617985787797108 C 23.5403449200252 10.606959078657193 23.5575015637568 10.606959078657193 23.59181485122 10.606959078657193 C 23.626128138683203 10.606959078657193 23.643284782414803 10.996569468267584 23.677598069878 11.09948542024014 C 23.711911357340803 11.202401372212694 23.7290680010722 11.16417544719454 23.763381288535 11.202401372212694 C 23.7976945759982 11.240627297231294 23.8148512197298 11.261945601568245 23.849164507193 11.290615045332027 C 23.883477794656198 11.31928448909581 23.9006344383878 11.345748591031612 23.934947725851 11.345748591031612 C 23.969261013314203 11.345748591031612 23.986417657045802 11.081107571673613 24.020730944509 11.081107571673613 C 24.0550442319722 11.081107571673613 24.0722008757038 12.040431266846364 24.106514163167 12.040431266846364 C 24.1408274506302 12.040431266846364 24.1579840943618 11.842685616270524 24.192297381825 11.757412398921835 C 24.2266106692882 11.672139181573147 24.2437673130198 11.614065180102918 24.278080600483 11.614065180102918 C 24.3123938879458 11.614065180102918 24.329550531677203 11.944866454300417 24.36386381914 11.981622151433474 C 24.398177106603203 12.01837784856653 24.415333750334803 12.01837784856653 24.449647037798 12.01837784856653 C 24.4839603252612 12.01837784856653 24.5011169689928 11.62876745895614 24.535430256456 11.525851506983583 C 24.569743543919202 11.422935555011026 24.586900187650798 11.422935555011026 24.621213475114 11.422935555011026 C 24.6555267625772 11.422935555011026 24.6726834063088 11.632443028669446 24.706996693772 11.632443028669446 C 24.741309981235197 11.632443028669446 24.758466624966797 10.904680225434944 24.79277991243 10.904680225434944 C 24.827093199892797 10.904680225434944 24.8442498436242 12.382259250183782 24.878563131087 12.529282038716003 C 24.9128764185502 12.676304827248224 24.9300330622818 12.63440333251654 24.964346349745 12.676304827248224 C 24.9986596372082 12.718206321979906 25.0158162809398 12.680715510904188 25.050129568403 12.738789512374419 C 25.0844428558662 12.796863513844643 25.1015994995978 12.738789512374419 25.135912787061 12.966674834599363 C 25.170226074524198 13.194560156824307 25.187382718255797 15.293310463121784 25.221696005719 15.293310463121784 C 25.2560092931822 15.293310463121784 25.273165936913802 14.5765743690272 25.307479224377 14.5765743690272 C 25.3417925118402 14.5765743690272 25.3589491555718 16.91497182062728 25.393262443035 17.763293310463123 C 25.4275757304978 18.611614800289125 25.444732374229197 18.81818181818182 25.479045661692 18.81818181818182 C 25.513358949155197 18.81818181818182 25.530515592886797 18.626317079147274 25.56482888035 18.505758392550845 C 25.5991421678132 18.385199705954427 25.6162988115448 18.39108061749571 25.650612099008 18.215388385199706 C 25.6849253864712 18.0396961529037 25.702082030202803 17.627297231070816 25.736395317666 17.627297231070816 C 25.770708605129197 17.627297231070816 25.7878652488608 17.891938250428815 25.822178536324 17.891938250428815 C 25.856491823787202 17.891938250428815 25.8736484675188 17.557461406518012 25.907961754982 17.557461406518012 C 25.942275042445203 17.557461406518012 25.9594316861768 17.925018377848566 25.99374497364 17.925018377848566 C 26.028058261102803 17.925018377848566 26.0452149048342 17.20460671404068 26.079528192297 17.20460671404068 C 26.113841479760197 17.20460671404068 26.1309981234918 17.42514089683901 26.165311410955 17.42514089683901 C 26.199624698418198 17.42514089683901 26.2167813421498 17.32810585640774 26.251094629613 17.237686841460427 C 26.285407917076203 17.147267826513104 26.3025645608078 16.973045822102428 26.336877848271 16.973045822102428 C 26.3711911357342 16.973045822102428 26.3883477794658 17.70080862533693 26.422661066929 17.70080862533693 C 26.4569743543922 17.70080862533693 26.474130998123798 17.381034060279344 26.508444285587 17.370007351139428 C 26.5427575730498 17.358980641999512 26.5599142167812 17.358980641999512 26.594227504244 17.358980641999512 C 26.628540791707202 17.358980641999512 26.6456974354388 17.571428571428577 26.680010722902 17.671404067630483 C 26.714324010365203 17.771379563832397 26.7314806540968 17.858858123009067 26.76579394156 17.858858123009067 C 26.8001072290232 17.858858123009067 26.8172638727548 17.766968880176425 26.851577160218 17.71551090419015 C 26.8858904476812 17.664052928203873 26.903047091412798 17.71551090419015 26.937360378876 17.60156824307768 C 26.9716736663392 17.487625581965208 26.988830310070796 16.675324675324678 27.023143597534 16.543004165645677 C 27.057456884997197 16.410683655966675 27.074613528728797 16.410683655966675 27.108926816192 16.410683655966675 C 27.1432401036548 16.410683655966675 27.160396747386198 17.259740259740262 27.194710034849 17.259740259740262 C 27.2290233223122 17.259740259740262 27.246179966043798 17.061259495221762 27.280493253507 17.061259495221762 C 27.3148065409702 17.061259495221762 27.3319631847018 17.347953932859596 27.366276472165 17.347953932859596 C 27.4005897596282 17.347953932859596 27.417746403359796 17.30752266601323 27.452059690823 17.296495956873315 C 27.486372978286198 17.2854692477334 27.5035296220178 17.296495956873315 27.537842909481 17.2854692477334 C 27.5721561969442 17.274442538593483 27.589312840675802 17.109041901494734 27.623626128139 17.109041901494734 C 27.657939415602204 17.109041901494734 27.6750960593338 17.129625091888826 27.709409346797 17.20093114432737 C 27.743722634259797 17.27223719676508 27.7608792779912 17.41043861798579 27.795192565454 17.465572163685373 C 27.829505852917197 17.520705709384956 27.846662496648797 17.465572163685373 27.880975784112 17.520705709384956 C 27.9152890715752 17.57583925508454 27.9324457153068 17.75373682920852 27.96675900277 17.877235971575594 C 28.001072290233196 18.000735113942653 28.0182289339648 17.99485420240137 28.052542221428 18.138201421220288 C 28.086855508891198 18.281548640039205 28.1040121526228 18.26096544964471 28.138325440086 18.59397206567018 C 28.172638727549202 18.926978681695683 28.1897953712808 19.63783386424896 28.224108658744 19.80323450134771 C 28.258421946206802 19.96863513844646 28.2755785899382 19.96863513844646 28.309891877401 19.96863513844646 C 28.3442051648642 19.96863513844646 28.361361808595802 19.865719186473903 28.395675096059 19.865719186473903 C 28.429988383522204 19.865719186473903 28.4471450272538 20.259005145797598 28.481458314717 20.259005145797598 C 28.5157716021802 20.259005145797598 28.5329282459118 20.18549375153149 28.567241533375 20.18549375153149 C 28.601554820838203 20.18549375153149 28.6187114645698 20.659642244547904 28.653024752033 20.659642244547904 C 28.6873380394962 20.659642244547904 28.7044946832278 20.14873805439843 28.738807970691 20.111982357265376 C 28.773121258154198 20.075226660132323 28.790277901885798 20.111982357265376 28.824591189349 20.075226660132323 C 28.8589044768118 20.03847096299927 28.876061120543206 19.78485665278118 28.910374408006 19.78485665278118 C 28.944687695469202 19.78485665278118 28.9618443392008 19.990688556726294 28.996157626664 19.990688556726294 C 29.0304709141272 19.990688556726294 29.0476275578588 19.703259005145796 29.081940845322 19.60475373682921 C 29.1162541327852 19.506248468512617 29.133410776516797 19.526831658907135 29.16772406398 19.49816221514335 C 29.2020373514432 19.469492771379567 29.2191939951748 19.461406518010293 29.253507282638 19.461406518010293 C 29.2878205701012 19.461406518010293 29.304977213832796 19.590051457975985 29.339290501296 19.63783386424896 C 29.373603788759198 19.68561627052193 29.3907604324908 19.64003920607659 29.425073719954 19.700318549375154 C 29.459387007416797 19.76059789267301 29.476543651148198 19.85395736339182 29.510856938611 19.939230580740016 C 29.545170226074198 20.0245037980892 29.562326869805798 20.115657926978677 29.596640157269 20.126684636118597 C 29.6309534447322 20.137711345258516 29.648110088463802 20.126684636118597 29.682423375927 20.137711345258516 C 29.7167366633902 20.148738054398436 29.733893307121797 20.22592501837785 29.768206594585 20.236951727517766 C 29.8025198820482 20.247978436657682 29.8196765257798 20.241362411173736 29.853989813243 20.247978436657682 C 29.888303100706203 20.254594462141633 29.905459744437803 20.270031854937514 29.939773031901 20.270031854937514 C 29.9740863193638 20.270031854937514 29.991242963095203 19.939230580740016 30.025556250558 19.939230580740016 C 30.0598695380212 19.939230580740016 30.077026181752796 19.97598627787307 30.111339469216 19.97598627787307 C 30.145652756679198 19.97598627787307 30.1628094004108 19.92673364371478 30.197122687874 19.847341337907377 C 30.2314359753372 19.767949032099978 30.248592619068802 19.57902474883607 30.282905906532 19.57902474883607 C 30.317219193995204 19.57902474883607 30.3343758377268 19.5974025974026 30.36868912519 19.5974025974026 C 30.4030024126532 19.5974025974026 30.4201590563848 19.582700318549378 30.454472343848 19.582700318549378 C 30.488785631311202 19.582700318549378 30.5059422750428 19.717226170055728 30.540255562506 19.82528791962754 C 30.574568849968802 19.933349669198094 30.5917254937002 20.020093114433337 30.626038781163 20.12300906640529 C 30.660352068626203 20.22592501837845 30.677508712357803 20.33986767949032 30.711821999821 20.33986767949032 C 30.746135287284197 20.33986767949032 30.7632919310158 20.109041901494727 30.797605218479 20.01641754471943 C 30.831918505942202 19.923793187944124 30.849075149673798 19.928938985542757 30.883388437137 19.87674589561382 C 30.917701724600203 19.82455280568488 30.9348583683318 19.829698603283514 30.969171655795 19.755452095074737 C 31.0034849432582 19.68120558686597 31.020641586989804 19.620191129625088 31.054954874453 19.50551335456996 C 31.0892681619162 19.39083557951482 31.106424805647798 19.39157069345871 31.140738093111 19.18206321979907 C 31.1750513805738 18.97255574614188 31.1922080243052 18.663072776279122 31.226521311768 18.457975986277873 C 31.260834599231202 18.252879196274222 31.2779912429628 18.156579269786818 31.312304530426 18.156579269786818 C 31.3466178178892 18.156579269786818 31.3637744616208 18.270521930899292 31.398087749084 18.270521930899292 C 31.432401036547198 18.270521930899292 31.449557680278797 18.255819652046068 31.483870967742 18.255819652046068 C 31.5181842552052 18.255819652046068 31.535340898936802 18.340357755452096 31.5696541864 18.3440333251654 C 31.6039674738632 18.347708894878707 31.621124117594796 18.347708894878707 31.655437405058 18.347708894878707 C 31.6897506925208 18.347708894878707 31.706907336252197 18.321979906885566 31.741220623715 18.321979906885566 C 31.7755339111782 18.321979906885566 31.792690554909804 18.8071551090419 31.827003842373 18.8071551090419 C 31.8613171298362 18.8071551090419 31.878473773567798 18.8071551090419 31.912787061031 18.796128399901985 C 31.9471003484942 18.78510169076207 31.998570279689 18.068365596667483 31.998570279689 18.068365596667483" class="highcharts-graph" data-z-index="1" stroke="#18DCA6" stroke-width="2" stroke-linejoin="round" stroke-linecap="round"/><path fill="none" d="M 0.0014297203109642 20.88017642734624 C 0.0014297203109642 20.88017642734624 0.052899651505674085 20.836069590786572 0.087212938968814 20.80666503308013 C 0.1215262264319524 20.777260475373687 0.1386828701635216 20.733153638814017 0.17299615762666 20.733153638814017 C 0.2073094450898 20.733153638814017 0.22446608882137 20.776525361431023 0.25877937628451 20.91325655476599 C 0.29309266374765 21.049987748100957 0.31024930747921997 21.41680960548885 0.34456259494236 21.41680960548885 C 0.37887588240549996 21.41680960548885 0.39603252613707 21.207302131830435 0.43034581360021 21.207302131830435 C 0.46465910106335 21.207302131830435 0.48181574479491995 21.380053908355794 0.51612903225806 21.534427836314627 C 0.5504423197212 21.688801764273464 0.5675989634527701 21.704239157069345 0.60191225091591 21.979171771624603 C 0.63622553837905 22.25410438617986 0.65338218211062 22.90909090909091 0.68769546957376 22.90909090909091 C 0.7220087570369 22.90909090909091 0.73916540076847 21.648370497427102 0.77347868823161 21.60058809115413 C 0.80779197569475 21.552805684881157 0.82494861942632 21.60058809115413 0.85926190688946 21.552805684881157 C 0.8935751943526 21.505023278608185 0.91073183808417 21.2830188679245 0.94504512554731 21.159519725557463 C 0.979358413010466 21.036020583190368 0.9965150567420441 21.03381524136246 1.0308283442052 20.935309973045822 C 1.06514163166832 20.836804704729285 1.08229827539988 20.769174222004352 1.116611562863 20.666993383974518 C 1.15092485032616 20.564812545944566 1.16808149405774 20.604508698848427 1.2023947815209 20.42440578289635 C 1.23670806898402 20.244302866944484 1.25386471271558 19.821612349914236 1.2881780001787 19.766478804214653 C 1.32249128764186 19.71134525851507 1.33964793137344 19.737074246508225 1.3739612188366 19.71134525851507 C 1.40827450629972 19.685616270521948 1.42543115003128 19.71134525851507 1.4597444374944 19.63783386424896 C 1.49405772495756 19.56432246998285 1.51121436868914 19.137956383239406 1.5455276561523 19.097525116393044 C 1.57984094361542 19.057093849546682 1.59699758734698 19.057093849546682 1.6313108748101 19.057093849546682 C 1.6656241622732602 19.057093849546682 1.6827808060048397 19.273217348688988 1.717094093468 19.37319284489096 C 1.75140738093112 19.473168341092812 1.76856402466268 19.457730948297044 1.8028773121258 19.556971330556237 C 1.8371905995889601 19.656211712815548 1.8543472433205401 19.86939475618721 1.8886605307837 19.86939475618721 C 1.92297381824682 19.86939475618721 1.9401304619783801 19.439353099730454 1.9744437494415 19.299681450624846 C 2.00875703690466 19.160009801519237 2.02591368063624 19.29012496937033 2.0602269680994 19.160009801519237 C 2.09454025556252 19.029894633668295 2.11169689929408 18.890958098505127 2.1460101867572 18.649105611369762 C 2.18032347422036 18.407253124234114 2.1974801179519394 17.950747365841707 2.2317934054151 17.950747365841707 C 2.26610669287822 17.950747365841707 2.28326333660978 18.38078902229846 2.3175766240729 18.38078902229846 C 2.35188991153606 18.38078902229846 2.36904655526764 17.750061259495347 2.4033598427308 17.535407988238177 C 2.43767313019392 17.32075471698126 2.45482977392548 17.415584415584355 2.4891430613886 17.307522666013234 C 2.5234563488517603 17.19946091644199 2.54061299258334 17.086253369272292 2.5749262800465 16.99509924038226 C 2.60923956750962 16.903945111492334 2.62639621124118 16.897329086008305 2.6607094987043 16.851752021563343 C 2.69502278616746 16.806174957118326 2.71217942989904 16.767213918157317 2.7464927173622 16.767213918157317 C 2.78080600482532 16.767213918157317 2.79796264855688 16.870129870129873 2.83227593602 16.870129870129873 C 2.8665892234831594 16.870129870129873 2.88374586721474 16.74516049987748 2.9180591546779 16.723107081597647 C 2.95237244214102 16.701053663317815 2.96952908587258 16.701053663317815 3.0038423733357 16.701053663317815 C 3.03815566079886 16.701053663317815 3.05531230453044 17.241362411173732 3.0896255919936 17.241362411173732 C 3.1239388794567198 17.241362411173732 3.1410955231882802 17.241362411173732 3.1754088106514 17.053908355795148 C 3.2097220981145598 16.866454300416564 3.22687874184614 16.22175937270304 3.2611920293093 15.756432246998287 C 3.29550531677242 15.291105121294075 3.3126619605039807 14.727272727272728 3.3469752479671 14.727272727272728 C 3.38128853543026 14.727272727272728 3.3984451791618406 14.955158049497673 3.432758466625 14.955158049497673 C 3.4670717540881197 14.955158049497673 3.48422839781968 14.955158049497673 3.5185416852828 14.841215388385201 C 3.5528549727459606 14.72727272727273 3.57001161647754 13.734868904680226 3.6043249039407 13.734868904680226 C 3.63863819140382 13.734868904680226 3.65579483513538 14.330311198235728 3.6901081225985 14.330311198235728 C 3.72442141006166 14.330311198235728 3.7415780537932397 13.172506738544476 3.7758913412564 13.172506738544476 C 3.81020462871952 13.172506738544476 3.8273612724510806 14.117128154864005 3.8616745599142 14.117128154864005 C 3.89598784737736 14.117128154864005 3.91314449110894 13.165155599117865 3.9474577785721 13.165155599117865 C 3.9817710660352197 13.165155599117865 3.9989277097667797 13.326880666503309 4.0332409972299 13.370987503062976 C 4.06755428469306 13.415094339622643 4.08471092842464 13.370987503062976 4.1190242158878 13.415094339622643 C 4.153337503350921 13.45920117618231 4.17049414708248 14.076696888017642 4.2048074345456 14.135506003430532 C 4.23912072200876 14.194315118843422 4.25627736574034 14.194315118843422 4.2905906532035 14.194315118843422 C 4.32490394066662 14.194315118843422 4.34206058439818 13.312178387650087 4.3763738718613 13.312178387650087 C 4.410687159324459 13.312178387650087 4.42784380305604 13.359960793923058 4.4621570905192 13.359960793923058 C 4.49647037798232 13.359960793923058 4.51362702171388 13.22175937270272 4.547940309177 13.132075471698116 C 4.58225359664016 13.042391570693407 4.599410240371741 13.06003430531741 4.6337235278349 12.91154128889978 C 4.66803681529802 12.763048272482319 4.68519345902958 12.548395001225096 4.7195067464927 12.38961038961039 C 4.75382003395586 12.230825777995497 4.77097667768744 12.215388385199763 4.8052899651506 12.117618230825778 C 4.83960325261372 12.019848076451908 4.856759896345279 11.900759617740752 4.8910731838084 11.900759617740752 C 4.92538647127156 11.900759617740752 4.94254311500314 11.92648860573389 4.9768564024663 11.92648860573389 C 5.01116968992942 11.92648860573389 5.02832633366098 11.033325165400637 5.0626396211241 11.003920607694193 C 5.0969529085872605 10.974516049987749 5.11410955231884 11.003920607694193 5.148422839782 10.974516049987749 C 5.18273612724512 10.945111492281304 5.19989277097668 10.974516049987749 5.2342060584398 10.79073756432247 C 5.268519345902961 10.60695907865719 5.285675989634539 10.037245773094831 5.3199892770977 10.037245773094831 C 5.35430256456082 10.037245773094831 5.37145920829238 10.42685616270522 5.4057724957555 10.42685616270522 C 5.44008578321866 10.42685616270522 5.4572424269502395 9.799068855672811 5.4915557144134 9.493261455525607 C 5.52586900187652 9.187454055378765 5.54302564560808 8.897819161970107 5.5773389330712 8.897819161970107 C 5.61165222053436 8.897819161970107 5.62880886426594 9.10953197745645 5.6631221517291 9.206567017887773 C 5.697435439192221 9.303602058318983 5.71459208292378 9.382994364126441 5.7489053703869 9.382994364126441 C 5.78321865785006 9.382994364126441 5.80037530158164 9.07792207792208 5.8346885890448 9.07792207792208 C 5.86900187650792 9.07792207792208 5.88615852023948 9.07792207792208 5.9204718077026 9.346238666993386 C 5.954785095165759 9.614555256064692 5.97194173889734 11.261210487625586 6.0062550263605 11.52952707669689 C 6.04056831382362 11.797843665768195 6.05772495755518 11.797843665768195 6.0920382450183 11.797843665768195 C 6.12635153248146 11.797843665768195 6.143508176213041 10.695907865719406 6.1778214636762 10.316589071306055 C 6.21213475113932 9.937270276893138 6.22929139487088 9.901249693702523 6.263604682334 9.901249693702523 C 6.29791796979716 9.901249693702523 6.31507461352874 10.812790982602305 6.3493879009919 10.812790982602305 C 6.38370118845502 10.812790982602305 6.400857832186579 10.812790982602305 6.4351711196497 10.772359715755943 C 6.46948440711286 10.731928448909581 6.48664105084444 10.467287429551583 6.5209543383076 10.467287429551583 C 6.55526762577072 10.467287429551583 6.572424269502281 10.699583435432574 6.6067375569654 10.834844400882139 C 6.64105084442856 10.970105366331863 6.65820748816014 11.143592256799808 6.6925207756233 11.143592256799808 C 6.72683406308642 11.143592256799808 6.74399070681798 10.534182798333498 6.7783039942811 10.125459446214162 C 6.812617281744261 9.716736094094339 6.829773925475839 9.647635383484769 6.864087212939 9.099975496201914 C 6.89840050040212 8.552315608919711 6.915557144133681 7.4275912766478775 6.9498704315968 7.387160009801519 C 6.984183719059959 7.346728742955161 7.00134036279154 7.387160009801519 7.0356536502547 7.346728742955161 C 7.06996693771782 7.306297476108803 7.08712358144938 7.240872335211915 7.1214368689125 7.162950257289882 C 7.15575015637566 7.085028179367758 7.17290680010724 7.162950257289882 7.2072200875704 6.957118353344768 C 7.241533375033521 6.751286449399654 7.25869001876508 6.462386669933616 7.2930033062282 6.078657191864739 C 7.32731659369136 5.694927713795415 7.344473237422941 5.038470962999266 7.3787865248861 5.038470962999266 C 7.413099812349221 5.038470962999266 7.430256456080779 5.273707424650896 7.4645697435439 5.409703504043126 C 7.498883031007059 5.545699583435508 7.51603967473864 5.718451359960795 7.5503529622018 5.718451359960795 C 7.58466624966492 5.718451359960795 7.601822893396479 5.519970595442295 7.6361361808596 5.519970595442295 C 7.67044946832276 5.519970595442295 7.68760611205434 5.891203136486158 7.7219193995175 5.891203136486158 C 7.75623268698062 5.891203136486158 7.77338933071218 5.290615045331895 7.8077026181753 5.067875520705709 C 7.84201590563846 4.845135996079262 7.859172549370041 5.024503798088849 7.8934858368332 4.777505513354573 C 7.927799124296319 4.530507228620583 7.94495576802788 3.865964224454789 7.979269055491 3.8328840970350413 C 8.01358234295416 3.7998039696152937 8.03073898668574 3.8328840970350413 8.0650522741489 3.7998039696152937 C 8.099365561612021 3.766723842195546 8.11652220534358 2.829453565302625 8.1508354928067 2.829453565302625 C 8.18514878026986 2.829453565302625 8.20230542400144 3.182308257779958 8.2366187114646 3.182308257779958 C 8.270931998927718 3.182308257779958 8.288088642659279 3.156579269786721 8.3224019301224 2.983827493261458 C 8.35671521758556 2.811075716735998 8.37387186131714 2.567017887772748 8.4081851487803 2.3185493751531503 C 8.44249843624342 2.0700808625338354 8.45965507997498 1.9870129870128481 8.4939683674381 1.7414849301641766 C 8.52828165490126 1.4959568733152253 8.54543829863284 1.0909090909090935 8.579751586096 1.0909090909090935 C 8.61406487355912 1.0909090909090935 8.63122151729068 2.3148738054398414 8.6655348047538 2.480274442538594 C 8.69984809221696 2.6456750796373463 8.71700473594854 2.6456750796373463 8.7513180234117 2.6456750796373463 C 8.78563131087482 2.6456750796373463 8.802787954606378 2.3883851997059544 8.8371012420695 2.3883851997059544 C 8.87141452953266 2.3883851997059544 8.88857117326424 2.6750796373437886 8.9228844607274 2.6750796373437886 C 8.95719774819052 2.6750796373437886 8.97435439192208 1.9767213918157331 9.0086676793852 1.9767213918157331 C 9.04298096684836 1.9767213918157331 9.06013761057994 2.2744425385932 9.0944508980431 2.752266601323207 C 9.128764185506219 3.2300906640526454 9.14592082923778 4.365841705464348 9.1802341167009 4.365841705464348 C 9.21454740416406 4.365841705464348 9.23170404789564 3.8946336682187055 9.2660173353588 3.6674834599362924 C 9.300330622821921 3.4403332516541383 9.317487266553481 3.2300906640529305 9.3518005540166 3.2300906640529305 C 9.38611384147976 3.2300906640529305 9.40327048521134 3.3587356040185337 9.4375837726745 3.5131095319774595 C 9.47189706013762 3.6674834599362014 9.48905370386918 4.001960303847099 9.5233669913323 4.001960303847099 C 9.55768027879546 4.001960303847099 9.57483692252704 4.001960303847099 9.6091502099902 3.8806665033080137 C 9.64346349745332 3.7593727027689283 9.66062014118488 3.391815731438374 9.694933428648 3.391815731438374 C 9.72924671611116 3.391815731438374 9.74640335984274 3.391815731438374 9.7807166473059 3.413869149718206 C 9.815029934769019 3.4359225679980376 9.832186578500579 3.5226660132320786 9.8664998659637 3.5682430776770424 C 9.90081315342686 3.613820142122058 9.91796979715844 3.6417544719431554 9.9522830846216 3.6417544719431554 C 9.98659637208456 3.6417544719431554 10.00375301581604 3.5476598872820806 10.038066303279 3.4175447194315147 C 10.0723795907422 3.287429551580046 10.089536234473801 3.294045577064448 10.123849521937 2.9911786326880687 C 10.1581628094002 2.68831168831169 10.1753194531318 1.9730458221024243 10.209632740595 1.9032099975496202 C 10.2439460280582 1.833374172996816 10.2611026717898 1.833374172996816 10.295415959253 1.833374172996816 C 10.329729246716202 1.833374172996816 10.3468858904478 3.3183043371722647 10.381199177911 3.3183043371722647 C 10.415512465374201 3.3183043371722647 10.432669109105799 3.288899779465819 10.466982396569 3.288899779465819 C 10.5012956840322 3.288899779465819 10.5184523277638 3.476353834844403 10.552765615227 3.476353834844403 C 10.5870789026898 3.476353834844403 10.604235546421199 3.2874295515801224 10.638548833884 3.22273952462632 C 10.6728621213472 3.1580494976717675 10.6900187650788 3.152903700073516 10.724332052542 3.152903700073516 C 10.7586453400052 3.152903700073516 10.7758019837368 3.5461896593972106 10.8101152712 3.5461896593972106 C 10.8444285586632 3.5461896593972106 10.861585202394801 3.4962019112962532 10.895898489858 3.476353834844403 C 10.930211777321201 3.456505758392552 10.9473684210528 3.446949277137957 10.981681708516 3.446949277137957 C 11.0159949959792 3.446949277137957 11.0331516397108 3.560891938250432 11.067464927174 3.560891938250432 C 11.1017782146368 3.560891938250432 11.1189348583682 3.3425630972791427 11.153248145831 3.182308257779958 C 11.187561433294201 3.0220534182788983 11.204718077025799 2.759617740749821 11.239031364489 2.759617740749821 C 11.2733446519522 2.759617740749821 11.2905012956838 3.437392795883354 11.324814583147 3.755697133055623 C 11.3591278706102 4.074001470227876 11.376284514341801 4.351139426611127 11.410597801805 4.351139426611127 C 11.4449110892682 4.351139426611127 11.4620677329998 4.024013722126931 11.496381020463 4.024013722126931 C 11.5306943079262 4.024013722126931 11.547850951657798 4.112227395246265 11.582164239121 4.112227395246265 C 11.6164775265842 4.112227395246265 11.6336341703158 3.6417544719431554 11.667947457779 3.6417544719431554 C 11.7022607452418 3.6417544719431554 11.7194173889732 6.207302131830435 11.753730676436 6.207302131830435 C 11.7880439638992 6.207302131830435 11.8052006076308 5.953687821612352 11.839513895094 5.953687821612352 C 11.873827182557202 5.953687821612352 11.8909838262888 6.049252634158297 11.925297113752 6.049252634158297 C 11.9596104012152 6.049252634158297 11.9767670449468 5.950012251899047 12.01108033241 5.950012251899047 C 12.045393619873199 5.950012251899047 12.0625502636048 6.376378338642493 12.096863551068 6.376378338642493 C 12.1311768385312 6.376378338642493 12.1483334822628 6.376378338642493 12.182646769726 6.20362656211713 C 12.216960057189201 6.030874785591767 12.234116700920799 4.715020828228379 12.268429988384 4.715020828228379 C 12.3027432758468 4.715020828228379 12.3198999195782 5.1729968145111185 12.354213207041 6.0051457975986295 C 12.3885264945042 6.837294780695876 12.4056831382358 8.875765743690275 12.439996425699 8.875765743690275 C 12.4743097131622 8.875765743690275 12.491466356893799 8.875765743690275 12.525779644357 8.787552070570941 C 12.560092931820199 8.699338397451607 12.5772495755518 8.210487625581965 12.611562863015 8.059789267336438 C 12.6458761504782 7.90909090909091 12.6630327942098 7.90909090909091 12.697346081673 7.90909090909091 C 12.7316593691362 7.90909090909091 12.7488160128678 7.90909090909091 12.783129300331 8.048762558196524 C 12.817442587793801 8.188434207302137 12.8345992315252 9.019112962509189 12.868912518988 9.019112962509189 C 12.9032258064512 9.019112962509189 12.9203824501828 9.019112962509189 12.954695737646 8.989708404802746 C 12.989009025109201 8.960303847096304 13.006165668840799 8.313403577554524 13.040478956304 8.118598382749328 C 13.0747922437672 7.923793187944131 13.091948887498798 7.923793187944131 13.126262174962 7.923793187944131 C 13.1605754624252 7.923793187944131 13.1777321061568 8.827983337417301 13.21204539362 8.827983337417301 C 13.2463586810832 8.827983337417301 13.2635153248148 8.564812545944623 13.297828612278 8.408968390100467 C 13.332141899741199 8.253124234256312 13.349298543472798 8.048762558196524 13.383611830936 8.048762558196524 C 13.417925118398802 8.048762558196524 13.4350817621302 8.161970105366935 13.469395049593 8.26562117128155 C 13.5037083370562 8.369272237197366 13.5208649807878 8.567017887772606 13.555178268251 8.567017887772606 C 13.589491555714199 8.567017887772606 13.6066481994458 8.42367066895369 13.640961486909 8.419995099240385 C 13.675274774372202 8.41631952952708 13.6924314181038 8.419995099240385 13.726744705567 8.41631952952708 C 13.761057993030201 8.412643959813774 13.778214636761799 8.41631952952708 13.812527924225 8.386914971820634 C 13.8468412116882 8.357510414114188 13.8639978554198 7.942171036510661 13.898311142883 7.942171036510661 C 13.932624430346198 7.942171036510661 13.9497810740778 8.00833129135016 13.984094361541 8.00833129135016 C 14.018407649003802 8.00833129135016 14.035564292735199 7.456995834354327 14.069877580198 7.456995834354327 C 14.104190867661199 7.456995834354327 14.121347511392798 7.505513354569958 14.155660798856 7.534182798333742 C 14.1899740863192 7.562852242097525 14.207130730050801 7.600343053173244 14.241444017514 7.600343053173244 C 14.275757304977201 7.600343053173244 14.2929139487088 7.497427101200689 14.327227236172 7.497427101200689 C 14.361540523635199 7.497427101200689 14.3786971673668 7.497427101200689 14.41301045483 7.534182798333742 C 14.447323742293198 7.570938495466795 14.4644803860248 8.046557216367516 14.498793673488 8.221514334721885 C 14.5331069609508 8.396471453074206 14.5502636046822 8.408968390100467 14.584576892145 8.408968390100467 C 14.6188901796082 8.408968390100467 14.6360468233398 8.166380789022298 14.670360110803 8.166380789022298 C 14.704673398266198 8.166380789022298 14.7218300419978 8.272972310708163 14.756143329461 8.272972310708163 C 14.7904566169242 8.272972310708163 14.807613260655803 7.916442048517521 14.841926548119 7.916442048517521 C 14.8762398355822 7.916442048517521 14.893396479313799 7.96348934084783 14.927709766777 8.019358000490076 C 14.9620230542402 8.075226660132321 14.979179697971801 8.131830433717228 15.013492985435 8.195785346728746 C 15.0478062728982 8.259740259740264 15.0649629166298 8.195785346728746 15.099276204093 8.339132565547663 C 15.1335894915558 8.48247978436658 15.150746135287198 9.651310953197749 15.18505942275 9.651310953197749 C 15.219372710213198 9.651310953197749 15.2365293539448 9.570448419505027 15.270842641408 9.570448419505027 C 15.305155928871198 9.570448419505027 15.3223125726028 10.026219063954914 15.356625860066 10.143837294780692 C 15.390939147529199 10.26145552560647 15.4080957912608 10.26145552560647 15.442409078724 10.26145552560647 C 15.4767223661872 10.26145552560647 15.4938790099188 10.086498407253126 15.528192297382 9.97108551825533 C 15.562505584845201 9.855672629257535 15.5796622285768 9.808625336927225 15.61397551604 9.684391080617496 C 15.6482888035032 9.560156824307768 15.665445447234799 9.47635383484514 15.699758734698 9.34991423670669 C 15.734072022160799 9.22347463856972 15.7512286658922 9.05219308992894 15.785541953355 9.05219308992894 C 15.8198552408182 9.05219308992894 15.8370118845498 9.438127909826026 15.871325172013 9.438127909826026 C 15.905638459476199 9.438127909826026 15.9227951032078 9.324185248713553 15.957108390671 9.287429551580496 C 15.991421678134202 9.25067385444744 16.008578321865798 9.266111247243323 16.042891609329 9.25067385444744 C 16.0772048967922 9.235236461651557 16.0943615405238 9.21024258760108 16.128674827987 9.21024258760108 C 16.162988115450197 9.21024258760108 16.180144759181797 9.24626317079091 16.214458046645 9.34256309728008 C 16.2487713341078 9.438863023768121 16.265927977839198 9.577799558932304 16.300241265302 9.691742220044109 C 16.3345545527652 9.805684881157248 16.3517111964968 9.691742220044109 16.38602448396 9.91227640284244 C 16.4203377714232 10.132810585640772 16.4374944151548 10.453320264641002 16.471807702618 10.798088703749082 C 16.5061209900812 11.142857142857126 16.5232776338128 11.230335702033818 16.557590921276 11.636118598382751 C 16.591904208739198 12.041901494731686 16.609060852470797 12.827003185493753 16.643374139934 12.827003185493753 C 16.6776874273972 12.827003185493753 16.694844071128802 12.341827983337419 16.729157358592 12.341827983337419 C 16.7634706460552 12.341827983337419 16.7806272897868 12.77922077922078 16.81494057725 12.77922077922078 C 16.8492538647128 12.77922077922078 16.866410508444197 12.74908110757138 16.900723795907 12.698358245528057 C 16.935037083370197 12.647635383484145 16.952193727101797 12.601323205096794 16.986507014565 12.525606469002696 C 17.0208203020282 12.449889732908606 17.0379769457598 12.405782896348937 17.072290233223 12.319774565057585 C 17.1066035206862 12.233766233766236 17.1237601644178 12.158784611614804 17.158073451881 12.095564812545947 C 17.192386739344197 12.03234501347709 17.2095433830758 12.003675569713307 17.243856670539 12.003675569713307 C 17.278169958002202 12.003675569713307 17.2953266017338 12.084538103406029 17.329639889197 12.084538103406029 C 17.3639531766602 12.084538103406029 17.3811098203918 11.989708404803027 17.415423107855 11.941190884587112 C 17.4497363953178 11.89267336437176 17.4668930390492 11.84195050232786 17.501206326512 11.84195050232786 C 17.5355196139752 11.84195050232786 17.5526762577068 11.996324430286695 17.58698954517 11.996324430286695 C 17.621302832633198 11.996324430286695 17.6384594763648 11.996324430286695 17.672772763828 11.937515314873806 C 17.707086051291203 11.878706199460918 17.724242695022802 11.17152658662093 17.758555982486 10.908355795148251 C 17.7928692699492 10.645185003675573 17.8100259136808 10.741484930164173 17.844339201144 10.621661357510417 C 17.8786524886072 10.501837784856649 17.895809132338798 10.501102670915113 17.930122419802 10.30923793187944 C 17.9644357072648 10.117373192846012 17.9815923509962 9.662337662337665 18.015905638459 9.662337662337665 C 18.050218925922202 9.662337662337665 18.0673755696538 9.776280323450136 18.101688857117 9.776280323450136 C 18.1360021445802 9.776280323450136 18.1531587883118 9.640284244057831 18.187472075775 9.640284244057831 C 18.2217853632382 9.640284244057831 18.2389420069698 9.640284244057831 18.273255294433 9.82406272972311 C 18.3075685818962 10.007841215388389 18.324725225627798 10.687821612349916 18.359038513091 10.779710855182554 C 18.3933518005542 10.871600098015191 18.4105084442858 10.842195540308746 18.444821731749 10.871600098015191 C 18.479135019212197 10.901004655721636 18.496291662943797 10.926733643714778 18.530604950407 10.926733643714778 C 18.5649182378698 10.926733643714778 18.582074881601198 10.92011761822996 18.616388169064 10.772359715755943 C 18.6507014565272 10.624601813280195 18.667858100258798 10.187944131340357 18.702171387722 10.187944131340357 C 18.7364846751852 10.187944131340357 18.7536413189168 10.187944131340357 18.78795460638 10.191619701053666 C 18.8222678938432 10.195295270766975 18.8394245375748 11.117863268806666 18.873737825038 11.206076941926 C 18.908051112501198 11.294290615045334 18.9252077562328 11.279588336192113 18.959521043696 11.294290615045334 C 18.9938343311592 11.308992893898555 19.010990974890802 11.294290615045334 19.045304262354 11.308992893898555 C 19.0796175498172 11.323695172751776 19.0967741935488 11.691987258023925 19.131087481012 11.875030629747613 C 19.165400768474797 12.05807400146916 19.1825574122062 12.224209752511642 19.216870699669 12.224209752511642 C 19.251183987132197 12.224209752511642 19.268340630863797 12.194805194805198 19.302653918327 12.194805194805198 C 19.3369672057902 12.194805194805198 19.3541238495218 12.573388875275668 19.388437136985 12.573388875275668 C 19.4227504244482 12.573388875275668 19.4399070681798 12.102915951972559 19.474220355643 12.102915951972559 C 19.508533643106198 12.102915951972559 19.5256902868378 12.67262925753492 19.560003574301 12.67262925753492 C 19.594316861764202 12.67262925753492 19.611473505495802 12.555011026709142 19.645786792959 12.555011026709142 C 19.680100080421802 12.555011026709142 19.6972567241532 13.113697623131587 19.731570011616 13.113697623131587 C 19.7658832990792 13.113697623131587 19.783039942810802 13.045332026464104 19.817353230274 12.97035040431267 C 19.8516665177372 12.895368782161237 19.8688231614688 12.97035040431267 19.903136448932 12.738789512374419 C 19.9374497363952 12.507228620436168 19.9546063801268 11.676549865229113 19.98891966759 11.676549865229113 C 20.023232955053203 11.676549865229113 20.0403895987848 12.128644939965687 20.074702886248 12.308747855917668 C 20.1090161737112 12.48885077186963 20.1261728174428 12.577064444988974 20.160486104906 12.577064444988974 C 20.194799392369198 12.577064444988974 20.211956036100798 12.51457975986278 20.246269323564 12.51457975986278 C 20.2805826110268 12.51457975986278 20.2977392547582 12.81230090664053 20.332052542221 12.81230090664053 C 20.366365829684202 12.81230090664053 20.383522473415802 12.305072286204364 20.417835760879 12.305072286204364 C 20.4521490483422 12.305072286204364 20.4693056920738 12.352854692477335 20.503618979537 12.352854692477335 C 20.5379322670002 12.352854692477335 20.555088910731797 11.816221514334725 20.589402198195 11.816221514334725 C 20.6237154856582 11.816221514334725 20.6408721293898 11.908110757167364 20.675185416853 11.908110757167364 C 20.7094987043162 11.908110757167364 20.7266553480478 11.579514824797846 20.760968635511 11.459691252144085 C 20.795281922974198 11.339867679490323 20.8124385667058 11.308992893898555 20.846751854169 11.308992893898555 C 20.8810651416318 11.308992893898555 20.898221785363198 11.51261945601608 20.932535072826 11.580985052683168 C 20.966848360289198 11.649350649351048 20.984005004020798 11.650820877235972 21.018318291484 11.650820877235972 C 21.0526315789472 11.650820877235972 21.069788222678802 11.381034060279344 21.104101510142 11.257534917912277 C 21.1384147976052 11.134035775545211 21.1555714413368 11.126684636118599 21.1898847288 11.033325165400639 C 21.2241980162632 10.939965694682677 21.2413546599948 10.820142122028914 21.275667947458 10.79073756432247 C 21.309981234921203 10.761333006616026 21.327137878652803 10.79073756432247 21.361451166116 10.761333006616026 C 21.3957644535788 10.731928448909581 21.412921097310203 10.742955158048554 21.447234384773 10.581230090664056 C 21.4815476722362 10.419505023277663 21.498704315967796 10.174712080372469 21.533017603431 9.952707669688802 C 21.567330890894198 9.730703259005157 21.5844875346258 9.708649840725315 21.618800822089 9.471208037245775 C 21.6531141095522 9.233766233766234 21.670270753283802 8.765498652291106 21.704584040747 8.765498652291106 C 21.738897328210204 8.765498652291106 21.7560539719418 8.775055133545706 21.790367259405 8.872090173976968 C 21.8246805468682 8.969125214408239 21.8418371905998 9.25067385444744 21.876150478063 9.25067385444744 C 21.910463765526202 9.25067385444744 21.9276204092578 9.107326635628523 21.961933696721 9.107326635628523 C 21.996246984183802 9.107326635628523 22.0134036279152 9.338887527566774 22.047716915378 9.338887527566774 C 22.082030202841203 9.338887527566774 22.099186846572803 9.228620436167606 22.133500134036 9.228620436167606 C 22.1678134214992 9.228620436167606 22.1849700652308 9.390345503553059 22.219283352694 9.526341582945358 C 22.253596640157202 9.66233766233767 22.2707532838888 9.868169566282772 22.305066571352 9.908600833129135 C 22.3393798588152 9.949032099975499 22.3565365025468 9.949032099975499 22.39084979001 9.949032099975499 C 22.4251630774732 9.949032099975499 22.4423197212048 9.868169566282775 22.476633008668 9.868169566282775 C 22.5109462961312 9.868169566282775 22.528102939862798 10.265131095319777 22.562416227326 10.265131095319777 C 22.5967295147888 10.265131095319777 22.6138861585202 10.140161725067387 22.648199445983 10.140161725067387 C 22.682512733446202 10.140161725067387 22.6996693771778 10.151923548149952 22.733982664641 10.331291350159274 C 22.7682959521042 10.510659152168577 22.7854525958358 11.037000735113944 22.819765883299 11.037000735113944 C 22.854079170762198 11.037000735113944 22.871235814493797 10.989953442783635 22.905549101957 10.912031364861553 C 22.9398623894202 10.83410928693948 22.957019033151802 10.647390345503553 22.991332320615 10.647390345503553 C 23.0256456080782 10.647390345503553 23.0428022518098 10.945111492281304 23.077115539273 10.945111492281304 C 23.1114288267358 10.945111492281304 23.128585470467197 10.82381769174222 23.16289875793 10.82381769174222 C 23.1972120453932 10.82381769174222 23.2143686891248 10.838519970595444 23.248681976588 10.893653516295027 C 23.2829952640512 10.948787061994611 23.300151907782798 11.09948542024014 23.334465195246 11.09948542024014 C 23.3687784827092 11.09948542024014 23.385935126440803 10.883361921097771 23.420248413904 10.787061994609166 C 23.4545617013672 10.69076206812056 23.4717183450988 10.629012496937024 23.506031632562 10.617985787797108 C 23.5403449200252 10.606959078657193 23.5575015637568 10.606959078657193 23.59181485122 10.606959078657193 C 23.626128138683203 10.606959078657193 23.643284782414803 10.996569468267584 23.677598069878 11.09948542024014 C 23.711911357340803 11.202401372212694 23.7290680010722 11.16417544719454 23.763381288535 11.202401372212694 C 23.7976945759982 11.240627297231294 23.8148512197298 11.261945601568245 23.849164507193 11.290615045332027 C 23.883477794656198 11.31928448909581 23.9006344383878 11.345748591031612 23.934947725851 11.345748591031612 C 23.969261013314203 11.345748591031612 23.986417657045802 11.081107571673613 24.020730944509 11.081107571673613 C 24.0550442319722 11.081107571673613 24.0722008757038 12.040431266846364 24.106514163167 12.040431266846364 C 24.1408274506302 12.040431266846364 24.1579840943618 11.842685616270524 24.192297381825 11.757412398921835 C 24.2266106692882 11.672139181573147 24.2437673130198 11.614065180102918 24.278080600483 11.614065180102918 C 24.3123938879458 11.614065180102918 24.329550531677203 11.944866454300417 24.36386381914 11.981622151433474 C 24.398177106603203 12.01837784856653 24.415333750334803 12.01837784856653 24.449647037798 12.01837784856653 C 24.4839603252612 12.01837784856653 24.5011169689928 11.62876745895614 24.535430256456 11.525851506983583 C 24.569743543919202 11.422935555011026 24.586900187650798 11.422935555011026 24.621213475114 11.422935555011026 C 24.6555267625772 11.422935555011026 24.6726834063088 11.632443028669446 24.706996693772 11.632443028669446 C 24.741309981235197 11.632443028669446 24.758466624966797 10.904680225434944 24.79277991243 10.904680225434944 C 24.827093199892797 10.904680225434944 24.8442498436242 12.382259250183782 24.878563131087 12.529282038716003 C 24.9128764185502 12.676304827248224 24.9300330622818 12.63440333251654 24.964346349745 12.676304827248224 C 24.9986596372082 12.718206321979906 25.0158162809398 12.680715510904188 25.050129568403 12.738789512374419 C 25.0844428558662 12.796863513844643 25.1015994995978 12.738789512374419 25.135912787061 12.966674834599363 C 25.170226074524198 13.194560156824307 25.187382718255797 15.293310463121784 25.221696005719 15.293310463121784 C 25.2560092931822 15.293310463121784 25.273165936913802 14.5765743690272 25.307479224377 14.5765743690272 C 25.3417925118402 14.5765743690272 25.3589491555718 16.91497182062728 25.393262443035 17.763293310463123 C 25.4275757304978 18.611614800289125 25.444732374229197 18.81818181818182 25.479045661692 18.81818181818182 C 25.513358949155197 18.81818181818182 25.530515592886797 18.626317079147274 25.56482888035 18.505758392550845 C 25.5991421678132 18.385199705954427 25.6162988115448 18.39108061749571 25.650612099008 18.215388385199706 C 25.6849253864712 18.0396961529037 25.702082030202803 17.627297231070816 25.736395317666 17.627297231070816 C 25.770708605129197 17.627297231070816 25.7878652488608 17.891938250428815 25.822178536324 17.891938250428815 C 25.856491823787202 17.891938250428815 25.8736484675188 17.557461406518012 25.907961754982 17.557461406518012 C 25.942275042445203 17.557461406518012 25.9594316861768 17.925018377848566 25.99374497364 17.925018377848566 C 26.028058261102803 17.925018377848566 26.0452149048342 17.20460671404068 26.079528192297 17.20460671404068 C 26.113841479760197 17.20460671404068 26.1309981234918 17.42514089683901 26.165311410955 17.42514089683901 C 26.199624698418198 17.42514089683901 26.2167813421498 17.32810585640774 26.251094629613 17.237686841460427 C 26.285407917076203 17.147267826513104 26.3025645608078 16.973045822102428 26.336877848271 16.973045822102428 C 26.3711911357342 16.973045822102428 26.3883477794658 17.70080862533693 26.422661066929 17.70080862533693 C 26.4569743543922 17.70080862533693 26.474130998123798 17.381034060279344 26.508444285587 17.370007351139428 C 26.5427575730498 17.358980641999512 26.5599142167812 17.358980641999512 26.594227504244 17.358980641999512 C 26.628540791707202 17.358980641999512 26.6456974354388 17.571428571428577 26.680010722902 17.671404067630483 C 26.714324010365203 17.771379563832397 26.7314806540968 17.858858123009067 26.76579394156 17.858858123009067 C 26.8001072290232 17.858858123009067 26.8172638727548 17.766968880176425 26.851577160218 17.71551090419015 C 26.8858904476812 17.664052928203873 26.903047091412798 17.71551090419015 26.937360378876 17.60156824307768 C 26.9716736663392 17.487625581965208 26.988830310070796 16.675324675324678 27.023143597534 16.543004165645677 C 27.057456884997197 16.410683655966675 27.074613528728797 16.410683655966675 27.108926816192 16.410683655966675 C 27.1432401036548 16.410683655966675 27.160396747386198 17.259740259740262 27.194710034849 17.259740259740262 C 27.2290233223122 17.259740259740262 27.246179966043798 17.061259495221762 27.280493253507 17.061259495221762 C 27.3148065409702 17.061259495221762 27.3319631847018 17.347953932859596 27.366276472165 17.347953932859596 C 27.4005897596282 17.347953932859596 27.417746403359796 17.30752266601323 27.452059690823 17.296495956873315 C 27.486372978286198 17.2854692477334 27.5035296220178 17.296495956873315 27.537842909481 17.2854692477334 C 27.5721561969442 17.274442538593483 27.589312840675802 17.109041901494734 27.623626128139 17.109041901494734 C 27.657939415602204 17.109041901494734 27.6750960593338 17.129625091888826 27.709409346797 17.20093114432737 C 27.743722634259797 17.27223719676508 27.7608792779912 17.41043861798579 27.795192565454 17.465572163685373 C 27.829505852917197 17.520705709384956 27.846662496648797 17.465572163685373 27.880975784112 17.520705709384956 C 27.9152890715752 17.57583925508454 27.9324457153068 17.75373682920852 27.96675900277 17.877235971575594 C 28.001072290233196 18.000735113942653 28.0182289339648 17.99485420240137 28.052542221428 18.138201421220288 C 28.086855508891198 18.281548640039205 28.1040121526228 18.26096544964471 28.138325440086 18.59397206567018 C 28.172638727549202 18.926978681695683 28.1897953712808 19.63783386424896 28.224108658744 19.80323450134771 C 28.258421946206802 19.96863513844646 28.2755785899382 19.96863513844646 28.309891877401 19.96863513844646 C 28.3442051648642 19.96863513844646 28.361361808595802 19.865719186473903 28.395675096059 19.865719186473903 C 28.429988383522204 19.865719186473903 28.4471450272538 20.259005145797598 28.481458314717 20.259005145797598 C 28.5157716021802 20.259005145797598 28.5329282459118 20.18549375153149 28.567241533375 20.18549375153149 C 28.601554820838203 20.18549375153149 28.6187114645698 20.659642244547904 28.653024752033 20.659642244547904 C 28.6873380394962 20.659642244547904 28.7044946832278 20.14873805439843 28.738807970691 20.111982357265376 C 28.773121258154198 20.075226660132323 28.790277901885798 20.111982357265376 28.824591189349 20.075226660132323 C 28.8589044768118 20.03847096299927 28.876061120543206 19.78485665278118 28.910374408006 19.78485665278118 C 28.944687695469202 19.78485665278118 28.9618443392008 19.990688556726294 28.996157626664 19.990688556726294 C 29.0304709141272 19.990688556726294 29.0476275578588 19.703259005145796 29.081940845322 19.60475373682921 C 29.1162541327852 19.506248468512617 29.133410776516797 19.526831658907135 29.16772406398 19.49816221514335 C 29.2020373514432 19.469492771379567 29.2191939951748 19.461406518010293 29.253507282638 19.461406518010293 C 29.2878205701012 19.461406518010293 29.304977213832796 19.590051457975985 29.339290501296 19.63783386424896 C 29.373603788759198 19.68561627052193 29.3907604324908 19.64003920607659 29.425073719954 19.700318549375154 C 29.459387007416797 19.76059789267301 29.476543651148198 19.85395736339182 29.510856938611 19.939230580740016 C 29.545170226074198 20.0245037980892 29.562326869805798 20.115657926978677 29.596640157269 20.126684636118597 C 29.6309534447322 20.137711345258516 29.648110088463802 20.126684636118597 29.682423375927 20.137711345258516 C 29.7167366633902 20.148738054398436 29.733893307121797 20.22592501837785 29.768206594585 20.236951727517766 C 29.8025198820482 20.247978436657682 29.8196765257798 20.241362411173736 29.853989813243 20.247978436657682 C 29.888303100706203 20.254594462141633 29.905459744437803 20.270031854937514 29.939773031901 20.270031854937514 C 29.9740863193638 20.270031854937514 29.991242963095203 19.939230580740016 30.025556250558 19.939230580740016 C 30.0598695380212 19.939230580740016 30.077026181752796 19.97598627787307 30.111339469216 19.97598627787307 C 30.145652756679198 19.97598627787307 30.1628094004108 19.92673364371478 30.197122687874 19.847341337907377 C 30.2314359753372 19.767949032099978 30.248592619068802 19.57902474883607 30.282905906532 19.57902474883607 C 30.317219193995204 19.57902474883607 30.3343758377268 19.5974025974026 30.36868912519 19.5974025974026 C 30.4030024126532 19.5974025974026 30.4201590563848 19.582700318549378 30.454472343848 19.582700318549378 C 30.488785631311202 19.582700318549378 30.5059422750428 19.717226170055728 30.540255562506 19.82528791962754 C 30.574568849968802 19.933349669198094 30.5917254937002 20.020093114433337 30.626038781163 20.12300906640529 C 30.660352068626203 20.22592501837845 30.677508712357803 20.33986767949032 30.711821999821 20.33986767949032 C 30.746135287284197 20.33986767949032 30.7632919310158 20.109041901494727 30.797605218479 20.01641754471943 C 30.831918505942202 19.923793187944124 30.849075149673798 19.928938985542757 30.883388437137 19.87674589561382 C 30.917701724600203 19.82455280568488 30.9348583683318 19.829698603283514 30.969171655795 19.755452095074737 C 31.0034849432582 19.68120558686597 31.020641586989804 19.620191129625088 31.054954874453 19.50551335456996 C 31.0892681619162 19.39083557951482 31.106424805647798 19.39157069345871 31.140738093111 19.18206321979907 C 31.1750513805738 18.97255574614188 31.1922080243052 18.663072776279122 31.226521311768 18.457975986277873 C 31.260834599231202 18.252879196274222 31.2779912429628 18.156579269786818 31.312304530426 18.156579269786818 C 31.3466178178892 18.156579269786818 31.3637744616208 18.270521930899292 31.398087749084 18.270521930899292 C 31.432401036547198 18.270521930899292 31.449557680278797 18.255819652046068 31.483870967742 18.255819652046068 C 31.5181842552052 18.255819652046068 31.535340898936802 18.340357755452096 31.5696541864 18.3440333251654 C 31.6039674738632 18.347708894878707 31.621124117594796 18.347708894878707 31.655437405058 18.347708894878707 C 31.6897506925208 18.347708894878707 31.706907336252197 18.321979906885566 31.741220623715 18.321979906885566 C 31.7755339111782 18.321979906885566 31.792690554909804 18.8071551090419 31.827003842373 18.8071551090419 C 31.8613171298362 18.8071551090419 31.878473773567798 18.8071551090419 31.912787061031 18.796128399901985 C 31.9471003484942 18.78510169076207 31.998570279689 18.068365596667483 31.998570279689 18.068365596667483" visibility="visible" data-z-index="2" class="highcharts-tracker-line" stroke-linecap="round" stroke-linejoin="round" stroke="rgba(192,192,192,0.0001)" stroke-width="22"/></g><g class="highcharts-markers highcharts-series-0 highcharts-spline-series highcharts-tracker" data-z-index="0.1" opacity="1" transform="translate(0,0) scale(1 1)" clip-path="none"/></g><text x="16" text-anchor="middle" class="highcharts-title" data-z-index="4" style="color:#333333;font-size:18px;fill:#333333;" y="14"/><text x="16" text-anchor="middle" class="highcharts-subtitle" data-z-index="4" style="color:#666666;fill:#666666;" y="14"/><text x="0" text-anchor="start" class="highcharts-caption" data-z-index="4" style="color:#666666;fill:#666666;" y="36"/></svg>