<svg width="180" height="127" viewBox="0 0 180 127" fill="none" xmlns="http://www.w3.org/2000/svg">
<g clip-path="url(#clip0_8346_244740)">
<path d="M113.05 105.838V79.5353H118.526V105.838H113.05Z" fill="#F7A600"/>
<path d="M49.2381 113.651H37.5V87.3481H48.766C54.2414 87.3481 57.4318 90.2295 57.4318 94.7367C57.4318 97.6542 55.3828 99.5396 53.9646 100.167C55.6574 100.906 57.8243 102.568 57.8243 106.079C57.8243 110.991 54.2414 113.651 49.2381 113.651ZM48.3327 91.9297H42.9753V97.9882H48.3327C50.6563 97.9882 51.9564 96.7689 51.9564 94.958C51.9564 93.149 50.6563 91.9297 48.3327 91.9297ZM48.6867 102.606H42.9753V109.071H48.6867C51.169 109.071 52.349 107.594 52.349 105.819C52.349 104.047 51.1668 102.606 48.6867 102.606Z" fill="#36415C"/>
<path d="M74.5249 102.864V113.651H69.0882V102.864L60.6585 87.3481H66.6058L71.8451 97.95L77.0051 87.3481H82.9525L74.5249 102.864Z" fill="#36415C"/>
<path d="M98.4755 113.651H86.7374V87.3481H98.0035C103.479 87.3481 106.669 90.2295 106.669 94.7367C106.669 97.6542 104.62 99.5396 103.202 100.167C104.895 100.906 107.062 102.568 107.062 106.079C107.062 110.991 103.479 113.651 98.4755 113.651ZM97.5701 91.9297H92.2127V97.9882H97.5701C99.8937 97.9882 101.194 96.7689 101.194 94.958C101.194 93.149 99.8937 91.9297 97.5701 91.9297ZM97.924 102.606H92.2127V109.071H97.924C100.406 109.071 101.586 107.594 101.586 105.819C101.586 104.047 100.406 102.606 97.924 102.606Z" fill="#36415C"/>
<path d="M136.173 91.9297V113.653H130.697V91.9297H123.37V87.3481H143.5V91.9297H136.173Z" fill="#36415C"/>
</g>
<defs>
<clipPath id="clip0_8346_244740">
<rect width="106" height="40" fill="white" transform="translate(37.5 76.0059)"/>
</clipPath>
</defs>
</svg>
