<svg width="180" height="127" viewBox="0 0 180 127" fill="none" xmlns="http://www.w3.org/2000/svg">
<path fill-rule="evenodd" clip-rule="evenodd" d="M76.4091 37.995L90 24.6011L103.596 38.0059L111.5 30.2082L90 9.00586L68.5 30.2028L76.4091 37.995ZM55.1333 43.4905L63.0854 35.6907L71.0374 43.4905L63.0854 51.2903L55.1333 43.4905ZM90.0028 62.4131L76.4171 49.0113L68.5 56.7995L68.511 56.8104L90.0028 78.0059L111.494 56.7995L111.5 56.7941L103.594 49.0059L90.0028 62.4131ZM109.61 43.4919L117.562 35.6921L125.514 43.4919L117.562 51.2917L109.61 43.4919ZM90.5028 36.0059L98.4945 43.5033H98.5L98.4945 43.5084L90.5028 51.0059L82.511 43.5188L82.5 43.5033L82.511 43.493L83.91 42.1814L84.5929 41.5463L90.5028 36.0059Z" fill="#F3BA2F"/>
<path fill-rule="evenodd" clip-rule="evenodd" d="M136.044 117.406C134.549 117.419 133.068 117.135 131.688 116.572C130.389 116.046 129.211 115.27 128.222 114.29C127.234 113.31 126.455 112.147 125.933 110.867C125.381 109.529 125.102 108.098 125.11 106.654V106.595C125.086 103.75 126.202 101.009 128.218 98.9635C129.21 97.9642 130.398 97.172 131.71 96.6344C133.138 96.0545 134.67 95.7653 136.215 95.7844C137.129 95.7777 138.041 95.858 138.939 96.0241C139.707 96.1666 140.458 96.3868 141.18 96.6811C141.835 96.9516 142.458 97.292 143.037 97.6962C143.602 98.0904 144.133 98.5299 144.624 99.0102L141.643 102.385C140.882 101.696 140.027 101.113 139.104 100.651C138.197 100.226 137.201 100.013 136.196 100.028C135.359 100.02 134.53 100.186 133.764 100.515C132.998 100.845 132.312 101.331 131.752 101.94C131.196 102.548 130.761 103.253 130.469 104.017C130.163 104.825 130.009 105.681 130.015 106.542V106.601C130.012 107.462 130.166 108.316 130.469 109.124C130.758 109.891 131.188 110.599 131.739 111.213C132.295 111.83 132.979 112.323 133.746 112.658C134.512 112.993 135.344 113.163 136.183 113.156C137.252 113.189 138.313 112.963 139.272 112.499C140.185 112.011 141.029 111.408 141.783 110.705L144.767 113.663C144.24 114.224 143.67 114.745 143.062 115.22C142.465 115.683 141.817 116.079 141.129 116.4C140.396 116.739 139.625 116.988 138.831 117.144C137.913 117.325 136.979 117.413 136.044 117.406ZM81.7086 95.9839H86.026L95.159 117.039H90.2639L88.3148 112.35H79.3023L77.3532 117.039H72.5724L81.7086 95.9839ZM86.6418 108.289L83.8038 101.508L80.9785 108.289H86.6418ZM12.8118 96.1331H22.6908C25.1416 96.1331 26.9955 96.7559 28.2526 98.0013C28.7262 98.4614 29.0996 99.0111 29.3501 99.617C29.6005 100.223 29.7229 100.872 29.7097 101.526V101.585C29.7182 102.121 29.6422 102.654 29.4843 103.167C29.3437 103.608 29.1395 104.028 28.878 104.412C28.6342 104.775 28.3392 105.102 28.0018 105.384C27.6722 105.662 27.3111 105.903 26.9256 106.1C28.0372 106.48 29.0368 107.121 29.8367 107.968C30.5435 108.757 30.8969 109.847 30.8969 111.238V111.297C30.917 112.166 30.7243 113.026 30.3351 113.807C29.9579 114.526 29.4049 115.142 28.7256 115.6C27.9576 116.105 27.1025 116.469 26.2019 116.674C25.1318 116.923 24.0349 117.043 22.9353 117.032H12.8118V96.1331ZM21.7004 104.584C22.5551 104.624 23.4057 104.444 24.167 104.061C24.4639 103.891 24.7063 103.642 24.8667 103.344C25.0272 103.046 25.0993 102.709 25.0749 102.373V102.314C25.0906 102.004 25.0264 101.695 24.8883 101.416C24.7501 101.137 24.5424 100.896 24.2844 100.717C23.7575 100.349 22.9967 100.165 22.002 100.165H17.3799V104.584H21.7004ZM22.948 113.006C23.7995 113.053 24.6471 112.862 25.3924 112.455C25.6827 112.272 25.9177 112.016 26.0729 111.714C26.2281 111.412 26.2978 111.074 26.2749 110.736V110.677C26.2863 110.356 26.2173 110.037 26.074 109.749C25.9307 109.46 25.7173 109.21 25.4527 109.021C24.9067 108.606 24.0241 108.398 22.8051 108.398H17.3799V113.006H22.948ZM36.7828 96.1331H41.4715V117.039H36.7828V96.1331ZM52.8898 96.1331H48.5662V117.039H53.2009V103.749L63.5213 117.039H67.5116V96.1331H62.8832V108.999L52.8898 96.1331ZM104.553 96.1331H100.229V117.039H104.858V103.749L115.178 117.039H119.168V96.1331H114.54V108.999L104.553 96.1331ZM166.341 96.1331H150.3L150.31 117.039H166.5V112.947H154.929V108.557H164.976V104.465H154.913V100.225H166.341V96.1331Z" fill="#36415C"/>
</svg>
