<svg width="199" height="157" viewBox="0 0 199 157" fill="none" xmlns="http://www.w3.org/2000/svg">
<path d="M83.4635 110H60.5332C60.3918 110 60.2562 110.056 60.1562 110.156C60.0561 110.256 60 110.392 60 110.533V133.464C60 133.605 60.0561 133.741 60.1562 133.841C60.2562 133.941 60.3918 133.997 60.5332 133.997H83.4635C83.605 133.997 83.7407 133.941 83.8406 133.841C83.9407 133.741 83.9968 133.605 83.9968 133.464V110.533C83.9968 110.392 83.9407 110.256 83.8406 110.156C83.7407 110.056 83.605 110 83.4635 110ZM75.9978 125.465C75.9978 125.606 75.9417 125.742 75.8416 125.842C75.7417 125.942 75.6061 125.998 75.4646 125.998H68.5322C68.3908 125.998 68.2551 125.942 68.1551 125.842C68.0551 125.742 67.999 125.606 67.999 125.465V118.532C67.999 118.391 68.0551 118.255 68.1551 118.155C68.2551 118.055 68.3908 117.999 68.5322 117.999H75.4646C75.6061 117.999 75.7417 118.055 75.8416 118.155C75.9417 118.255 75.9978 118.391 75.9978 118.532V125.465Z" fill="black"/>
<path d="M131.471 118H124.538C124.244 118 124.005 118.239 124.005 118.533V125.466C124.005 125.76 124.244 125.999 124.538 125.999H131.471C131.765 125.999 132.004 125.76 132.004 125.466V118.533C132.004 118.239 131.765 118 131.471 118Z" fill="black"/>
<path d="M123.469 110H116.536C116.242 110 116.003 110.239 116.003 110.534V117.466C116.003 117.761 116.242 117.999 116.536 117.999H123.469C123.763 117.999 124.002 117.761 124.002 117.466V110.534C124.002 110.239 123.763 110 123.469 110Z" fill="black"/>
<path d="M139.467 110H132.534C132.24 110 132.001 110.239 132.001 110.534V117.466C132.001 117.761 132.24 117.999 132.534 117.999H139.467C139.761 117.999 140 117.761 140 117.466V110.534C140 110.239 139.761 110 139.467 110Z" fill="black"/>
<path d="M123.469 125.999H116.536C116.242 125.999 116.003 126.237 116.003 126.532V133.464C116.003 133.759 116.242 133.998 116.536 133.998H123.469C123.763 133.998 124.002 133.759 124.002 133.464V126.532C124.002 126.237 123.763 125.999 123.469 125.999Z" fill="black"/>
<path d="M139.467 125.999H132.534C132.24 125.999 132.001 126.237 132.001 126.532V133.464C132.001 133.759 132.24 133.998 132.534 133.998H139.467C139.761 133.998 140 133.759 140 133.464V126.532C140 126.237 139.761 125.999 139.467 125.999Z" fill="black"/>
<path d="M111.459 110H104.526C104.232 110 103.993 110.239 103.993 110.534V117.466C103.993 117.761 104.232 117.999 104.526 117.999H111.459C111.753 117.999 111.992 117.761 111.992 117.466V110.534C111.992 110.239 111.753 110 111.459 110Z" fill="black"/>
<path d="M111.459 125.999H104.526C104.232 125.999 103.993 126.237 103.993 126.532V133.464C103.993 133.759 104.232 133.998 104.526 133.998H111.459C111.753 133.998 111.992 133.759 111.992 133.464V126.532C111.992 126.237 111.753 125.999 111.459 125.999Z" fill="black"/>
<path d="M103.994 118.526C103.994 118.385 103.938 118.249 103.838 118.149C103.738 118.049 103.602 117.993 103.461 117.993H95.9951V110.533C95.9951 110.392 95.9388 110.256 95.8389 110.156C95.7388 110.056 95.6032 110 95.4618 110H88.5294C88.3879 110 88.2522 110.056 88.1523 110.156C88.0522 110.256 87.9961 110.392 87.9961 110.533V133.452C87.9961 133.593 88.0522 133.729 88.1523 133.829C88.2522 133.929 88.3879 133.985 88.5294 133.985H95.4618C95.6032 133.985 95.7388 133.929 95.8389 133.829C95.9388 133.729 95.9951 133.593 95.9951 133.452V125.992H103.461C103.602 125.992 103.738 125.936 103.838 125.836C103.938 125.736 103.994 125.6 103.994 125.459V118.526Z" fill="black"/>
<path d="M132.49 73.6665H112.845C112.011 73.6665 111.334 74.2733 111.334 75.0219V92.6446C111.334 93.3932 112.011 94.0002 112.845 94.0002H132.49C133.324 94.0002 134 93.3932 134 92.6446V75.0219C134 74.2733 133.324 73.6665 132.49 73.6665Z" fill="black"/>
<path d="M87.1553 73.6665H67.5112C66.6767 73.6665 66 74.2733 66 75.0219V92.6446C66 93.3932 66.6767 94.0002 67.5112 94.0002H87.1553C87.9901 94.0002 88.6665 93.3932 88.6665 92.6446V75.0219C88.6665 74.2733 87.9901 73.6665 87.1553 73.6665Z" fill="black"/>
<path d="M132.49 33H112.845C112.011 33 111.334 33.6068 111.334 34.3557V51.978C111.334 52.7267 112.011 53.3337 112.845 53.3337H132.49C133.324 53.3337 134 52.7267 134 51.978V34.3557C134 33.6068 133.324 33 132.49 33Z" fill="black"/>
<path d="M87.1553 33H67.5112C66.6767 33 66 33.6068 66 34.3557V51.978C66 52.7267 66.6767 53.3337 67.5112 53.3337H87.1553C87.9901 53.3337 88.6665 52.7267 88.6665 51.978V34.3557C88.6665 33.6068 87.9901 33 87.1553 33Z" fill="black"/>
<path d="M109.831 53.3345H90.187C89.3524 53.3345 88.6758 53.9412 88.6758 54.6899V72.3125C88.6758 73.0611 89.3524 73.6682 90.187 73.6682H109.831C110.666 73.6682 111.342 73.0611 111.342 72.3125V54.6899C111.342 53.9412 110.666 53.3345 109.831 53.3345Z" fill="black"/>
</svg>
