<svg width="180" height="127" viewBox="0 0 180 127" fill="none" xmlns="http://www.w3.org/2000/svg">
<path d="M62.8256 96.8958V101.814H72.6968V106.701H62.8256V114.37H56.5V92.0059H74.0385V96.8958H62.8256Z" fill="#36415C"/>
<path d="M82.5097 97.0239H75.6411V92.0062H95.6712V97.0239H88.8349V114.37H82.5097V97.0239Z" fill="#36415C"/>
<path d="M112.996 114.37L108.364 107.436L103.796 114.37H96.5759L104.722 103.06L96.9276 92.0059H104.051L108.524 98.4608L112.932 92.0059H119.769L111.974 102.805L120.28 114.37H112.996Z" fill="#36415C"/>
<path d="M92.5 57.0059H75.5V74.0059H92.5V57.0059Z" fill="#ABEBF4"/>
<path d="M107.653 34.0059H75.5V51.0059H113.5V34.0116H107.653V34.0059Z" fill="#5FCADE"/>
<path d="M128.5 11.0059H75.5V28.0059H128.5V11.0059Z" fill="#02A6C2"/>
<path d="M69.5 34.0059H52.5V51.0059H69.5V34.0059Z" fill="#5FCADE"/>
</svg>
