<svg width="689" height="441" fill="none" xmlns="http://www.w3.org/2000/svg"><style>@keyframes plus-animation-up{0%,to{transform:translateY(5px)}25%,75%{transform:translateY(2px)}50%{transform:translateY(0)}}@keyframes plus-animation-down{0%,to{transform:translateY(-5px)}25%,75%{transform:translateY(-2px)}50%{transform:translateY(0)}}.mainImage-plus.down,.mainImage-plus.up{animation-fill-mode:forwards;animation:plus-animation-up 3s linear;animation-iteration-count:infinite}.mainImage-plus.down{animation:plus-animation-down 3s linear}</style><g id="ill-main-car"><path d="M688.667 108.24L456.75 208.627l-4.75-7.75L688.667 99.121v9.119zm0 11.781L460.5 218.127l4.75 7.75 223.417-96.705v-9.151zm0-42.021L443 183.627l4.75 7.75L688.667 87.094V78zm0 62.055L468.75 234.627l4.75 7.75 215.167-93.13v-9.192z" fill="url(#paint2_linear)"/><path d="M266.557 408.145c51.842 0 93.869-42.026 93.869-93.868 0-51.842-42.027-93.869-93.869-93.869s-93.868 42.027-93.868 93.869 42.026 93.868 93.868 93.868z" fill="#273C75"/><path d="M355.392 372.019c51.842 0 93.868-42.026 93.868-93.868 0-51.842-42.026-93.869-93.868-93.869-51.842 0-93.869 42.027-93.869 93.869s42.027 93.868 93.869 93.868z" fill="#273C75"/><path d="M348.01 371.733l3.403.023 3.983.043 5.262-.276c3.881-.395 8.511-.847 13.529-2.013a102.382 102.382 0 0015.969-4.902c5.518-2.183 10.529-4.843 14.913-7.528l1.629-.991c.534-.329 1.034-.693 1.541-1.031 1.005-.69 1.999-1.336 2.931-2.003 1.817-1.392 3.573-2.616 5.044-3.901l2.145-1.776c.662-.579 1.264-1.149 1.84-1.669 1.151-1.042 2.143-1.941 2.897-2.734l2.405-2.405-2.248 2.556c-.708.84-1.649 1.796-2.749 2.902-.55.552-1.127 1.156-1.764 1.771l-2.073 1.885c-1.424 1.36-3.141 2.664-4.928 4.135-.916.706-1.897 1.392-2.892 2.121-.503.356-1 .74-1.529 1.089l-1.621 1.047c-4.368 2.829-9.418 5.61-15.02 7.825-5.59 2.241-11.141 3.769-16.253 4.762-5.109 1.052-9.807 1.335-13.726 1.557l-5.301.021-3.992-.265-3.395-.243z" fill="#D1F7FF"/><path d="M158.846 408.663l-126.96-47.008 7.996 17.989 122.369 50.413-3.405-21.394z" fill="#213263"/><path d="M520.327 220.113l-7.254 68.55-35.978 28.279-203.209 80.617-111.635 32.498-6.441-17.989 10.462-11.657 57.867-41.717 4.22-7.773 29.315-58.631 82.172-86.835L469.1 160.149l19.321 35.756 14.436 3.998 17.47 20.21z" fill="#13265C"/><path d="M427.421 321.828l85.651-33.164-35.977 28.278-72.289 28.649 22.615-23.763z" fill="#204475"/><path d="M343.251 208.12l25.133-8.328 20.912 86.946-138.951 55.744 92.906-134.362zM42.803 375.871l-2.516-5.579 109.398 44.584 2.281 5.852-109.163-44.857z" fill="#0A1638"/><path d="M146.986 413.776l-99.96-40.738 1.748 4.268 99.772 40.887-1.56-4.417z" fill="#19DCA7"/><path d="M42.244 374.63l.56 1.241 109.162 44.857-.525-1.349L42.244 374.63z" fill="#0A1638"/><path d="M224.139 358.694l-57.867 41.717-10.462 11.658-123.924-50.414 9.732-11.131 58.597-42.243 123.924 50.413z" fill="url(#paint3_linear)"/><path d="M41.618 350.523l28.616 16.845-.149-37.249-28.467 20.404z" fill="#41D1F7"/><path d="M74.23 328.342l-.148 42.225 10.66 4.03.149-54.842-10.66 8.587z" fill="#4FE4F7"/><path d="M224.139 358.694l4.22-7.773-124.813-50.635-3.331 7.995 123.924 50.413z" fill="#40C4F5"/><path d="M103.546 300.286l-3.331 7.995 2.702 1.11 3.146-8.143-2.517-.962zM100.215 308.281l-48.341 34.423 51.042-33.313-2.701-1.11z" fill="#FFFFF7"/><path d="M339.846 205.455l-127.774-42.789-108.526 137.619 124.813 50.636 111.487-145.466z" fill="#37548C"/><path d="M339.846 205.455L469.1 160.15l-118.743-38.051-138.285 40.567 127.774 42.789z" fill="url(#paint4_linear)"/><g opacity=".67"><path opacity=".67" d="M212.072 162.666l63.22 21.024-.148-39.199-63.072 18.175z" fill="#5FB6D4"/><path opacity=".5" d="M323.887 152L321 154.66l.147 44.396 3.11.962-.37-48.018z" fill="#FF9EDF"/><path opacity=".67" d="M438.859 150.267l-.334 20.654 8.662-3.221.222-15.768-8.55-1.665z" fill="#FF9EDF"/></g><path d="M215.255 167.7l-92.609 135.177 108.155 44.935 106.824-139.248-122.37-40.864z" fill="url(#paint5_linear)"/><path d="M272.479 323.456l70.475-114.67 19.509-5.945a3.215 3.215 0 014.142 2.808l5.877 70.152a10.854 10.854 0 01-6.842 11.007l-93.161 36.648z" fill="url(#paint6_linear)"/><path opacity=".72" fill-rule="evenodd" clip-rule="evenodd" d="M359.487 289.229l6.153-2.421a10.856 10.856 0 006.843-11.007l-5.878-70.152a3.215 3.215 0 00-4.142-2.808l-19.509 5.945-.241.393 16.774 80.05zm-17.718-78.514l-18.339 29.838a581.27 581.27 0 007.987 59.718l12.194-4.797-1.842-84.759z" fill="url(#paint7_linear)"/><path d="M340.659 212.007L360.5 293l4.515-1.376L344.5 207l-3.841 5.007z" fill="#0A1638"/><path d="M296.712 388.552l-20.364-16.539-4.387 1.709.776 14.197 8.439 6.751 15.536-6.118z" fill="#0E1F50"/><path d="M281.176 394.67l-8.439-6.751.538 9.862 7.901-3.111z" fill="#0F7178"/><path d="M292.089 365.882l19.744 16.716 15.301-6.025-19.773-16.64-15.272 5.949z" fill="#0E1F50"/><path d="M358.057 340.187l-6.68 2.601 5.833 5.018.847-7.619z" fill="#0A1638"/><path d="M351.377 342.788l-14.746 5.744 18.656 16.583 1.923-17.309-5.833-5.018z" fill="#0F7178"/><path d="M322.795 353.922l19.92 16.516 12.528-4.933.044-.39-18.656-16.583-13.836 5.39z" fill="#0E1F50"/><path d="M307.361 359.933l19.773 16.64 15.581-6.135-19.92-16.516-15.434 6.011zM311.833 382.598l-19.744-16.716-15.741 6.131 20.364 16.539 15.121-5.954z" fill="#0F7178"/><path d="M273.146 372.908l86.095-33.165-.296 2.369-85.873 33.017.074-2.221z" fill="#0A1638"/><path d="M502.857 199.903l17.47 20.21-87.094 31.203-17.49-20.598 87.114-30.815z" fill="#3E5592"/><g opacity=".59"><path opacity=".59" d="M423.279 228.052l39.073 12.831 15.932-5.708-38.582-12.932-16.423 5.809z" fill="#2CFFBA"/><path opacity=".59" d="M462.352 240.883l-39.073-12.831-7.536 2.666 7.716 9.087 21.795 7.204 17.098-6.126z" fill="#0E1F50"/><path opacity=".59" d="M445.254 247.009l-21.795-7.203 9.774 11.51 12.021-4.307zM502.857 199.903l-14.746 5.216 26.368 8.228-11.622-13.444z" fill="#2CFFBA"/><path opacity=".59" d="M488.111 205.119l-16.985 6.008 38.844 12.696 10.357-3.71-5.848-6.766-26.368-8.228z" fill="#0E1F50"/><path opacity=".59" d="M456.448 216.318l38.753 12.796 14.769-5.291-38.844-12.696-14.678 5.191z" fill="#2CFFBA"/><path opacity=".59" d="M439.702 222.243l38.581 12.932 16.918-6.061-38.753-12.795-16.746 5.924z" fill="#0E1F50"/></g><path d="M502.857 199.903l-24.874-7.329-85.947 30.204 23.707 7.94 87.114-30.815z" fill="url(#paint8_linear)"/><path d="M520.327 220.113l-7.254 68.55-88.057 32.832 8.217-70.179 87.094-31.203z" fill="#0E1F50"/><path d="M487.438 288.349c13.692-10.999 18.72-27.473 11.231-36.796-7.49-9.322-24.66-7.962-38.352 3.037-13.692 11-18.72 27.474-11.231 36.796 7.489 9.322 24.66 7.963 38.352-3.037z" fill="#2A5782"/><path d="M469.173 269.055l-48.861 36.626 5.006 5.142 49.018-36.438-5.163-5.33z" fill="#003A55"/><path d="M463.989 281.597l-44.121 33.041 5.005 5.142 46.006-34.584-6.89-3.599z" fill="#0F7077"/><path d="M479.688 281.843c-2.462 1.615-5.266 2.654-8.061 2.814-6.244.356-10.307-4.021-9.254-9.981 1.195-6.765 8.187-12.945 15.255-13.628 2.957-.286 5.436.444 7.181 1.887.737.61 2.072.395 3.074-.464 1.476-1.264 2.901-2.486 4.148-3.558 1.19-1.023 1.505-2.553.65-3.3-3.409-2.976-8.518-4.346-14.64-3.34-10.895 1.79-21.465 10.889-24.586 21.161-3.72 12.243 4.03 21.393 16.616 20.177 4.725-.456 9.428-2.308 13.564-5.079 1.617-1.085 2.273-3.005 1.409-4.11l-1.986-2.543c-.669-.856-2.112-.862-3.37-.036z" fill="#0E1F50"/><path d="M472.282 282.741l3.369 5.275 40.938-33.369.629-9.935-40.182 32.54-4.754 5.489z" fill="#003A55"/><path d="M471.987 284.684l8.328 8.884 35.829-29.148.629-9.936-34.796 28.099-8.214-8.781-10.105 7.718c0-.001 2.665 3.664 8.329 3.164z" fill="#0F7077"/><path d="M428.421 299.841l41.048-31.083 7.863 8.198 39.886-32.244M471.987 284.684l8.328 8.884 35.829-29.149" stroke="#0E1F50" stroke-miterlimit="10" stroke-linejoin="round"/><path d="M389.296 286.739l8.588 6.81-29.908 11.845-6.81-2.073-96.978 38.051 3.109 2.665-30.943 12.881-12.215 1.776 4.22-7.773 160.937-64.182z" fill="url(#paint9_linear)"/><path d="M367.976 305.394l-10.956 59.519-1.777.592 5.923-62.184 6.81 2.073zm24.06-82.616l19.765 63.516 3.942-55.576-23.707-7.94zM224.139 358.694l11.475 48.711 9.771 2.221-9.031-52.708-12.215 1.776z" fill="url(#paint10_linear)"/><path d="M245.385 409.625l28.131-10.067-6.219-55.522-30.943 12.881 9.031 52.708z" fill="#0E1F50"/><path d="M415.743 230.718l17.49 20.598-5.812 70.512L411.209 343l-3.702 1.332 8.236-113.614z" fill="#1D396B"/><path d="M418.242 237.158l12.881 15.102-6.107 69.235-13.992 17.434 7.218-101.771zM264.188 341.372l3.109 2.665 5.978 53.744 1.999-.777-2.498-59.002-8.588 3.37zM397.884 293.549l-10.29 59.149 7.995-3.998 2.295-55.151zM412.293 185.24l8.507 23.522 27.664-9.691-8.96-22.925-27.211 9.094zM465.324 166.59l-24.134 8.957 9.106 22.875 26.132-9.179-11.104-22.653zM383.708 195.572l7.439 23.874L419 209.399l-8.454-23.539-26.838 9.712z" fill="#0A1638"/><path d="M421.018 250.057l-.494 5.685 7.496 1.713.439-5.637-7.441-1.761zM420.129 260.717l-.494 5.685 7.554 1.725.439-5.634-7.499-1.776zM419.241 271.377l-.494 5.685 7.611 1.739.439-5.635-7.556-1.789zM418.353 282.037l-.494 5.685 7.668 1.752.439-5.634-7.613-1.803zM417.464 292.697l-.494 5.685 7.726 1.766.438-5.634-7.67-1.817zM416.576 303.357l-.494 5.686 7.783 1.777.439-5.633-7.728-1.83zM415.688 314.017l-.494 5.685 7.84 1.791.439-5.633-7.785-1.843zM414.8 324.677l-.494 5.686 1.829.407 3.969-4.838-5.304-1.255z" fill="#1D2F66"/><path d="M513.073 288.663s2.056-27.15 5.59-60.537l.838-7.754-9.352-10.98-7.586-9.034-18.059-5.682-6.52-2.101 6.618 1.77 7.865 2.143 10.684 2.961 8.041 9.043 9.963 11.363-.877 8.444c-3.534 33.384-7.205 60.364-7.205 60.364z" fill="#fff"/><path d="M103.546 300.286s43.634-56.642 98.245-125.893l9.811-12.423 55.15-16.006 43.917-12.602 39.688-11.263s-14.829 4.492-39.483 11.963l-43.765 13.12-54.566 16.182-9.477 12.035c-54.611 69.251-99.52 124.887-99.52 124.887z" fill="#73FFCE"/><path d="M100.215 308.281l123.924 50.413" stroke="#231F20" stroke-miterlimit="10"/><path d="M183.127 388.083l11.031 32.351" stroke="#0A1638" stroke-width="2" stroke-miterlimit="10"/><g opacity=".47" stroke="#2F559A" stroke-miterlimit="10"><path opacity=".47" d="M57.797 338.928l127.255 49.969M84.891 370.686l32.647-55.521M120.203 382.679l69.957-37.532"/></g><path d="M41.618 350.524l124.654 49.887-10.462 11.657-123.924-50.413 9.732-11.131z" fill="url(#paint11_linear)"/><path d="M166.272 400.411l9.97 25.353-13.991 4.293-6.441-17.989 10.462-11.657z" fill="#0A1638"/><path d="M154.552 411.328l10.808-11.474 2.147 1.925-10.957 11.548-1.998-1.999z" fill="#5677CC"/><path d="M167.507 401.779l56.632-43.085-58.779 41.16 2.147 1.925z" fill="#6AC6ED"/><path d="M252.122 401.557l13.991-4.886-1.776-13.77-14.88 5.33 2.665 13.326z" fill="#0A1638"/><path d="M251.581 396.993l11.993-4.394.54 4.633-11.738 4.149-.795-4.388z" fill="#28DC9F"/><path d="M369.383 340.705l-3.331 15.324 14.657-6.218 3.11-15.546-14.436 6.44z" fill="#0A1638"/><path d="M367.209 350.704l-1.157 5.325 10.918-4.632 1.041-5.206-10.802 4.513z" fill="#28DC9F"/><path d="M368.384 199.792l2.11-.555 27.39 94.312-8.588-6.811-20.912-86.946z" fill="#354982"/><path d="M507.298 293.179l-30.026 24.072a12217.17 12217.17 0 01-83.664 33.561c-65.979 26.175-119.722 46.747-119.722 46.747s53.23-21.866 119.209-48.041a12191.392 12191.392 0 0183.822-32.885l30.381-23.454z" fill="#78D9FF"/><path d="M450.444 154.375L341.77 189.021l-89.426-27.539 111.338-34.645 86.762 27.538z" fill="#0A1638"/><path d="M252.344 161.482l59.075-18.433 5.774 1.944-58.465 18.488-6.384-1.999z" fill="#4A4D79"/><path d="M317.193 144.993l-5.774-1.944-5.755 1.795 3.295 2.752 8.234-2.603z" fill="#3B2D35"/><path d="M488.421 195.905l-5.714-9.883-6.34-11.188-7.809-14.056-8.257-2.972c-25.795-9.405-46.427-17.793-46.427-17.793s21.189 6.862 46.983 16.267l8.785 3.242 4.143 7.834c1.267 2.424 2.475 4.736 3.614 6.919l5.885 11.435a97995.07 97995.07 0 005.137 10.195z" fill="#fff"/><path d="M431.641 160.298l-85.725-28.205 7.551-25.096 86.058 27.539-7.884 25.762z" fill="#0F7178"/><path d="M353.467 106.997l-7.551 25.096 60.686 19.966 15.109-23.224-68.244-21.838z" fill="#0FA2A0"/><path d="M413.282 126.097l-9.365 25.169 1.147.407 9.328-25.132-1.11-.444zM399.845 121.877l-9.364 25.17 1.147.406 9.328-25.132-1.111-.444z" fill="#0F8884"/><path d="M439.525 134.536l-17.814-5.701-15.109 23.224 25.039 8.239 7.884-25.762z" fill="#28DC9F"/><path d="M426.385 130.279l-9.364 25.169 1.146.408 9.328-25.133-1.11-.444z" fill="#0FA2A0"/><path d="M439.525 134.536l10.919 19.839-18.803 5.923 7.884-25.762z" fill="#265169"/><path d="M414.762 165.628l-85.725-28.205 7.551-25.096 86.058 27.539-7.884 25.762z" fill="#0F7178"/><path d="M336.588 112.327l-7.551 25.096 52.986 17.433 12.065-24.129-57.5-18.4z" fill="#0FA2A0"/><path d="M422.646 139.866l-28.558-9.139-12.065 24.129 32.739 10.772 7.884-25.762z" fill="#28DC9F"/><path d="M396.256 131.352l-9.365 25.17 1.147.407 9.328-25.133-1.11-.444zM409.654 135.683l-9.365 25.17 1.148.407 9.328-25.133-1.111-.444z" fill="#0FA2A0"/><path d="M397.144 171.254l-85.725-28.205 7.551-25.096 86.058 27.539-7.884 25.762z" fill="#28DC9F"/><path d="M350.801 130.39s-21.866 7.481-49.055 16.026c-27.188 8.545-49.402 14.919-49.402 14.919s21.866-7.481 49.055-16.026 49.402-14.919 49.402-14.919z" fill="#5DBFFF"/><path d="M318.97 117.953l-7.551 25.096 39.498 12.995 6.414-25.815-38.361-12.276z" fill="#28DC9F"/><path d="M394.759 142.206l-37.428-11.977-6.414 25.815 28.385 9.362 15.457-23.2z" fill="#0FA2A0"/><path d="M379.007 137.052l-9.365 25.17 1.147.408 9.328-25.133-1.11-.445z" fill="#0F8884"/><path d="M392.405 141.383l-9.364 25.17 1.147.407 9.328-25.133-1.111-.444z" fill="#0FA2A0"/><path d="M422.646 139.866l8.995 20.432-16.879 5.33 7.884-25.762zM414.762 165.628l-9.734-20.136-7.884 25.762 17.618-5.626z" fill="#265169"/><path d="M405.028 145.492l-71.697-23.097.888-2.517 73.732 23.541 8.144 17.767-1.333 4.442-9.734-20.136z" fill="#0F8884"/><path d="M350.357 116.769l72.289 23.097 8.995 20.432 1.332-4.59-8.439-18.951-73.288-22.801-.889 2.813z" fill="#0F8884"/><path d="M469.1 160.15s-28.743 10.689-64.435 23.2c-35.693 12.51-64.819 22.105-64.819 22.105s28.742-10.689 64.435-23.2c35.692-12.51 64.819-22.105 64.819-22.105z" fill="#A599CD"/><path d="M502.19 200.347s-19.159 7.346-43.031 15.733c-23.871 8.387-43.416 14.638-43.416 14.638s19.16-7.346 43.031-15.733c23.872-8.387 43.416-14.638 43.416-14.638z" fill="#88D3D6"/><path d="M311.419 143.049l7.551-25.096 1.517.444-7.44 25.096-1.628-.444z" fill="#82FFC6"/><path d="M433.233 251.316s-7.98-8.503-17.278-19.453l-.548-.648a6855.16 6855.16 0 01-4.663-1.597l-4.45-1.564-7.465-2.709c-4.224-1.563-6.792-2.568-6.792-2.568s2.654.744 6.968 2.04l7.591 2.334 4.495 1.432 4.989 1.636.759.891c9.298 10.953 16.394 20.206 16.394 20.206z" fill="#5CA6BF"/><path d="M408.154 189.658l-23.558 8.385.611 1.962 23.607-8.426-.66-1.921zM436.833 179.45l-23.29 8.29.7 1.902 23.325-8.326-.735-1.866zM463.607 169.92l-21.247 7.562.734 1.862 21.255-7.586-.742-1.838zM465.285 174.08l-21.279 7.574.734 1.861 21.287-7.598-.742-1.837zM409.61 193.897l-23.745 8.451.613 1.962 23.792-8.492-.66-1.921zM438.475 183.623l-23.383 8.322.7 1.902 23.417-8.358-.734-1.866zM440.106 187.768l-23.475 8.354.701 1.902 23.508-8.391-.734-1.865zM411.055 198.107l-24.01 8.546.612 1.962 24.058-8.587-.66-1.921zM466.952 178.211l-21.312 7.586.735 1.86 21.318-7.608-.741-1.838zM468.627 182.362l-21.344 7.597.734 1.86 21.352-7.621-.742-1.836zM418.177 200.319l.7 1.901 23.601-8.423-.734-1.867-23.567 8.389zM388.285 210.958l.611 1.963 24.272-8.664-.66-1.921-24.223 8.622zM389.849 215.263l.611 1.963 24.195-8.636-.66-1.921-24.146 8.594zM419.76 204.617l.7 1.901 23.696-8.457-.735-1.866-23.661 8.422zM470.342 186.613l-21.378 7.609.734 1.86 21.385-7.633-.741-1.836z" fill="#13265C"/><path d="M154.552 411.328s-27.721-10.474-61.595-24.191c-33.873-13.717-61.07-25.482-61.07-25.482s27.72 10.474 61.594 24.191c33.872 13.717 61.071 25.482 61.071 25.482z" fill="#5677CC"/><path d="M339.846 205.455s-28.343-8.736-63.035-20.327c-34.69-11.591-62.592-21.647-62.592-21.647s28.342 8.736 63.034 20.327c34.691 11.591 62.593 21.647 62.593 21.647z" fill="#47CCD1"/><path d="M276.721 188c-12.585 50.191-7.847 111.338-7.847 111.338l25.91-33.016s-1.295-36.57 4.59-64.109l6.367 52.264 33.275-45.75L276.721 188z" fill="#0F96AE"/><path opacity=".33" d="M243.591 177.179l6.219 74.917-12.6 5.069L214.423 168l-2.591 3.886 22.146 86.579L122.5 303c36.336 16.013 59.5 23.5 106 44.5l109-139-93.909-31.321z" fill="url(#paint12_linear)"/><path opacity=".72" fill-rule="evenodd" clip-rule="evenodd" d="M322 203c.061 7.755.344 17.531 1.098 28.954l16.699-22.967L322 203z" fill="url(#paint13_linear)"/><path opacity=".9" d="M171.094 264.847l11.391 10.567c-6.531 7.041-17.048 8.065-23.297 2.268-6.25-5.798-6.017-16.361.514-23.402 6.531-7.041 17.048-8.065 23.298-2.268 4.492 4.167 5.805 10.957 3.34 17.276l-15.246-4.441z" fill="#FFCCE9"/><path d="M223.573 253.529c4.31-24.141 5.662-44.813 7.14-46.548 1.478-1.735 9.236-5.433 10.549-5.373 1.313.061 72.503 20.251 73.637 21.655 1.135 1.405 2.075 55.087-4.234 85.447l-53.296 23.007-49.679-24.381c0 .001 10.949-26.164 15.883-53.807z" fill="#2C384F"/><path opacity=".5" d="M285.934 222.985s-1.523 7.592-4.589 12.259c0 0 6.367 3.449 9.769 10.066 3.402 6.619 3.131 17.123 3.131 17.123s5.578 20.993 6.045 31.832l-2.753 15.199s-6.356 6.768-17.753 5.641l-1.395 6.997-17.695 7.597-2.712-56.919 14.726-53.56 13.226 3.765z" fill="#0A1638"/><path opacity=".5" d="M227.579 227.126l80.05 24.807-.075 2.4-80.296-25.136.321-2.071zM225.57 250.848l81.908 25.418-.074 2.401-82.655-26.054.821-1.765zM222.713 272.352l81.908 25.418-.074 2.401-82.656-26.054.822-1.765z" fill="#0A1638"/><path opacity=".5" d="M213.424 291.325l-.656 1.829 45.074 14.14c.084-.717.164-1.439.242-2.164l-44.66-13.805z" fill="#321F18"/><path opacity=".5" d="M297.92 317.443l-25.683-7.939a89.904 89.904 0 01-.187 2.247l25.797 8.093.073-2.401z" fill="#0A1638"/><path d="M305.578 228.411c-.237 14.271-1.95 55.129-8.578 86.589l14.184-6.129s3.871-16.544 4.575-42.173c.704-25.63-.358-44.698-.358-44.698l-9.823 6.411z" fill="#0A1638"/><path d="M230.935 205.87s73.452 22.774 74.321 22.589c.868-.185 10.009-5.172 9.866-6.305-.143-1.134-71.89-21.687-73.638-21.655-1.747.032-8.441 2.764-10.549 5.371z" fill="#00698E"/><path d="M225.74 233.277l1.856-13.55c.694-5.058 2.134-12.748 2.748-14.147.614-1.399 6.7-4.987 11.141-5.082 0 0-8.851 2.446-10.18 5.539-1.328 3.094-4.097 26.33-4.097 26.33l-1.468.91z" fill="#70FFCF"/><path d="M216.827 275.311s-4.331 16.026-9.423 28.525l1.768.645s5.267-13.956 9.506-29.424l-1.851.254z" fill="#27D6CE"/><path d="M257.872 229.803c17.993 4.513 23.935 11.171 27.988 20.073 4.052 8.902 6.336 17.121 7.701 23.795 1.363 6.674 1.865 13.733 1.827 17.363-.067 6.346-5.314 12.376-13.268 13.135-7.283.696-11.115-5.095-11.115-5.095l-11.288 12.4-43.844-14.345 3.998-22.352s-9.955 3.296-14.168 3.703c-4.214.407-9.639-.745-10.989-6.968-1.35-6.223.651-22.207.651-22.207l14.556-.455.488 4.155s10.285-11.596 15.771-15.949c6.263-4.972 18.481-10.568 31.692-7.253z" fill="#344866"/><path d="M277.716 274.892s6.648 7.969 9.962 16.537c0 0-5.418-20.534-11.73-26.986 0 0 2.718 8.089 2.886 8.848.167.759-1.118 1.601-1.118 1.601z" fill="#2C384F"/><path d="M243.472 240.406l19.941 4.226s-6.145 28.564-7.302 33.769c-.479 2.161-4.248 13.927-4.499 15.268-.251 1.341 1.235 17.035 1.235 17.035l-31.774-10.181s10.614-5.671 15.716-15.352c1.389-2.635 7.222-16.795 6.705-29.289l-.022-15.476z" fill="#64B4B8"/><path d="M250.559 243.588c-.708 10.485-4.519 29.296-12.822 39.492l1.345-3.459 5.064-40.987 6.413 4.954z" fill="#537BB8"/><path d="M245.422 242.299s5.308 7.006 16.133 3.599l4.064-10.329-19.093-2.685-1.104 9.415z" fill="#B06379"/><path d="M217.788 245.155c1.348-1.215 5.488-1.662 2.107.998-3.381 2.662-8.195 7.36-8.195 7.36l-1.29-.51c-.001 0 6.03-6.633 7.378-7.848z" fill="#27D6CE"/><path d="M234.009 243.087s3.695 23.393 5.035 36.602c0 0 4.711-21.165.06-37.945l-5.095 1.343z" fill="#2C384F"/><path d="M217.788 245.155s3.682 2.536 10.426 1.496c6.744-1.041 10.022-4.721 10.022-4.721l-2.794-5.763-14.162 5.092-3.492 3.896z" fill="#2C384F"/><path d="M240.47 232.567s-7.729-2.948-14.671.262c-5.317 2.459-8.007 9.998-7.096 11.242.912 1.244 7.605 1.66 12.936-1.055 7.033-3.583 8.831-10.449 8.831-10.449z" fill="#5B78A8"/><path d="M289.785 259.41l1.334 4.457s-14.244-1.334-17.622-15.689l5.918-3.107 10.37 14.339z" fill="#2C384F"/><path d="M276.072 239.207s-1.932 10.205 3.557 16.391c4.204 4.74 10.66 5.758 11.489 4.587.83-1.171.717-9.044-3.262-14.161-4.24-5.455-11.784-6.817-11.784-6.817z" fill="#5B78A8"/><path d="M249.418 234.576s1.054 2.625 1.178 4.093c.281 3.356-.28 7.143-.28 7.143s-3.414-.89-5.877-4.722l1.679-9.088 3.3 2.574z" fill="#695264"/><path d="M248.923 227.736c-4.218.256-13.78 2.068-15.782 3.328 0 0 2.535 6.878 3.426 12.328.891 5.45 3.434 29.279 2.477 36.297 0 0 7.459-10.821 6.831-36.843 0 0-.034-3.608.786-5.448.82-1.841 4.379-4.606 4.379-4.606l-2.117-5.056z" fill="#778E9C"/><path d="M233.141 231.064s4.419-2.049 11.674-3.029l.872 1.13s-6.035.397-12.22 3.079l-.326-1.18z" fill="#4EBFB7"/><path d="M271.004 299.073s-1.405-1.906-2.925-5.244c-.956-2.101-3.858-8.799-5.085-15.767 0 0-1.017-.188-1.352-.429-.334-.241-1.468-4.679-1.468-4.679l-2.144 3.526s.443 17.656 5.509 31.262l7.465-8.669z" fill="#2C384F"/><path d="M279.403 240.056s1.619-.057 3.697 1.241l-25.778 36.185 22.081-37.426z" fill="#2C384F"/><path d="M269.853 230.956s7.972 3.523 11.033 8.473c0 0-10.318 15.601-25.301 40.902 0 0 3.719-36.639 9.388-46.895l4.88-2.48z" fill="#778E9C"/><path d="M194.248 239.898c.741-1.197 15.737.051 16.095 1.082.359 1.03.471 8.473.165 9.247-.304.775-15.424 3.119-16.316 2.515-.892-.604-1.299-10.652.056-12.844z" fill="#344866"/><path d="M207.148 241.321s-.035-4.847.273-5.51c.309-.661 4.448-4.752 4.388-6.784-.061-2.032-3.526-4.67-3.526-4.67s-.102-7.104-.149-8.683c-.047-1.58-.046-8.905-.706-9.048-.66-.143-2.786.622-2.809 5.993-.012 2.816.104 9.658.104 9.658s-2.142-2.241-3.12-2.06c-.978.18-8.101-.487-8.515.283-.414.769-.084 8.222.371 8.807.455.584 2.79 1.932 2.79 1.932s-.023 2.929.545 3.632c.568.702 1.466 1.532 1.466 1.532l-.188 4.724 9.076.194z" fill="#CD8B9E"/><path d="M210.343 240.98s-1.931 1.206-7.675.941c-5.745-.265-8.42-2.023-8.42-2.023l16.095 1.082z" fill="#27D6CE"/><path d="M259.185 197.409l-11.604 1.718s-2.624 4.837-3.056 9.925c-.432 5.089.616 8.443.583 9.793-.033 1.352-.266 5.773-.342 8.099-.077 2.325 2.721 7.984 3.987 9.124 1.758 1.584 8.103 3.027 10.267 2.934 1.187-.051 3.964-.832 3.964-.832 1.052-3.219 4.182-6.342 8.048-6.784.464-.936 1.282-4.673 1.282-4.673.231-2.018 7.309-8.377 7.309-8.377l-3.044-14.189-12.103-7.696-5.291.958z" fill="#CD8B9E"/><path d="M244.671 207.199s1.044-5.304 2.911-8.073l1.442 1.325s-2.084 3.454-2.665 7.765l-1.688-1.017z" fill="#2CFFBA"/><path d="M248.737 226.375c.415.508 3.199 1.031 4.103.791.903-.24 1.558-1.506 1.558-1.506l1.568 1.275 10.498 2.739 5.11-2.093.761 1.086-6.116 2.573-11.165-2.506s-1.754.445-2.938.428c-1.184-.017-2.984-.513-3.527-1.008-.543-.495-.655-1.815-.655-1.815l-3.231-.901.074-2.4 4.333-1.284c0-.001-.789 4.114-.373 4.621z" fill="#97516A"/><path d="M247.581 199.127s4.94 4.435 6.134 5.391c0 0 11.494-.521 15.42-.79 0 0 4.493 4.114 5.249 5.05 0 0-3.377 4.051-3.641 4.94-.265.889-.618 3.727-.618 3.727l9.497.89s2.447-5.897 1.101-11.97c-1.346-6.072-6.631-12.326-17.441-13.276-10.809-.951-15.701 6.038-15.701 6.038z" fill="#3C517A"/><path d="M255.022 213.594l.104-2.024 8.872.691 1.904 3.412-3.08-.705-7.8-1.374z" fill="#344866"/><path d="M244.255 209.753s22.904 5.903 23.246 6.37c.342.466-.141 13.629-.89 14.157-.749.529-12.319-2.709-12.319-2.709s-.74-2.852-2.72-3.281c-1.979-.429-3.017 1.439-3.017 1.439l-10.249-2.952.439-14.63 6.167-2.081-.657 3.687z" fill="#6078A4"/><path opacity=".8" d="M267.5 216.123l-28.757-7.977-.439 14.63 1.671.471.196-13.167 27.235 7.166.094-1.123z" fill="#28DC9F"/><path d="M267.727 223.12l-29.197-8.081-.035 1.14 29.408 8.001-.176-1.06z" fill="#344866"/><path d="M267.5 216.123s8.763.743 9.661 5.179c.896 4.436-10.551 8.979-10.551 8.979l.89-14.158z" fill="#344866"/><path d="M271.073 222.373c.564-3.405 1.984-6.782 5.472-7.072 3.489-.29 5.771 2.971 5.477 7.803-.293 4.832-3.051 8.273-6.984 7.678-3.183-.481-4.798-3.376-3.965-8.409z" fill="#344866"/><path opacity=".93" d="M279.851 267.117c6.716-8.569 6.49-19.959-.504-25.442-6.995-5.483-18.109-2.981-24.826 5.587-6.716 8.568-6.491 19.959.504 25.441 6.994 5.483 18.109 2.982 24.826-5.586z" fill="#2CED96"/><path d="M257.623 266.055c-1.193-1.666-1.503-5.478-2.068-7.211-.761-2.339-3.004-5.779-3.004-5.779.968-.597 2.46-.13 4.835 2.352 1.428 1.491 2.428 3.577 2.428 3.577s1.361-3.055 2.072-4.845c.533-1.344 4.009-8.264 4.92-9.838.912-1.574 2.581-1.096 2.178.266-.401 1.362-3.501 10.092-3.501 10.092s5.595-8.819 6.492-10.047c.896-1.229 2.501-.337 2.192.918-.309 1.255-2.85 6.367-5.307 11.005 0 0 7.657-9.005 8.393-9.749 1.245-1.256 2.231.126 1.763 1.187-.469 1.061-6.885 10.142-6.885 10.142s6.75-5.63 7.946-6.165c1.197-.535 1.784.703.975 1.797-.81 1.095-6.811 7.255-6.811 7.255s-3.109 5.664-4.849 7.811c-1.038 1.281-4.104 1.36-6.218.777-2.114-.583-4.08-1.49-5.551-3.545z" fill="#9981A6"/><path d="M215.873 297.128l-2.2 4.406 44.937 16.8 1.107-6.861-43.844-14.345z" fill="#2C384F"/><path d="M213.673 301.534S188.849 314.361 180 320.563l50.015 23.42 28.595-25.65-44.937-16.799z" fill="#344866"/><path d="M229.628 301.595l-1.325 5.648 10.831 4.106 1.273-6.177-10.779-3.577z" fill="#808EA5"/><path d="M223.962 299.68l-1.36 5.722-2.279-.706 1.506-5.715 2.133.699zM250.668 308.499l-1.592 6.84-2.154-.549 1.763-6.831 1.983.54z" fill="#344866"/><path d="M210.444 335.041l9.45-5.573.77 1.387-3.132 7.368-7.088-3.182zM219.871 274.776s2.207-9.064 3.908-10.638l-3.477-9.176.56 9.041s-4.157 7.171-5.756 12.205l4.765-1.432z" fill="#2C384F"/><path d="M251.861 230.989l9.302-.772s-1.972 2.313-3.937 2.372c-1.965.06-5.365-1.6-5.365-1.6z" fill="#F5E6DE"/><path d="M244.671 207.199l5.943 3.262.085 1.055-6.444-1.763.416-2.554zM258.408 213.524l-.37 15.14 1.101.257.481-15.059-1.212-.338zM245.026 209.977l-.328 14.691 1.1.257.44-14.61-1.212-.338z" fill="#344866"/><path d="M247.435 220.869c1.436-.779 1.732-3.011.661-4.985-1.071-1.974-3.104-2.943-4.54-2.163-1.436.779-1.732 3.011-.661 4.985 1.071 1.974 3.104 2.943 4.54 2.163zM260.664 224.823c1.437-.779 1.733-3.012.661-4.986-1.071-1.974-3.103-2.942-4.54-2.163-1.436.78-1.732 3.012-.661 4.986 1.071 1.974 3.104 2.942 4.54 2.163z" fill="#344866"/><path d="M246.846 219.783c1-.542 1.206-2.096.46-3.471-.746-1.374-2.161-2.048-3.161-1.505-1 .542-1.206 2.096-.46 3.47.746 1.375 2.161 2.049 3.161 1.506zM260.034 223.585c1-.543 1.206-2.097.461-3.471-.746-1.374-2.161-2.048-3.161-1.506-1 .543-1.206 2.097-.46 3.471.745 1.374 2.16 2.049 3.16 1.506z" fill="#28FF92"/><path d="M238.306 259.005s3.88.01 4.283-4.817l-4.609 1.196.326 3.621z" fill="#2C384F"/><path d="M241.814 256.11c1.468-1.931.876-4.852-1.323-6.525s-5.172-1.463-6.641.468c-1.469 1.932-.877 4.853 1.322 6.525 2.2 1.673 5.173 1.463 6.642-.468zM233.862 275.033c.807-1.356.24-3.181-1.265-4.076-1.505-.894-3.379-.52-4.185.836-.806 1.356-.24 3.181 1.265 4.076 1.505.895 3.379.521 4.185-.836z" fill="#8EA6CE"/><path d="M230.202 259.626c.325-.098 7.829 2.389 7.829 2.389l-1.895 6.111-4.422 1.936-3.082-4.425 1.57-6.011z" fill="#834C84"/><path d="M233.141 231.064s-4.913-.069-9.244 2.709c-2.949 1.893-5.148 5.115-5.291 9.504 0 0 1.512-6.128 7.272-9.018 1.882-.943 4.805-1.975 7.59-2.015l-.327-1.18z" fill="#2CFFBA"/><path opacity=".8" d="M247.581 199.127s4.586-6.85 15.1-6.064c0 0-4.414.053-8.984 2.872-1.698 1.047-3.373 2.323-4.673 4.517l-1.443-1.325z" fill="#28DC9F"/><path d="M194.96 252.834s-.65 5.718-.834 12.414c-.183 6.696 1.123 10.194 4.841 12.112 0 0-2.303-1.821-3.15-4.878-1.469-5.308.398-19.702.398-19.702l-1.255.054z" fill="#27D6CE"/><path d="M261.332 277.591s8.067 3.039 16.384-2.7l1.77 1.96s-5.094 5.061-17.476 3.926l-.678-3.186z" fill="#2C384F"/><path d="M209.686 226.225s-3.794-2.654-5.232-3.247c-1.439-.592-2.525-.379-2.961.878 0 0 1.322-.878 3.019-.124 1.698.755 5.174 2.493 5.174 2.493zM204.768 221.303s-1.723-1.582-2.601-1.735c-.879-.153-8.573-.434-9.078.933 0 0 7.709-.433 8.885-.079 1.176.355 2.75 1.855 2.75 1.855l.044-.974z" fill="#2CFFBA"/><path d="M207.428 206.625c-1.23-.92-2.636.157-2.88 2.384-.2 1.831-.458 12.75-.458 12.75l.935.794s.117-5.854.152-8.331c.028-1.993-.33-7.415 2.251-7.597z" fill="#2CFFBA"/><path d="M202.005 225.156c.428.921 4.494 4.151 6.524 5.034l-2.214.274s-.558.8-1.063 1.003c-.504.203-8.928 1.09-8.928 1.09l-.075-1.318s7.275-.303 7.668-.586c.393-.282-.352-2.045-.352-2.045l-1.327-.55-.233-2.902z" fill="#B06379"/><path d="M194.96 252.834s10.844-.344 15.079-2.477l.119 1.583s-5.465 2.377-15.291 2.675l.093-1.781zM210.409 253.003l1.308 12.156s1.285-4.561.138-13.742l-1.446 1.586z" fill="#2C384F"/><path d="M271.073 222.373s-.17-2.637 1.656-4.957c1.825-2.319 5.297-3.135 7.405-.859 0 0-2.361-1.612-5.214.416-2.786 1.979-3.847 5.4-3.847 5.4z" fill="#4EBFB7"/><path d="M130.926 304.868l92.003 37.077c1.983.8 4.255.181 5.559-1.513l10.575-13.734c1.933-2.51.925-6.172-2.019-7.341l-92.673-36.767a4.767 4.767 0 00-5.595 1.601l-9.905 13.423c-1.85 2.509-.836 6.089 2.055 7.254z" fill="#2CED7A"/><path d="M178.474 233.747l-1.721-.638a1.4 1.4 0 00-1.644.527l-2.652 3.916a1.398 1.398 0 00.665 2.092l1.764.663c.61.23 1.297.007 1.657-.536l2.61-3.943a1.397 1.397 0 00-.679-2.081zM183.612 235.62l-1.371-.518a1.398 1.398 0 00-1.663.54l-2.606 3.966a1.397 1.397 0 00.668 2.073l1.374.526a1.398 1.398 0 001.67-.539l2.603-3.974a1.399 1.399 0 00-.675-2.074zM185.528 237.494l-2.653 3.979a1.396 1.396 0 00.656 2.077l1.792.699a1.398 1.398 0 001.665-.52l2.687-3.974a1.398 1.398 0 00-.656-2.088l-1.826-.703a1.398 1.398 0 00-1.665.53zM195.085 239.909l-2.495-.902a1.396 1.396 0 00-1.641.543l-2.645 3.995a1.398 1.398 0 00.684 2.084l2.284.839a1.397 1.397 0 001.613-.491l2.854-3.933a1.396 1.396 0 00-.654-2.135z" fill="#CEFFEA"/><path d="M211.848 197.192l-5.493 8.396 7.718 2.899 5.575-8.408-7.8-2.887zM221.083 200.611l-5.655 8.385 8.72 3.275 6.022-8.296-9.087-3.364zM210.389 196.652l-8.052-2.981-5.62 8.296 8.178 3.072 5.494-8.387zM217.695 185.502l-7.73-2.862-5.621 8.297 7.856 2.951 5.495-8.386zM219.147 186.039l-5.492 8.394 7.796 2.929 5.574-8.406-7.878-2.917zM228.561 189.524l-5.655 8.384 8.869 3.332 6.022-8.297-9.236-3.419z" fill="#84FFF7"/><path d="M204.505 208.416l-5.495 8.396 7.639 2.87 5.575-8.408-7.719-2.858z" fill="#FFADF7"/><path d="M207.903 220.152l8.651 3.25 6.022-8.296-9.018-3.339-5.655 8.385zM203.038 207.873l-8.295-3.07-5.62 8.296 8.419 3.162 5.496-8.388z" fill="#84FFF7"/><path d="M175.771 230.919l27.591 10.215a1.625 1.625 0 01.751 2.478l-4.676 6.442a1.625 1.625 0 01-1.887.567l-27.262-10.24a1.625 1.625 0 01-.773-2.433l4.346-6.417a1.626 1.626 0 011.91-.612z" stroke="#BFFFF2" stroke-width="1.2" stroke-miterlimit="10"/><path d="M210.827 180.759l4.954-7.029 1.53.507-3.855 5.468 1.578.523-1.1 1.561-3.107-1.03zM218.122 182.614c-.144.09-.285.156-.422.198a1.65 1.65 0 01-.45.068 2.388 2.388 0 01-.527-.054 5.622 5.622 0 01-.633-.176c-.474-.157-.804-.317-.988-.481a.72.72 0 01-.243-.636c.009-.127.036-.261.08-.404.044-.142.128-.326.251-.552.123-.227.302-.517.535-.871.234-.353.545-.806.933-1.357.389-.551.711-.998.968-1.34.259-.342.477-.617.66-.823a4.28 4.28 0 01.472-.474 3.85 3.85 0 01.413-.297c.14-.084.279-.149.419-.194.141-.045.292-.07.454-.074.163-.003.341.016.532.055.192.041.404.101.638.178.467.155.793.315.976.482a.742.742 0 01.245.632 2.131 2.131 0 01-.084.408 3.062 3.062 0 01-.247.547c-.124.226-.302.515-.533.866-.231.352-.541.802-.93 1.353a53.63 53.63 0 01-.971 1.344c-.26.346-.481.622-.662.829a4.265 4.265 0 01-.477.478 3.21 3.21 0 01-.409.295zm-.429-1.573a3.198 3.198 0 00.401-.452c.103-.133.238-.316.405-.547a129.114 129.114 0 001.305-1.852c.163-.236.291-.426.382-.567.092-.141.154-.249.19-.321.034-.072.061-.131.078-.179.019-.071.011-.13-.021-.174-.032-.044-.111-.088-.233-.129a.723.723 0 00-.298-.047.383.383 0 00-.207.098 1 1 0 00-.161.152 6.222 6.222 0 00-.248.302c-.109.136-.246.32-.416.555a135.617 135.617 0 00-1.306 1.852c-.16.233-.283.419-.369.559-.087.139-.15.244-.188.315a.807.807 0 00-.074.182c-.025.069-.017.125.021.167.037.043.118.086.241.127.123.039.22.056.289.049a.437.437 0 00.209-.09zM220.947 184.11l1.018-1.666-.74-.245-1.262 1.586-1.539-.51 5.744-6.767 2.571.852-4.213 7.274-1.579-.524zm3.472-5.71l-.107-.035-2.017 2.435.605.2 1.519-2.6zM222.972 184.781l4.955-7.028 2.055.681c.467.155.795.315.983.481a.731.731 0 01.26.618c-.01.127-.035.258-.078.392a3.45 3.45 0 01-.243.533c-.119.219-.29.499-.512.838-.223.337-.522.773-.898 1.305-.375.533-.688.965-.938 1.298a13.9 13.9 0 01-.644.801 4.61 4.61 0 01-.46.465c-.129.11-.262.204-.396.282a1.649 1.649 0 01-.871.249c-.161 0-.335-.02-.524-.06a5.807 5.807 0 01-.632-.175l-2.057-.68zm3.11-.883a.746.746 0 00.29.05.425.425 0 00.209-.091 2.784 2.784 0 00.376-.414c.097-.128.226-.301.384-.52a102.68 102.68 0 001.231-1.746c.155-.227.276-.407.361-.539.085-.132.142-.232.173-.297.031-.066.055-.124.073-.171a.185.185 0 00-.038-.149c-.035-.043-.114-.084-.237-.125l-.487-.161-2.821 4.002.486.161zM227.415 186.253l.988-1.402 1.53.506-.988 1.402-1.53-.506zM229.606 186.978l.988-1.402 1.53.507-.988 1.402-1.53-.507zM231.798 187.704l.988-1.402 1.53.507-.988 1.401-1.53-.506z" fill="#EFFFF1"/><path d="M134.726 299.925l7.561-10.683 3.265 1.305c.494.197.864.414 1.111.652.247.238.389.511.424.82.036.31-.035.663-.208 1.057-.175.395-.445.852-.811 1.369-.273.386-.509.696-.706.931-.196.235-.384.42-.559.555-.176.134-.35.235-.519.299-.17.065-.361.116-.573.152l-.07.099c.085.142.157.273.215.392.056.12.069.278.035.476-.035.198-.14.457-.318.779-.178.32-.46.754-.847 1.299a9.684 9.684 0 01-1.049 1.274 3.462 3.462 0 01-1.027.729 2.437 2.437 0 01-1.122.204c-.396-.019-.84-.128-1.334-.324l-3.468-1.385zm4.531-.959a.76.76 0 00.627-.003c.194-.093.44-.345.732-.759.346-.489.55-.855.608-1.096.06-.241-.017-.405-.23-.491l-.782-.313-1.679 2.372.724.29zm2.87-4.159a.65.65 0 00.637-.071c.202-.136.472-.444.813-.925.299-.424.446-.723.442-.901-.004-.175-.12-.31-.342-.398l-.609-.243-1.608 2.272.667.266zM142.677 303.101l5.962-8.425-1.726-.689 1.598-2.258 5.732 2.289-1.598 2.258-1.726-.69-5.963 8.425-2.279-.91zM155.774 303.081c-.211.351-.423.677-.636.978a15.27 15.27 0 01-1.137 1.438c-.36.392-.738.685-1.134.876a2.705 2.705 0 01-1.293.263c-.465-.016-1.002-.147-1.613-.391-.725-.289-1.235-.574-1.526-.854a1.151 1.151 0 01-.364-1.023c.01-.189.054-.401.132-.635a5.74 5.74 0 01.423-.9c.203-.365.483-.82.844-1.363a81.42 81.42 0 011.42-2.058 81.434 81.434 0 011.457-2.006c.385-.51.717-.921.994-1.233.276-.313.515-.548.716-.71.2-.162.405-.302.616-.424.42-.242.856-.352 1.311-.327.454.024 1.03.176 1.725.454.62.247 1.078.503 1.376.766.296.264.458.563.481.899.023.335-.073.716-.288 1.142-.216.428-.522.923-.922 1.487a25.231 25.231 0 01-.697.934l-2.133-.852c.2-.282.364-.518.493-.709.128-.189.231-.348.307-.473.077-.127.133-.228.168-.304l.089-.192c.088-.194-.053-.364-.421-.511-.183-.073-.331-.105-.443-.096a.547.547 0 00-.312.138 1.99 1.99 0 00-.251.235c-.083.093-.205.238-.363.435-.158.196-.365.472-.623.828-.258.355-.591.821-.996 1.394-.42.592-.754 1.069-1.001 1.428-.249.359-.44.646-.571.858-.131.212-.227.374-.286.483-.059.11-.1.207-.125.294-.038.106-.026.196.034.268.06.072.203.154.425.241.29.116.521.106.693-.031.103-.079.203-.167.296-.262.092-.095.188-.204.288-.327a22.694 22.694 0 00.743-.998l2.104.84zM160.271 307.087l1.529-2.16-2.22-.887 1.168-1.651 2.22.888 1.528-2.16 1.698.679-1.528 2.158 2.219.887-1.168 1.65-2.219-.885-1.529 2.159-1.698-.678zM164.368 311.764l.091-.127c.423-.23.85-.479 1.282-.746a32.71 32.71 0 001.263-.826c.411-.284.799-.565 1.167-.847.366-.281.7-.555 1-.823l-.071-.136a1.206 1.206 0 01-.352-.041 3.41 3.41 0 01-.54-.17c-.484-.194-.84-.395-1.068-.608a.981.981 0 01-.325-.791c.011-.315.146-.701.403-1.16a19.89 19.89 0 011.113-1.719c.52-.734.971-1.311 1.355-1.731.384-.419.765-.708 1.143-.865a2.205 2.205 0 011.232-.124c.443.074.989.241 1.638.5.668.267 1.168.518 1.503.755.335.237.516.52.543.851.026.33-.091.736-.35 1.217-.261.481-.658 1.098-1.19 1.851a21.887 21.887 0 01-5.099 5.14 38.07 38.07 0 01-2.14 1.435l-2.598-1.035zm6.509-5.147c.126-.107.242-.223.35-.35.108-.125.255-.32.442-.584.146-.207.27-.387.372-.538.1-.153.182-.283.241-.393.059-.109.105-.205.139-.288.033-.083.06-.164.078-.241.024-.124.009-.222-.042-.297-.053-.075-.166-.148-.34-.218a1.49 1.49 0 00-.374-.103c-.103-.011-.22.036-.35.141a3.422 3.422 0 00-.477.515c-.187.24-.438.579-.751 1.022-.26.367-.385.63-.373.791.01.162.14.292.391.392.165.066.301.108.412.129.11.019.205.027.282.022zM169.939 313.989l.05-.07 13.793-8.103 1.408.562-.049.07-13.81 8.097-1.392-.556zm4.77-4.267c-.396-.158-.691-.304-.884-.435-.193-.13-.275-.317-.247-.559.028-.242.173-.574.434-.994.261-.422.654-1.003 1.18-1.747.52-.734.941-1.302 1.262-1.705.321-.401.609-.68.859-.833.252-.154.503-.206.756-.16.253.047.577.149.973.307.387.155.68.299.877.431.197.134.281.32.253.564-.027.241-.175.575-.438 1.001a38.48 38.48 0 01-1.175 1.738 38.362 38.362 0 01-1.267 1.712c-.319.398-.604.674-.855.827a1.056 1.056 0 01-.763.157 5.438 5.438 0 01-.965-.304zm1.459 7.063c-.397-.159-.691-.304-.884-.435-.192-.13-.273-.317-.245-.559.029-.242.173-.574.434-.994a37.81 37.81 0 011.18-1.748c.519-.733.94-1.301 1.262-1.703.322-.402.608-.681.86-.833.251-.153.502-.206.755-.161.253.047.576.15.974.309.388.154.679.298.876.43a.556.556 0 01.253.564c-.028.241-.176.575-.438 1.001a37.275 37.275 0 01-1.176 1.738 38.503 38.503 0 01-1.267 1.713c-.318.397-.603.673-.853.826a1.06 1.06 0 01-.763.157 5.533 5.533 0 01-.968-.305zm-.431-8.518c.068.028.127.04.181.036.051-.004.124-.053.217-.148.092-.095.218-.254.381-.472a91.342 91.342 0 001.343-1.899c.153-.228.263-.397.325-.512.062-.114.077-.19.047-.226a.352.352 0 00-.147-.094.469.469 0 00-.194-.042c-.052.004-.124.056-.214.159a7.658 7.658 0 00-.384.49 67.9 67.9 0 00-.686.957c-.286.404-.505.718-.657.941-.152.223-.255.39-.308.501-.055.112-.069.184-.043.218a.307.307 0 00.139.091zm1.46 7.065a.422.422 0 00.179.035c.053-.003.125-.053.217-.148a4.77 4.77 0 00.381-.472c.162-.219.385-.532.671-.936.293-.414.518-.735.672-.962.155-.23.263-.399.326-.514.062-.114.078-.188.048-.225a.37.37 0 00-.147-.095.486.486 0 00-.195-.041c-.051.004-.123.056-.214.159a7.11 7.11 0 00-.383.49c-.166.224-.394.543-.686.957-.286.404-.507.718-.658.941a4.345 4.345 0 00-.308.5c-.055.112-.068.185-.043.219a.325.325 0 00.14.092zM181.648 318.665l7.561-10.683 4.862 1.943-1.598 2.258-2.583-1.032-1.328 1.877 2.538 1.014-1.528 2.16-2.538-1.014-1.429 2.017 2.569 1.025-1.678 2.371-4.848-1.936zM188.846 321.54l5.962-8.424-1.726-.689 1.598-2.259 5.731 2.29-1.598 2.258-1.726-.689-5.963 8.424-2.278-.911zM197.261 324.902l3.106-4.39-1.422-.567-3.106 4.388-2.338-.933 7.561-10.683 2.337.934-2.926 4.134 1.422.569 2.927-4.136 2.335.934-7.561 10.682-2.335-.932zM207.05 325.77l1.528-2.159-2.22-.887 1.169-1.651 2.22.887 1.527-2.159 1.698.678-1.528 2.159 2.22.886-1.168 1.652-2.22-.887-1.529 2.16-1.697-.679zM212.945 331.166l1.278-1.807-3.25-1.298 1.468-2.074 8.006-5.527 2.176.869-4.904 6.93.827.33-1.378 1.946-.827-.329-1.279 1.806-2.117-.846zm4.587-6.351l-.16-.063-2.827 2.075-.032.15 1.161.463 1.858-2.625zM216.717 332.672l.049-.07 13.794-8.103 1.408.562-.05.071-13.809 8.097-1.392-.557zm4.77-4.268c-.396-.158-.69-.304-.884-.433-.193-.132-.274-.318-.246-.561.028-.241.173-.574.433-.994.261-.421.654-1.003 1.18-1.746.52-.734.941-1.302 1.263-1.705.321-.402.609-.68.859-.833a1.05 1.05 0 01.756-.16c.253.046.576.149.972.307.388.155.681.299.878.432.197.132.282.32.253.562-.028.243-.175.576-.439 1.001a36.19 36.19 0 01-1.175 1.74 38.16 38.16 0 01-1.267 1.712c-.318.397-.604.673-.854.826a1.056 1.056 0 01-.763.157 5.353 5.353 0 01-.966-.305zm1.459 7.063c-.397-.158-.692-.303-.883-.434-.193-.131-.275-.317-.246-.56.029-.241.173-.573.434-.994.26-.421.653-1.003 1.18-1.746.518-.733.939-1.302 1.262-1.704.322-.402.608-.681.859-.833.251-.153.503-.206.756-.161.252.047.577.149.974.308.387.155.678.299.876.431a.553.553 0 01.253.563c-.029.242-.175.576-.439 1.001a36.51 36.51 0 01-1.175 1.739 38.3 38.3 0 01-1.267 1.713c-.318.397-.603.673-.854.826a1.05 1.05 0 01-.763.156 5.36 5.36 0 01-.967-.305zm-.431-8.516c.067.027.128.04.18.035.052-.002.124-.053.217-.148.092-.095.219-.253.381-.472.161-.219.385-.531.672-.936.293-.414.516-.735.671-.962a7 7 0 00.326-.513c.061-.113.077-.189.046-.225a.345.345 0 00-.146-.094.456.456 0 00-.194-.042c-.052.003-.124.056-.214.159a7.508 7.508 0 00-.385.489 79.4 79.4 0 00-.685.957c-.287.404-.505.719-.658.942-.151.223-.254.39-.308.501-.054.112-.068.184-.043.217a.323.323 0 00.14.092zm1.459 7.063c.068.028.129.04.18.036.052-.003.124-.053.217-.149.093-.095.22-.253.381-.471.161-.22.385-.532.671-.937.293-.414.517-.734.672-.962.155-.229.264-.399.326-.513.061-.113.078-.189.048-.225a.36.36 0 00-.148-.095.48.48 0 00-.193-.041c-.053.004-.124.056-.215.159-.092.103-.22.265-.384.49a55.28 55.28 0 00-.686.956c-.286.405-.506.719-.657.942a4.543 4.543 0 00-.309.5c-.054.112-.068.185-.042.219a.334.334 0 00.139.091z" fill="#2266B2"/><path d="M230.764 347.812s23.348-31.613 52.842-70.061c29.5-38.455 53.981-69.187 53.981-69.187s-23.343 31.606-52.843 70.06c-29.494 38.449-53.98 69.188-53.98 69.188z" fill="#5989A3"/><path d="M265.521 66.43c-5.182-4.442-6.694-11.309-3.183-15.546 4.293-5.182 11.622-2.888 14.842-2.776 3.294-1.37 9.217-2.554 16.028-1.666 6.497.847 9.95 3.114 12.177 9.105 1.073 2.888 1.111 6.996.222 12.66-.888 5.662-1.221 7.254-.481 8.734 1.069 2.14 3.127 2.721 6.922 3.924 3.738 1.184 5.811 2.073 4.701 5.182-1.111 3.109-5.923 3.368-7.366 2.813 0 0-6.367 10.809-19.359 4.146L265.521 66.43zM311.714 133.351l21.025 19.248-9.476 24.725-11.549-43.973z" fill="#172345"/><path d="M320.302 166.664l6.218 17.915-34.349-10.66 28.131-7.255z" fill="#4A4D79"/><path d="M322.978 174.374l-2.676-7.709-28.131 7.254 13.103 4.219c7.019.31 10.991-1.759 17.704-3.764z" fill="#393754"/><path d="M278.328 108.552l21.32-2.813 15.028 38.05 6.441 25.318s-13.955 6.255-29.612 4.812l-10.142-3.331s-3.257-9.921-5.33-15.546c-2.072-5.626-5.552-20.432-5.552-20.432l7.847-26.058z" fill="#F7D7F5"/><path d="M275.453 119.638s10.856 3.731 25.503 2.762l-18.882 26.635s-7.696-10.665-10.988-20.741l4.367-8.656z" fill="#79A3CF"/><path d="M265.594 60.581c-1.999 5.626.131 11.244 1.111 15.176 1.258 5.053.629 10.27 1.98 14.88 1.49 5.084 4.608 7.255 10.308 7.624 0 0 1.037 2.147 1.037 4.886 0 2.739-.889 6.292-.889 6.292s1.185 2.221 5.848 2.665c4.664.444 10.143-1.628 15.028-7.402 0 0-2.523-7.29-3.035-9.846-.593-2.96-.888-5.848-.888-5.848s2.825-3.087 4.219-5.256c.666-1.037 2.369-5.108-.222-7.477-2.591-2.37-4.959 0-6.736 3.924 0 0-1.247-2.094-1.481-3.405-.37-2.073.37-3.924.37-3.924s-2.185-.41-3.627-2.739c-1.925-3.11-1.184-7.847-1.184-7.847s-6.736 1.85-13.325 1.555c-6.217-.28-8.514-3.258-8.514-3.258z" fill="#F1A7A7"/><path d="M265.594 60.581c-1.462 3.072-.907 8.154.482 12.678 1.388 4.523 1.387 11.16 1.998 14.602.612 3.444 1.244 10.701 10.92 10.401 0 0-5.534-.352-7.643-4.016-2.11-3.664-1.832-7.162-2.332-11.16-.5-3.997-.555-6.385-1.388-10.104-.832-3.72-1.609-7.274-.555-11.05l-1.482-1.35z" fill="#C3EDEB"/><path d="M263.411 72.648l10.697.148s.843 9.988-5.756 9.623c-4.701-.259-4.941-9.771-4.941-9.771z" fill="#EDC0ED"/><path d="M274.108 72.796l-8.046-.11c1.188 3.23 1.711 6.462 1.941 9.693.115.018.23.034.35.042 6.597.362 5.755-9.625 5.755-9.625z" fill="#FFC9E0"/><path d="M263.411 72.648s.23 9.029 4.591 9.73c-.229-3.231-.752-6.463-1.941-9.694l-2.65-.036z" fill="#EBFFF5"/><path d="M275.552 73.092l12.066.111s1 9.365-5.053 9.383c-6.816.021-7.013-9.494-7.013-9.494z" fill="#FFC9E0"/><path d="M322.819 110.625c.611 2.998 2.276 9.272 3.775 10.382 1.5 1.111 6.718 2.888 8.884 6.718l-4.838 29.481c-5.008-6.162-12.041-8.994-16.538-21.098l8.717-25.483z" fill="#474162"/><path d="M297.316 96.078c2.722.54 3.834 2.368 7.07 3.33 4.479 1.333 9.549 2.111 13.436 5.664 3.886 3.553 6.218 7.662 4.553 15.99-1.666 8.328-7.995 25.984-7.995 25.984l-18.656-5.108 1.666-8.106s-3.331-5.441-3.22-9.327c.111-3.887 3.553-9.661 3.553-9.661s-2.887-2.887-3.22-7.662c-.333-4.775 3.405-9.068 3.405-9.068l-.592-2.036z" fill="#474162"/><path d="M297.02 98.114s-3.294 3.109-3.517 8.143c-.222 5.034 3.332 8.587 3.332 8.587s-3.183 4.59-3.627 9.032c-.445 4.441 2.813 9.549 2.813 9.549l.87-.814s.625-7.858.98-12.881c.518-7.329 1.925-14.362-.851-21.616z" fill="#282941"/><path d="M278.994 98.261l-.888-.073c-2.942 1.831-4.405 2.405-5.626 2.738 0 0-4.071-.148-6.07.444-1.999.593-4.516 3.036-4.516 3.036l-17.1 2.887-.148 16.286s13.473 1.333 19.469 1.184l2.814 1.851s.148 9.698 1.258 14.879c1.111 5.182 7.847 13.548 7.847 13.548s-3.183-10.068-3.257-16.213c-.074-6.144 4.737-23.541 5.774-26.428a29.573 29.573 0 001.703-8.291c.146-2.59-1.26-5.848-1.26-5.848z" fill="#474162"/><path d="M276.699 181.692c1.248 1.952 7.699 4.59 11.326 3.849 2.177-.444 18.877-7.403 18.877-7.403l-17.314-5.219c.001 0-14.591 6.108-12.889 8.773z" fill="#2C4880"/><path d="M341.77 189.021s-20.288-5.613-45.106-13.22-44.765-14.328-44.765-14.328 20.288 5.613 45.105 13.22c24.818 7.606 44.766 14.328 44.766 14.328z" fill="#D492C3"/><path d="M294.687 148.601s-5.181 18.804-6.292 23.985c0 0 2.72.629 8.495 2.11 0 0 5.497-6.181 13.343-20.839l-6.44-7.106-9.106 1.85z" fill="#F1A7A7"/><path opacity=".59" d="M317.155 137.053s4.109-9.772 4.886-18.1c0 0 5.404 17.804 1.296 30.907 0 0-5.701-4.812-6.922-9.328l.74-3.479z" fill="#282941"/><path d="M294.392 149.49s3.553-1.481 8.957.517c5.648 2.09 6.144 5.035 6.144 5.035 2.517.184 4.331-3.221 4.294-4.405 0 0 1.665-.481 2.628-2.924.962-2.443.295-5.219.295-5.219s2.481-1.999 1.148-5.293c0 0-2.887-2.961-8.883-4.737-7.079-2.098-11.197.148-11.197.148s-1.869.926-1.388 3.775c0 0-1.887 1.222-2.369 4.516-.288 1.972.482 3.738.482 3.738s-1.518 1.924-.111 4.849z" fill="#615275"/><path d="M238.056 108.182s-9.328-2.073-13.399-3.036c-4.071-.962-13.177-3.48-15.694-3.849 0 0-3.277 3.775-2.906 6.44 0 0 6.015 3.258 13.195 7.033 7.181 3.776 15.842 6.811 20.062 7.551l-1.258-14.139z" fill="#F1A7A7"/><path d="M221.215 104.295l-5.182-1.37s1.073 5.996-2.925 9.143c0 0 3.327 1.598 4.997 2.554 2.85-2.073 3.961-5.848 3.11-10.327z" fill="#EDEDED"/><path d="M221.214 104.295l-5.181-1.37s.212 1.203.091 2.811l5.364 1.734a14.98 14.98 0 00-.274-3.175z" fill="#C2AED6"/><path d="M209.629 99.964l16.509 3.887.147 1.703-16.656-3.961v-1.629z" fill="#EDEDED"/><path d="M210.996 108.204s-1.015-9.886-2.07-10.645c-.595-.428-1.592-.482-1.592-.482s-6.356-6.517-7.463-7.016c-1.309-.59-9.414-1.684-10.276-1.645-1.222.055-.472 1.11.527 1.666.717.398 1.888 1 1.888 1s-4.247-.028-5.413.194c-1.059.201-.315 1.49.804 1.804 1.12.314 3.277.721 3.277.721s3.109-1.092 9.031 1.796c5.923 2.887 5.404 11.529 5.404 11.529l5.883 1.078z" fill="#F1A7A7"/><path d="M202.559 97.058s-3.405-3.756-3.775-3.83c-.371-.074-6.774-2.147-6.774-2.147l2.592 2.258 6.643 3.683 1.314.036z" fill="#E28282"/><path d="M201.93 96.929s1.13 1.98 2.073 1.98c.555.167 1.186 3.29 2.221 4.164 1.665 1.407 3.386.445 3.386.445l1.944 7.255-7.033-3.924v-4.22l-2.591-5.7z" fill="#E28282"/><path d="M251 342l92.5-133.5-3.5-3-111 145 22-8.5z" fill="#13265C"/><path d="M265.5 336l-14.5 6 90-129.5L265.5 336z" fill="#0A1638"/><path d="M205.076 106.516s3.969 2.717 9.994 5.959c5.687 3.06 8.698 4.034 14.473 6.847 0 0-12.511-3.887-24.874-11.733l.407-1.073z" fill="#ACD1CF"/><path d="M251.718 106.103c-1.97-1.167-3.124.298-3.124.298s-2.097-1.18-3.727-.958c-1.63.222-2.887 1.554-2.887 1.554s-1.254-.655-2.147-.581c-.892.075-2.346 1.541-2.346 1.541s-1.603 7.902.791 15.138c0 0 2.303 2.482 5.335 1.087 0 0 4.401 2.742 7.677 1.055 3.309 1.647 5.454-.859 5.454-.859-2.382-7.09-5.026-18.275-5.026-18.275z" fill="#615275"/><path d="M377.474 46.835a55.128 55.128 0 00-1.72 2.406s.071-.194.18-.501l-2.544 5.503c1.528-.456 2.925-.91 3.444-1.192.172-.094.631-.844 1.183-1.884.058-1.48-.08-2.953-.543-4.332z" fill="#E28282"/><path d="M380.701 43.611c-.708.093-2.099 1.736-3.227 3.224.463 1.379.6 2.852.543 4.333 1.483-2.793 3.638-7.68 2.684-7.556zM377.119 43.043c-1.532-.307-4.493 5.8-4.493 5.8s1.194-6.369.626-6.312c-1.769.177-4.947 7.108-4.947 7.108s-5.238 2.25-6.141 3.07c-1.251 1.138-1.877 3.583-1.877 3.583l7.165.683.625-1.251s2.831-.741 5.313-1.48l2.543-5.503c.508-1.445 1.889-5.558 1.186-5.698z" fill="#E5819E"/><path d="M353.009 76.763s3.526-15.581 7.278-20.471c0 0 3.867-1.479 7.165.682l-4.436 20.13-10.007-.341z" fill="#321F18"/><path d="M351.73 96.068c-2.647-2.406-4.844-5.22-5.37-9.762-.889-7.662 4.178-15.34 17.878-17.989 11.104-2.147 15.876 3 27.649 7.773 9.587 3.886 17.841 6.292 37.089 3.331 0 0-4.155 5.587-10.545 11.779-4.433 4.295-9.941 8.882-15.884 12.096-10.981 5.939-17.173 10.964-21.542 11.992l-14.635.54-2.149-13.741-12.491-6.019z" fill="url(#paint14_linear)"/><path d="M358.582 159.556s8.681 9.212 11.259 19.826l-28.053 9.629-19.562-6.468s-.227-12.41 5.193-26.399l31.163 3.412z" fill="#4A4D79"/><path d="M353.123 161.375s7.014 8.303 8.075 21.419M347.664 162.513s2.047 6.937 11.373 10.804M338.452 182.756s-4.17-9.667-1.517-21.267" stroke="#2A375C" stroke-miterlimit="10"/><path d="M344.028 188.327l-1.786-4.851-9.553-4.321s4.424 2.669 5.676 8.81l3.405 1.055 2.258-.693zM326.966 157.11s8.662 10.463 34.08 5.289l-2.464-2.844-31.162-3.412-.454.967z" fill="#393754"/><path d="M329.126 150.912l-1.706 5.232s2.73 3.526 8.644 4.322c5.914.796 14.33 1.25 22.518-.91l2.388-5.004-31.844-3.64z" fill="#97516A"/><path d="M362.562 155.007c2.837-1.379 14.253-20.585 17.286-24.224 3.033-3.64 14.688-18.137 17.741-22.063 4.777-6.141 15.467-20.092 17.286-22.518 1.82-2.426 12.396-16.604 12.396-16.604s-3.753-2.199-6.331-2.047c0 0-5.554 4.095-12.131 11.373-3.093 3.422-9.099 10.615-9.856 11.22-.759.607-15.77 15.77-18.348 18.196-2.578 2.426-12.473 5.725-12.473 5.725l-12.85-4.095-4.635-13.505-2.986-3.412s-2.843 10.434-4.321 14.642c-1.478 4.209-4.663 13.307-4.891 13.762-.227.455-6.141 6.255-6.482 7.733-.341 1.478.228 6.255 1.251 9.439 0 0-2.844 7.165-4.094 12.283 0 0 1.705 3.525 7.846 5.004 6.141 1.478 21.612 1.024 25.592-.909z" fill="#172345"/><path d="M346.924 156.599l-.796 4.89 1.82-.028.683-4.891-1.707.029z" fill="#393754"/><path d="M402.099 119.12c-.473-.061-1.177-.058-2.083-.032-1.809.095-4.421.574-7.475 1.682-2.183.766-4.579 1.856-7.14 3.136l-1.101 1.387c3.062-1.664 5.878-3.098 8.406-4.089 2.978-1.203 5.532-1.79 7.322-1.971.895-.069 1.595-.108 2.069-.073l.725.023-.723-.063z" fill="#EDEDED"/><path d="M382.221 125.539c-3.765 1.975-7.961 4.099-12.675 5.316-2.348.612-4.71.93-6.976.818-1.134-.03-2.23-.23-3.301-.469-.544-.088-1.057-.255-1.562-.423-.51-.158-1.016-.312-1.472-.555-1.895-.819-3.452-2.139-4.268-3.769-.837-1.624-.957-3.408-.823-4.975.362-3.167 1.493-5.586 2.278-7.189.38-.818.752-1.413.977-1.832l.353-.633-.387.613c-.247.406-.651.983-1.071 1.785-.864 1.573-2.117 3.944-2.611 7.203-.197 1.616-.143 3.511.716 5.309.836 1.805 2.516 3.293 4.508 4.198.485.268 1.011.441 1.542.616.529.187 1.065.369 1.626.471 1.103.266 2.257.492 3.448.537 2.379.143 4.837-.177 7.253-.807 4.849-1.253 9.081-3.47 12.814-5.525.579-.32 1.147-.631 1.71-.936l1.101-1.388a186.067 186.067 0 00-3.18 1.635z" fill="#6084C2"/><path d="M380.91 79.681s-4.668 2.314-11.524 3.64c-9.212 1.782-16.832.038-16.832.038s-1.364 6.596-2.73 9.099c-1.364 2.501-3.753 8.871-2.046 14.671 1.705 5.8 5.913 5.8 8.984 5.288l-2.069 6.053s6.525.78 10.619-.813l4.416-8.482s.596-2.73 3.146-3.942c2.274-1.08 6.862-2.028 7.942-3.677 1.798-2.745.907-4.519-.512-5.8-1.287-1.163-3.867.227-5.572 1.649a26.409 26.409 0 00-3.242 3.241s-1.804-2.771.512-7.107c1.933-3.62 2.824-4.834 4.359-7.335 1.535-2.502 4.549-6.523 4.549-6.523z" fill="#F1A7A7"/><path d="M352.326 84.23s-.625 4.189-2.844 8.909c-2.217 4.72-4.037 12.339.171 17.627 0 0-2.217-4.208-1.023-10.235 1.404-7.091 3.867-8.9 5.402-16.519l-1.706.219z" fill="#C3EDEB"/><path d="M352.554 83.358s13.648 2.92 28.356-3.677l-4.549 6.52s-15.315 1.365-24.034-1.97l.227-.873z" fill="#E28282"/><path d="M353.805 103.844s3.585-2.991 10.388-1.938c0 0-1.176 3.736-5.1 5.328-3.961 1.607-5.288-3.39-5.288-3.39z" fill="#A44679"/><path d="M354.503 103.999s4.997-1.592 9.439-1.85c0 0-2.429 3.307-5.445 3.676-2.54.31-3.994-1.826-3.994-1.826z" fill="#F5E6DE"/><path d="M356.762 112.416s4.478-.386 8.253-2.31l-3.035 8.291s-3.649.697-7.287.072l2.069-6.053zM356.806 100.09s-.4.104-1.071.202c-.335.048-.738.095-1.197.117-.258.003-.376.037-.932-.026-.492-.03-.759-.325-.664-.685.079-.144.221-.403.412-.662.696-.96 1.406-1.69 1.957-2.223.547-.525.923-.82.923-.82s-.192.438-.555 1.102c-.357.66-.909 1.569-1.554 2.458l-.009.002c-.017.005-.031.022-.016.039-.076.011.288.061.475.091l1.167.191c.661.118 1.064.214 1.064.214z" fill="#E28282"/><path d="M367.642 92.798s-.392-.452-.969-.998c-.597-.551-1.358-1.092-2.224-1.62-1.671-1.08-3.684-2.136-3.707-2.007-.052-.052.471-.427 1.386-.601.899-.176 2.276-.156 3.554.642 1.295.787 1.923 2.16 2.034 3.08a4.079 4.079 0 01-.074 1.504zM356.534 90.372s-.537-.076-1.268-.238c-.733-.175-1.659-.368-2.563-.702-.909-.318-1.718-.731-2.393-1.017-.664-.295-1.168-.47-1.168-.47s.377-.402 1.169-.69c.778-.3 1.986-.428 3.172-.008a5.075 5.075 0 012.449 1.936c.238.326.369.647.468.853.093.211.134.336.134.336zM365.178 97.177l-.241-.131c-.154-.08-.342-.22-.605-.333-.497-.27-1.142-.511-1.844-.685-.699-.195-1.413-.299-1.98-.368-.564-.06-.961-.076-.961-.076s.257-.309.821-.605c.551-.283 1.464-.567 2.469-.298 1.01.252 1.701.98 1.987 1.54.171.268.231.528.285.692l.069.264zM354.203 95.243s-.33-.149-.769-.377a12.854 12.854 0 00-1.555-.654c-.536-.17-1.077-.279-1.565-.275-.478-.008-.831.056-.831.056s.127-.344.582-.706c.427-.367 1.319-.698 2.243-.4.906.316 1.407 1.008 1.632 1.501.224.51.263.855.263.855z" fill="#744C8C"/><path d="M341.173 159.104c.347-1.958-1.728-3.964-4.634-4.479-2.907-.516-5.545.654-5.892 2.612-.347 1.959 1.728 3.964 4.634 4.479 2.907.516 5.545-.654 5.892-2.612z" fill="#6F84BA"/><path d="M339.055 158.728c.208-1.17-1.032-2.369-2.769-2.677-1.737-.308-3.314.391-3.522 1.562-.207 1.17 1.033 2.369 2.77 2.677 1.737.308 3.314-.391 3.521-1.562z" fill="#4A4D79"/><path d="M426.89 61.479s.867-2.052 1.653-3.197c1.003-1.46 2.231-2.913 3.188-2.519.958.395-1.68 5.652-1.68 5.652l-3.161.064z" fill="#D6698E"/><path d="M420.892 67.493s3.91-3.933 4.45-4.49c.804-.83 2.49-3.35 6.817-2.95 0 0 1.25-2.088 2.232-3.306.983-1.218 2.529-2.772 3.323-2.724.795.047-1.816 5.036-1.816 5.036s4.871-5.954 5.885-4.932c.469.474-2.439 5.216-2.439 5.216s4.183-4.438 5.57-3.196c.49.438-2.722 4.074-3.682 5.239-.959 1.165-3.325 3.66-3.849 3.703-.524.043-7.475.925-7.475.925l-2.94 3.853-6.076-2.374zM366.732 53.372s4.018-1.743 5.989-1.895c0 0 1.669-4.474 3.109-4.322 1.441.152-.38 4.776-.683 5.534-.302.758-1.023 2.654-7.07 3.033l-1.345-2.35z" fill="#E5819E"/><path d="M368.893 104.114c.688-.536 1.836-.522 3.236-1.239 1.4-.716 3.346-3.314 4.803-3.127 1.458.186 2.256 1.592 1.622 3.018-.634 1.426-2.501 2.625-4.057 3.55-1.242.738-3.784 1.694-5.231 1.135-1.432-.552-1.672-2.327-.373-3.337z" fill="#EDEDED"/><path d="M372.305 102.389c.91.455 2.995 1.631 2.844 4.17" stroke="#C2AED6" stroke-miterlimit="10"/><path d="M383.304 120.723c-2.646.502-5.211.806-7.498.528a9.763 9.763 0 01-3.12-.815c-.472-.19-.864-.474-1.26-.727-.343-.311-.708-.583-.957-.936-1.11-1.333-1.367-2.835-1.429-3.806-.073-.493-.017-.882-.034-1.145v-.402l-.039.4c-.009.263-.102.65-.072 1.154-.019.984.104 2.555 1.207 4.082 1.051 1.57 3.214 2.641 5.6 2.97 2.406.383 5.082.119 7.78-.392 1.612-.315 3.139-.714 4.599-1.106l.88-1.11c-1.798.429-3.684.92-5.657 1.305z" fill="#6084C2"/><path d="M401.308 118.826c-.985-.178-2.421-.459-4.23-.487-1.806-.06-3.967.171-6.297.665-.596.126-1.203.267-1.821.414l-.88 1.11c.991-.267 1.956-.531 2.876-.761 2.274-.569 4.354-.908 6.126-.965 1.771-.087 3.208.075 4.202.167l1.536.214-1.512-.357zM401.777 123.45l3.332-10.592 18.685-5.147-2.915 11.186-19.102 4.553z" fill="#EDEDED"/><path d="M416.594 110.731l5.423-1.473-2.344 8.836-5.511 1.295 2.432-8.658z" fill="#94BFC7"/><path d="M329.936 152.036l-.838-1.094s-.768 2.16-1.707 5.23l.942.942c.281-1.354.919-3.334 1.603-5.078zM326.966 157.111c-2.056 5.943-4.894 14.504-4.776 25.099 0 0 1.363-13.613 5.685-24.176 0 .001-.554-.6-.909-.923z" fill="#63C2B2"/><path d="M331.249 144.355l.518-1.725.618-2.021a316.704 316.704 0 01.597-1.927c.037-.079-.113-.369-.177-.609a38.239 38.239 0 01-.934-3.283c-.269-1.2-.536-2.496-.551-3.926-.017-.692.086-1.519.443-2.219.342-.687.766-1.31 1.224-1.918.918-1.21 1.957-2.371 3.059-3.521a60.962 60.962 0 011.664-1.669l.349-.333.15-.421.376-1.064 1.454-4.046 2.527-6.83 2.409-6.265-1.97 6.416-2.226 6.934-1.354 4.081-.36 1.069-.092.27-.046.135c-.025.055-.047.176-.097.246l-.478.465a77.731 77.731 0 00-1.635 1.655c-1.086 1.133-2.12 2.267-3.023 3.418-.449.574-.863 1.162-1.174 1.751-.308.576-.403 1.186-.414 1.857-.031 1.315.176 2.6.389 3.784a43.434 43.434 0 00.859 3.647c-.003.094.164.312.043.469l-.262.696-.469 1.233-.758 1.972c-.425 1.08-.659 1.679-.659 1.679z" fill="#54C2BA"/><path d="M356.762 112.416l-2.069 6.053.761-5.826 1.308-.227z" fill="#63C2B2"/><path d="M420.892 67.493s-9.314 7.223-18.298 18.595l19.504-18.196s-1.256-.455-1.206-.399z" fill="#0FA398"/><path d="M450.592 154.218s-24.184 8.343-54.234 17.953-54.588 16.849-54.588 16.849 24.184-8.343 54.234-17.953 54.588-16.849 54.588-16.849z" fill="#A599CD"/><path d="M343.992 131.861l.11-.381c.07-.249.199-.595.385-1.015a12.049 12.049 0 011.941-2.957 14.326 14.326 0 012.661-2.302 11.012 11.012 0 011.269-.748s-1.245 1.889-3.011 3.867c-.885.993-1.733 1.845-2.35 2.483l-1.005 1.053z" fill="#3B4D81"/><path d="M366.732 53.372s.491-.482 1.484-.966c.982-.493 2.413-1.006 4.046-1.317l.109-.02c.007-.002.003 0 .003 0h.002c.004-.009-.005.023.01-.016l.105-.274c.067-.183.144-.359.224-.53.149-.345.324-.666.493-.967.354-.596.741-1.094 1.129-1.45.386-.359.77-.566 1.051-.642.284-.075.44-.034.44-.034s-.159.016-.387.157c-.229.141-.51.411-.779.805-.272.392-.535.905-.787 1.5-.119.301-.248.615-.362.954a9.52 9.52 0 00-.178.516l-.272.798-.63.115c-1.587.303-3.028.577-4.056.84-1.032.25-1.645.531-1.645.531zM437.933 61.535s-.939-.204-2.453-.452c-1.501-.224-3.631-.592-5.842-.364-.262.06-.544.07-.781.16l-.367.11c-.102.054-.187.077-.297.155-.422.262-.838.597-1.223.914-.774.638-1.46 1.245-2.038 1.752-1.15 1.01-1.879 1.648-1.879 1.648s.552-.785 1.548-1.972a28.37 28.37 0 011.847-2.011c.373-.363.764-.733 1.268-1.08.113-.088.291-.172.437-.246l.445-.15c.301-.115.608-.133.919-.2 1.242-.15 2.394-.015 3.415.16 1.023.183 1.918.434 2.658.673 1.479.479 2.343.903 2.343.903z" fill="#FFA0D4"/><path d="M383.522 72.352l-1.954-.907-1.041-.489c-.387-.166-.825-.303-1.283-.474-.923-.33-1.958-.747-3.164-1.01-2.355-.695-5.283-1.085-8.497-1.027a27.702 27.702 0 00-10.149 2.19c-.438.153-.83.395-1.244.59-.402.214-.824.387-1.202.629-.761.476-1.536.91-2.209 1.46-.719.491-1.322 1.088-1.94 1.646-.547.614-1.132 1.193-1.532 1.863-1.733 2.667-2.708 5.506-2.749 7.919-.059 2.432.649 4.358 1.145 5.634.264.638.482 1.131.642 1.46l.237.504-.282-.482a23.89 23.89 0 01-.762-1.409c-.596-1.24-1.468-3.144-1.56-5.706-.1-2.558.768-5.57 2.505-8.451.907-1.458 2.162-2.758 3.622-3.862.704-.593 1.51-1.061 2.308-1.57.397-.257.837-.443 1.258-.668.431-.206.845-.46 1.302-.621a26.516 26.516 0 0110.6-2.104c3.333.05 6.315.603 8.672 1.45 1.207.34 2.23.83 3.138 1.227.452.205.881.374 1.256.569l1.01.57 1.873 1.069z" fill="#fff"/><path d="M264.188 341.371s29.675-12.304 66.55-26.772c5.527-2.156 10.897-4.249 15.979-6.23l14.428-5.56 6.813 2.141 21.798-8.335 8.128-3.067-8.023 3.33-21.867 8.957-6.808-2.005-14.046 5.613-15.952 6.3c-36.875 14.469-67 25.628-67 25.628z" fill="#6BC1DB"/><path d="M279.623 99.964c-3.035 3.258-5.663 6.367-6.034 8.44-.37 2.072 1.555 8.291 1.555 8.291s-3.109 1.258-3.924 3.997c-.814 2.739 1.851 13.918 1.851 13.918s1.843-8.209 3.146-13.214c1.406-5.404 3.183-11.549 3.554-13.437.37-1.887.889-5.478-.148-7.995z" fill="#615275"/><path d="M278.994 98.261c5.127.149 10.623-2.683 13.399-6.792 0 0 .768 4.473-1.722 8.716-3.386 5.775-11.104 8.662-11.104 8.662s1.296-6.403-.573-10.586zM276.292 82.308l-.268.217a3.733 3.733 0 01-.83.482c-.199.074-.425.157-.724.158a1.246 1.246 0 01-.977-.429c-.271-.321-.357-.701-.386-1.032a3.719 3.719 0 01.059-.972c.249-1.24.809-2.161 1.223-2.817.425-.65.737-1.028.737-1.028s-.027.495-.166 1.254c-.126.756-.382 1.782-.585 2.815-.1.502-.126.997-.05 1.16.003.17.396.298.749.29.352.002.665-.033.879-.059l.339-.039z" fill="#E28282"/><path d="M279.734 80.415c.629 0 1.138-1.041 1.138-2.326 0-1.285-.509-2.327-1.138-2.327-.628 0-1.138 1.042-1.138 2.327s.51 2.326 1.138 2.326zM268.158 78.005c0 1.284-.51 2.326-1.138 2.326-.628 0-1.138-1.042-1.138-2.326 0-1.285.51-2.327 1.138-2.327.628 0 1.138 1.041 1.138 2.327z" fill="#888EB0"/><path d="M286.619 71.37l-.42-.252c-.271-.155-.601-.423-1.067-.655-.882-.533-2.06-1.07-3.367-1.474-1.3-.438-2.601-.696-3.626-.855a21.901 21.901 0 00-1.725-.195s.518-.497 1.581-.923c1.039-.413 2.709-.75 4.461-.173 1.762.55 2.953 1.84 3.484 2.834.311.476.433.937.54 1.229.099.298.139.464.139.464zM273.238 72.093l-.422-.068-1.085-.209c-.895-.18-2.069-.425-3.298-.878-1.231-.452-2.307-1.047-3.095-1.536-.787-.486-1.28-.864-1.28-.864s.598-.176 1.552-.23c.95-.05 2.262.023 3.601.515a8.312 8.312 0 013.073 2.012c.335.349.575.663.726.897.154.227.228.36.228.36z" fill="#4A4D79"/><path d="M285.527 85.788s-.185 3.331-3.258 4.923c-3.699 1.916-6.625-.222-6.736-1.11-.111-.888 1.023-1.68 3.664-2.703 2.777-1.073 6.33-1.11 6.33-1.11z" fill="#964473"/><path d="M284.934 86.325s-.203 1.11-2.832 2.332c-2.755 1.28-5.108.907-5.829.295 0 0 1.509-1.11 4.035-1.814 2.294-.637 4.626-.813 4.626-.813z" fill="#EDEDED"/><path d="M275.744 83.389c2.623-.44 4.989-.235 6.69.408.84.3 1.466.772 1.82 1.141.343.416.432.715.31.869-.124.158-.44.172-.852.115-.444-.02-.993-.121-1.723-.133-1.415-.058-3.526.071-5.704.436l-.541-2.836zM275.845 86.392a8.996 8.996 0 00-.769.55 10.611 10.611 0 00-1.813 1.832c-.588.745-.941 1.385-1.357 1.363-.369-.008-.779-.8-.532-2.138.122-.658.433-1.411.933-2.13.253-.355.545-.71.886-1.038.36-.337.681-.619 1.215-.943l1.437 2.504z" fill="#4A4D79"/><path d="M292.171 88.158a1.438 1.438 0 01-.561-1.966c1.404-2.495 5.41-7.718 5.669-7.845.473-.231 2.882 2.115 2.878 2.565-.003.416-4.431 5.084-6.25 6.984a1.435 1.435 0 01-1.736.262z" fill="#EDEDED"/><path d="M192.08 119.044c7.082 0 12.824-5.741 12.824-12.823 0-7.082-5.742-12.823-12.824-12.823s-12.823 5.74-12.823 12.823c0 7.082 5.741 12.823 12.823 12.823z" fill="url(#paint15_linear)"/><path d="M192.08 119.044c7.082 0 12.824-5.741 12.824-12.823 0-7.082-5.742-12.823-12.824-12.823s-12.823 5.74-12.823 12.823c0 7.082 5.741 12.823 12.823 12.823z" stroke="#1EFAA9" stroke-miterlimit="10"/><path d="M198.451 103.962h-3.579v-3.795a1.41 1.41 0 00-1.41-1.41h-2.341c-.778 0-1.41.63-1.41 1.41v3.795h-3.581a1.41 1.41 0 00-1.41 1.41v2.245a1.41 1.41 0 001.41 1.409h3.581v3.844c0 .778.631 1.41 1.41 1.41h2.341a1.41 1.41 0 001.41-1.41v-3.844h3.579c.778 0 1.409-.63 1.409-1.409v-2.245a1.41 1.41 0 00-1.409-1.41z" fill="#308787"/><path d="M191.939 93.061l-.675.34c-.427.223-1.064.454-1.776.892-1.466.764-3.3 1.979-5.033 3.599-3.53 3.154-5.582 6.976-5.582 6.976s-.015-.271.033-.758c.042-.488.149-1.19.387-2.04.466-1.681 1.528-4.019 3.594-5.888 2.037-1.9 4.5-2.754 6.232-2.989.861-.182 1.587-.134 2.069-.148l.751.016z" fill="#ADFDFF"/><path d="M205.82 97.238s-6.166-.549-6.555-.216c-.389.334-.164 1.527 1.166 2.394 2.091 1.364 7.273 1.289 7.273 1.289l-1.884-3.467z" fill="#F1A7A7"/><path d="M200.227 96.929s5.886-.444 8.106.296c0 0-3.812.481-8.106-.296z" fill="#FFA0D4"/><path d="M263.411 72.648l30.87.37.037.851-30.87-.296-.037-.925z" fill="#4A4D79"/><path d="M294.799 81.494l2.591 2.629-1.148 1.257-2.479-2.59 1.036-1.296z" fill="#C2AED6"/><path d="M268.699 53.86l-.163.424-.094.424c-.056.274-.119.53-.158.77-.013.493-.055.91-.027 1.25l.152 1.04.029-1.038c.027-.33.131-.728.206-1.183.069-.222.164-.454.249-.7l.135-.38c.066-.12.133-.246.202-.374.997-2.119 3.604-4.212 6.88-5.58.346-.144.692-.274 1.037-.401l-2.352-.264c-3.047 1.48-5.376 3.806-6.096 6.012z" fill="#6255AC"/><path d="M273.071 134.61c-1.998 4.997-4.404 11.548 2.961 20.432 0 0-2.795-8.495-3.183-14.325-.152-2.278.222-6.107.222-6.107z" fill="#321F18"/><path d="M315.582 171.087l1.481 5.645-2.184.518-1.277-5.552 1.98-.611z" fill="#4A4D79"/><path d="M300.684 95.004l.774-.235c.499-.154 1.21-.436 2.053-.874a13.92 13.92 0 002.734-1.986 14.52 14.52 0 001.396-1.496c.229-.277.451-.569.663-.875.11-.151.21-.31.315-.468l.157-.254.294-.514.508.007.34-.011a13.506 13.506 0 002.113-.282c1.757-.381 3.298-1.225 4.122-2.48.432-.636.724-1.311.648-1.86-.077-.547-.573-.984-1.072-1.289-1.032-.602-2.013-.92-2.66-1.162l-1.023-.36 1.071.185c.687.143 1.689.304 2.887.826.295.144.608.31.898.57.304.237.552.627.675 1.063.203.922-.166 1.795-.592 2.54-.904 1.608-2.761 2.686-4.701 3.097-.562.124-1.122.2-1.625.24-.252.017-.489.03-.707.032h-.16a.39.39 0 01-.09-.002l-.015-.007-.012.009-.167.246c-.122.167-.239.335-.365.491-.246.319-.502.617-.764.897a13.58 13.58 0 01-1.601 1.478 12.585 12.585 0 01-3.076 1.776c-.929.344-1.689.52-2.213.594l-.805.104z" fill="#837ABE"/><path d="M249.096 105.979c-.328.202-.502.422-.502.422s-.185-.104-.489-.245l.031.435c.105 1.446.276 3.48.546 5.83.443 3.861 1.15 8.592 2.261 12.976.117-.048.232-.102.347-.16.247.123.488.223.722.302-1.151-4.424-1.883-9.272-2.337-13.232a139.377 139.377 0 01-.579-6.328zM243.715 124.243c-1.013-4.242-1.362-8.59-1.439-12.075a71.524 71.524 0 01.09-5.524c-.247.205-.386.353-.386.353s-.257-.134-.62-.274l-.016.309a72.791 72.791 0 00-.068 5.158c.078 3.525.431 7.954 1.469 12.296.282-.068.572-.167.868-.304l.102.061zM294.444 144.723a24.947 24.947 0 016.013-.195c4.087.367 9.151 1.877 13.309 6.401a1.63 1.63 0 00.021-.292s.302-.087.723-.376c-4.373-4.764-9.703-6.347-13.963-6.729a25.983 25.983 0 00-6.336.216c.143.551.292.893.292.893s-.022.028-.059.082zM295.838 136.873c.327-.122.761-.275 1.175-.384a18.041 18.041 0 014.883-.566c3.958.076 9.293 1.427 14.842 6.547.088-.076.368-.332.663-.749-5.732-5.282-11.298-6.718-15.486-6.797a18.96 18.96 0 00-5.155.598c-.158.041-.306.083-.446.124.008.231.032.478.076.741 0 0-.231.15-.552.486z" fill="#474162"/><path d="M279.623 165.702l-2.336-6.211-1.151-3.148-.312-.864-.079-.221c-.036-.093 0-.02-.065-.113l-.288-.384-1.167-1.607c-1.568-2.219-3.238-4.703-4.744-7.48-.548-1.045-1.059-2.091-1.454-3.175-.395-1.117-.542-2.211-.692-3.258-.272-2.099-.381-4.04-.45-5.749-.13-3.4-.08-5.947-.031-6.837l-2.74-1.891 2.887 1.811c.086 1.042.229 3.469.519 6.877.15 1.694.331 3.62.649 5.667.169 1.016.342 2.086.709 3.074.384 1.009.885 2.023 1.421 3.043 1.476 2.721 3.085 5.222 4.571 7.475l1.103 1.636.269.392.096.136c.026.061.047.139.056.164l.07.224.274.877.989 3.202c1.169 3.925 1.896 6.36 1.896 6.36z" fill="#73FFCE"/><path d="M331.628 124.023l-.407-.264a10.65 10.65 0 00-1.232-.637c-.549-.252-1.242-.504-2.029-.888a6.055 6.055 0 01-2.307-1.92c-.675-.907-1.186-2.007-1.723-3.164l-1.672-3.701c-1.18-2.561-2.699-5.307-4.97-7.567a17.188 17.188 0 00-3.712-2.789c-1.319-.735-2.692-1.269-4.03-1.715-1.34-.444-2.653-.787-3.88-1.163-.621-.205-1.192-.36-1.785-.642-.56-.283-1.032-.603-1.488-.9-.903-.6-1.712-1.132-2.467-1.519a8.951 8.951 0 00-2.033-.764c-.151-.046-.274-.075-.426-.135-.012-.007-.023-.014-.034-.027-.006-.003-.029-.058.008-.095.032-.026.041-.02.041-.02l.012-.001c.017-.001.027 0 .035.001l.053.008.096.016.179.036.578.127c.31.073.474.11.474.11l-.482-.06-.586-.07a25.971 25.971 0 00-.179-.02l-.094-.007-.045-.002h-.014c-.007.024.002-.076-.013-.07a.186.186 0 00.044-.046c0-.005-.005-.007-.005-.007.102.028.259.058.402.086a8.787 8.787 0 012.146.608c.808.336 1.677.821 2.615 1.358.469.264.96.548 1.471.768.487.2 1.115.345 1.712.505 1.225.305 2.56.589 3.955.991 1.392.406 2.851.92 4.271 1.675a17.073 17.073 0 014.001 2.942c2.43 2.422 3.942 5.34 5.048 7.998l1.503 3.781c.471 1.176.906 2.269 1.47 3.143 1.104 1.813 2.927 2.345 3.942 2.978.531.298.926.562 1.179.758l.378.304z" fill="#9E7ABE"/><path d="M244.867 105.443l.217-.058a3.14 3.14 0 01.705-.103c.324-.017.748.003 1.248.143a5.019 5.019 0 011.536.726c.076-.059.135-.158.221-.237.14-.122.291-.25.48-.355a2.172 2.172 0 011.411-.283c.268.034.539.116.795.243.112.053.303.17.303.17.047.04.062-.003.159-.014l1.677-.342 3.848-.738 4.088-.72.17-.221c.095-.119.195-.233.295-.347.205-.22.413-.435.638-.629a7.819 7.819 0 011.433-1.009c1.018-.572 2.133-.808 3.119-.942 1.986-.263 3.844-.219 5.229-.127.364-.07.856-.251 1.241-.401.405-.156.783-.32 1.136-.472a68.563 68.563 0 001.79-.818c.97-.467 1.5-.72 1.5-.72s-.483.333-1.4.903c-.459.285-1.025.63-1.703 1.009-.34.188-.705.389-1.107.586-.419.201-.788.394-1.377.567-.823.01-1.554.05-2.433.118-.856.073-1.774.168-2.713.347-.95.177-1.886.417-2.732.924a7.057 7.057 0 00-1.214.891c-.192.168-.37.357-.545.547l-.248.296-.118.152-.213.314-.061.094-2.466.401-2.129.327-3.879.551-1.697.221-.299.041c-.053.004-.109.024-.157.015l-.126-.102c-.203-.167-.234-.177-.341-.249a1.929 1.929 0 00-.572-.235 1.656 1.656 0 00-1.07.104c-.16.065-.299.157-.431.245-.175.129-.337.302-.478.393a5.581 5.581 0 00-.514-.415 5.03 5.03 0 00-1.114-.59 3.885 3.885 0 00-1.179-.251c-.316-.019-.549 0-.699.022l-.224.028z" fill="#54C2BA"/><path d="M296.891 132.611l.054-.925c.029-.597.107-1.458.24-2.518.264-2.12.795-5.032 1.664-8.171 1.75-6.283 4.092-11.039 4.092-11.039l-3.105 11.314c-.862 3.112-1.634 5.931-2.149 7.99a84.65 84.65 0 00-.585 2.447l-.211.902z" fill="#616A81"/><path d="M292.655 170.935c-2.973-.413-5.432-1.611-7.247-.434-1.165.756-9.139 6.808-9.094 7.324.043.516 1.407.689 2.11.424 1.312-.496 6.974-4.552 6.974-4.552s-6.781 6.49-6.985 7.186c-.055.185 1.734.52 3.06-.342 1.575-1.022 7.108-5.438 7.108-5.438s-4.276 5.454-4.724 6.512c-.066.154 1.683.134 2.984-.775.717-.501 3.813-3.677 3.813-3.677l6.264-2.014c0 .001-1.29-3.801-4.263-4.214z" fill="#F1A7A7"/><path d="M285.9 170.625s-3.148-.124-3.968.341c-.82.465-1.705 3.625-1.705 3.625l5.673-3.966z" fill="#F1A7A7"/><path d="M276.292 178.001s.642-.826 1.736-2.116c.571-.645 1.157-1.406 2.008-2.238a35.3 35.3 0 012.955-2.15 23.912 23.912 0 011.633-.976c.274-.146.547-.285.837-.406.274-.129.654-.218.916-.248a14.462 14.462 0 013.015-.082c.855.071 1.538.215 1.992.367.455.154.68.288.68.288s-.251-.08-.713-.146c-.462-.065-1.137-.09-1.965-.045-.825.053-1.817.161-2.869.389a2.591 2.591 0 00-.714.247c-.241.118-.492.261-.745.411-.507.301-1.03.635-1.563.98-1.06.696-2.086 1.369-2.981 1.991-.79.666-1.537 1.41-2.16 1.948-1.252 1.121-2.062 1.786-2.062 1.786z" fill="#C3EDEB"/><path d="M290.69 171.734s-.648.212-1.696.51c-.519.152-1.158.318-1.816.525-.17.044-.268.117-.402.197-.138.106-.281.2-.425.327-.289.238-.588.501-.891.775a170.468 170.468 0 01-3.162 2.808l-.984.838c-.237.197-.358.312-.358.312s.084-.151.263-.399c.178-.252.443-.607.784-1.036.685-.855 1.662-2.007 2.911-3.135.313-.282.63-.546.959-.786.158-.124.342-.232.514-.34.194-.105.424-.204.61-.231.737-.147 1.374-.206 1.923-.26 1.09-.095 1.77-.105 1.77-.105z" fill="#FFA0D4"/></g><g id="ill-main-plus-4" class="mainImage-plus up"><path d="M22.296 258.409c6.302 0 11.412-5.11 11.412-11.412 0-6.303-5.11-11.412-11.412-11.412-6.303 0-11.412 5.109-11.412 11.412 0 6.302 5.11 11.412 11.412 11.412z" fill="url(#paint18_linear)"/><path d="M22.296 258.409c6.302 0 11.412-5.11 11.412-11.412 0-6.303-5.11-11.412-11.412-11.412-6.303 0-11.412 5.109-11.412 11.412 0 6.302 5.11 11.412 11.412 11.412z" stroke="#1EFAA9" stroke-miterlimit="10"/><path d="M27.965 244.987H24.78v-3.378c0-.693-.562-1.254-1.255-1.254h-2.083c-.693 0-1.254.561-1.254 1.254v3.378H17c-.692 0-1.254.561-1.254 1.254v1.997c0 .693.562 1.254 1.254 1.254h3.188v3.421c0 .693.561 1.255 1.254 1.255h2.083c.693 0 1.255-.562 1.255-1.255v-3.421h3.185c.693 0 1.255-.561 1.255-1.254v-1.997c0-.693-.562-1.254-1.255-1.254z" fill="#308787"/></g><g id="ill-main-plus-3" class="mainImage-plus down"><path d="M332.747 62.41c5.636 0 10.205-4.568 10.205-10.205 0-5.636-4.569-10.205-10.205-10.205s-10.205 4.57-10.205 10.205c0 5.637 4.569 10.206 10.205 10.206z" fill="url(#paint18_linear)"/><path d="M332.747 62.41c5.636 0 10.205-4.568 10.205-10.205 0-5.636-4.569-10.205-10.205-10.205s-10.205 4.57-10.205 10.205c0 5.637 4.569 10.206 10.205 10.206z" stroke="#1EFAA9" stroke-miterlimit="10"/><path d="M337.816 50.408h-2.848v-3.02c0-.62-.502-1.122-1.122-1.122h-1.863c-.619 0-1.122.502-1.122 1.122v3.02h-2.85c-.619 0-1.122.502-1.122 1.122v1.787c0 .619.502 1.122 1.122 1.122h2.85v3.06c0 .618.502 1.121 1.122 1.121h1.863c.619 0 1.122-.502 1.122-1.122v-3.06h2.848c.62 0 1.122-.501 1.122-1.121V51.53c0-.62-.502-1.122-1.122-1.122z" fill="#308787"/></g><g id="ill-main-plus-2" class="mainImage-plus up"><path d="M169.51 179.468c10.322 0 18.69-8.368 18.69-18.69 0-10.323-8.368-18.691-18.69-18.691-10.323 0-18.691 8.368-18.691 18.691 0 10.322 8.368 18.69 18.691 18.69z" fill="url(#paint18_linear)"/><path d="M169.51 179.468c10.322 0 18.69-8.368 18.69-18.69 0-10.323-8.368-18.691-18.69-18.691-10.323 0-18.691 8.368-18.691 18.691 0 10.322 8.368 18.69 18.691 18.69z" stroke="#1EFAA9" stroke-miterlimit="10"/><path d="M178.794 157.485h-5.217v-5.532a2.055 2.055 0 00-2.054-2.055h-3.413c-1.134 0-2.054.92-2.054 2.055v5.532h-5.22a2.054 2.054 0 00-2.055 2.054v3.272c0 1.135.919 2.055 2.055 2.055h5.22v5.603c0 1.134.919 2.054 2.054 2.054h3.413a2.054 2.054 0 002.054-2.054v-5.603h5.217c1.135 0 2.055-.92 2.055-2.055v-3.272a2.055 2.055 0 00-2.055-2.054z" fill="#308787"/><path d="M169.303 141.596l-1.002.414c-.636.278-1.584.551-2.655 1.131-2.198.993-5.015 2.68-7.611 5.106-1.342 1.17-2.441 2.474-3.451 3.666-.963 1.228-1.79 2.392-2.425 3.421-1.287 2.047-1.902 3.473-1.902 3.473s.011-.388.127-1.078c.107-.694.325-1.689.724-2.887.395-1.201 1.01-2.587 1.868-4.045.902-1.42 2.006-2.958 3.49-4.259.694-.7 1.507-1.228 2.253-1.775.76-.528 1.578-.909 2.317-1.318.767-.358 1.535-.616 2.231-.881.697-.269 1.4-.365 2.01-.522 1.22-.323 2.257-.318 2.948-.386l1.078-.06z" fill="#ADFDFF"/></g><g id="ill-main-plus-1" class="mainImage-plus down"><path d="M55.872 167.15c15.64 0 28.32-12.68 28.32-28.321 0-15.641-12.68-28.32-28.32-28.32-15.641 0-28.32 12.679-28.32 28.32s12.679 28.321 28.32 28.321z" fill="url(#paint19_linear)"/><path d="M55.872 167.15c15.64 0 28.32-12.68 28.32-28.321 0-15.641-12.68-28.32-28.32-28.32-15.641 0-28.32 12.679-28.32 28.32s12.679 28.321 28.32 28.321z" stroke="#1EFAA9" stroke-miterlimit="10"/><path d="M69.94 133.84h-7.905v-8.381a3.113 3.113 0 00-3.113-3.113h-5.169a3.113 3.113 0 00-3.113 3.113v8.381h-7.909a3.113 3.113 0 00-3.112 3.113v4.957a3.113 3.113 0 003.112 3.113h7.91v8.489a3.112 3.112 0 003.112 3.112h5.17a3.112 3.112 0 003.112-3.112v-8.489h7.905a3.113 3.113 0 003.112-3.113v-4.957a3.112 3.112 0 00-3.112-3.113z" fill="#308787"/><path d="M55.559 109.766l-1.537.535c-.977.367-2.437.71-4.098 1.523l-1.319.57c-.46.194-.939.385-1.4.667-.93.535-1.953 1.036-2.974 1.655l-1.523 1.024c-.511.356-1.073.661-1.559 1.094-.996.829-2.102 1.588-3.066 2.569-2.07 1.806-3.737 3.841-5.238 5.706-1.431 1.921-2.632 3.741-3.53 5.344-.906 1.597-1.57 2.946-1.985 3.896-.432.947-.626 1.494-.626 1.494s.052-.579.281-1.605c.215-1.031.613-2.506 1.28-4.278.659-1.775 1.647-3.818 2.973-5.968 1.395-2.093 3.066-4.363 5.278-6.3 1.034-1.045 2.238-1.837 3.342-2.665.54-.433 1.157-.729 1.727-1.069l1.694-.953c1.135-.558 2.27-.971 3.299-1.401.51-.23 1.036-.363 1.538-.497l1.439-.384c1.81-.556 3.358-.62 4.392-.777l1.612-.18z" fill="#ADFDFF"/></g><defs><linearGradient id="paint0_linear" x1="158.481" y1="121.136" x2="158.481" y2="49.403" gradientUnits="userSpaceOnUse"><stop stop-color="#64F0FF"/><stop offset="1" stop-color="#62EFFF" stop-opacity=".5"/></linearGradient><linearGradient id="paint1_linear" x1="281.955" y1="459.373" x2="281.955" y2="11.648" gradientUnits="userSpaceOnUse"><stop offset=".005" stop-color="#fff" stop-opacity=".8"/><stop offset="1" stop-color="#fff" stop-opacity="0"/></linearGradient><linearGradient id="paint2_linear" x1="463.494" y1="225.523" x2="696.253" y2="91.139" gradientUnits="userSpaceOnUse"><stop offset=".301" stop-color="#fff"/><stop offset=".898" stop-color="#fff" stop-opacity="0"/></linearGradient><linearGradient id="paint3_linear" x1="31.887" y1="360.175" x2="224.139" y2="360.175" gradientUnits="userSpaceOnUse"><stop offset=".092" stop-color="#5AC8DB"/><stop offset="1" stop-color="#4F88DF"/></linearGradient><linearGradient id="paint4_linear" x1="212.072" y1="163.777" x2="469.099" y2="163.777" gradientUnits="userSpaceOnUse"><stop offset=".001" stop-color="#3BBCB8"/><stop offset=".065" stop-color="#39A6B2"/><stop offset=".199" stop-color="#367CA7"/><stop offset=".304" stop-color="#3563A0"/><stop offset=".367" stop-color="#34599D"/><stop offset=".428" stop-color="#385EA3"/><stop offset=".512" stop-color="#436AB6"/><stop offset=".586" stop-color="#5179CB"/><stop offset=".803" stop-color="#9C96CD"/><stop offset=".995" stop-color="#E1B0CF"/></linearGradient><linearGradient id="paint5_linear" x1="230.135" y1="347.812" x2="230.135" y2="167.7" gradientUnits="userSpaceOnUse"><stop stop-color="#22A5D5"/><stop offset=".657" stop-color="#24DAD4"/><stop offset="1" stop-color="#0FFFDB"/></linearGradient><linearGradient id="paint6_linear" x1="322.501" y1="323.456" x2="322.501" y2="202.699" gradientUnits="userSpaceOnUse"><stop offset=".001" stop-color="#1075A4"/><stop offset=".883" stop-color="#0FA1B1"/></linearGradient><linearGradient id="paint7_linear" x1="351.364" y1="302.951" x2="351.364" y2="183.246" gradientUnits="userSpaceOnUse"><stop stop-color="#293851" stop-opacity="0"/><stop offset=".052" stop-color="#243F57" stop-opacity=".052"/><stop offset=".266" stop-color="#14586E" stop-opacity=".266"/><stop offset=".489" stop-color="#096A7E" stop-opacity=".489"/><stop offset=".726" stop-color="#027587" stop-opacity=".726"/><stop offset="1" stop-color="#00788A"/></linearGradient><linearGradient id="paint8_linear" x1="392.036" y1="211.646" x2="502.856" y2="211.646" gradientUnits="userSpaceOnUse"><stop offset=".082" stop-color="#355CA1"/><stop offset=".19" stop-color="#3C60A4"/><stop offset=".351" stop-color="#516AAD"/><stop offset=".546" stop-color="#727ABB"/><stop offset=".766" stop-color="#A192CE"/><stop offset="1" stop-color="#DAAEE6"/></linearGradient><linearGradient id="paint9_linear" x1="224.139" y1="322.716" x2="397.884" y2="322.716" gradientUnits="userSpaceOnUse"><stop offset=".004" stop-color="#5675CC"/><stop offset=".413" stop-color="#4693A2"/><stop offset=".63" stop-color="#568FA3"/><stop offset=".999" stop-color="#4862AB"/></linearGradient><linearGradient id="paint10_linear" x1="224.139" y1="316.202" x2="415.743" y2="316.202" gradientUnits="userSpaceOnUse"><stop offset=".099" stop-color="#394F8C"/><stop offset=".995" stop-color="#1C396B"/></linearGradient><linearGradient id="paint11_linear" x1="31.887" y1="381.296" x2="166.272" y2="381.296" gradientUnits="userSpaceOnUse"><stop stop-color="#4B8CD8"/><stop offset=".012" stop-color="#4A88D4"/><stop offset=".086" stop-color="#4475BE"/><stop offset=".174" stop-color="#3F66AD"/><stop offset=".283" stop-color="#3B5BA2"/><stop offset=".435" stop-color="#3A559B"/><stop offset=".86" stop-color="#395399"/></linearGradient><linearGradient id="paint12_linear" x1="230.266" y1="354.848" x2="230.266" y2="168" gradientUnits="userSpaceOnUse"><stop offset=".001" stop-color="#1075A4"/><stop offset=".883" stop-color="#0FA1B1"/></linearGradient><linearGradient id="paint13_linear" x1="351.628" y1="302.482" x2="351.628" y2="182.777" gradientUnits="userSpaceOnUse"><stop stop-color="#293851" stop-opacity="0"/><stop offset=".052" stop-color="#243F57" stop-opacity=".052"/><stop offset=".266" stop-color="#14586E" stop-opacity=".266"/><stop offset=".489" stop-color="#096A7E" stop-opacity=".489"/><stop offset=".726" stop-color="#027587" stop-opacity=".726"/><stop offset="1" stop-color="#00788A"/></linearGradient><linearGradient id="paint14_linear" x1="346.261" y1="91.822" x2="428.976" y2="91.822" gradientUnits="userSpaceOnUse"><stop stop-color="#F2C9F7"/><stop offset=".968" stop-color="#F49FCF"/></linearGradient><linearGradient id="paint15_linear" x1="192.081" y1="119.045" x2="192.081" y2="93.397" gradientUnits="userSpaceOnUse"><stop offset=".226" stop-color="#19FFA7"/><stop offset=".797" stop-color="#19FFA7" stop-opacity=".6"/></linearGradient><linearGradient id="paint16_linear" x1="22.296" y1="258.409" x2="22.296" y2="235.585" gradientUnits="userSpaceOnUse"><stop offset=".226" stop-color="#19FFA7"/><stop offset=".797" stop-color="#19FFA7" stop-opacity=".6"/></linearGradient><linearGradient id="paint17_linear" x1="332.747" y1="62.411" x2="332.747" y2="42" gradientUnits="userSpaceOnUse"><stop offset=".226" stop-color="#19FFA7"/><stop offset=".797" stop-color="#19FFA7" stop-opacity=".6"/></linearGradient><linearGradient id="paint18_linear" x1="169.51" y1="179.468" x2="169.51" y2="142.086" gradientUnits="userSpaceOnUse"><stop offset=".226" stop-color="#19FFA7"/><stop offset=".797" stop-color="#19FFA7" stop-opacity=".6"/></linearGradient><linearGradient id="paint19_linear" x1="55.872" y1="167.15" x2="55.872" y2="110.509" gradientUnits="userSpaceOnUse"><stop offset=".226" stop-color="#19FFA7"/><stop offset=".797" stop-color="#19FFA7" stop-opacity=".6"/></linearGradient></defs></svg>